G04*
G04 #@! TF.GenerationSoftware,Altium Limited,Altium Designer,21.4.1 (30)*
G04*
G04 Layer_Color=128*
%FSLAX44Y44*%
%MOMM*%
G71*
G04*
G04 #@! TF.SameCoordinates,2D73B175-FFCD-4784-8361-F00341A9FACE*
G04*
G04*
G04 #@! TF.FilePolarity,Positive*
G04*
G01*
G75*
%ADD41C,0.1000*%
%ADD83C,0.0508*%
D41*
X2300000Y0D02*
Y1252400D01*
X-0Y0D02*
X0Y1252400D01*
X-0D02*
X2300000D01*
X0Y0D02*
X2300000D01*
D83*
X20000Y1222400D02*
X40000D01*
X30000Y1212400D02*
Y1232400D01*
X20000Y50000D02*
X40000D01*
X30000Y40000D02*
Y60000D01*
X2260000Y30000D02*
X2280000D01*
X2270000Y20000D02*
Y40000D01*
X2260000Y1222400D02*
X2280000D01*
X2270000Y1212400D02*
Y1232400D01*
X754760Y293670D02*
X756760D01*
X755760Y292670D02*
Y294670D01*
X739740Y278690D02*
X741740D01*
X740740Y277690D02*
Y279690D01*
X676753Y293673D02*
X678753D01*
X677753Y292673D02*
Y294673D01*
X676710Y241650D02*
X678710D01*
X677710Y240650D02*
Y242650D01*
X739758Y262663D02*
X741758D01*
X740758Y261663D02*
Y263663D01*
X707730Y293680D02*
X709730D01*
X708730Y292680D02*
Y294680D01*
X723750Y293660D02*
X725750D01*
X724750Y292660D02*
Y294660D01*
X691690Y278690D02*
X693690D01*
X692690Y277690D02*
Y279690D01*
X691720Y262660D02*
X693720D01*
X692720Y261660D02*
Y263660D01*
X709720Y262660D02*
X711720D01*
X710720Y261660D02*
Y263660D01*
X721750Y262660D02*
X723750D01*
X722750Y261660D02*
Y263660D01*
X252800Y219500D02*
X254800D01*
X253800Y218500D02*
Y220500D01*
X247200Y223800D02*
X249200D01*
X248200Y222800D02*
Y224800D01*
X231000Y260700D02*
X233000D01*
X232000Y259700D02*
Y261700D01*
X482600Y286700D02*
X484600D01*
X483600Y285700D02*
Y287700D01*
X385713Y194208D02*
X387713D01*
X386713Y193208D02*
Y195208D01*
X341000Y189600D02*
X343000D01*
X342000Y188600D02*
Y190600D01*
X181574Y249480D02*
X183574D01*
X182574Y248480D02*
Y250480D01*
X296419Y262099D02*
X298419D01*
X297419Y261099D02*
Y263099D01*
X195300Y235300D02*
X197300D01*
X196300Y234300D02*
Y236300D01*
X295700Y231900D02*
X297700D01*
X296700Y230900D02*
Y232900D01*
X257400Y260500D02*
X259400D01*
X258400Y259500D02*
Y261500D01*
X240300Y254100D02*
X242300D01*
X241300Y253100D02*
Y255100D01*
X295500Y223800D02*
X297500D01*
X296500Y222800D02*
Y224800D01*
X566500Y206500D02*
X568500D01*
X567500Y205500D02*
Y207500D01*
X524132Y207710D02*
X526132D01*
X525131Y206710D02*
Y208710D01*
X457600Y228900D02*
X459600D01*
X458600Y227900D02*
Y229900D01*
X523900Y219200D02*
X525900D01*
X524900Y218200D02*
Y220200D01*
X527700Y226400D02*
X529700D01*
X528700Y225400D02*
Y227400D01*
X478800Y202600D02*
X480800D01*
X479800Y201600D02*
Y203600D01*
X456400Y197100D02*
X458400D01*
X457400Y196100D02*
Y198100D01*
X579800Y199700D02*
X581800D01*
X580800Y198700D02*
Y200700D01*
X590900Y187300D02*
X592900D01*
X591900Y186300D02*
Y188300D01*
X578700Y189600D02*
X580700D01*
X579700Y188600D02*
Y190600D01*
X449900Y222400D02*
X451900D01*
X450900Y221400D02*
Y223400D01*
X448100Y212300D02*
X450100D01*
X449100Y211300D02*
Y213300D01*
X460200Y201500D02*
X462200D01*
X461200Y200500D02*
Y202500D01*
X439200Y240100D02*
X441200D01*
X440200Y239100D02*
Y241100D01*
X421305Y245016D02*
X423305D01*
X422305Y244016D02*
Y246016D01*
X386875Y248000D02*
X388875D01*
X387875Y247000D02*
Y249000D01*
X450100Y250500D02*
X452100D01*
X451100Y249500D02*
Y251500D01*
X559500Y274300D02*
X561500D01*
X560500Y273300D02*
Y275300D01*
X547100Y261100D02*
X549100D01*
X548100Y260100D02*
Y262100D01*
X505700Y226400D02*
X507700D01*
X506700Y225400D02*
Y227400D01*
X490900Y188700D02*
X492900D01*
X491900Y187700D02*
Y189700D01*
X372100Y248700D02*
X374100D01*
X373100Y247700D02*
Y249700D01*
X354418Y240575D02*
X356418D01*
X355418Y239575D02*
Y241575D01*
X420600Y194900D02*
X422600D01*
X421600Y193900D02*
Y195900D01*
X503700Y250100D02*
X505700D01*
X504700Y249100D02*
Y251100D01*
X529300Y236200D02*
X531300D01*
X530300Y235200D02*
Y237200D01*
X532900Y228200D02*
X534900D01*
X533900Y227200D02*
Y229200D01*
X219000Y277000D02*
X221000D01*
X220000Y276000D02*
Y278000D01*
X437700Y276900D02*
X439700D01*
X438700Y275900D02*
Y277900D01*
X450400Y276900D02*
X452400D01*
X451400Y275900D02*
Y277900D01*
X399600Y276900D02*
X401600D01*
X400600Y275900D02*
Y277900D01*
X412300Y276900D02*
X414300D01*
X413300Y275900D02*
Y277900D01*
X425000Y276900D02*
X427000D01*
X426000Y275900D02*
Y277900D01*
X491600Y245700D02*
X493600D01*
X492600Y244700D02*
Y246700D01*
X463400Y236600D02*
X465400D01*
X464400Y235600D02*
Y237600D01*
X600400Y223300D02*
X602400D01*
X601400Y222300D02*
Y224300D01*
X356800Y251400D02*
X358800D01*
X357800Y250400D02*
Y252400D01*
X341000Y251800D02*
X343000D01*
X342000Y250800D02*
Y252800D01*
X410496Y244596D02*
X412496D01*
X411496Y243596D02*
Y245596D01*
X383600Y217700D02*
X385600D01*
X384600Y216700D02*
Y218700D01*
X369250Y228550D02*
X371250D01*
X370250Y227550D02*
Y229550D01*
X315750Y228550D02*
X317750D01*
X316750Y227550D02*
Y229550D01*
X574900Y193600D02*
X576900D01*
X575900Y192600D02*
Y194600D01*
X532900Y200300D02*
X534900D01*
X533900Y199300D02*
Y201300D01*
X201100Y216200D02*
X203100D01*
X202100Y215200D02*
Y217200D01*
X194400Y202100D02*
X196400D01*
X195400Y201100D02*
Y203100D01*
X166900Y189300D02*
X168900D01*
X167900Y188300D02*
Y190300D01*
X216400Y236200D02*
X218400D01*
X217400Y235200D02*
Y237200D01*
X254700Y286500D02*
X256700D01*
X255700Y285500D02*
Y287500D01*
X298900Y240500D02*
X300900D01*
X299900Y239500D02*
Y241500D01*
X364300Y272000D02*
X366300D01*
X365300Y271000D02*
Y273000D01*
X341500Y272300D02*
X343500D01*
X342500Y271300D02*
Y273300D01*
X317200Y272400D02*
X319200D01*
X318200Y271400D02*
Y273400D01*
X462000Y262900D02*
X464000D01*
X463000Y261900D02*
Y263900D01*
X469200Y250100D02*
X471200D01*
X470200Y249100D02*
Y251100D01*
X543800Y137900D02*
X545800D01*
X544800Y136900D02*
Y138900D01*
X543600Y159900D02*
X545600D01*
X544600Y158900D02*
Y160900D01*
X280000Y137100D02*
X282000D01*
X281000Y136100D02*
Y138100D01*
X279700Y159200D02*
X281700D01*
X280700Y158200D02*
Y160200D01*
X678700Y138100D02*
X680700D01*
X679700Y137100D02*
Y139100D01*
X679600Y160500D02*
X681600D01*
X680600Y159500D02*
Y161500D01*
X757900Y138500D02*
X759900D01*
X758900Y137500D02*
Y139500D01*
X758200Y160600D02*
X760200D01*
X759200Y159600D02*
Y161600D01*
X67800Y136300D02*
X69800D01*
X68800Y135300D02*
Y137300D01*
X68600Y161000D02*
X70600D01*
X69600Y160000D02*
Y162000D01*
X146600Y137900D02*
X148600D01*
X147600Y136900D02*
Y138900D01*
X146900Y160700D02*
X148900D01*
X147900Y159700D02*
Y161700D01*
X530200Y190200D02*
X532200D01*
X531200Y189200D02*
Y191200D01*
X438300Y229200D02*
X440300D01*
X439300Y228200D02*
Y230200D01*
X690800Y148700D02*
X692800D01*
X691800Y147700D02*
Y149700D01*
X748200Y148800D02*
X750200D01*
X749200Y147800D02*
Y149800D01*
X458300Y256500D02*
X460300D01*
X459300Y255500D02*
Y257500D01*
X475350Y222600D02*
X477350D01*
X476350Y221600D02*
Y223600D01*
X588310Y212910D02*
X590310D01*
X589310Y211910D02*
Y213910D01*
X589700Y208000D02*
X591700D01*
X590700Y207000D02*
Y209000D01*
X570400Y200100D02*
X572400D01*
X571400Y199100D02*
Y201100D01*
X622000Y193900D02*
X624000D01*
X623000Y192900D02*
Y194900D01*
X622400Y234300D02*
X624400D01*
X623400Y233300D02*
Y235300D01*
X622600Y239200D02*
X624600D01*
X623600Y238200D02*
Y240200D01*
X622600Y244220D02*
X624600D01*
X623600Y243220D02*
Y245220D01*
X622600Y249240D02*
X624600D01*
X623600Y248240D02*
Y250240D01*
X622600Y259280D02*
X624600D01*
X623600Y258280D02*
Y260280D01*
X622600Y264300D02*
X624600D01*
X623600Y263300D02*
Y265300D01*
X622600Y254260D02*
X624600D01*
X623600Y253260D02*
Y255260D01*
X620975Y179225D02*
X622975D01*
X621975Y178225D02*
Y180225D01*
X636000Y177100D02*
X638000D01*
X637000Y176100D02*
Y178100D01*
X475200Y216400D02*
X477200D01*
X476200Y215400D02*
Y217400D01*
X603200Y210000D02*
X605200D01*
X604200Y209000D02*
Y211000D01*
X302000Y148800D02*
X304000D01*
X303000Y147800D02*
Y149800D01*
X413500Y148800D02*
X415500D01*
X414500Y147800D02*
Y149800D01*
X525000Y148800D02*
X527000D01*
X526000Y147800D02*
Y149800D01*
X608400Y210100D02*
X610400D01*
X609400Y209100D02*
Y211100D01*
X608300Y193600D02*
X610300D01*
X609300Y192600D02*
Y194600D01*
X603200Y193600D02*
X605200D01*
X604200Y192600D02*
Y194600D01*
X386900Y276900D02*
X388900D01*
X387900Y275900D02*
Y277900D01*
X78900Y148800D02*
X80900D01*
X79900Y147800D02*
Y149800D01*
X137300Y148800D02*
X139300D01*
X138300Y147800D02*
Y149800D01*
X157100Y201300D02*
X159100D01*
X158100Y200300D02*
Y202300D01*
X663600Y188900D02*
X665600D01*
X664600Y187900D02*
Y189900D01*
X673700Y188900D02*
X675700D01*
X674700Y187900D02*
Y189900D01*
X622600Y294400D02*
X624600D01*
X623600Y293400D02*
Y295400D01*
X622600Y269300D02*
X624600D01*
X623600Y268300D02*
Y270300D01*
X622600Y274320D02*
X624600D01*
X623600Y273320D02*
Y275320D01*
X622600Y279340D02*
X624600D01*
X623600Y278340D02*
Y280340D01*
X622600Y284360D02*
X624600D01*
X623600Y283360D02*
Y285360D01*
X622600Y289380D02*
X624600D01*
X623600Y288380D02*
Y290380D01*
X655640Y228700D02*
X657640D01*
X656640Y227700D02*
Y229700D01*
X629700Y228700D02*
X631700D01*
X630700Y227700D02*
Y229700D01*
X634888Y228700D02*
X636888D01*
X635888Y227700D02*
Y229700D01*
X640076Y228700D02*
X642076D01*
X641076Y227700D02*
Y229700D01*
X645264Y228700D02*
X647264D01*
X646264Y227700D02*
Y229700D01*
X650452Y228700D02*
X652452D01*
X651452Y227700D02*
Y229700D01*
X660828Y228700D02*
X662828D01*
X661828Y227700D02*
Y229700D01*
X666016Y228700D02*
X668016D01*
X667016Y227700D02*
Y229700D01*
X671204Y228700D02*
X673204D01*
X672204Y227700D02*
Y229700D01*
X676392Y228700D02*
X678392D01*
X677392Y227700D02*
Y229700D01*
X681580Y228700D02*
X683580D01*
X682580Y227700D02*
Y229700D01*
X732091Y228000D02*
X734091D01*
X733091Y227000D02*
Y229000D01*
X706500Y228000D02*
X708500D01*
X707500Y227000D02*
Y229000D01*
X711618Y228000D02*
X713618D01*
X712618Y227000D02*
Y229000D01*
X716736Y228000D02*
X718736D01*
X717736Y227000D02*
Y229000D01*
X721854Y228000D02*
X723855D01*
X722855Y227000D02*
Y229000D01*
X726973Y228000D02*
X728973D01*
X727973Y227000D02*
Y229000D01*
X762800Y228000D02*
X764800D01*
X763800Y227000D02*
Y229000D01*
X737209Y228000D02*
X739209D01*
X738209Y227000D02*
Y229000D01*
X742327Y228000D02*
X744327D01*
X743327Y227000D02*
Y229000D01*
X747445Y228000D02*
X749445D01*
X748445Y227000D02*
Y229000D01*
X752563Y228000D02*
X754563D01*
X753563Y227000D02*
Y229000D01*
X757682Y228000D02*
X759681D01*
X758681Y227000D02*
Y229000D01*
X701100Y227600D02*
X703100D01*
X702100Y226600D02*
Y228600D01*
X684400Y199100D02*
X686400D01*
X685400Y198100D02*
Y200100D01*
X705600Y214800D02*
X707600D01*
X706600Y213800D02*
Y215800D01*
X705600Y222300D02*
X707600D01*
X706600Y221300D02*
Y223300D01*
X671100Y179100D02*
X673100D01*
X672100Y178100D02*
Y180100D01*
X704800Y194900D02*
X706800D01*
X705800Y193900D02*
Y195900D01*
X646600Y176000D02*
X648600D01*
X647600Y175000D02*
Y177000D01*
X686200Y224100D02*
X688200D01*
X687200Y223100D02*
Y225100D01*
X684400Y217100D02*
X686400D01*
X685400Y216100D02*
Y218100D01*
X684400Y208100D02*
X686400D01*
X685400Y207100D02*
Y209100D01*
X699300Y209600D02*
X701300D01*
X700300Y208600D02*
Y210600D01*
X625900Y203000D02*
X627900D01*
X626900Y202000D02*
Y204000D01*
X687700Y179900D02*
X689700D01*
X688700Y178900D02*
Y180900D01*
X695600Y187900D02*
X697600D01*
X696600Y186900D02*
Y188900D01*
X683600Y189800D02*
X685600D01*
X684600Y188800D02*
Y190800D01*
X699707Y201898D02*
X701707D01*
X700707Y200898D02*
Y202897D01*
X1490160Y293670D02*
X1492160D01*
X1491160Y292670D02*
Y294670D01*
X1475140Y278690D02*
X1477140D01*
X1476140Y277690D02*
Y279690D01*
X1412153Y293673D02*
X1414153D01*
X1413153Y292673D02*
Y294673D01*
X1412110Y241650D02*
X1414110D01*
X1413110Y240650D02*
Y242650D01*
X1475158Y262663D02*
X1477158D01*
X1476158Y261663D02*
Y263663D01*
X1443130Y293680D02*
X1445130D01*
X1444130Y292680D02*
Y294680D01*
X1459150Y293660D02*
X1461150D01*
X1460150Y292660D02*
Y294660D01*
X1427090Y278690D02*
X1429090D01*
X1428090Y277690D02*
Y279690D01*
X1427120Y262660D02*
X1429120D01*
X1428120Y261660D02*
Y263660D01*
X1445120Y262660D02*
X1447120D01*
X1446120Y261660D02*
Y263660D01*
X1457150Y262660D02*
X1459150D01*
X1458150Y261660D02*
Y263660D01*
X988200Y219500D02*
X990200D01*
X989200Y218500D02*
Y220500D01*
X982600Y223800D02*
X984600D01*
X983600Y222800D02*
Y224800D01*
X966400Y260700D02*
X968400D01*
X967400Y259700D02*
Y261700D01*
X1218000Y286700D02*
X1220000D01*
X1219000Y285700D02*
Y287700D01*
X1121113Y194208D02*
X1123113D01*
X1122113Y193208D02*
Y195208D01*
X1076400Y189600D02*
X1078400D01*
X1077400Y188600D02*
Y190600D01*
X916974Y249480D02*
X918974D01*
X917974Y248480D02*
Y250480D01*
X1031819Y262099D02*
X1033819D01*
X1032819Y261099D02*
Y263099D01*
X930700Y235300D02*
X932700D01*
X931700Y234300D02*
Y236300D01*
X1031100Y231900D02*
X1033100D01*
X1032100Y230900D02*
Y232900D01*
X992800Y260500D02*
X994800D01*
X993800Y259500D02*
Y261500D01*
X975700Y254100D02*
X977700D01*
X976700Y253100D02*
Y255100D01*
X1030900Y223800D02*
X1032900D01*
X1031900Y222800D02*
Y224800D01*
X1301900Y206500D02*
X1303900D01*
X1302900Y205500D02*
Y207500D01*
X1259531Y207710D02*
X1261532D01*
X1260531Y206710D02*
Y208710D01*
X1193000Y228900D02*
X1195000D01*
X1194000Y227900D02*
Y229900D01*
X1259300Y219200D02*
X1261300D01*
X1260300Y218200D02*
Y220200D01*
X1263100Y226400D02*
X1265100D01*
X1264100Y225400D02*
Y227400D01*
X1214200Y202600D02*
X1216200D01*
X1215200Y201600D02*
Y203600D01*
X1191800Y197100D02*
X1193800D01*
X1192800Y196100D02*
Y198100D01*
X1315200Y199700D02*
X1317200D01*
X1316200Y198700D02*
Y200700D01*
X1326300Y187300D02*
X1328300D01*
X1327300Y186300D02*
Y188300D01*
X1314100Y189600D02*
X1316100D01*
X1315100Y188600D02*
Y190600D01*
X1185300Y222400D02*
X1187300D01*
X1186300Y221400D02*
Y223400D01*
X1183500Y212300D02*
X1185500D01*
X1184500Y211300D02*
Y213300D01*
X1195600Y201500D02*
X1197600D01*
X1196600Y200500D02*
Y202500D01*
X1174600Y240100D02*
X1176600D01*
X1175600Y239100D02*
Y241100D01*
X1156705Y245016D02*
X1158705D01*
X1157705Y244016D02*
Y246016D01*
X1122275Y248000D02*
X1124275D01*
X1123275Y247000D02*
Y249000D01*
X1185500Y250500D02*
X1187500D01*
X1186500Y249500D02*
Y251500D01*
X1294900Y274300D02*
X1296900D01*
X1295900Y273300D02*
Y275300D01*
X1282500Y261100D02*
X1284500D01*
X1283500Y260100D02*
Y262100D01*
X1241100Y226400D02*
X1243100D01*
X1242100Y225400D02*
Y227400D01*
X1226300Y188700D02*
X1228300D01*
X1227300Y187700D02*
Y189700D01*
X1107500Y248700D02*
X1109500D01*
X1108500Y247700D02*
Y249700D01*
X1089818Y240575D02*
X1091818D01*
X1090818Y239575D02*
Y241575D01*
X1156000Y194900D02*
X1158000D01*
X1157000Y193900D02*
Y195900D01*
X1239100Y250100D02*
X1241100D01*
X1240100Y249100D02*
Y251100D01*
X1264700Y236200D02*
X1266700D01*
X1265700Y235200D02*
Y237200D01*
X1268300Y228200D02*
X1270300D01*
X1269300Y227200D02*
Y229200D01*
X954400Y277000D02*
X956400D01*
X955400Y276000D02*
Y278000D01*
X1173100Y276900D02*
X1175100D01*
X1174100Y275900D02*
Y277900D01*
X1185800Y276900D02*
X1187800D01*
X1186800Y275900D02*
Y277900D01*
X1135000Y276900D02*
X1137000D01*
X1136000Y275900D02*
Y277900D01*
X1147700Y276900D02*
X1149700D01*
X1148700Y275900D02*
Y277900D01*
X1160400Y276900D02*
X1162400D01*
X1161400Y275900D02*
Y277900D01*
X1227000Y245700D02*
X1229000D01*
X1228000Y244700D02*
Y246700D01*
X1198800Y236600D02*
X1200800D01*
X1199800Y235600D02*
Y237600D01*
X1335800Y223300D02*
X1337800D01*
X1336800Y222300D02*
Y224300D01*
X1092200Y251400D02*
X1094200D01*
X1093200Y250400D02*
Y252400D01*
X1076400Y251800D02*
X1078400D01*
X1077400Y250800D02*
Y252800D01*
X1145896Y244596D02*
X1147896D01*
X1146896Y243596D02*
Y245596D01*
X1119000Y217700D02*
X1121000D01*
X1120000Y216700D02*
Y218700D01*
X1104650Y228550D02*
X1106650D01*
X1105650Y227550D02*
Y229550D01*
X1051150Y228550D02*
X1053150D01*
X1052150Y227550D02*
Y229550D01*
X1310300Y193600D02*
X1312300D01*
X1311300Y192600D02*
Y194600D01*
X1268300Y200300D02*
X1270300D01*
X1269300Y199300D02*
Y201300D01*
X936500Y216200D02*
X938500D01*
X937500Y215200D02*
Y217200D01*
X929800Y202100D02*
X931800D01*
X930800Y201100D02*
Y203100D01*
X902300Y189300D02*
X904300D01*
X903300Y188300D02*
Y190300D01*
X951800Y236200D02*
X953800D01*
X952800Y235200D02*
Y237200D01*
X990100Y286500D02*
X992100D01*
X991100Y285500D02*
Y287500D01*
X1034300Y240500D02*
X1036300D01*
X1035300Y239500D02*
Y241500D01*
X1099700Y272000D02*
X1101700D01*
X1100700Y271000D02*
Y273000D01*
X1076900Y272300D02*
X1078900D01*
X1077900Y271300D02*
Y273300D01*
X1052600Y272400D02*
X1054600D01*
X1053600Y271400D02*
Y273400D01*
X1197400Y262900D02*
X1199400D01*
X1198400Y261900D02*
Y263900D01*
X1204600Y250100D02*
X1206600D01*
X1205600Y249100D02*
Y251100D01*
X1279200Y137900D02*
X1281200D01*
X1280200Y136900D02*
Y138900D01*
X1279000Y159900D02*
X1281000D01*
X1280000Y158900D02*
Y160900D01*
X1015400Y137100D02*
X1017400D01*
X1016400Y136100D02*
Y138100D01*
X1015100Y159200D02*
X1017100D01*
X1016100Y158200D02*
Y160200D01*
X1414100Y138100D02*
X1416100D01*
X1415100Y137100D02*
Y139100D01*
X1415000Y160500D02*
X1417000D01*
X1416000Y159500D02*
Y161500D01*
X1493300Y138500D02*
X1495300D01*
X1494300Y137500D02*
Y139500D01*
X1493600Y160600D02*
X1495600D01*
X1494600Y159600D02*
Y161600D01*
X803200Y136300D02*
X805200D01*
X804200Y135300D02*
Y137300D01*
X804000Y161000D02*
X806000D01*
X805000Y160000D02*
Y162000D01*
X882000Y137900D02*
X884000D01*
X883000Y136900D02*
Y138900D01*
X882300Y160700D02*
X884300D01*
X883300Y159700D02*
Y161700D01*
X1265600Y190200D02*
X1267600D01*
X1266600Y189200D02*
Y191200D01*
X1173700Y229200D02*
X1175700D01*
X1174700Y228200D02*
Y230200D01*
X1426200Y148700D02*
X1428200D01*
X1427200Y147700D02*
Y149700D01*
X1483600Y148800D02*
X1485600D01*
X1484600Y147800D02*
Y149800D01*
X1193700Y256500D02*
X1195700D01*
X1194700Y255500D02*
Y257500D01*
X1210750Y222600D02*
X1212750D01*
X1211750Y221600D02*
Y223600D01*
X1323710Y212910D02*
X1325710D01*
X1324710Y211910D02*
Y213910D01*
X1325100Y208000D02*
X1327100D01*
X1326100Y207000D02*
Y209000D01*
X1305800Y200100D02*
X1307800D01*
X1306800Y199100D02*
Y201100D01*
X1357400Y193900D02*
X1359400D01*
X1358400Y192900D02*
Y194900D01*
X1357800Y234300D02*
X1359800D01*
X1358800Y233300D02*
Y235300D01*
X1358000Y239200D02*
X1360000D01*
X1359000Y238200D02*
Y240200D01*
X1358000Y244220D02*
X1360000D01*
X1359000Y243220D02*
Y245220D01*
X1358000Y249240D02*
X1360000D01*
X1359000Y248240D02*
Y250240D01*
X1358000Y259280D02*
X1360000D01*
X1359000Y258280D02*
Y260280D01*
X1358000Y264300D02*
X1360000D01*
X1359000Y263300D02*
Y265300D01*
X1358000Y254260D02*
X1360000D01*
X1359000Y253260D02*
Y255260D01*
X1356375Y179225D02*
X1358375D01*
X1357375Y178225D02*
Y180225D01*
X1371400Y177100D02*
X1373400D01*
X1372400Y176100D02*
Y178100D01*
X1210600Y216400D02*
X1212600D01*
X1211600Y215400D02*
Y217400D01*
X1338600Y210000D02*
X1340600D01*
X1339600Y209000D02*
Y211000D01*
X1037400Y148800D02*
X1039400D01*
X1038400Y147800D02*
Y149800D01*
X1148900Y148800D02*
X1150900D01*
X1149900Y147800D02*
Y149800D01*
X1260400Y148800D02*
X1262400D01*
X1261400Y147800D02*
Y149800D01*
X1343800Y210100D02*
X1345800D01*
X1344800Y209100D02*
Y211100D01*
X1343700Y193600D02*
X1345700D01*
X1344700Y192600D02*
Y194600D01*
X1338600Y193600D02*
X1340600D01*
X1339600Y192600D02*
Y194600D01*
X1122300Y276900D02*
X1124300D01*
X1123300Y275900D02*
Y277900D01*
X814300Y148800D02*
X816300D01*
X815300Y147800D02*
Y149800D01*
X872700Y148800D02*
X874700D01*
X873700Y147800D02*
Y149800D01*
X892500Y201300D02*
X894500D01*
X893500Y200300D02*
Y202300D01*
X1399000Y188900D02*
X1401000D01*
X1400000Y187900D02*
Y189900D01*
X1409100Y188900D02*
X1411100D01*
X1410100Y187900D02*
Y189900D01*
X1358000Y294400D02*
X1360000D01*
X1359000Y293400D02*
Y295400D01*
X1358000Y269300D02*
X1360000D01*
X1359000Y268300D02*
Y270300D01*
X1358000Y274320D02*
X1360000D01*
X1359000Y273320D02*
Y275320D01*
X1358000Y279340D02*
X1360000D01*
X1359000Y278340D02*
Y280340D01*
X1358000Y284360D02*
X1360000D01*
X1359000Y283360D02*
Y285360D01*
X1358000Y289380D02*
X1360000D01*
X1359000Y288380D02*
Y290380D01*
X1391040Y228700D02*
X1393040D01*
X1392040Y227700D02*
Y229700D01*
X1365100Y228700D02*
X1367100D01*
X1366100Y227700D02*
Y229700D01*
X1370288Y228700D02*
X1372288D01*
X1371288Y227700D02*
Y229700D01*
X1375476Y228700D02*
X1377476D01*
X1376476Y227700D02*
Y229700D01*
X1380664Y228700D02*
X1382664D01*
X1381664Y227700D02*
Y229700D01*
X1385852Y228700D02*
X1387852D01*
X1386852Y227700D02*
Y229700D01*
X1396228Y228700D02*
X1398228D01*
X1397228Y227700D02*
Y229700D01*
X1401416Y228700D02*
X1403416D01*
X1402416Y227700D02*
Y229700D01*
X1406604Y228700D02*
X1408604D01*
X1407604Y227700D02*
Y229700D01*
X1411792Y228700D02*
X1413792D01*
X1412792Y227700D02*
Y229700D01*
X1416980Y228700D02*
X1418980D01*
X1417980Y227700D02*
Y229700D01*
X1467491Y228000D02*
X1469491D01*
X1468491Y227000D02*
Y229000D01*
X1441900Y228000D02*
X1443900D01*
X1442900Y227000D02*
Y229000D01*
X1447018Y228000D02*
X1449018D01*
X1448018Y227000D02*
Y229000D01*
X1452136Y228000D02*
X1454136D01*
X1453136Y227000D02*
Y229000D01*
X1457254Y228000D02*
X1459254D01*
X1458255Y227000D02*
Y229000D01*
X1462373Y228000D02*
X1464373D01*
X1463373Y227000D02*
Y229000D01*
X1498200Y228000D02*
X1500200D01*
X1499200Y227000D02*
Y229000D01*
X1472609Y228000D02*
X1474609D01*
X1473609Y227000D02*
Y229000D01*
X1477727Y228000D02*
X1479727D01*
X1478727Y227000D02*
Y229000D01*
X1482845Y228000D02*
X1484845D01*
X1483845Y227000D02*
Y229000D01*
X1487963Y228000D02*
X1489963D01*
X1488963Y227000D02*
Y229000D01*
X1493082Y228000D02*
X1495081D01*
X1494082Y227000D02*
Y229000D01*
X1436500Y227600D02*
X1438500D01*
X1437500Y226600D02*
Y228600D01*
X1419800Y199100D02*
X1421800D01*
X1420800Y198100D02*
Y200100D01*
X1441000Y214800D02*
X1443000D01*
X1442000Y213800D02*
Y215800D01*
X1441000Y222300D02*
X1443000D01*
X1442000Y221300D02*
Y223300D01*
X1406500Y179100D02*
X1408500D01*
X1407500Y178100D02*
Y180100D01*
X1440200Y194900D02*
X1442200D01*
X1441200Y193900D02*
Y195900D01*
X1382000Y176000D02*
X1384000D01*
X1383000Y175000D02*
Y177000D01*
X1421600Y224100D02*
X1423600D01*
X1422600Y223100D02*
Y225100D01*
X1419800Y217100D02*
X1421800D01*
X1420800Y216100D02*
Y218100D01*
X1419800Y208100D02*
X1421800D01*
X1420800Y207100D02*
Y209100D01*
X1434700Y209600D02*
X1436700D01*
X1435700Y208600D02*
Y210600D01*
X1361300Y203000D02*
X1363300D01*
X1362300Y202000D02*
Y204000D01*
X1423100Y179900D02*
X1425100D01*
X1424100Y178900D02*
Y180900D01*
X1431000Y187900D02*
X1433000D01*
X1432000Y186900D02*
Y188900D01*
X1419000Y189800D02*
X1421000D01*
X1420000Y188800D02*
Y190800D01*
X1435107Y201898D02*
X1437107D01*
X1436107Y200898D02*
Y202897D01*
X2225560Y293670D02*
X2227560D01*
X2226560Y292670D02*
Y294670D01*
X2210540Y278690D02*
X2212540D01*
X2211540Y277690D02*
Y279690D01*
X2147553Y293673D02*
X2149553D01*
X2148553Y292673D02*
Y294673D01*
X2147510Y241650D02*
X2149510D01*
X2148510Y240650D02*
Y242650D01*
X2210558Y262663D02*
X2212558D01*
X2211558Y261663D02*
Y263663D01*
X2178530Y293680D02*
X2180530D01*
X2179530Y292680D02*
Y294680D01*
X2194550Y293660D02*
X2196550D01*
X2195550Y292660D02*
Y294660D01*
X2162490Y278690D02*
X2164490D01*
X2163490Y277690D02*
Y279690D01*
X2162520Y262660D02*
X2164520D01*
X2163520Y261660D02*
Y263660D01*
X2180520Y262660D02*
X2182520D01*
X2181520Y261660D02*
Y263660D01*
X2192550Y262660D02*
X2194550D01*
X2193550Y261660D02*
Y263660D01*
X1723600Y219500D02*
X1725600D01*
X1724600Y218500D02*
Y220500D01*
X1718000Y223800D02*
X1720000D01*
X1719000Y222800D02*
Y224800D01*
X1701800Y260700D02*
X1703800D01*
X1702800Y259700D02*
Y261700D01*
X1953400Y286700D02*
X1955400D01*
X1954400Y285700D02*
Y287700D01*
X1856513Y194208D02*
X1858513D01*
X1857513Y193208D02*
Y195208D01*
X1811800Y189600D02*
X1813800D01*
X1812800Y188600D02*
Y190600D01*
X1652374Y249480D02*
X1654374D01*
X1653374Y248480D02*
Y250480D01*
X1767219Y262099D02*
X1769219D01*
X1768219Y261099D02*
Y263099D01*
X1666100Y235300D02*
X1668100D01*
X1667100Y234300D02*
Y236300D01*
X1766500Y231900D02*
X1768500D01*
X1767500Y230900D02*
Y232900D01*
X1728200Y260500D02*
X1730200D01*
X1729200Y259500D02*
Y261500D01*
X1711100Y254100D02*
X1713100D01*
X1712100Y253100D02*
Y255100D01*
X1766300Y223800D02*
X1768300D01*
X1767300Y222800D02*
Y224800D01*
X2037300Y206500D02*
X2039300D01*
X2038300Y205500D02*
Y207500D01*
X1994931Y207710D02*
X1996931D01*
X1995932Y206710D02*
Y208710D01*
X1928400Y228900D02*
X1930400D01*
X1929400Y227900D02*
Y229900D01*
X1994700Y219200D02*
X1996700D01*
X1995700Y218200D02*
Y220200D01*
X1998500Y226400D02*
X2000500D01*
X1999500Y225400D02*
Y227400D01*
X1949600Y202600D02*
X1951600D01*
X1950600Y201600D02*
Y203600D01*
X1927200Y197100D02*
X1929200D01*
X1928200Y196100D02*
Y198100D01*
X2050600Y199700D02*
X2052600D01*
X2051600Y198700D02*
Y200700D01*
X2061700Y187300D02*
X2063700D01*
X2062700Y186300D02*
Y188300D01*
X2049500Y189600D02*
X2051500D01*
X2050500Y188600D02*
Y190600D01*
X1920700Y222400D02*
X1922700D01*
X1921700Y221400D02*
Y223400D01*
X1918900Y212300D02*
X1920900D01*
X1919900Y211300D02*
Y213300D01*
X1931000Y201500D02*
X1933000D01*
X1932000Y200500D02*
Y202500D01*
X1910000Y240100D02*
X1912000D01*
X1911000Y239100D02*
Y241100D01*
X1892105Y245016D02*
X1894105D01*
X1893105Y244016D02*
Y246016D01*
X1857675Y248000D02*
X1859675D01*
X1858675Y247000D02*
Y249000D01*
X1920900Y250500D02*
X1922900D01*
X1921900Y249500D02*
Y251500D01*
X2030300Y274300D02*
X2032300D01*
X2031300Y273300D02*
Y275300D01*
X2017900Y261100D02*
X2019900D01*
X2018900Y260100D02*
Y262100D01*
X1976500Y226400D02*
X1978500D01*
X1977500Y225400D02*
Y227400D01*
X1961700Y188700D02*
X1963700D01*
X1962700Y187700D02*
Y189700D01*
X1842900Y248700D02*
X1844900D01*
X1843900Y247700D02*
Y249700D01*
X1825218Y240575D02*
X1827218D01*
X1826218Y239575D02*
Y241575D01*
X1891400Y194900D02*
X1893400D01*
X1892400Y193900D02*
Y195900D01*
X1974500Y250100D02*
X1976500D01*
X1975500Y249100D02*
Y251100D01*
X2000100Y236200D02*
X2002100D01*
X2001100Y235200D02*
Y237200D01*
X2003700Y228200D02*
X2005700D01*
X2004700Y227200D02*
Y229200D01*
X1689800Y277000D02*
X1691800D01*
X1690800Y276000D02*
Y278000D01*
X1908500Y276900D02*
X1910500D01*
X1909500Y275900D02*
Y277900D01*
X1921200Y276900D02*
X1923200D01*
X1922200Y275900D02*
Y277900D01*
X1870400Y276900D02*
X1872400D01*
X1871400Y275900D02*
Y277900D01*
X1883100Y276900D02*
X1885100D01*
X1884100Y275900D02*
Y277900D01*
X1895800Y276900D02*
X1897800D01*
X1896800Y275900D02*
Y277900D01*
X1962400Y245700D02*
X1964400D01*
X1963400Y244700D02*
Y246700D01*
X1934200Y236600D02*
X1936200D01*
X1935200Y235600D02*
Y237600D01*
X2071200Y223300D02*
X2073200D01*
X2072200Y222300D02*
Y224300D01*
X1827600Y251400D02*
X1829600D01*
X1828600Y250400D02*
Y252400D01*
X1811800Y251800D02*
X1813800D01*
X1812800Y250800D02*
Y252800D01*
X1881296Y244596D02*
X1883296D01*
X1882296Y243596D02*
Y245596D01*
X1854400Y217700D02*
X1856400D01*
X1855400Y216700D02*
Y218700D01*
X1840050Y228550D02*
X1842050D01*
X1841050Y227550D02*
Y229550D01*
X1786550Y228550D02*
X1788550D01*
X1787550Y227550D02*
Y229550D01*
X2045700Y193600D02*
X2047700D01*
X2046700Y192600D02*
Y194600D01*
X2003700Y200300D02*
X2005700D01*
X2004700Y199300D02*
Y201300D01*
X1671900Y216200D02*
X1673900D01*
X1672900Y215200D02*
Y217200D01*
X1665200Y202100D02*
X1667200D01*
X1666200Y201100D02*
Y203100D01*
X1637700Y189300D02*
X1639700D01*
X1638700Y188300D02*
Y190300D01*
X1687200Y236200D02*
X1689200D01*
X1688200Y235200D02*
Y237200D01*
X1725500Y286500D02*
X1727500D01*
X1726500Y285500D02*
Y287500D01*
X1769700Y240500D02*
X1771700D01*
X1770700Y239500D02*
Y241500D01*
X1835100Y272000D02*
X1837100D01*
X1836100Y271000D02*
Y273000D01*
X1812300Y272300D02*
X1814300D01*
X1813300Y271300D02*
Y273300D01*
X1788000Y272400D02*
X1790000D01*
X1789000Y271400D02*
Y273400D01*
X1932800Y262900D02*
X1934800D01*
X1933800Y261900D02*
Y263900D01*
X1940000Y250100D02*
X1942000D01*
X1941000Y249100D02*
Y251100D01*
X2014600Y137900D02*
X2016600D01*
X2015600Y136900D02*
Y138900D01*
X2014400Y159900D02*
X2016400D01*
X2015400Y158900D02*
Y160900D01*
X1750800Y137100D02*
X1752800D01*
X1751800Y136100D02*
Y138100D01*
X1750500Y159200D02*
X1752500D01*
X1751500Y158200D02*
Y160200D01*
X2149500Y138100D02*
X2151500D01*
X2150500Y137100D02*
Y139100D01*
X2150400Y160500D02*
X2152400D01*
X2151400Y159500D02*
Y161500D01*
X2228700Y138500D02*
X2230700D01*
X2229700Y137500D02*
Y139500D01*
X2229000Y160600D02*
X2231000D01*
X2230000Y159600D02*
Y161600D01*
X1538600Y136300D02*
X1540600D01*
X1539600Y135300D02*
Y137300D01*
X1539400Y161000D02*
X1541400D01*
X1540400Y160000D02*
Y162000D01*
X1617400Y137900D02*
X1619400D01*
X1618400Y136900D02*
Y138900D01*
X1617700Y160700D02*
X1619700D01*
X1618700Y159700D02*
Y161700D01*
X2001000Y190200D02*
X2003000D01*
X2002000Y189200D02*
Y191200D01*
X1909100Y229200D02*
X1911100D01*
X1910100Y228200D02*
Y230200D01*
X2161600Y148700D02*
X2163600D01*
X2162600Y147700D02*
Y149700D01*
X2219000Y148800D02*
X2221000D01*
X2220000Y147800D02*
Y149800D01*
X1929100Y256500D02*
X1931100D01*
X1930100Y255500D02*
Y257500D01*
X1946150Y222600D02*
X1948150D01*
X1947150Y221600D02*
Y223600D01*
X2059110Y212910D02*
X2061110D01*
X2060110Y211910D02*
Y213910D01*
X2060500Y208000D02*
X2062500D01*
X2061500Y207000D02*
Y209000D01*
X2041200Y200100D02*
X2043200D01*
X2042200Y199100D02*
Y201100D01*
X2092800Y193900D02*
X2094800D01*
X2093800Y192900D02*
Y194900D01*
X2093200Y234300D02*
X2095200D01*
X2094200Y233300D02*
Y235300D01*
X2093400Y239200D02*
X2095400D01*
X2094400Y238200D02*
Y240200D01*
X2093400Y244220D02*
X2095400D01*
X2094400Y243220D02*
Y245220D01*
X2093400Y249240D02*
X2095400D01*
X2094400Y248240D02*
Y250240D01*
X2093400Y259280D02*
X2095400D01*
X2094400Y258280D02*
Y260280D01*
X2093400Y264300D02*
X2095400D01*
X2094400Y263300D02*
Y265300D01*
X2093400Y254260D02*
X2095400D01*
X2094400Y253260D02*
Y255260D01*
X2091775Y179225D02*
X2093775D01*
X2092775Y178225D02*
Y180225D01*
X2106800Y177100D02*
X2108800D01*
X2107800Y176100D02*
Y178100D01*
X1946000Y216400D02*
X1948000D01*
X1947000Y215400D02*
Y217400D01*
X2074000Y210000D02*
X2076000D01*
X2075000Y209000D02*
Y211000D01*
X1772800Y148800D02*
X1774800D01*
X1773800Y147800D02*
Y149800D01*
X1884300Y148800D02*
X1886300D01*
X1885300Y147800D02*
Y149800D01*
X1995800Y148800D02*
X1997800D01*
X1996800Y147800D02*
Y149800D01*
X2079200Y210100D02*
X2081200D01*
X2080200Y209100D02*
Y211100D01*
X2079100Y193600D02*
X2081100D01*
X2080100Y192600D02*
Y194600D01*
X2074000Y193600D02*
X2076000D01*
X2075000Y192600D02*
Y194600D01*
X1857700Y276900D02*
X1859700D01*
X1858700Y275900D02*
Y277900D01*
X1549700Y148800D02*
X1551700D01*
X1550700Y147800D02*
Y149800D01*
X1608100Y148800D02*
X1610100D01*
X1609100Y147800D02*
Y149800D01*
X1627900Y201300D02*
X1629900D01*
X1628900Y200300D02*
Y202300D01*
X2134400Y188900D02*
X2136400D01*
X2135400Y187900D02*
Y189900D01*
X2144500Y188900D02*
X2146500D01*
X2145500Y187900D02*
Y189900D01*
X2093400Y294400D02*
X2095400D01*
X2094400Y293400D02*
Y295400D01*
X2093400Y269300D02*
X2095400D01*
X2094400Y268300D02*
Y270300D01*
X2093400Y274320D02*
X2095400D01*
X2094400Y273320D02*
Y275320D01*
X2093400Y279340D02*
X2095400D01*
X2094400Y278340D02*
Y280340D01*
X2093400Y284360D02*
X2095400D01*
X2094400Y283360D02*
Y285360D01*
X2093400Y289380D02*
X2095400D01*
X2094400Y288380D02*
Y290380D01*
X2126440Y228700D02*
X2128440D01*
X2127440Y227700D02*
Y229700D01*
X2100500Y228700D02*
X2102500D01*
X2101500Y227700D02*
Y229700D01*
X2105688Y228700D02*
X2107688D01*
X2106688Y227700D02*
Y229700D01*
X2110876Y228700D02*
X2112876D01*
X2111876Y227700D02*
Y229700D01*
X2116064Y228700D02*
X2118064D01*
X2117064Y227700D02*
Y229700D01*
X2121252Y228700D02*
X2123252D01*
X2122252Y227700D02*
Y229700D01*
X2131628Y228700D02*
X2133628D01*
X2132628Y227700D02*
Y229700D01*
X2136816Y228700D02*
X2138816D01*
X2137816Y227700D02*
Y229700D01*
X2142004Y228700D02*
X2144004D01*
X2143004Y227700D02*
Y229700D01*
X2147192Y228700D02*
X2149192D01*
X2148192Y227700D02*
Y229700D01*
X2152380Y228700D02*
X2154380D01*
X2153380Y227700D02*
Y229700D01*
X2202891Y228000D02*
X2204891D01*
X2203891Y227000D02*
Y229000D01*
X2177300Y228000D02*
X2179300D01*
X2178300Y227000D02*
Y229000D01*
X2182418Y228000D02*
X2184418D01*
X2183418Y227000D02*
Y229000D01*
X2187536Y228000D02*
X2189536D01*
X2188536Y227000D02*
Y229000D01*
X2192655Y228000D02*
X2194655D01*
X2193654Y227000D02*
Y229000D01*
X2197773Y228000D02*
X2199773D01*
X2198773Y227000D02*
Y229000D01*
X2233600Y228000D02*
X2235600D01*
X2234600Y227000D02*
Y229000D01*
X2208009Y228000D02*
X2210009D01*
X2209009Y227000D02*
Y229000D01*
X2213127Y228000D02*
X2215127D01*
X2214127Y227000D02*
Y229000D01*
X2218245Y228000D02*
X2220245D01*
X2219245Y227000D02*
Y229000D01*
X2223363Y228000D02*
X2225363D01*
X2224363Y227000D02*
Y229000D01*
X2228481Y228000D02*
X2230482D01*
X2229482Y227000D02*
Y229000D01*
X2171900Y227600D02*
X2173900D01*
X2172900Y226600D02*
Y228600D01*
X2155200Y199100D02*
X2157200D01*
X2156200Y198100D02*
Y200100D01*
X2176400Y214800D02*
X2178400D01*
X2177400Y213800D02*
Y215800D01*
X2176400Y222300D02*
X2178400D01*
X2177400Y221300D02*
Y223300D01*
X2141900Y179100D02*
X2143900D01*
X2142900Y178100D02*
Y180100D01*
X2175600Y194900D02*
X2177600D01*
X2176600Y193900D02*
Y195900D01*
X2117400Y176000D02*
X2119400D01*
X2118400Y175000D02*
Y177000D01*
X2157000Y224100D02*
X2159000D01*
X2158000Y223100D02*
Y225100D01*
X2155200Y217100D02*
X2157200D01*
X2156200Y216100D02*
Y218100D01*
X2155200Y208100D02*
X2157200D01*
X2156200Y207100D02*
Y209100D01*
X2170100Y209600D02*
X2172100D01*
X2171100Y208600D02*
Y210600D01*
X2096700Y203000D02*
X2098700D01*
X2097700Y202000D02*
Y204000D01*
X2158500Y179900D02*
X2160500D01*
X2159500Y178900D02*
Y180900D01*
X2166400Y187900D02*
X2168400D01*
X2167400Y186900D02*
Y188900D01*
X2154400Y189800D02*
X2156400D01*
X2155400Y188800D02*
Y190800D01*
X2170507Y201898D02*
X2172507D01*
X2171507Y200898D02*
Y202897D01*
X754760Y499041D02*
X756760D01*
X755760Y498041D02*
Y500041D01*
X739740Y484061D02*
X741740D01*
X740740Y483061D02*
Y485061D01*
X676753Y499045D02*
X678753D01*
X677753Y498045D02*
Y500045D01*
X676710Y447021D02*
X678710D01*
X677710Y446021D02*
Y448021D01*
X739758Y468035D02*
X741758D01*
X740758Y467034D02*
Y469035D01*
X707730Y499051D02*
X709730D01*
X708730Y498051D02*
Y500051D01*
X723750Y499031D02*
X725750D01*
X724750Y498031D02*
Y500031D01*
X691690Y484061D02*
X693690D01*
X692690Y483061D02*
Y485061D01*
X691720Y468031D02*
X693720D01*
X692720Y467031D02*
Y469031D01*
X709720Y468031D02*
X711720D01*
X710720Y467031D02*
Y469031D01*
X721750Y468031D02*
X723750D01*
X722750Y467031D02*
Y469031D01*
X252800Y424871D02*
X254800D01*
X253800Y423871D02*
Y425871D01*
X247200Y429171D02*
X249200D01*
X248200Y428171D02*
Y430171D01*
X231000Y466071D02*
X233000D01*
X232000Y465071D02*
Y467071D01*
X482600Y492071D02*
X484600D01*
X483600Y491071D02*
Y493071D01*
X385713Y399580D02*
X387713D01*
X386713Y398580D02*
Y400580D01*
X341000Y394971D02*
X343000D01*
X342000Y393971D02*
Y395971D01*
X181574Y454851D02*
X183574D01*
X182574Y453851D02*
Y455851D01*
X296419Y467471D02*
X298419D01*
X297419Y466471D02*
Y468471D01*
X195300Y440671D02*
X197300D01*
X196300Y439671D02*
Y441671D01*
X295700Y437271D02*
X297700D01*
X296700Y436271D02*
Y438271D01*
X257400Y465871D02*
X259400D01*
X258400Y464871D02*
Y466871D01*
X240300Y459471D02*
X242300D01*
X241300Y458471D02*
Y460471D01*
X295500Y429171D02*
X297500D01*
X296500Y428171D02*
Y430171D01*
X566500Y411871D02*
X568500D01*
X567500Y410871D02*
Y412871D01*
X524132Y413082D02*
X526132D01*
X525131Y412082D02*
Y414082D01*
X457600Y434271D02*
X459600D01*
X458600Y433271D02*
Y435271D01*
X523900Y424571D02*
X525900D01*
X524900Y423571D02*
Y425571D01*
X527700Y431771D02*
X529700D01*
X528700Y430771D02*
Y432771D01*
X478800Y407971D02*
X480800D01*
X479800Y406971D02*
Y408971D01*
X456400Y402471D02*
X458400D01*
X457400Y401471D02*
Y403471D01*
X579800Y405071D02*
X581800D01*
X580800Y404071D02*
Y406071D01*
X590900Y392671D02*
X592900D01*
X591900Y391671D02*
Y393671D01*
X578700Y394971D02*
X580700D01*
X579700Y393971D02*
Y395971D01*
X449900Y427771D02*
X451900D01*
X450900Y426771D02*
Y428771D01*
X448100Y417671D02*
X450100D01*
X449100Y416671D02*
Y418671D01*
X460200Y406871D02*
X462200D01*
X461200Y405871D02*
Y407871D01*
X439200Y445471D02*
X441200D01*
X440200Y444471D02*
Y446471D01*
X421305Y450387D02*
X423305D01*
X422305Y449387D02*
Y451387D01*
X386875Y453371D02*
X388875D01*
X387875Y452371D02*
Y454371D01*
X450100Y455871D02*
X452100D01*
X451100Y454871D02*
Y456871D01*
X559500Y479671D02*
X561500D01*
X560500Y478671D02*
Y480671D01*
X547100Y466471D02*
X549100D01*
X548100Y465471D02*
Y467471D01*
X505700Y431771D02*
X507700D01*
X506700Y430771D02*
Y432771D01*
X490900Y394071D02*
X492900D01*
X491900Y393071D02*
Y395071D01*
X372100Y454071D02*
X374100D01*
X373100Y453071D02*
Y455071D01*
X354418Y445947D02*
X356418D01*
X355418Y444947D02*
Y446947D01*
X420600Y400271D02*
X422600D01*
X421600Y399271D02*
Y401271D01*
X503700Y455471D02*
X505700D01*
X504700Y454471D02*
Y456471D01*
X529300Y441571D02*
X531300D01*
X530300Y440571D02*
Y442571D01*
X532900Y433571D02*
X534900D01*
X533900Y432571D02*
Y434571D01*
X219000Y482371D02*
X221000D01*
X220000Y481371D02*
Y483371D01*
X437700Y482271D02*
X439700D01*
X438700Y481271D02*
Y483271D01*
X450400Y482271D02*
X452400D01*
X451400Y481271D02*
Y483271D01*
X399600Y482271D02*
X401600D01*
X400600Y481271D02*
Y483271D01*
X412300Y482271D02*
X414300D01*
X413300Y481271D02*
Y483271D01*
X425000Y482271D02*
X427000D01*
X426000Y481271D02*
Y483271D01*
X491600Y451071D02*
X493600D01*
X492600Y450071D02*
Y452071D01*
X463400Y441971D02*
X465400D01*
X464400Y440971D02*
Y442971D01*
X600400Y428671D02*
X602400D01*
X601400Y427671D02*
Y429671D01*
X356800Y456771D02*
X358800D01*
X357800Y455771D02*
Y457771D01*
X341000Y457171D02*
X343000D01*
X342000Y456171D02*
Y458171D01*
X410496Y449967D02*
X412496D01*
X411496Y448967D02*
Y450967D01*
X383600Y423071D02*
X385600D01*
X384600Y422071D02*
Y424071D01*
X369250Y433921D02*
X371250D01*
X370250Y432921D02*
Y434921D01*
X315750Y433921D02*
X317750D01*
X316750Y432921D02*
Y434921D01*
X574900Y398971D02*
X576900D01*
X575900Y397971D02*
Y399971D01*
X532900Y405671D02*
X534900D01*
X533900Y404671D02*
Y406671D01*
X201100Y421571D02*
X203100D01*
X202100Y420571D02*
Y422571D01*
X194400Y407471D02*
X196400D01*
X195400Y406471D02*
Y408471D01*
X166900Y394671D02*
X168900D01*
X167900Y393671D02*
Y395671D01*
X216400Y441571D02*
X218400D01*
X217400Y440571D02*
Y442571D01*
X254700Y491871D02*
X256700D01*
X255700Y490871D02*
Y492871D01*
X298900Y445871D02*
X300900D01*
X299900Y444871D02*
Y446871D01*
X364300Y477371D02*
X366300D01*
X365300Y476371D02*
Y478371D01*
X341500Y477671D02*
X343500D01*
X342500Y476671D02*
Y478671D01*
X317200Y477771D02*
X319200D01*
X318200Y476771D02*
Y478771D01*
X462000Y468271D02*
X464000D01*
X463000Y467271D02*
Y469271D01*
X469200Y455471D02*
X471200D01*
X470200Y454471D02*
Y456471D01*
X543800Y343271D02*
X545800D01*
X544800Y342271D02*
Y344271D01*
X543600Y365271D02*
X545600D01*
X544600Y364271D02*
Y366271D01*
X280000Y342471D02*
X282000D01*
X281000Y341471D02*
Y343471D01*
X279700Y364571D02*
X281700D01*
X280700Y363571D02*
Y365571D01*
X678700Y343471D02*
X680700D01*
X679700Y342471D02*
Y344471D01*
X679600Y365871D02*
X681600D01*
X680600Y364871D02*
Y366871D01*
X757900Y343871D02*
X759900D01*
X758900Y342871D02*
Y344871D01*
X758200Y365971D02*
X760200D01*
X759200Y364971D02*
Y366971D01*
X67800Y341671D02*
X69800D01*
X68800Y340671D02*
Y342671D01*
X68600Y366371D02*
X70600D01*
X69600Y365371D02*
Y367371D01*
X146600Y343271D02*
X148600D01*
X147600Y342271D02*
Y344271D01*
X146900Y366071D02*
X148900D01*
X147900Y365071D02*
Y367071D01*
X530200Y395571D02*
X532200D01*
X531200Y394571D02*
Y396571D01*
X438300Y434571D02*
X440300D01*
X439300Y433571D02*
Y435571D01*
X690800Y354071D02*
X692800D01*
X691800Y353071D02*
Y355071D01*
X748200Y354171D02*
X750200D01*
X749200Y353171D02*
Y355171D01*
X458300Y461871D02*
X460300D01*
X459300Y460871D02*
Y462871D01*
X475350Y427971D02*
X477350D01*
X476350Y426971D02*
Y428971D01*
X588310Y418282D02*
X590310D01*
X589310Y417282D02*
Y419282D01*
X589700Y413371D02*
X591700D01*
X590700Y412371D02*
Y414371D01*
X570400Y405471D02*
X572400D01*
X571400Y404471D02*
Y406471D01*
X622000Y399271D02*
X624000D01*
X623000Y398271D02*
Y400271D01*
X622400Y439671D02*
X624400D01*
X623400Y438671D02*
Y440671D01*
X622600Y444571D02*
X624600D01*
X623600Y443571D02*
Y445571D01*
X622600Y449591D02*
X624600D01*
X623600Y448591D02*
Y450591D01*
X622600Y454611D02*
X624600D01*
X623600Y453611D02*
Y455611D01*
X622600Y464651D02*
X624600D01*
X623600Y463651D02*
Y465651D01*
X622600Y469671D02*
X624600D01*
X623600Y468671D02*
Y470671D01*
X622600Y459631D02*
X624600D01*
X623600Y458631D02*
Y460631D01*
X620975Y384596D02*
X622975D01*
X621975Y383596D02*
Y385597D01*
X636000Y382471D02*
X638000D01*
X637000Y381471D02*
Y383471D01*
X475200Y421771D02*
X477200D01*
X476200Y420771D02*
Y422771D01*
X603200Y415371D02*
X605200D01*
X604200Y414371D02*
Y416371D01*
X302000Y354171D02*
X304000D01*
X303000Y353171D02*
Y355171D01*
X413500Y354171D02*
X415500D01*
X414500Y353171D02*
Y355171D01*
X525000Y354171D02*
X527000D01*
X526000Y353171D02*
Y355171D01*
X608400Y415471D02*
X610400D01*
X609400Y414471D02*
Y416471D01*
X608300Y398971D02*
X610300D01*
X609300Y397971D02*
Y399971D01*
X603200Y398971D02*
X605200D01*
X604200Y397971D02*
Y399971D01*
X386900Y482271D02*
X388900D01*
X387900Y481271D02*
Y483271D01*
X78900Y354171D02*
X80900D01*
X79900Y353171D02*
Y355171D01*
X137300Y354171D02*
X139300D01*
X138300Y353171D02*
Y355171D01*
X157100Y406671D02*
X159100D01*
X158100Y405671D02*
Y407671D01*
X663600Y394271D02*
X665600D01*
X664600Y393271D02*
Y395271D01*
X673700Y394271D02*
X675700D01*
X674700Y393271D02*
Y395271D01*
X622600Y499771D02*
X624600D01*
X623600Y498771D02*
Y500771D01*
X622600Y474671D02*
X624600D01*
X623600Y473671D02*
Y475671D01*
X622600Y479691D02*
X624600D01*
X623600Y478691D02*
Y480691D01*
X622600Y484711D02*
X624600D01*
X623600Y483711D02*
Y485711D01*
X622600Y489731D02*
X624600D01*
X623600Y488731D02*
Y490731D01*
X622600Y494751D02*
X624600D01*
X623600Y493751D02*
Y495751D01*
X655640Y434071D02*
X657640D01*
X656640Y433071D02*
Y435071D01*
X629700Y434071D02*
X631700D01*
X630700Y433071D02*
Y435071D01*
X634888Y434071D02*
X636888D01*
X635888Y433071D02*
Y435071D01*
X640076Y434071D02*
X642076D01*
X641076Y433071D02*
Y435071D01*
X645264Y434071D02*
X647264D01*
X646264Y433071D02*
Y435071D01*
X650452Y434071D02*
X652452D01*
X651452Y433071D02*
Y435071D01*
X660828Y434071D02*
X662828D01*
X661828Y433071D02*
Y435071D01*
X666016Y434071D02*
X668016D01*
X667016Y433071D02*
Y435071D01*
X671204Y434071D02*
X673204D01*
X672204Y433071D02*
Y435071D01*
X676392Y434071D02*
X678392D01*
X677392Y433071D02*
Y435071D01*
X681580Y434071D02*
X683580D01*
X682580Y433071D02*
Y435071D01*
X732091Y433371D02*
X734091D01*
X733091Y432371D02*
Y434371D01*
X706500Y433371D02*
X708500D01*
X707500Y432371D02*
Y434371D01*
X711618Y433371D02*
X713618D01*
X712618Y432371D02*
Y434371D01*
X716736Y433371D02*
X718736D01*
X717736Y432371D02*
Y434371D01*
X721854Y433371D02*
X723855D01*
X722855Y432371D02*
Y434371D01*
X726973Y433371D02*
X728973D01*
X727973Y432371D02*
Y434371D01*
X762800Y433371D02*
X764800D01*
X763800Y432371D02*
Y434371D01*
X737209Y433371D02*
X739209D01*
X738209Y432371D02*
Y434371D01*
X742327Y433371D02*
X744327D01*
X743327Y432371D02*
Y434371D01*
X747445Y433371D02*
X749445D01*
X748445Y432371D02*
Y434371D01*
X752563Y433371D02*
X754563D01*
X753563Y432371D02*
Y434371D01*
X757682Y433371D02*
X759681D01*
X758681Y432371D02*
Y434371D01*
X701100Y432971D02*
X703100D01*
X702100Y431971D02*
Y433971D01*
X684400Y404471D02*
X686400D01*
X685400Y403471D02*
Y405471D01*
X705600Y420171D02*
X707600D01*
X706600Y419171D02*
Y421171D01*
X705600Y427671D02*
X707600D01*
X706600Y426671D02*
Y428671D01*
X671100Y384471D02*
X673100D01*
X672100Y383471D02*
Y385471D01*
X704800Y400271D02*
X706800D01*
X705800Y399271D02*
Y401271D01*
X646600Y381371D02*
X648600D01*
X647600Y380371D02*
Y382371D01*
X686200Y429471D02*
X688200D01*
X687200Y428471D02*
Y430471D01*
X684400Y422471D02*
X686400D01*
X685400Y421471D02*
Y423471D01*
X684400Y413471D02*
X686400D01*
X685400Y412471D02*
Y414471D01*
X699300Y414971D02*
X701300D01*
X700300Y413971D02*
Y415971D01*
X625900Y408371D02*
X627900D01*
X626900Y407371D02*
Y409371D01*
X687700Y385271D02*
X689700D01*
X688700Y384271D02*
Y386271D01*
X695600Y393271D02*
X697600D01*
X696600Y392271D02*
Y394271D01*
X683600Y395171D02*
X685600D01*
X684600Y394171D02*
Y396171D01*
X699707Y407269D02*
X701707D01*
X700707Y406269D02*
Y408269D01*
X1490160Y499041D02*
X1492160D01*
X1491160Y498041D02*
Y500041D01*
X1475140Y484061D02*
X1477140D01*
X1476140Y483061D02*
Y485061D01*
X1412153Y499045D02*
X1414153D01*
X1413153Y498045D02*
Y500045D01*
X1412110Y447021D02*
X1414110D01*
X1413110Y446021D02*
Y448021D01*
X1475158Y468035D02*
X1477158D01*
X1476158Y467034D02*
Y469035D01*
X1443130Y499051D02*
X1445130D01*
X1444130Y498051D02*
Y500051D01*
X1459150Y499031D02*
X1461150D01*
X1460150Y498031D02*
Y500031D01*
X1427090Y484061D02*
X1429090D01*
X1428090Y483061D02*
Y485061D01*
X1427120Y468031D02*
X1429120D01*
X1428120Y467031D02*
Y469031D01*
X1445120Y468031D02*
X1447120D01*
X1446120Y467031D02*
Y469031D01*
X1457150Y468031D02*
X1459150D01*
X1458150Y467031D02*
Y469031D01*
X988200Y424871D02*
X990200D01*
X989200Y423871D02*
Y425871D01*
X982600Y429171D02*
X984600D01*
X983600Y428171D02*
Y430171D01*
X966400Y466071D02*
X968400D01*
X967400Y465071D02*
Y467071D01*
X1218000Y492071D02*
X1220000D01*
X1219000Y491071D02*
Y493071D01*
X1121113Y399580D02*
X1123113D01*
X1122113Y398580D02*
Y400580D01*
X1076400Y394971D02*
X1078400D01*
X1077400Y393971D02*
Y395971D01*
X916974Y454851D02*
X918974D01*
X917974Y453851D02*
Y455851D01*
X1031819Y467471D02*
X1033819D01*
X1032819Y466471D02*
Y468471D01*
X930700Y440671D02*
X932700D01*
X931700Y439671D02*
Y441671D01*
X1031100Y437271D02*
X1033100D01*
X1032100Y436271D02*
Y438271D01*
X992800Y465871D02*
X994800D01*
X993800Y464871D02*
Y466871D01*
X975700Y459471D02*
X977700D01*
X976700Y458471D02*
Y460471D01*
X1030900Y429171D02*
X1032900D01*
X1031900Y428171D02*
Y430171D01*
X1301900Y411871D02*
X1303900D01*
X1302900Y410871D02*
Y412871D01*
X1259531Y413082D02*
X1261532D01*
X1260531Y412082D02*
Y414082D01*
X1193000Y434271D02*
X1195000D01*
X1194000Y433271D02*
Y435271D01*
X1259300Y424571D02*
X1261300D01*
X1260300Y423571D02*
Y425571D01*
X1263100Y431771D02*
X1265100D01*
X1264100Y430771D02*
Y432771D01*
X1214200Y407971D02*
X1216200D01*
X1215200Y406971D02*
Y408971D01*
X1191800Y402471D02*
X1193800D01*
X1192800Y401471D02*
Y403471D01*
X1315200Y405071D02*
X1317200D01*
X1316200Y404071D02*
Y406071D01*
X1326300Y392671D02*
X1328300D01*
X1327300Y391671D02*
Y393671D01*
X1314100Y394971D02*
X1316100D01*
X1315100Y393971D02*
Y395971D01*
X1185300Y427771D02*
X1187300D01*
X1186300Y426771D02*
Y428771D01*
X1183500Y417671D02*
X1185500D01*
X1184500Y416671D02*
Y418671D01*
X1195600Y406871D02*
X1197600D01*
X1196600Y405871D02*
Y407871D01*
X1174600Y445471D02*
X1176600D01*
X1175600Y444471D02*
Y446471D01*
X1156705Y450387D02*
X1158705D01*
X1157705Y449387D02*
Y451387D01*
X1122275Y453371D02*
X1124275D01*
X1123275Y452371D02*
Y454371D01*
X1185500Y455871D02*
X1187500D01*
X1186500Y454871D02*
Y456871D01*
X1294900Y479671D02*
X1296900D01*
X1295900Y478671D02*
Y480671D01*
X1282500Y466471D02*
X1284500D01*
X1283500Y465471D02*
Y467471D01*
X1241100Y431771D02*
X1243100D01*
X1242100Y430771D02*
Y432771D01*
X1226300Y394071D02*
X1228300D01*
X1227300Y393071D02*
Y395071D01*
X1107500Y454071D02*
X1109500D01*
X1108500Y453071D02*
Y455071D01*
X1089818Y445947D02*
X1091818D01*
X1090818Y444947D02*
Y446947D01*
X1156000Y400271D02*
X1158000D01*
X1157000Y399271D02*
Y401271D01*
X1239100Y455471D02*
X1241100D01*
X1240100Y454471D02*
Y456471D01*
X1264700Y441571D02*
X1266700D01*
X1265700Y440571D02*
Y442571D01*
X1268300Y433571D02*
X1270300D01*
X1269300Y432571D02*
Y434571D01*
X954400Y482371D02*
X956400D01*
X955400Y481371D02*
Y483371D01*
X1173100Y482271D02*
X1175100D01*
X1174100Y481271D02*
Y483271D01*
X1185800Y482271D02*
X1187800D01*
X1186800Y481271D02*
Y483271D01*
X1135000Y482271D02*
X1137000D01*
X1136000Y481271D02*
Y483271D01*
X1147700Y482271D02*
X1149700D01*
X1148700Y481271D02*
Y483271D01*
X1160400Y482271D02*
X1162400D01*
X1161400Y481271D02*
Y483271D01*
X1227000Y451071D02*
X1229000D01*
X1228000Y450071D02*
Y452071D01*
X1198800Y441971D02*
X1200800D01*
X1199800Y440971D02*
Y442971D01*
X1335800Y428671D02*
X1337800D01*
X1336800Y427671D02*
Y429671D01*
X1092200Y456771D02*
X1094200D01*
X1093200Y455771D02*
Y457771D01*
X1076400Y457171D02*
X1078400D01*
X1077400Y456171D02*
Y458171D01*
X1145896Y449967D02*
X1147896D01*
X1146896Y448967D02*
Y450967D01*
X1119000Y423071D02*
X1121000D01*
X1120000Y422071D02*
Y424071D01*
X1104650Y433921D02*
X1106650D01*
X1105650Y432921D02*
Y434921D01*
X1051150Y433921D02*
X1053150D01*
X1052150Y432921D02*
Y434921D01*
X1310300Y398971D02*
X1312300D01*
X1311300Y397971D02*
Y399971D01*
X1268300Y405671D02*
X1270300D01*
X1269300Y404671D02*
Y406671D01*
X936500Y421571D02*
X938500D01*
X937500Y420571D02*
Y422571D01*
X929800Y407471D02*
X931800D01*
X930800Y406471D02*
Y408471D01*
X902300Y394671D02*
X904300D01*
X903300Y393671D02*
Y395671D01*
X951800Y441571D02*
X953800D01*
X952800Y440571D02*
Y442571D01*
X990100Y491871D02*
X992100D01*
X991100Y490871D02*
Y492871D01*
X1034300Y445871D02*
X1036300D01*
X1035300Y444871D02*
Y446871D01*
X1099700Y477371D02*
X1101700D01*
X1100700Y476371D02*
Y478371D01*
X1076900Y477671D02*
X1078900D01*
X1077900Y476671D02*
Y478671D01*
X1052600Y477771D02*
X1054600D01*
X1053600Y476771D02*
Y478771D01*
X1197400Y468271D02*
X1199400D01*
X1198400Y467271D02*
Y469271D01*
X1204600Y455471D02*
X1206600D01*
X1205600Y454471D02*
Y456471D01*
X1279200Y343271D02*
X1281200D01*
X1280200Y342271D02*
Y344271D01*
X1279000Y365271D02*
X1281000D01*
X1280000Y364271D02*
Y366271D01*
X1015400Y342471D02*
X1017400D01*
X1016400Y341471D02*
Y343471D01*
X1015100Y364571D02*
X1017100D01*
X1016100Y363571D02*
Y365571D01*
X1414100Y343471D02*
X1416100D01*
X1415100Y342471D02*
Y344471D01*
X1415000Y365871D02*
X1417000D01*
X1416000Y364871D02*
Y366871D01*
X1493300Y343871D02*
X1495300D01*
X1494300Y342871D02*
Y344871D01*
X1493600Y365971D02*
X1495600D01*
X1494600Y364971D02*
Y366971D01*
X803200Y341671D02*
X805200D01*
X804200Y340671D02*
Y342671D01*
X804000Y366371D02*
X806000D01*
X805000Y365371D02*
Y367371D01*
X882000Y343271D02*
X884000D01*
X883000Y342271D02*
Y344271D01*
X882300Y366071D02*
X884300D01*
X883300Y365071D02*
Y367071D01*
X1265600Y395571D02*
X1267600D01*
X1266600Y394571D02*
Y396571D01*
X1173700Y434571D02*
X1175700D01*
X1174700Y433571D02*
Y435571D01*
X1426200Y354071D02*
X1428200D01*
X1427200Y353071D02*
Y355071D01*
X1483600Y354171D02*
X1485600D01*
X1484600Y353171D02*
Y355171D01*
X1193700Y461871D02*
X1195700D01*
X1194700Y460871D02*
Y462871D01*
X1210750Y427971D02*
X1212750D01*
X1211750Y426971D02*
Y428971D01*
X1323710Y418282D02*
X1325710D01*
X1324710Y417282D02*
Y419282D01*
X1325100Y413371D02*
X1327100D01*
X1326100Y412371D02*
Y414371D01*
X1305800Y405471D02*
X1307800D01*
X1306800Y404471D02*
Y406471D01*
X1357400Y399271D02*
X1359400D01*
X1358400Y398271D02*
Y400271D01*
X1357800Y439671D02*
X1359800D01*
X1358800Y438671D02*
Y440671D01*
X1358000Y444571D02*
X1360000D01*
X1359000Y443571D02*
Y445571D01*
X1358000Y449591D02*
X1360000D01*
X1359000Y448591D02*
Y450591D01*
X1358000Y454611D02*
X1360000D01*
X1359000Y453611D02*
Y455611D01*
X1358000Y464651D02*
X1360000D01*
X1359000Y463651D02*
Y465651D01*
X1358000Y469671D02*
X1360000D01*
X1359000Y468671D02*
Y470671D01*
X1358000Y459631D02*
X1360000D01*
X1359000Y458631D02*
Y460631D01*
X1356375Y384596D02*
X1358375D01*
X1357375Y383596D02*
Y385597D01*
X1371400Y382471D02*
X1373400D01*
X1372400Y381471D02*
Y383471D01*
X1210600Y421771D02*
X1212600D01*
X1211600Y420771D02*
Y422771D01*
X1338600Y415371D02*
X1340600D01*
X1339600Y414371D02*
Y416371D01*
X1037400Y354171D02*
X1039400D01*
X1038400Y353171D02*
Y355171D01*
X1148900Y354171D02*
X1150900D01*
X1149900Y353171D02*
Y355171D01*
X1260400Y354171D02*
X1262400D01*
X1261400Y353171D02*
Y355171D01*
X1343800Y415471D02*
X1345800D01*
X1344800Y414471D02*
Y416471D01*
X1343700Y398971D02*
X1345700D01*
X1344700Y397971D02*
Y399971D01*
X1338600Y398971D02*
X1340600D01*
X1339600Y397971D02*
Y399971D01*
X1122300Y482271D02*
X1124300D01*
X1123300Y481271D02*
Y483271D01*
X814300Y354171D02*
X816300D01*
X815300Y353171D02*
Y355171D01*
X872700Y354171D02*
X874700D01*
X873700Y353171D02*
Y355171D01*
X892500Y406671D02*
X894500D01*
X893500Y405671D02*
Y407671D01*
X1399000Y394271D02*
X1401000D01*
X1400000Y393271D02*
Y395271D01*
X1409100Y394271D02*
X1411100D01*
X1410100Y393271D02*
Y395271D01*
X1358000Y499771D02*
X1360000D01*
X1359000Y498771D02*
Y500771D01*
X1358000Y474671D02*
X1360000D01*
X1359000Y473671D02*
Y475671D01*
X1358000Y479691D02*
X1360000D01*
X1359000Y478691D02*
Y480691D01*
X1358000Y484711D02*
X1360000D01*
X1359000Y483711D02*
Y485711D01*
X1358000Y489731D02*
X1360000D01*
X1359000Y488731D02*
Y490731D01*
X1358000Y494751D02*
X1360000D01*
X1359000Y493751D02*
Y495751D01*
X1391040Y434071D02*
X1393040D01*
X1392040Y433071D02*
Y435071D01*
X1365100Y434071D02*
X1367100D01*
X1366100Y433071D02*
Y435071D01*
X1370288Y434071D02*
X1372288D01*
X1371288Y433071D02*
Y435071D01*
X1375476Y434071D02*
X1377476D01*
X1376476Y433071D02*
Y435071D01*
X1380664Y434071D02*
X1382664D01*
X1381664Y433071D02*
Y435071D01*
X1385852Y434071D02*
X1387852D01*
X1386852Y433071D02*
Y435071D01*
X1396228Y434071D02*
X1398228D01*
X1397228Y433071D02*
Y435071D01*
X1401416Y434071D02*
X1403416D01*
X1402416Y433071D02*
Y435071D01*
X1406604Y434071D02*
X1408604D01*
X1407604Y433071D02*
Y435071D01*
X1411792Y434071D02*
X1413792D01*
X1412792Y433071D02*
Y435071D01*
X1416980Y434071D02*
X1418980D01*
X1417980Y433071D02*
Y435071D01*
X1467491Y433371D02*
X1469491D01*
X1468491Y432371D02*
Y434371D01*
X1441900Y433371D02*
X1443900D01*
X1442900Y432371D02*
Y434371D01*
X1447018Y433371D02*
X1449018D01*
X1448018Y432371D02*
Y434371D01*
X1452136Y433371D02*
X1454136D01*
X1453136Y432371D02*
Y434371D01*
X1457254Y433371D02*
X1459254D01*
X1458255Y432371D02*
Y434371D01*
X1462373Y433371D02*
X1464373D01*
X1463373Y432371D02*
Y434371D01*
X1498200Y433371D02*
X1500200D01*
X1499200Y432371D02*
Y434371D01*
X1472609Y433371D02*
X1474609D01*
X1473609Y432371D02*
Y434371D01*
X1477727Y433371D02*
X1479727D01*
X1478727Y432371D02*
Y434371D01*
X1482845Y433371D02*
X1484845D01*
X1483845Y432371D02*
Y434371D01*
X1487963Y433371D02*
X1489963D01*
X1488963Y432371D02*
Y434371D01*
X1493082Y433371D02*
X1495081D01*
X1494082Y432371D02*
Y434371D01*
X1436500Y432971D02*
X1438500D01*
X1437500Y431971D02*
Y433971D01*
X1419800Y404471D02*
X1421800D01*
X1420800Y403471D02*
Y405471D01*
X1441000Y420171D02*
X1443000D01*
X1442000Y419171D02*
Y421171D01*
X1441000Y427671D02*
X1443000D01*
X1442000Y426671D02*
Y428671D01*
X1406500Y384471D02*
X1408500D01*
X1407500Y383471D02*
Y385471D01*
X1440200Y400271D02*
X1442200D01*
X1441200Y399271D02*
Y401271D01*
X1382000Y381371D02*
X1384000D01*
X1383000Y380371D02*
Y382371D01*
X1421600Y429471D02*
X1423600D01*
X1422600Y428471D02*
Y430471D01*
X1419800Y422471D02*
X1421800D01*
X1420800Y421471D02*
Y423471D01*
X1419800Y413471D02*
X1421800D01*
X1420800Y412471D02*
Y414471D01*
X1434700Y414971D02*
X1436700D01*
X1435700Y413971D02*
Y415971D01*
X1361300Y408371D02*
X1363300D01*
X1362300Y407371D02*
Y409371D01*
X1423100Y385271D02*
X1425100D01*
X1424100Y384271D02*
Y386271D01*
X1431000Y393271D02*
X1433000D01*
X1432000Y392271D02*
Y394271D01*
X1419000Y395171D02*
X1421000D01*
X1420000Y394171D02*
Y396171D01*
X1435107Y407269D02*
X1437107D01*
X1436107Y406269D02*
Y408269D01*
X2225560Y499041D02*
X2227560D01*
X2226560Y498041D02*
Y500041D01*
X2210540Y484061D02*
X2212540D01*
X2211540Y483061D02*
Y485061D01*
X2147553Y499045D02*
X2149553D01*
X2148553Y498045D02*
Y500045D01*
X2147510Y447021D02*
X2149510D01*
X2148510Y446021D02*
Y448021D01*
X2210558Y468035D02*
X2212558D01*
X2211558Y467034D02*
Y469035D01*
X2178530Y499051D02*
X2180530D01*
X2179530Y498051D02*
Y500051D01*
X2194550Y499031D02*
X2196550D01*
X2195550Y498031D02*
Y500031D01*
X2162490Y484061D02*
X2164490D01*
X2163490Y483061D02*
Y485061D01*
X2162520Y468031D02*
X2164520D01*
X2163520Y467031D02*
Y469031D01*
X2180520Y468031D02*
X2182520D01*
X2181520Y467031D02*
Y469031D01*
X2192550Y468031D02*
X2194550D01*
X2193550Y467031D02*
Y469031D01*
X1723600Y424871D02*
X1725600D01*
X1724600Y423871D02*
Y425871D01*
X1718000Y429171D02*
X1720000D01*
X1719000Y428171D02*
Y430171D01*
X1701800Y466071D02*
X1703800D01*
X1702800Y465071D02*
Y467071D01*
X1953400Y492071D02*
X1955400D01*
X1954400Y491071D02*
Y493071D01*
X1856513Y399580D02*
X1858513D01*
X1857513Y398580D02*
Y400580D01*
X1811800Y394971D02*
X1813800D01*
X1812800Y393971D02*
Y395971D01*
X1652374Y454851D02*
X1654374D01*
X1653374Y453851D02*
Y455851D01*
X1767219Y467471D02*
X1769219D01*
X1768219Y466471D02*
Y468471D01*
X1666100Y440671D02*
X1668100D01*
X1667100Y439671D02*
Y441671D01*
X1766500Y437271D02*
X1768500D01*
X1767500Y436271D02*
Y438271D01*
X1728200Y465871D02*
X1730200D01*
X1729200Y464871D02*
Y466871D01*
X1711100Y459471D02*
X1713100D01*
X1712100Y458471D02*
Y460471D01*
X1766300Y429171D02*
X1768300D01*
X1767300Y428171D02*
Y430171D01*
X2037300Y411871D02*
X2039300D01*
X2038300Y410871D02*
Y412871D01*
X1994931Y413082D02*
X1996931D01*
X1995932Y412082D02*
Y414082D01*
X1928400Y434271D02*
X1930400D01*
X1929400Y433271D02*
Y435271D01*
X1994700Y424571D02*
X1996700D01*
X1995700Y423571D02*
Y425571D01*
X1998500Y431771D02*
X2000500D01*
X1999500Y430771D02*
Y432771D01*
X1949600Y407971D02*
X1951600D01*
X1950600Y406971D02*
Y408971D01*
X1927200Y402471D02*
X1929200D01*
X1928200Y401471D02*
Y403471D01*
X2050600Y405071D02*
X2052600D01*
X2051600Y404071D02*
Y406071D01*
X2061700Y392671D02*
X2063700D01*
X2062700Y391671D02*
Y393671D01*
X2049500Y394971D02*
X2051500D01*
X2050500Y393971D02*
Y395971D01*
X1920700Y427771D02*
X1922700D01*
X1921700Y426771D02*
Y428771D01*
X1918900Y417671D02*
X1920900D01*
X1919900Y416671D02*
Y418671D01*
X1931000Y406871D02*
X1933000D01*
X1932000Y405871D02*
Y407871D01*
X1910000Y445471D02*
X1912000D01*
X1911000Y444471D02*
Y446471D01*
X1892105Y450387D02*
X1894105D01*
X1893105Y449387D02*
Y451387D01*
X1857675Y453371D02*
X1859675D01*
X1858675Y452371D02*
Y454371D01*
X1920900Y455871D02*
X1922900D01*
X1921900Y454871D02*
Y456871D01*
X2030300Y479671D02*
X2032300D01*
X2031300Y478671D02*
Y480671D01*
X2017900Y466471D02*
X2019900D01*
X2018900Y465471D02*
Y467471D01*
X1976500Y431771D02*
X1978500D01*
X1977500Y430771D02*
Y432771D01*
X1961700Y394071D02*
X1963700D01*
X1962700Y393071D02*
Y395071D01*
X1842900Y454071D02*
X1844900D01*
X1843900Y453071D02*
Y455071D01*
X1825218Y445947D02*
X1827218D01*
X1826218Y444947D02*
Y446947D01*
X1891400Y400271D02*
X1893400D01*
X1892400Y399271D02*
Y401271D01*
X1974500Y455471D02*
X1976500D01*
X1975500Y454471D02*
Y456471D01*
X2000100Y441571D02*
X2002100D01*
X2001100Y440571D02*
Y442571D01*
X2003700Y433571D02*
X2005700D01*
X2004700Y432571D02*
Y434571D01*
X1689800Y482371D02*
X1691800D01*
X1690800Y481371D02*
Y483371D01*
X1908500Y482271D02*
X1910500D01*
X1909500Y481271D02*
Y483271D01*
X1921200Y482271D02*
X1923200D01*
X1922200Y481271D02*
Y483271D01*
X1870400Y482271D02*
X1872400D01*
X1871400Y481271D02*
Y483271D01*
X1883100Y482271D02*
X1885100D01*
X1884100Y481271D02*
Y483271D01*
X1895800Y482271D02*
X1897800D01*
X1896800Y481271D02*
Y483271D01*
X1962400Y451071D02*
X1964400D01*
X1963400Y450071D02*
Y452071D01*
X1934200Y441971D02*
X1936200D01*
X1935200Y440971D02*
Y442971D01*
X2071200Y428671D02*
X2073200D01*
X2072200Y427671D02*
Y429671D01*
X1827600Y456771D02*
X1829600D01*
X1828600Y455771D02*
Y457771D01*
X1811800Y457171D02*
X1813800D01*
X1812800Y456171D02*
Y458171D01*
X1881296Y449967D02*
X1883296D01*
X1882296Y448967D02*
Y450967D01*
X1854400Y423071D02*
X1856400D01*
X1855400Y422071D02*
Y424071D01*
X1840050Y433921D02*
X1842050D01*
X1841050Y432921D02*
Y434921D01*
X1786550Y433921D02*
X1788550D01*
X1787550Y432921D02*
Y434921D01*
X2045700Y398971D02*
X2047700D01*
X2046700Y397971D02*
Y399971D01*
X2003700Y405671D02*
X2005700D01*
X2004700Y404671D02*
Y406671D01*
X1671900Y421571D02*
X1673900D01*
X1672900Y420571D02*
Y422571D01*
X1665200Y407471D02*
X1667200D01*
X1666200Y406471D02*
Y408471D01*
X1637700Y394671D02*
X1639700D01*
X1638700Y393671D02*
Y395671D01*
X1687200Y441571D02*
X1689200D01*
X1688200Y440571D02*
Y442571D01*
X1725500Y491871D02*
X1727500D01*
X1726500Y490871D02*
Y492871D01*
X1769700Y445871D02*
X1771700D01*
X1770700Y444871D02*
Y446871D01*
X1835100Y477371D02*
X1837100D01*
X1836100Y476371D02*
Y478371D01*
X1812300Y477671D02*
X1814300D01*
X1813300Y476671D02*
Y478671D01*
X1788000Y477771D02*
X1790000D01*
X1789000Y476771D02*
Y478771D01*
X1932800Y468271D02*
X1934800D01*
X1933800Y467271D02*
Y469271D01*
X1940000Y455471D02*
X1942000D01*
X1941000Y454471D02*
Y456471D01*
X2014600Y343271D02*
X2016600D01*
X2015600Y342271D02*
Y344271D01*
X2014400Y365271D02*
X2016400D01*
X2015400Y364271D02*
Y366271D01*
X1750800Y342471D02*
X1752800D01*
X1751800Y341471D02*
Y343471D01*
X1750500Y364571D02*
X1752500D01*
X1751500Y363571D02*
Y365571D01*
X2149500Y343471D02*
X2151500D01*
X2150500Y342471D02*
Y344471D01*
X2150400Y365871D02*
X2152400D01*
X2151400Y364871D02*
Y366871D01*
X2228700Y343871D02*
X2230700D01*
X2229700Y342871D02*
Y344871D01*
X2229000Y365971D02*
X2231000D01*
X2230000Y364971D02*
Y366971D01*
X1538600Y341671D02*
X1540600D01*
X1539600Y340671D02*
Y342671D01*
X1539400Y366371D02*
X1541400D01*
X1540400Y365371D02*
Y367371D01*
X1617400Y343271D02*
X1619400D01*
X1618400Y342271D02*
Y344271D01*
X1617700Y366071D02*
X1619700D01*
X1618700Y365071D02*
Y367071D01*
X2001000Y395571D02*
X2003000D01*
X2002000Y394571D02*
Y396571D01*
X1909100Y434571D02*
X1911100D01*
X1910100Y433571D02*
Y435571D01*
X2161600Y354071D02*
X2163600D01*
X2162600Y353071D02*
Y355071D01*
X2219000Y354171D02*
X2221000D01*
X2220000Y353171D02*
Y355171D01*
X1929100Y461871D02*
X1931100D01*
X1930100Y460871D02*
Y462871D01*
X1946150Y427971D02*
X1948150D01*
X1947150Y426971D02*
Y428971D01*
X2059110Y418282D02*
X2061110D01*
X2060110Y417282D02*
Y419282D01*
X2060500Y413371D02*
X2062500D01*
X2061500Y412371D02*
Y414371D01*
X2041200Y405471D02*
X2043200D01*
X2042200Y404471D02*
Y406471D01*
X2092800Y399271D02*
X2094800D01*
X2093800Y398271D02*
Y400271D01*
X2093200Y439671D02*
X2095200D01*
X2094200Y438671D02*
Y440671D01*
X2093400Y444571D02*
X2095400D01*
X2094400Y443571D02*
Y445571D01*
X2093400Y449591D02*
X2095400D01*
X2094400Y448591D02*
Y450591D01*
X2093400Y454611D02*
X2095400D01*
X2094400Y453611D02*
Y455611D01*
X2093400Y464651D02*
X2095400D01*
X2094400Y463651D02*
Y465651D01*
X2093400Y469671D02*
X2095400D01*
X2094400Y468671D02*
Y470671D01*
X2093400Y459631D02*
X2095400D01*
X2094400Y458631D02*
Y460631D01*
X2091775Y384596D02*
X2093775D01*
X2092775Y383596D02*
Y385597D01*
X2106800Y382471D02*
X2108800D01*
X2107800Y381471D02*
Y383471D01*
X1946000Y421771D02*
X1948000D01*
X1947000Y420771D02*
Y422771D01*
X2074000Y415371D02*
X2076000D01*
X2075000Y414371D02*
Y416371D01*
X1772800Y354171D02*
X1774800D01*
X1773800Y353171D02*
Y355171D01*
X1884300Y354171D02*
X1886300D01*
X1885300Y353171D02*
Y355171D01*
X1995800Y354171D02*
X1997800D01*
X1996800Y353171D02*
Y355171D01*
X2079200Y415471D02*
X2081200D01*
X2080200Y414471D02*
Y416471D01*
X2079100Y398971D02*
X2081100D01*
X2080100Y397971D02*
Y399971D01*
X2074000Y398971D02*
X2076000D01*
X2075000Y397971D02*
Y399971D01*
X1857700Y482271D02*
X1859700D01*
X1858700Y481271D02*
Y483271D01*
X1549700Y354171D02*
X1551700D01*
X1550700Y353171D02*
Y355171D01*
X1608100Y354171D02*
X1610100D01*
X1609100Y353171D02*
Y355171D01*
X1627900Y406671D02*
X1629900D01*
X1628900Y405671D02*
Y407671D01*
X2134400Y394271D02*
X2136400D01*
X2135400Y393271D02*
Y395271D01*
X2144500Y394271D02*
X2146500D01*
X2145500Y393271D02*
Y395271D01*
X2093400Y499771D02*
X2095400D01*
X2094400Y498771D02*
Y500771D01*
X2093400Y474671D02*
X2095400D01*
X2094400Y473671D02*
Y475671D01*
X2093400Y479691D02*
X2095400D01*
X2094400Y478691D02*
Y480691D01*
X2093400Y484711D02*
X2095400D01*
X2094400Y483711D02*
Y485711D01*
X2093400Y489731D02*
X2095400D01*
X2094400Y488731D02*
Y490731D01*
X2093400Y494751D02*
X2095400D01*
X2094400Y493751D02*
Y495751D01*
X2126440Y434071D02*
X2128440D01*
X2127440Y433071D02*
Y435071D01*
X2100500Y434071D02*
X2102500D01*
X2101500Y433071D02*
Y435071D01*
X2105688Y434071D02*
X2107688D01*
X2106688Y433071D02*
Y435071D01*
X2110876Y434071D02*
X2112876D01*
X2111876Y433071D02*
Y435071D01*
X2116064Y434071D02*
X2118064D01*
X2117064Y433071D02*
Y435071D01*
X2121252Y434071D02*
X2123252D01*
X2122252Y433071D02*
Y435071D01*
X2131628Y434071D02*
X2133628D01*
X2132628Y433071D02*
Y435071D01*
X2136816Y434071D02*
X2138816D01*
X2137816Y433071D02*
Y435071D01*
X2142004Y434071D02*
X2144004D01*
X2143004Y433071D02*
Y435071D01*
X2147192Y434071D02*
X2149192D01*
X2148192Y433071D02*
Y435071D01*
X2152380Y434071D02*
X2154380D01*
X2153380Y433071D02*
Y435071D01*
X2202891Y433371D02*
X2204891D01*
X2203891Y432371D02*
Y434371D01*
X2177300Y433371D02*
X2179300D01*
X2178300Y432371D02*
Y434371D01*
X2182418Y433371D02*
X2184418D01*
X2183418Y432371D02*
Y434371D01*
X2187536Y433371D02*
X2189536D01*
X2188536Y432371D02*
Y434371D01*
X2192655Y433371D02*
X2194655D01*
X2193654Y432371D02*
Y434371D01*
X2197773Y433371D02*
X2199773D01*
X2198773Y432371D02*
Y434371D01*
X2233600Y433371D02*
X2235600D01*
X2234600Y432371D02*
Y434371D01*
X2208009Y433371D02*
X2210009D01*
X2209009Y432371D02*
Y434371D01*
X2213127Y433371D02*
X2215127D01*
X2214127Y432371D02*
Y434371D01*
X2218245Y433371D02*
X2220245D01*
X2219245Y432371D02*
Y434371D01*
X2223363Y433371D02*
X2225363D01*
X2224363Y432371D02*
Y434371D01*
X2228481Y433371D02*
X2230482D01*
X2229482Y432371D02*
Y434371D01*
X2171900Y432971D02*
X2173900D01*
X2172900Y431971D02*
Y433971D01*
X2155200Y404471D02*
X2157200D01*
X2156200Y403471D02*
Y405471D01*
X2176400Y420171D02*
X2178400D01*
X2177400Y419171D02*
Y421171D01*
X2176400Y427671D02*
X2178400D01*
X2177400Y426671D02*
Y428671D01*
X2141900Y384471D02*
X2143900D01*
X2142900Y383471D02*
Y385471D01*
X2175600Y400271D02*
X2177600D01*
X2176600Y399271D02*
Y401271D01*
X2117400Y381371D02*
X2119400D01*
X2118400Y380371D02*
Y382371D01*
X2157000Y429471D02*
X2159000D01*
X2158000Y428471D02*
Y430471D01*
X2155200Y422471D02*
X2157200D01*
X2156200Y421471D02*
Y423471D01*
X2155200Y413471D02*
X2157200D01*
X2156200Y412471D02*
Y414471D01*
X2170100Y414971D02*
X2172100D01*
X2171100Y413971D02*
Y415971D01*
X2096700Y408371D02*
X2098700D01*
X2097700Y407371D02*
Y409371D01*
X2158500Y385271D02*
X2160500D01*
X2159500Y384271D02*
Y386271D01*
X2166400Y393271D02*
X2168400D01*
X2167400Y392271D02*
Y394271D01*
X2154400Y395171D02*
X2156400D01*
X2155400Y394171D02*
Y396171D01*
X2170507Y407269D02*
X2172507D01*
X2171507Y406269D02*
Y408269D01*
X754760Y704413D02*
X756760D01*
X755760Y703413D02*
Y705413D01*
X739740Y689433D02*
X741740D01*
X740740Y688433D02*
Y690433D01*
X676753Y704416D02*
X678753D01*
X677753Y703416D02*
Y705416D01*
X676710Y652393D02*
X678710D01*
X677710Y651393D02*
Y653393D01*
X739758Y673406D02*
X741758D01*
X740758Y672406D02*
Y674406D01*
X707730Y704423D02*
X709730D01*
X708730Y703423D02*
Y705423D01*
X723750Y704403D02*
X725750D01*
X724750Y703403D02*
Y705403D01*
X691690Y689433D02*
X693690D01*
X692690Y688433D02*
Y690433D01*
X691720Y673403D02*
X693720D01*
X692720Y672403D02*
Y674403D01*
X709720Y673403D02*
X711720D01*
X710720Y672403D02*
Y674403D01*
X721750Y673403D02*
X723750D01*
X722750Y672403D02*
Y674403D01*
X252800Y630243D02*
X254800D01*
X253800Y629243D02*
Y631243D01*
X247200Y634543D02*
X249200D01*
X248200Y633543D02*
Y635543D01*
X231000Y671443D02*
X233000D01*
X232000Y670443D02*
Y672443D01*
X482600Y697443D02*
X484600D01*
X483600Y696443D02*
Y698443D01*
X385713Y604951D02*
X387713D01*
X386713Y603951D02*
Y605951D01*
X341000Y600343D02*
X343000D01*
X342000Y599343D02*
Y601343D01*
X181574Y660223D02*
X183574D01*
X182574Y659223D02*
Y661223D01*
X296419Y672842D02*
X298419D01*
X297419Y671842D02*
Y673842D01*
X195300Y646043D02*
X197300D01*
X196300Y645043D02*
Y647043D01*
X295700Y642643D02*
X297700D01*
X296700Y641643D02*
Y643643D01*
X257400Y671243D02*
X259400D01*
X258400Y670243D02*
Y672243D01*
X240300Y664843D02*
X242300D01*
X241300Y663843D02*
Y665843D01*
X295500Y634543D02*
X297500D01*
X296500Y633543D02*
Y635543D01*
X566500Y617243D02*
X568500D01*
X567500Y616243D02*
Y618243D01*
X524132Y618453D02*
X526132D01*
X525131Y617453D02*
Y619453D01*
X457600Y639643D02*
X459600D01*
X458600Y638643D02*
Y640643D01*
X523900Y629943D02*
X525900D01*
X524900Y628943D02*
Y630943D01*
X527700Y637143D02*
X529700D01*
X528700Y636143D02*
Y638143D01*
X478800Y613343D02*
X480800D01*
X479800Y612343D02*
Y614343D01*
X456400Y607843D02*
X458400D01*
X457400Y606843D02*
Y608843D01*
X579800Y610443D02*
X581800D01*
X580800Y609443D02*
Y611443D01*
X590900Y598043D02*
X592900D01*
X591900Y597043D02*
Y599043D01*
X578700Y600343D02*
X580700D01*
X579700Y599343D02*
Y601343D01*
X449900Y633143D02*
X451900D01*
X450900Y632143D02*
Y634143D01*
X448100Y623043D02*
X450100D01*
X449100Y622043D02*
Y624043D01*
X460200Y612243D02*
X462200D01*
X461200Y611243D02*
Y613243D01*
X439200Y650843D02*
X441200D01*
X440200Y649843D02*
Y651843D01*
X421305Y655759D02*
X423305D01*
X422305Y654759D02*
Y656758D01*
X386875Y658743D02*
X388875D01*
X387875Y657743D02*
Y659743D01*
X450100Y661243D02*
X452100D01*
X451100Y660243D02*
Y662243D01*
X559500Y685043D02*
X561500D01*
X560500Y684043D02*
Y686043D01*
X547100Y671843D02*
X549100D01*
X548100Y670843D02*
Y672843D01*
X505700Y637143D02*
X507700D01*
X506700Y636143D02*
Y638143D01*
X490900Y599443D02*
X492900D01*
X491900Y598443D02*
Y600443D01*
X372100Y659443D02*
X374100D01*
X373100Y658443D02*
Y660443D01*
X354418Y651318D02*
X356418D01*
X355418Y650318D02*
Y652318D01*
X420600Y605643D02*
X422600D01*
X421600Y604643D02*
Y606643D01*
X503700Y660843D02*
X505700D01*
X504700Y659843D02*
Y661843D01*
X529300Y646943D02*
X531300D01*
X530300Y645943D02*
Y647943D01*
X532900Y638943D02*
X534900D01*
X533900Y637943D02*
Y639943D01*
X219000Y687743D02*
X221000D01*
X220000Y686743D02*
Y688743D01*
X437700Y687643D02*
X439700D01*
X438700Y686643D02*
Y688643D01*
X450400Y687643D02*
X452400D01*
X451400Y686643D02*
Y688643D01*
X399600Y687643D02*
X401600D01*
X400600Y686643D02*
Y688643D01*
X412300Y687643D02*
X414300D01*
X413300Y686643D02*
Y688643D01*
X425000Y687643D02*
X427000D01*
X426000Y686643D02*
Y688643D01*
X491600Y656443D02*
X493600D01*
X492600Y655443D02*
Y657443D01*
X463400Y647343D02*
X465400D01*
X464400Y646343D02*
Y648343D01*
X600400Y634043D02*
X602400D01*
X601400Y633043D02*
Y635043D01*
X356800Y662143D02*
X358800D01*
X357800Y661143D02*
Y663143D01*
X341000Y662543D02*
X343000D01*
X342000Y661543D02*
Y663543D01*
X410496Y655339D02*
X412496D01*
X411496Y654339D02*
Y656339D01*
X383600Y628443D02*
X385600D01*
X384600Y627443D02*
Y629443D01*
X369250Y639293D02*
X371250D01*
X370250Y638293D02*
Y640293D01*
X315750Y639293D02*
X317750D01*
X316750Y638293D02*
Y640293D01*
X574900Y604343D02*
X576900D01*
X575900Y603343D02*
Y605343D01*
X532900Y611043D02*
X534900D01*
X533900Y610043D02*
Y612043D01*
X201100Y626943D02*
X203100D01*
X202100Y625943D02*
Y627943D01*
X194400Y612843D02*
X196400D01*
X195400Y611843D02*
Y613843D01*
X166900Y600043D02*
X168900D01*
X167900Y599043D02*
Y601043D01*
X216400Y646943D02*
X218400D01*
X217400Y645943D02*
Y647943D01*
X254700Y697243D02*
X256700D01*
X255700Y696243D02*
Y698243D01*
X298900Y651243D02*
X300900D01*
X299900Y650243D02*
Y652243D01*
X364300Y682743D02*
X366300D01*
X365300Y681743D02*
Y683743D01*
X341500Y683043D02*
X343500D01*
X342500Y682043D02*
Y684043D01*
X317200Y683143D02*
X319200D01*
X318200Y682143D02*
Y684143D01*
X462000Y673643D02*
X464000D01*
X463000Y672643D02*
Y674643D01*
X469200Y660843D02*
X471200D01*
X470200Y659843D02*
Y661843D01*
X543800Y548643D02*
X545800D01*
X544800Y547643D02*
Y549643D01*
X543600Y570643D02*
X545600D01*
X544600Y569643D02*
Y571643D01*
X280000Y547843D02*
X282000D01*
X281000Y546843D02*
Y548843D01*
X279700Y569943D02*
X281700D01*
X280700Y568943D02*
Y570943D01*
X678700Y548843D02*
X680700D01*
X679700Y547843D02*
Y549843D01*
X679600Y571243D02*
X681600D01*
X680600Y570243D02*
Y572243D01*
X757900Y549243D02*
X759900D01*
X758900Y548243D02*
Y550243D01*
X758200Y571343D02*
X760200D01*
X759200Y570343D02*
Y572343D01*
X67800Y547043D02*
X69800D01*
X68800Y546043D02*
Y548043D01*
X68600Y571743D02*
X70600D01*
X69600Y570743D02*
Y572743D01*
X146600Y548643D02*
X148600D01*
X147600Y547643D02*
Y549643D01*
X146900Y571443D02*
X148900D01*
X147900Y570443D02*
Y572443D01*
X530200Y600943D02*
X532200D01*
X531200Y599943D02*
Y601943D01*
X438300Y639943D02*
X440300D01*
X439300Y638943D02*
Y640943D01*
X690800Y559443D02*
X692800D01*
X691800Y558443D02*
Y560443D01*
X748200Y559543D02*
X750200D01*
X749200Y558543D02*
Y560543D01*
X458300Y667243D02*
X460300D01*
X459300Y666243D02*
Y668243D01*
X475350Y633343D02*
X477350D01*
X476350Y632343D02*
Y634343D01*
X588310Y623653D02*
X590310D01*
X589310Y622653D02*
Y624653D01*
X589700Y618743D02*
X591700D01*
X590700Y617743D02*
Y619743D01*
X570400Y610843D02*
X572400D01*
X571400Y609843D02*
Y611843D01*
X622000Y604643D02*
X624000D01*
X623000Y603643D02*
Y605643D01*
X622400Y645043D02*
X624400D01*
X623400Y644043D02*
Y646043D01*
X622600Y649943D02*
X624600D01*
X623600Y648943D02*
Y650943D01*
X622600Y654963D02*
X624600D01*
X623600Y653963D02*
Y655963D01*
X622600Y659983D02*
X624600D01*
X623600Y658983D02*
Y660983D01*
X622600Y670023D02*
X624600D01*
X623600Y669023D02*
Y671023D01*
X622600Y675043D02*
X624600D01*
X623600Y674043D02*
Y676043D01*
X622600Y665003D02*
X624600D01*
X623600Y664003D02*
Y666003D01*
X620975Y589968D02*
X622975D01*
X621975Y588968D02*
Y590968D01*
X636000Y587843D02*
X638000D01*
X637000Y586843D02*
Y588843D01*
X475200Y627143D02*
X477200D01*
X476200Y626143D02*
Y628143D01*
X603200Y620743D02*
X605200D01*
X604200Y619743D02*
Y621743D01*
X302000Y559543D02*
X304000D01*
X303000Y558543D02*
Y560543D01*
X413500Y559543D02*
X415500D01*
X414500Y558543D02*
Y560543D01*
X525000Y559543D02*
X527000D01*
X526000Y558543D02*
Y560543D01*
X608400Y620843D02*
X610400D01*
X609400Y619843D02*
Y621843D01*
X608300Y604343D02*
X610300D01*
X609300Y603343D02*
Y605343D01*
X603200Y604343D02*
X605200D01*
X604200Y603343D02*
Y605343D01*
X386900Y687643D02*
X388900D01*
X387900Y686643D02*
Y688643D01*
X78900Y559543D02*
X80900D01*
X79900Y558543D02*
Y560543D01*
X137300Y559543D02*
X139300D01*
X138300Y558543D02*
Y560543D01*
X157100Y612043D02*
X159100D01*
X158100Y611043D02*
Y613043D01*
X663600Y599643D02*
X665600D01*
X664600Y598643D02*
Y600643D01*
X673700Y599643D02*
X675700D01*
X674700Y598643D02*
Y600643D01*
X622600Y705143D02*
X624600D01*
X623600Y704143D02*
Y706143D01*
X622600Y680043D02*
X624600D01*
X623600Y679043D02*
Y681043D01*
X622600Y685063D02*
X624600D01*
X623600Y684063D02*
Y686063D01*
X622600Y690083D02*
X624600D01*
X623600Y689083D02*
Y691083D01*
X622600Y695103D02*
X624600D01*
X623600Y694103D02*
Y696103D01*
X622600Y700123D02*
X624600D01*
X623600Y699123D02*
Y701123D01*
X655640Y639443D02*
X657640D01*
X656640Y638443D02*
Y640443D01*
X629700Y639443D02*
X631700D01*
X630700Y638443D02*
Y640443D01*
X634888Y639443D02*
X636888D01*
X635888Y638443D02*
Y640443D01*
X640076Y639443D02*
X642076D01*
X641076Y638443D02*
Y640443D01*
X645264Y639443D02*
X647264D01*
X646264Y638443D02*
Y640443D01*
X650452Y639443D02*
X652452D01*
X651452Y638443D02*
Y640443D01*
X660828Y639443D02*
X662828D01*
X661828Y638443D02*
Y640443D01*
X666016Y639443D02*
X668016D01*
X667016Y638443D02*
Y640443D01*
X671204Y639443D02*
X673204D01*
X672204Y638443D02*
Y640443D01*
X676392Y639443D02*
X678392D01*
X677392Y638443D02*
Y640443D01*
X681580Y639443D02*
X683580D01*
X682580Y638443D02*
Y640443D01*
X732091Y638743D02*
X734091D01*
X733091Y637743D02*
Y639743D01*
X706500Y638743D02*
X708500D01*
X707500Y637743D02*
Y639743D01*
X711618Y638743D02*
X713618D01*
X712618Y637743D02*
Y639743D01*
X716736Y638743D02*
X718736D01*
X717736Y637743D02*
Y639743D01*
X721854Y638743D02*
X723855D01*
X722855Y637743D02*
Y639743D01*
X726973Y638743D02*
X728973D01*
X727973Y637743D02*
Y639743D01*
X762800Y638743D02*
X764800D01*
X763800Y637743D02*
Y639743D01*
X737209Y638743D02*
X739209D01*
X738209Y637743D02*
Y639743D01*
X742327Y638743D02*
X744327D01*
X743327Y637743D02*
Y639743D01*
X747445Y638743D02*
X749445D01*
X748445Y637743D02*
Y639743D01*
X752563Y638743D02*
X754563D01*
X753563Y637743D02*
Y639743D01*
X757682Y638743D02*
X759681D01*
X758681Y637743D02*
Y639743D01*
X701100Y638343D02*
X703100D01*
X702100Y637343D02*
Y639343D01*
X684400Y609843D02*
X686400D01*
X685400Y608843D02*
Y610843D01*
X705600Y625543D02*
X707600D01*
X706600Y624543D02*
Y626543D01*
X705600Y633043D02*
X707600D01*
X706600Y632043D02*
Y634043D01*
X671100Y589843D02*
X673100D01*
X672100Y588843D02*
Y590843D01*
X704800Y605643D02*
X706800D01*
X705800Y604643D02*
Y606643D01*
X646600Y586743D02*
X648600D01*
X647600Y585743D02*
Y587743D01*
X686200Y634843D02*
X688200D01*
X687200Y633843D02*
Y635843D01*
X684400Y627843D02*
X686400D01*
X685400Y626843D02*
Y628843D01*
X684400Y618843D02*
X686400D01*
X685400Y617843D02*
Y619843D01*
X699300Y620343D02*
X701300D01*
X700300Y619343D02*
Y621343D01*
X625900Y613743D02*
X627900D01*
X626900Y612743D02*
Y614743D01*
X687700Y590643D02*
X689700D01*
X688700Y589643D02*
Y591643D01*
X695600Y598643D02*
X697600D01*
X696600Y597643D02*
Y599643D01*
X683600Y600543D02*
X685600D01*
X684600Y599543D02*
Y601543D01*
X699707Y612640D02*
X701707D01*
X700707Y611640D02*
Y613640D01*
X1490160Y704413D02*
X1492160D01*
X1491160Y703413D02*
Y705413D01*
X1475140Y689433D02*
X1477140D01*
X1476140Y688433D02*
Y690433D01*
X1412153Y704416D02*
X1414153D01*
X1413153Y703416D02*
Y705416D01*
X1412110Y652393D02*
X1414110D01*
X1413110Y651393D02*
Y653393D01*
X1475158Y673406D02*
X1477158D01*
X1476158Y672406D02*
Y674406D01*
X1443130Y704423D02*
X1445130D01*
X1444130Y703423D02*
Y705423D01*
X1459150Y704403D02*
X1461150D01*
X1460150Y703403D02*
Y705403D01*
X1427090Y689433D02*
X1429090D01*
X1428090Y688433D02*
Y690433D01*
X1427120Y673403D02*
X1429120D01*
X1428120Y672403D02*
Y674403D01*
X1445120Y673403D02*
X1447120D01*
X1446120Y672403D02*
Y674403D01*
X1457150Y673403D02*
X1459150D01*
X1458150Y672403D02*
Y674403D01*
X988200Y630243D02*
X990200D01*
X989200Y629243D02*
Y631243D01*
X982600Y634543D02*
X984600D01*
X983600Y633543D02*
Y635543D01*
X966400Y671443D02*
X968400D01*
X967400Y670443D02*
Y672443D01*
X1218000Y697443D02*
X1220000D01*
X1219000Y696443D02*
Y698443D01*
X1121113Y604951D02*
X1123113D01*
X1122113Y603951D02*
Y605951D01*
X1076400Y600343D02*
X1078400D01*
X1077400Y599343D02*
Y601343D01*
X916974Y660223D02*
X918974D01*
X917974Y659223D02*
Y661223D01*
X1031819Y672842D02*
X1033819D01*
X1032819Y671842D02*
Y673842D01*
X930700Y646043D02*
X932700D01*
X931700Y645043D02*
Y647043D01*
X1031100Y642643D02*
X1033100D01*
X1032100Y641643D02*
Y643643D01*
X992800Y671243D02*
X994800D01*
X993800Y670243D02*
Y672243D01*
X975700Y664843D02*
X977700D01*
X976700Y663843D02*
Y665843D01*
X1030900Y634543D02*
X1032900D01*
X1031900Y633543D02*
Y635543D01*
X1301900Y617243D02*
X1303900D01*
X1302900Y616243D02*
Y618243D01*
X1259531Y618453D02*
X1261532D01*
X1260531Y617453D02*
Y619453D01*
X1193000Y639643D02*
X1195000D01*
X1194000Y638643D02*
Y640643D01*
X1259300Y629943D02*
X1261300D01*
X1260300Y628943D02*
Y630943D01*
X1263100Y637143D02*
X1265100D01*
X1264100Y636143D02*
Y638143D01*
X1214200Y613343D02*
X1216200D01*
X1215200Y612343D02*
Y614343D01*
X1191800Y607843D02*
X1193800D01*
X1192800Y606843D02*
Y608843D01*
X1315200Y610443D02*
X1317200D01*
X1316200Y609443D02*
Y611443D01*
X1326300Y598043D02*
X1328300D01*
X1327300Y597043D02*
Y599043D01*
X1314100Y600343D02*
X1316100D01*
X1315100Y599343D02*
Y601343D01*
X1185300Y633143D02*
X1187300D01*
X1186300Y632143D02*
Y634143D01*
X1183500Y623043D02*
X1185500D01*
X1184500Y622043D02*
Y624043D01*
X1195600Y612243D02*
X1197600D01*
X1196600Y611243D02*
Y613243D01*
X1174600Y650843D02*
X1176600D01*
X1175600Y649843D02*
Y651843D01*
X1156705Y655759D02*
X1158705D01*
X1157705Y654759D02*
Y656758D01*
X1122275Y658743D02*
X1124275D01*
X1123275Y657743D02*
Y659743D01*
X1185500Y661243D02*
X1187500D01*
X1186500Y660243D02*
Y662243D01*
X1294900Y685043D02*
X1296900D01*
X1295900Y684043D02*
Y686043D01*
X1282500Y671843D02*
X1284500D01*
X1283500Y670843D02*
Y672843D01*
X1241100Y637143D02*
X1243100D01*
X1242100Y636143D02*
Y638143D01*
X1226300Y599443D02*
X1228300D01*
X1227300Y598443D02*
Y600443D01*
X1107500Y659443D02*
X1109500D01*
X1108500Y658443D02*
Y660443D01*
X1089818Y651318D02*
X1091818D01*
X1090818Y650318D02*
Y652318D01*
X1156000Y605643D02*
X1158000D01*
X1157000Y604643D02*
Y606643D01*
X1239100Y660843D02*
X1241100D01*
X1240100Y659843D02*
Y661843D01*
X1264700Y646943D02*
X1266700D01*
X1265700Y645943D02*
Y647943D01*
X1268300Y638943D02*
X1270300D01*
X1269300Y637943D02*
Y639943D01*
X954400Y687743D02*
X956400D01*
X955400Y686743D02*
Y688743D01*
X1173100Y687643D02*
X1175100D01*
X1174100Y686643D02*
Y688643D01*
X1185800Y687643D02*
X1187800D01*
X1186800Y686643D02*
Y688643D01*
X1135000Y687643D02*
X1137000D01*
X1136000Y686643D02*
Y688643D01*
X1147700Y687643D02*
X1149700D01*
X1148700Y686643D02*
Y688643D01*
X1160400Y687643D02*
X1162400D01*
X1161400Y686643D02*
Y688643D01*
X1227000Y656443D02*
X1229000D01*
X1228000Y655443D02*
Y657443D01*
X1198800Y647343D02*
X1200800D01*
X1199800Y646343D02*
Y648343D01*
X1335800Y634043D02*
X1337800D01*
X1336800Y633043D02*
Y635043D01*
X1092200Y662143D02*
X1094200D01*
X1093200Y661143D02*
Y663143D01*
X1076400Y662543D02*
X1078400D01*
X1077400Y661543D02*
Y663543D01*
X1145896Y655339D02*
X1147896D01*
X1146896Y654339D02*
Y656339D01*
X1119000Y628443D02*
X1121000D01*
X1120000Y627443D02*
Y629443D01*
X1104650Y639293D02*
X1106650D01*
X1105650Y638293D02*
Y640293D01*
X1051150Y639293D02*
X1053150D01*
X1052150Y638293D02*
Y640293D01*
X1310300Y604343D02*
X1312300D01*
X1311300Y603343D02*
Y605343D01*
X1268300Y611043D02*
X1270300D01*
X1269300Y610043D02*
Y612043D01*
X936500Y626943D02*
X938500D01*
X937500Y625943D02*
Y627943D01*
X929800Y612843D02*
X931800D01*
X930800Y611843D02*
Y613843D01*
X902300Y600043D02*
X904300D01*
X903300Y599043D02*
Y601043D01*
X951800Y646943D02*
X953800D01*
X952800Y645943D02*
Y647943D01*
X990100Y697243D02*
X992100D01*
X991100Y696243D02*
Y698243D01*
X1034300Y651243D02*
X1036300D01*
X1035300Y650243D02*
Y652243D01*
X1099700Y682743D02*
X1101700D01*
X1100700Y681743D02*
Y683743D01*
X1076900Y683043D02*
X1078900D01*
X1077900Y682043D02*
Y684043D01*
X1052600Y683143D02*
X1054600D01*
X1053600Y682143D02*
Y684143D01*
X1197400Y673643D02*
X1199400D01*
X1198400Y672643D02*
Y674643D01*
X1204600Y660843D02*
X1206600D01*
X1205600Y659843D02*
Y661843D01*
X1279200Y548643D02*
X1281200D01*
X1280200Y547643D02*
Y549643D01*
X1279000Y570643D02*
X1281000D01*
X1280000Y569643D02*
Y571643D01*
X1015400Y547843D02*
X1017400D01*
X1016400Y546843D02*
Y548843D01*
X1015100Y569943D02*
X1017100D01*
X1016100Y568943D02*
Y570943D01*
X1414100Y548843D02*
X1416100D01*
X1415100Y547843D02*
Y549843D01*
X1415000Y571243D02*
X1417000D01*
X1416000Y570243D02*
Y572243D01*
X1493300Y549243D02*
X1495300D01*
X1494300Y548243D02*
Y550243D01*
X1493600Y571343D02*
X1495600D01*
X1494600Y570343D02*
Y572343D01*
X803200Y547043D02*
X805200D01*
X804200Y546043D02*
Y548043D01*
X804000Y571743D02*
X806000D01*
X805000Y570743D02*
Y572743D01*
X882000Y548643D02*
X884000D01*
X883000Y547643D02*
Y549643D01*
X882300Y571443D02*
X884300D01*
X883300Y570443D02*
Y572443D01*
X1265600Y600943D02*
X1267600D01*
X1266600Y599943D02*
Y601943D01*
X1173700Y639943D02*
X1175700D01*
X1174700Y638943D02*
Y640943D01*
X1426200Y559443D02*
X1428200D01*
X1427200Y558443D02*
Y560443D01*
X1483600Y559543D02*
X1485600D01*
X1484600Y558543D02*
Y560543D01*
X1193700Y667243D02*
X1195700D01*
X1194700Y666243D02*
Y668243D01*
X1210750Y633343D02*
X1212750D01*
X1211750Y632343D02*
Y634343D01*
X1323710Y623653D02*
X1325710D01*
X1324710Y622653D02*
Y624653D01*
X1325100Y618743D02*
X1327100D01*
X1326100Y617743D02*
Y619743D01*
X1305800Y610843D02*
X1307800D01*
X1306800Y609843D02*
Y611843D01*
X1357400Y604643D02*
X1359400D01*
X1358400Y603643D02*
Y605643D01*
X1357800Y645043D02*
X1359800D01*
X1358800Y644043D02*
Y646043D01*
X1358000Y649943D02*
X1360000D01*
X1359000Y648943D02*
Y650943D01*
X1358000Y654963D02*
X1360000D01*
X1359000Y653963D02*
Y655963D01*
X1358000Y659983D02*
X1360000D01*
X1359000Y658983D02*
Y660983D01*
X1358000Y670023D02*
X1360000D01*
X1359000Y669023D02*
Y671023D01*
X1358000Y675043D02*
X1360000D01*
X1359000Y674043D02*
Y676043D01*
X1358000Y665003D02*
X1360000D01*
X1359000Y664003D02*
Y666003D01*
X1356375Y589968D02*
X1358375D01*
X1357375Y588968D02*
Y590968D01*
X1371400Y587843D02*
X1373400D01*
X1372400Y586843D02*
Y588843D01*
X1210600Y627143D02*
X1212600D01*
X1211600Y626143D02*
Y628143D01*
X1338600Y620743D02*
X1340600D01*
X1339600Y619743D02*
Y621743D01*
X1037400Y559543D02*
X1039400D01*
X1038400Y558543D02*
Y560543D01*
X1148900Y559543D02*
X1150900D01*
X1149900Y558543D02*
Y560543D01*
X1260400Y559543D02*
X1262400D01*
X1261400Y558543D02*
Y560543D01*
X1343800Y620843D02*
X1345800D01*
X1344800Y619843D02*
Y621843D01*
X1343700Y604343D02*
X1345700D01*
X1344700Y603343D02*
Y605343D01*
X1338600Y604343D02*
X1340600D01*
X1339600Y603343D02*
Y605343D01*
X1122300Y687643D02*
X1124300D01*
X1123300Y686643D02*
Y688643D01*
X814300Y559543D02*
X816300D01*
X815300Y558543D02*
Y560543D01*
X872700Y559543D02*
X874700D01*
X873700Y558543D02*
Y560543D01*
X892500Y612043D02*
X894500D01*
X893500Y611043D02*
Y613043D01*
X1399000Y599643D02*
X1401000D01*
X1400000Y598643D02*
Y600643D01*
X1409100Y599643D02*
X1411100D01*
X1410100Y598643D02*
Y600643D01*
X1358000Y705143D02*
X1360000D01*
X1359000Y704143D02*
Y706143D01*
X1358000Y680043D02*
X1360000D01*
X1359000Y679043D02*
Y681043D01*
X1358000Y685063D02*
X1360000D01*
X1359000Y684063D02*
Y686063D01*
X1358000Y690083D02*
X1360000D01*
X1359000Y689083D02*
Y691083D01*
X1358000Y695103D02*
X1360000D01*
X1359000Y694103D02*
Y696103D01*
X1358000Y700123D02*
X1360000D01*
X1359000Y699123D02*
Y701123D01*
X1391040Y639443D02*
X1393040D01*
X1392040Y638443D02*
Y640443D01*
X1365100Y639443D02*
X1367100D01*
X1366100Y638443D02*
Y640443D01*
X1370288Y639443D02*
X1372288D01*
X1371288Y638443D02*
Y640443D01*
X1375476Y639443D02*
X1377476D01*
X1376476Y638443D02*
Y640443D01*
X1380664Y639443D02*
X1382664D01*
X1381664Y638443D02*
Y640443D01*
X1385852Y639443D02*
X1387852D01*
X1386852Y638443D02*
Y640443D01*
X1396228Y639443D02*
X1398228D01*
X1397228Y638443D02*
Y640443D01*
X1401416Y639443D02*
X1403416D01*
X1402416Y638443D02*
Y640443D01*
X1406604Y639443D02*
X1408604D01*
X1407604Y638443D02*
Y640443D01*
X1411792Y639443D02*
X1413792D01*
X1412792Y638443D02*
Y640443D01*
X1416980Y639443D02*
X1418980D01*
X1417980Y638443D02*
Y640443D01*
X1467491Y638743D02*
X1469491D01*
X1468491Y637743D02*
Y639743D01*
X1441900Y638743D02*
X1443900D01*
X1442900Y637743D02*
Y639743D01*
X1447018Y638743D02*
X1449018D01*
X1448018Y637743D02*
Y639743D01*
X1452136Y638743D02*
X1454136D01*
X1453136Y637743D02*
Y639743D01*
X1457254Y638743D02*
X1459254D01*
X1458255Y637743D02*
Y639743D01*
X1462373Y638743D02*
X1464373D01*
X1463373Y637743D02*
Y639743D01*
X1498200Y638743D02*
X1500200D01*
X1499200Y637743D02*
Y639743D01*
X1472609Y638743D02*
X1474609D01*
X1473609Y637743D02*
Y639743D01*
X1477727Y638743D02*
X1479727D01*
X1478727Y637743D02*
Y639743D01*
X1482845Y638743D02*
X1484845D01*
X1483845Y637743D02*
Y639743D01*
X1487963Y638743D02*
X1489963D01*
X1488963Y637743D02*
Y639743D01*
X1493082Y638743D02*
X1495081D01*
X1494082Y637743D02*
Y639743D01*
X1436500Y638343D02*
X1438500D01*
X1437500Y637343D02*
Y639343D01*
X1419800Y609843D02*
X1421800D01*
X1420800Y608843D02*
Y610843D01*
X1441000Y625543D02*
X1443000D01*
X1442000Y624543D02*
Y626543D01*
X1441000Y633043D02*
X1443000D01*
X1442000Y632043D02*
Y634043D01*
X1406500Y589843D02*
X1408500D01*
X1407500Y588843D02*
Y590843D01*
X1440200Y605643D02*
X1442200D01*
X1441200Y604643D02*
Y606643D01*
X1382000Y586743D02*
X1384000D01*
X1383000Y585743D02*
Y587743D01*
X1421600Y634843D02*
X1423600D01*
X1422600Y633843D02*
Y635843D01*
X1419800Y627843D02*
X1421800D01*
X1420800Y626843D02*
Y628843D01*
X1419800Y618843D02*
X1421800D01*
X1420800Y617843D02*
Y619843D01*
X1434700Y620343D02*
X1436700D01*
X1435700Y619343D02*
Y621343D01*
X1361300Y613743D02*
X1363300D01*
X1362300Y612743D02*
Y614743D01*
X1423100Y590643D02*
X1425100D01*
X1424100Y589643D02*
Y591643D01*
X1431000Y598643D02*
X1433000D01*
X1432000Y597643D02*
Y599643D01*
X1419000Y600543D02*
X1421000D01*
X1420000Y599543D02*
Y601543D01*
X1435107Y612640D02*
X1437107D01*
X1436107Y611640D02*
Y613640D01*
X2225560Y704413D02*
X2227560D01*
X2226560Y703413D02*
Y705413D01*
X2210540Y689433D02*
X2212540D01*
X2211540Y688433D02*
Y690433D01*
X2147553Y704416D02*
X2149553D01*
X2148553Y703416D02*
Y705416D01*
X2147510Y652393D02*
X2149510D01*
X2148510Y651393D02*
Y653393D01*
X2210558Y673406D02*
X2212558D01*
X2211558Y672406D02*
Y674406D01*
X2178530Y704423D02*
X2180530D01*
X2179530Y703423D02*
Y705423D01*
X2194550Y704403D02*
X2196550D01*
X2195550Y703403D02*
Y705403D01*
X2162490Y689433D02*
X2164490D01*
X2163490Y688433D02*
Y690433D01*
X2162520Y673403D02*
X2164520D01*
X2163520Y672403D02*
Y674403D01*
X2180520Y673403D02*
X2182520D01*
X2181520Y672403D02*
Y674403D01*
X2192550Y673403D02*
X2194550D01*
X2193550Y672403D02*
Y674403D01*
X1723600Y630243D02*
X1725600D01*
X1724600Y629243D02*
Y631243D01*
X1718000Y634543D02*
X1720000D01*
X1719000Y633543D02*
Y635543D01*
X1701800Y671443D02*
X1703800D01*
X1702800Y670443D02*
Y672443D01*
X1953400Y697443D02*
X1955400D01*
X1954400Y696443D02*
Y698443D01*
X1856513Y604951D02*
X1858513D01*
X1857513Y603951D02*
Y605951D01*
X1811800Y600343D02*
X1813800D01*
X1812800Y599343D02*
Y601343D01*
X1652374Y660223D02*
X1654374D01*
X1653374Y659223D02*
Y661223D01*
X1767219Y672842D02*
X1769219D01*
X1768219Y671842D02*
Y673842D01*
X1666100Y646043D02*
X1668100D01*
X1667100Y645043D02*
Y647043D01*
X1766500Y642643D02*
X1768500D01*
X1767500Y641643D02*
Y643643D01*
X1728200Y671243D02*
X1730200D01*
X1729200Y670243D02*
Y672243D01*
X1711100Y664843D02*
X1713100D01*
X1712100Y663843D02*
Y665843D01*
X1766300Y634543D02*
X1768300D01*
X1767300Y633543D02*
Y635543D01*
X2037300Y617243D02*
X2039300D01*
X2038300Y616243D02*
Y618243D01*
X1994931Y618453D02*
X1996931D01*
X1995932Y617453D02*
Y619453D01*
X1928400Y639643D02*
X1930400D01*
X1929400Y638643D02*
Y640643D01*
X1994700Y629943D02*
X1996700D01*
X1995700Y628943D02*
Y630943D01*
X1998500Y637143D02*
X2000500D01*
X1999500Y636143D02*
Y638143D01*
X1949600Y613343D02*
X1951600D01*
X1950600Y612343D02*
Y614343D01*
X1927200Y607843D02*
X1929200D01*
X1928200Y606843D02*
Y608843D01*
X2050600Y610443D02*
X2052600D01*
X2051600Y609443D02*
Y611443D01*
X2061700Y598043D02*
X2063700D01*
X2062700Y597043D02*
Y599043D01*
X2049500Y600343D02*
X2051500D01*
X2050500Y599343D02*
Y601343D01*
X1920700Y633143D02*
X1922700D01*
X1921700Y632143D02*
Y634143D01*
X1918900Y623043D02*
X1920900D01*
X1919900Y622043D02*
Y624043D01*
X1931000Y612243D02*
X1933000D01*
X1932000Y611243D02*
Y613243D01*
X1910000Y650843D02*
X1912000D01*
X1911000Y649843D02*
Y651843D01*
X1892105Y655759D02*
X1894105D01*
X1893105Y654759D02*
Y656758D01*
X1857675Y658743D02*
X1859675D01*
X1858675Y657743D02*
Y659743D01*
X1920900Y661243D02*
X1922900D01*
X1921900Y660243D02*
Y662243D01*
X2030300Y685043D02*
X2032300D01*
X2031300Y684043D02*
Y686043D01*
X2017900Y671843D02*
X2019900D01*
X2018900Y670843D02*
Y672843D01*
X1976500Y637143D02*
X1978500D01*
X1977500Y636143D02*
Y638143D01*
X1961700Y599443D02*
X1963700D01*
X1962700Y598443D02*
Y600443D01*
X1842900Y659443D02*
X1844900D01*
X1843900Y658443D02*
Y660443D01*
X1825218Y651318D02*
X1827218D01*
X1826218Y650318D02*
Y652318D01*
X1891400Y605643D02*
X1893400D01*
X1892400Y604643D02*
Y606643D01*
X1974500Y660843D02*
X1976500D01*
X1975500Y659843D02*
Y661843D01*
X2000100Y646943D02*
X2002100D01*
X2001100Y645943D02*
Y647943D01*
X2003700Y638943D02*
X2005700D01*
X2004700Y637943D02*
Y639943D01*
X1689800Y687743D02*
X1691800D01*
X1690800Y686743D02*
Y688743D01*
X1908500Y687643D02*
X1910500D01*
X1909500Y686643D02*
Y688643D01*
X1921200Y687643D02*
X1923200D01*
X1922200Y686643D02*
Y688643D01*
X1870400Y687643D02*
X1872400D01*
X1871400Y686643D02*
Y688643D01*
X1883100Y687643D02*
X1885100D01*
X1884100Y686643D02*
Y688643D01*
X1895800Y687643D02*
X1897800D01*
X1896800Y686643D02*
Y688643D01*
X1962400Y656443D02*
X1964400D01*
X1963400Y655443D02*
Y657443D01*
X1934200Y647343D02*
X1936200D01*
X1935200Y646343D02*
Y648343D01*
X2071200Y634043D02*
X2073200D01*
X2072200Y633043D02*
Y635043D01*
X1827600Y662143D02*
X1829600D01*
X1828600Y661143D02*
Y663143D01*
X1811800Y662543D02*
X1813800D01*
X1812800Y661543D02*
Y663543D01*
X1881296Y655339D02*
X1883296D01*
X1882296Y654339D02*
Y656339D01*
X1854400Y628443D02*
X1856400D01*
X1855400Y627443D02*
Y629443D01*
X1840050Y639293D02*
X1842050D01*
X1841050Y638293D02*
Y640293D01*
X1786550Y639293D02*
X1788550D01*
X1787550Y638293D02*
Y640293D01*
X2045700Y604343D02*
X2047700D01*
X2046700Y603343D02*
Y605343D01*
X2003700Y611043D02*
X2005700D01*
X2004700Y610043D02*
Y612043D01*
X1671900Y626943D02*
X1673900D01*
X1672900Y625943D02*
Y627943D01*
X1665200Y612843D02*
X1667200D01*
X1666200Y611843D02*
Y613843D01*
X1637700Y600043D02*
X1639700D01*
X1638700Y599043D02*
Y601043D01*
X1687200Y646943D02*
X1689200D01*
X1688200Y645943D02*
Y647943D01*
X1725500Y697243D02*
X1727500D01*
X1726500Y696243D02*
Y698243D01*
X1769700Y651243D02*
X1771700D01*
X1770700Y650243D02*
Y652243D01*
X1835100Y682743D02*
X1837100D01*
X1836100Y681743D02*
Y683743D01*
X1812300Y683043D02*
X1814300D01*
X1813300Y682043D02*
Y684043D01*
X1788000Y683143D02*
X1790000D01*
X1789000Y682143D02*
Y684143D01*
X1932800Y673643D02*
X1934800D01*
X1933800Y672643D02*
Y674643D01*
X1940000Y660843D02*
X1942000D01*
X1941000Y659843D02*
Y661843D01*
X2014600Y548643D02*
X2016600D01*
X2015600Y547643D02*
Y549643D01*
X2014400Y570643D02*
X2016400D01*
X2015400Y569643D02*
Y571643D01*
X1750800Y547843D02*
X1752800D01*
X1751800Y546843D02*
Y548843D01*
X1750500Y569943D02*
X1752500D01*
X1751500Y568943D02*
Y570943D01*
X2149500Y548843D02*
X2151500D01*
X2150500Y547843D02*
Y549843D01*
X2150400Y571243D02*
X2152400D01*
X2151400Y570243D02*
Y572243D01*
X2228700Y549243D02*
X2230700D01*
X2229700Y548243D02*
Y550243D01*
X2229000Y571343D02*
X2231000D01*
X2230000Y570343D02*
Y572343D01*
X1538600Y547043D02*
X1540600D01*
X1539600Y546043D02*
Y548043D01*
X1539400Y571743D02*
X1541400D01*
X1540400Y570743D02*
Y572743D01*
X1617400Y548643D02*
X1619400D01*
X1618400Y547643D02*
Y549643D01*
X1617700Y571443D02*
X1619700D01*
X1618700Y570443D02*
Y572443D01*
X2001000Y600943D02*
X2003000D01*
X2002000Y599943D02*
Y601943D01*
X1909100Y639943D02*
X1911100D01*
X1910100Y638943D02*
Y640943D01*
X2161600Y559443D02*
X2163600D01*
X2162600Y558443D02*
Y560443D01*
X2219000Y559543D02*
X2221000D01*
X2220000Y558543D02*
Y560543D01*
X1929100Y667243D02*
X1931100D01*
X1930100Y666243D02*
Y668243D01*
X1946150Y633343D02*
X1948150D01*
X1947150Y632343D02*
Y634343D01*
X2059110Y623653D02*
X2061110D01*
X2060110Y622653D02*
Y624653D01*
X2060500Y618743D02*
X2062500D01*
X2061500Y617743D02*
Y619743D01*
X2041200Y610843D02*
X2043200D01*
X2042200Y609843D02*
Y611843D01*
X2092800Y604643D02*
X2094800D01*
X2093800Y603643D02*
Y605643D01*
X2093200Y645043D02*
X2095200D01*
X2094200Y644043D02*
Y646043D01*
X2093400Y649943D02*
X2095400D01*
X2094400Y648943D02*
Y650943D01*
X2093400Y654963D02*
X2095400D01*
X2094400Y653963D02*
Y655963D01*
X2093400Y659983D02*
X2095400D01*
X2094400Y658983D02*
Y660983D01*
X2093400Y670023D02*
X2095400D01*
X2094400Y669023D02*
Y671023D01*
X2093400Y675043D02*
X2095400D01*
X2094400Y674043D02*
Y676043D01*
X2093400Y665003D02*
X2095400D01*
X2094400Y664003D02*
Y666003D01*
X2091775Y589968D02*
X2093775D01*
X2092775Y588968D02*
Y590968D01*
X2106800Y587843D02*
X2108800D01*
X2107800Y586843D02*
Y588843D01*
X1946000Y627143D02*
X1948000D01*
X1947000Y626143D02*
Y628143D01*
X2074000Y620743D02*
X2076000D01*
X2075000Y619743D02*
Y621743D01*
X1772800Y559543D02*
X1774800D01*
X1773800Y558543D02*
Y560543D01*
X1884300Y559543D02*
X1886300D01*
X1885300Y558543D02*
Y560543D01*
X1995800Y559543D02*
X1997800D01*
X1996800Y558543D02*
Y560543D01*
X2079200Y620843D02*
X2081200D01*
X2080200Y619843D02*
Y621843D01*
X2079100Y604343D02*
X2081100D01*
X2080100Y603343D02*
Y605343D01*
X2074000Y604343D02*
X2076000D01*
X2075000Y603343D02*
Y605343D01*
X1857700Y687643D02*
X1859700D01*
X1858700Y686643D02*
Y688643D01*
X1549700Y559543D02*
X1551700D01*
X1550700Y558543D02*
Y560543D01*
X1608100Y559543D02*
X1610100D01*
X1609100Y558543D02*
Y560543D01*
X1627900Y612043D02*
X1629900D01*
X1628900Y611043D02*
Y613043D01*
X2134400Y599643D02*
X2136400D01*
X2135400Y598643D02*
Y600643D01*
X2144500Y599643D02*
X2146500D01*
X2145500Y598643D02*
Y600643D01*
X2093400Y705143D02*
X2095400D01*
X2094400Y704143D02*
Y706143D01*
X2093400Y680043D02*
X2095400D01*
X2094400Y679043D02*
Y681043D01*
X2093400Y685063D02*
X2095400D01*
X2094400Y684063D02*
Y686063D01*
X2093400Y690083D02*
X2095400D01*
X2094400Y689083D02*
Y691083D01*
X2093400Y695103D02*
X2095400D01*
X2094400Y694103D02*
Y696103D01*
X2093400Y700123D02*
X2095400D01*
X2094400Y699123D02*
Y701123D01*
X2126440Y639443D02*
X2128440D01*
X2127440Y638443D02*
Y640443D01*
X2100500Y639443D02*
X2102500D01*
X2101500Y638443D02*
Y640443D01*
X2105688Y639443D02*
X2107688D01*
X2106688Y638443D02*
Y640443D01*
X2110876Y639443D02*
X2112876D01*
X2111876Y638443D02*
Y640443D01*
X2116064Y639443D02*
X2118064D01*
X2117064Y638443D02*
Y640443D01*
X2121252Y639443D02*
X2123252D01*
X2122252Y638443D02*
Y640443D01*
X2131628Y639443D02*
X2133628D01*
X2132628Y638443D02*
Y640443D01*
X2136816Y639443D02*
X2138816D01*
X2137816Y638443D02*
Y640443D01*
X2142004Y639443D02*
X2144004D01*
X2143004Y638443D02*
Y640443D01*
X2147192Y639443D02*
X2149192D01*
X2148192Y638443D02*
Y640443D01*
X2152380Y639443D02*
X2154380D01*
X2153380Y638443D02*
Y640443D01*
X2202891Y638743D02*
X2204891D01*
X2203891Y637743D02*
Y639743D01*
X2177300Y638743D02*
X2179300D01*
X2178300Y637743D02*
Y639743D01*
X2182418Y638743D02*
X2184418D01*
X2183418Y637743D02*
Y639743D01*
X2187536Y638743D02*
X2189536D01*
X2188536Y637743D02*
Y639743D01*
X2192655Y638743D02*
X2194655D01*
X2193654Y637743D02*
Y639743D01*
X2197773Y638743D02*
X2199773D01*
X2198773Y637743D02*
Y639743D01*
X2233600Y638743D02*
X2235600D01*
X2234600Y637743D02*
Y639743D01*
X2208009Y638743D02*
X2210009D01*
X2209009Y637743D02*
Y639743D01*
X2213127Y638743D02*
X2215127D01*
X2214127Y637743D02*
Y639743D01*
X2218245Y638743D02*
X2220245D01*
X2219245Y637743D02*
Y639743D01*
X2223363Y638743D02*
X2225363D01*
X2224363Y637743D02*
Y639743D01*
X2228481Y638743D02*
X2230482D01*
X2229482Y637743D02*
Y639743D01*
X2171900Y638343D02*
X2173900D01*
X2172900Y637343D02*
Y639343D01*
X2155200Y609843D02*
X2157200D01*
X2156200Y608843D02*
Y610843D01*
X2176400Y625543D02*
X2178400D01*
X2177400Y624543D02*
Y626543D01*
X2176400Y633043D02*
X2178400D01*
X2177400Y632043D02*
Y634043D01*
X2141900Y589843D02*
X2143900D01*
X2142900Y588843D02*
Y590843D01*
X2175600Y605643D02*
X2177600D01*
X2176600Y604643D02*
Y606643D01*
X2117400Y586743D02*
X2119400D01*
X2118400Y585743D02*
Y587743D01*
X2157000Y634843D02*
X2159000D01*
X2158000Y633843D02*
Y635843D01*
X2155200Y627843D02*
X2157200D01*
X2156200Y626843D02*
Y628843D01*
X2155200Y618843D02*
X2157200D01*
X2156200Y617843D02*
Y619843D01*
X2170100Y620343D02*
X2172100D01*
X2171100Y619343D02*
Y621343D01*
X2096700Y613743D02*
X2098700D01*
X2097700Y612743D02*
Y614743D01*
X2158500Y590643D02*
X2160500D01*
X2159500Y589643D02*
Y591643D01*
X2166400Y598643D02*
X2168400D01*
X2167400Y597643D02*
Y599643D01*
X2154400Y600543D02*
X2156400D01*
X2155400Y599543D02*
Y601543D01*
X2170507Y612640D02*
X2172507D01*
X2171507Y611640D02*
Y613640D01*
X754760Y909784D02*
X756760D01*
X755760Y908784D02*
Y910784D01*
X739740Y894804D02*
X741740D01*
X740740Y893804D02*
Y895804D01*
X676753Y909787D02*
X678753D01*
X677753Y908787D02*
Y910787D01*
X676710Y857764D02*
X678710D01*
X677710Y856764D02*
Y858764D01*
X739758Y878777D02*
X741758D01*
X740758Y877777D02*
Y879777D01*
X707730Y909794D02*
X709730D01*
X708730Y908794D02*
Y910794D01*
X723750Y909774D02*
X725750D01*
X724750Y908774D02*
Y910774D01*
X691690Y894804D02*
X693690D01*
X692690Y893804D02*
Y895804D01*
X691720Y878774D02*
X693720D01*
X692720Y877774D02*
Y879774D01*
X709720Y878774D02*
X711720D01*
X710720Y877774D02*
Y879774D01*
X721750Y878774D02*
X723750D01*
X722750Y877774D02*
Y879774D01*
X252800Y835614D02*
X254800D01*
X253800Y834614D02*
Y836614D01*
X247200Y839914D02*
X249200D01*
X248200Y838914D02*
Y840914D01*
X231000Y876814D02*
X233000D01*
X232000Y875814D02*
Y877814D01*
X482600Y902814D02*
X484600D01*
X483600Y901814D02*
Y903814D01*
X385713Y810322D02*
X387713D01*
X386713Y809323D02*
Y811322D01*
X341000Y805714D02*
X343000D01*
X342000Y804714D02*
Y806714D01*
X181574Y865594D02*
X183574D01*
X182574Y864594D02*
Y866594D01*
X296419Y878213D02*
X298419D01*
X297419Y877213D02*
Y879213D01*
X195300Y851414D02*
X197300D01*
X196300Y850414D02*
Y852414D01*
X295700Y848014D02*
X297700D01*
X296700Y847014D02*
Y849014D01*
X257400Y876614D02*
X259400D01*
X258400Y875614D02*
Y877614D01*
X240300Y870214D02*
X242300D01*
X241300Y869214D02*
Y871214D01*
X295500Y839914D02*
X297500D01*
X296500Y838914D02*
Y840914D01*
X566500Y822614D02*
X568500D01*
X567500Y821614D02*
Y823614D01*
X524132Y823824D02*
X526132D01*
X525131Y822824D02*
Y824824D01*
X457600Y845014D02*
X459600D01*
X458600Y844014D02*
Y846014D01*
X523900Y835314D02*
X525900D01*
X524900Y834314D02*
Y836314D01*
X527700Y842514D02*
X529700D01*
X528700Y841514D02*
Y843514D01*
X478800Y818714D02*
X480800D01*
X479800Y817714D02*
Y819714D01*
X456400Y813214D02*
X458400D01*
X457400Y812214D02*
Y814214D01*
X579800Y815814D02*
X581800D01*
X580800Y814814D02*
Y816814D01*
X590900Y803414D02*
X592900D01*
X591900Y802414D02*
Y804414D01*
X578700Y805714D02*
X580700D01*
X579700Y804714D02*
Y806714D01*
X449900Y838514D02*
X451900D01*
X450900Y837514D02*
Y839514D01*
X448100Y828414D02*
X450100D01*
X449100Y827414D02*
Y829414D01*
X460200Y817614D02*
X462200D01*
X461200Y816614D02*
Y818614D01*
X439200Y856214D02*
X441200D01*
X440200Y855214D02*
Y857214D01*
X421305Y861130D02*
X423305D01*
X422305Y860130D02*
Y862130D01*
X386875Y864114D02*
X388875D01*
X387875Y863114D02*
Y865114D01*
X450100Y866614D02*
X452100D01*
X451100Y865614D02*
Y867614D01*
X559500Y890414D02*
X561500D01*
X560500Y889414D02*
Y891414D01*
X547100Y877214D02*
X549100D01*
X548100Y876214D02*
Y878214D01*
X505700Y842514D02*
X507700D01*
X506700Y841514D02*
Y843514D01*
X490900Y804814D02*
X492900D01*
X491900Y803814D02*
Y805814D01*
X372100Y864814D02*
X374100D01*
X373100Y863814D02*
Y865814D01*
X354418Y856690D02*
X356418D01*
X355418Y855689D02*
Y857690D01*
X420600Y811014D02*
X422600D01*
X421600Y810014D02*
Y812014D01*
X503700Y866214D02*
X505700D01*
X504700Y865214D02*
Y867214D01*
X529300Y852314D02*
X531300D01*
X530300Y851314D02*
Y853314D01*
X532900Y844314D02*
X534900D01*
X533900Y843314D02*
Y845314D01*
X219000Y893114D02*
X221000D01*
X220000Y892114D02*
Y894114D01*
X437700Y893014D02*
X439700D01*
X438700Y892014D02*
Y894014D01*
X450400Y893014D02*
X452400D01*
X451400Y892014D02*
Y894014D01*
X399600Y893014D02*
X401600D01*
X400600Y892014D02*
Y894014D01*
X412300Y893014D02*
X414300D01*
X413300Y892014D02*
Y894014D01*
X425000Y893014D02*
X427000D01*
X426000Y892014D02*
Y894014D01*
X491600Y861814D02*
X493600D01*
X492600Y860814D02*
Y862814D01*
X463400Y852714D02*
X465400D01*
X464400Y851714D02*
Y853714D01*
X600400Y839414D02*
X602400D01*
X601400Y838414D02*
Y840414D01*
X356800Y867514D02*
X358800D01*
X357800Y866514D02*
Y868514D01*
X341000Y867914D02*
X343000D01*
X342000Y866914D02*
Y868914D01*
X410496Y860710D02*
X412496D01*
X411496Y859710D02*
Y861710D01*
X383600Y833814D02*
X385600D01*
X384600Y832814D02*
Y834814D01*
X369250Y844664D02*
X371250D01*
X370250Y843664D02*
Y845664D01*
X315750Y844664D02*
X317750D01*
X316750Y843664D02*
Y845664D01*
X574900Y809714D02*
X576900D01*
X575900Y808714D02*
Y810714D01*
X532900Y816414D02*
X534900D01*
X533900Y815414D02*
Y817414D01*
X201100Y832314D02*
X203100D01*
X202100Y831314D02*
Y833314D01*
X194400Y818214D02*
X196400D01*
X195400Y817214D02*
Y819214D01*
X166900Y805414D02*
X168900D01*
X167900Y804414D02*
Y806414D01*
X216400Y852314D02*
X218400D01*
X217400Y851314D02*
Y853314D01*
X254700Y902614D02*
X256700D01*
X255700Y901614D02*
Y903614D01*
X298900Y856614D02*
X300900D01*
X299900Y855614D02*
Y857614D01*
X364300Y888114D02*
X366300D01*
X365300Y887114D02*
Y889114D01*
X341500Y888414D02*
X343500D01*
X342500Y887414D02*
Y889414D01*
X317200Y888514D02*
X319200D01*
X318200Y887514D02*
Y889514D01*
X462000Y879014D02*
X464000D01*
X463000Y878014D02*
Y880014D01*
X469200Y866214D02*
X471200D01*
X470200Y865214D02*
Y867214D01*
X543800Y754014D02*
X545800D01*
X544800Y753014D02*
Y755014D01*
X543600Y776014D02*
X545600D01*
X544600Y775014D02*
Y777014D01*
X280000Y753214D02*
X282000D01*
X281000Y752214D02*
Y754214D01*
X279700Y775314D02*
X281700D01*
X280700Y774314D02*
Y776314D01*
X678700Y754214D02*
X680700D01*
X679700Y753214D02*
Y755214D01*
X679600Y776614D02*
X681600D01*
X680600Y775614D02*
Y777614D01*
X757900Y754614D02*
X759900D01*
X758900Y753614D02*
Y755614D01*
X758200Y776714D02*
X760200D01*
X759200Y775714D02*
Y777714D01*
X67800Y752414D02*
X69800D01*
X68800Y751414D02*
Y753414D01*
X68600Y777114D02*
X70600D01*
X69600Y776114D02*
Y778114D01*
X146600Y754014D02*
X148600D01*
X147600Y753014D02*
Y755014D01*
X146900Y776814D02*
X148900D01*
X147900Y775814D02*
Y777814D01*
X530200Y806314D02*
X532200D01*
X531200Y805314D02*
Y807314D01*
X438300Y845314D02*
X440300D01*
X439300Y844314D02*
Y846314D01*
X690800Y764814D02*
X692800D01*
X691800Y763814D02*
Y765814D01*
X748200Y764914D02*
X750200D01*
X749200Y763914D02*
Y765914D01*
X458300Y872614D02*
X460300D01*
X459300Y871614D02*
Y873614D01*
X475350Y838714D02*
X477350D01*
X476350Y837714D02*
Y839714D01*
X588310Y829025D02*
X590310D01*
X589310Y828025D02*
Y830024D01*
X589700Y824114D02*
X591700D01*
X590700Y823114D02*
Y825114D01*
X570400Y816214D02*
X572400D01*
X571400Y815214D02*
Y817214D01*
X622000Y810014D02*
X624000D01*
X623000Y809014D02*
Y811014D01*
X622400Y850414D02*
X624400D01*
X623400Y849414D02*
Y851414D01*
X622600Y855314D02*
X624600D01*
X623600Y854314D02*
Y856314D01*
X622600Y860334D02*
X624600D01*
X623600Y859334D02*
Y861334D01*
X622600Y865354D02*
X624600D01*
X623600Y864354D02*
Y866354D01*
X622600Y875394D02*
X624600D01*
X623600Y874394D02*
Y876394D01*
X622600Y880414D02*
X624600D01*
X623600Y879414D02*
Y881414D01*
X622600Y870374D02*
X624600D01*
X623600Y869374D02*
Y871374D01*
X620975Y795339D02*
X622975D01*
X621975Y794339D02*
Y796339D01*
X636000Y793214D02*
X638000D01*
X637000Y792214D02*
Y794214D01*
X475200Y832514D02*
X477200D01*
X476200Y831514D02*
Y833514D01*
X603200Y826114D02*
X605200D01*
X604200Y825114D02*
Y827114D01*
X302000Y764914D02*
X304000D01*
X303000Y763914D02*
Y765914D01*
X413500Y764914D02*
X415500D01*
X414500Y763914D02*
Y765914D01*
X525000Y764914D02*
X527000D01*
X526000Y763914D02*
Y765914D01*
X608400Y826214D02*
X610400D01*
X609400Y825214D02*
Y827214D01*
X608300Y809714D02*
X610300D01*
X609300Y808714D02*
Y810714D01*
X603200Y809714D02*
X605200D01*
X604200Y808714D02*
Y810714D01*
X386900Y893014D02*
X388900D01*
X387900Y892014D02*
Y894014D01*
X78900Y764914D02*
X80900D01*
X79900Y763914D02*
Y765914D01*
X137300Y764914D02*
X139300D01*
X138300Y763914D02*
Y765914D01*
X157100Y817414D02*
X159100D01*
X158100Y816414D02*
Y818414D01*
X663600Y805014D02*
X665600D01*
X664600Y804014D02*
Y806014D01*
X673700Y805014D02*
X675700D01*
X674700Y804014D02*
Y806014D01*
X622600Y910514D02*
X624600D01*
X623600Y909514D02*
Y911514D01*
X622600Y885414D02*
X624600D01*
X623600Y884414D02*
Y886414D01*
X622600Y890434D02*
X624600D01*
X623600Y889434D02*
Y891434D01*
X622600Y895454D02*
X624600D01*
X623600Y894454D02*
Y896454D01*
X622600Y900474D02*
X624600D01*
X623600Y899474D02*
Y901474D01*
X622600Y905494D02*
X624600D01*
X623600Y904494D02*
Y906494D01*
X655640Y844814D02*
X657640D01*
X656640Y843814D02*
Y845814D01*
X629700Y844814D02*
X631700D01*
X630700Y843814D02*
Y845814D01*
X634888Y844814D02*
X636888D01*
X635888Y843814D02*
Y845814D01*
X640076Y844814D02*
X642076D01*
X641076Y843814D02*
Y845814D01*
X645264Y844814D02*
X647264D01*
X646264Y843814D02*
Y845814D01*
X650452Y844814D02*
X652452D01*
X651452Y843814D02*
Y845814D01*
X660828Y844814D02*
X662828D01*
X661828Y843814D02*
Y845814D01*
X666016Y844814D02*
X668016D01*
X667016Y843814D02*
Y845814D01*
X671204Y844814D02*
X673204D01*
X672204Y843814D02*
Y845814D01*
X676392Y844814D02*
X678392D01*
X677392Y843814D02*
Y845814D01*
X681580Y844814D02*
X683580D01*
X682580Y843814D02*
Y845814D01*
X732091Y844114D02*
X734091D01*
X733091Y843114D02*
Y845114D01*
X706500Y844114D02*
X708500D01*
X707500Y843114D02*
Y845114D01*
X711618Y844114D02*
X713618D01*
X712618Y843114D02*
Y845114D01*
X716736Y844114D02*
X718736D01*
X717736Y843114D02*
Y845114D01*
X721854Y844114D02*
X723855D01*
X722855Y843114D02*
Y845114D01*
X726973Y844114D02*
X728973D01*
X727973Y843114D02*
Y845114D01*
X762800Y844114D02*
X764800D01*
X763800Y843114D02*
Y845114D01*
X737209Y844114D02*
X739209D01*
X738209Y843114D02*
Y845114D01*
X742327Y844114D02*
X744327D01*
X743327Y843114D02*
Y845114D01*
X747445Y844114D02*
X749445D01*
X748445Y843114D02*
Y845114D01*
X752563Y844114D02*
X754563D01*
X753563Y843114D02*
Y845114D01*
X757682Y844114D02*
X759681D01*
X758681Y843114D02*
Y845114D01*
X701100Y843714D02*
X703100D01*
X702100Y842714D02*
Y844714D01*
X684400Y815214D02*
X686400D01*
X685400Y814214D02*
Y816214D01*
X705600Y830914D02*
X707600D01*
X706600Y829914D02*
Y831914D01*
X705600Y838414D02*
X707600D01*
X706600Y837414D02*
Y839414D01*
X671100Y795214D02*
X673100D01*
X672100Y794214D02*
Y796214D01*
X704800Y811014D02*
X706800D01*
X705800Y810014D02*
Y812014D01*
X646600Y792114D02*
X648600D01*
X647600Y791114D02*
Y793114D01*
X686200Y840214D02*
X688200D01*
X687200Y839214D02*
Y841214D01*
X684400Y833214D02*
X686400D01*
X685400Y832214D02*
Y834214D01*
X684400Y824214D02*
X686400D01*
X685400Y823214D02*
Y825214D01*
X699300Y825714D02*
X701300D01*
X700300Y824714D02*
Y826714D01*
X625900Y819114D02*
X627900D01*
X626900Y818114D02*
Y820114D01*
X687700Y796014D02*
X689700D01*
X688700Y795014D02*
Y797014D01*
X695600Y804014D02*
X697600D01*
X696600Y803014D02*
Y805014D01*
X683600Y805914D02*
X685600D01*
X684600Y804914D02*
Y806914D01*
X699707Y818012D02*
X701707D01*
X700707Y817012D02*
Y819012D01*
X1490160Y909784D02*
X1492160D01*
X1491160Y908784D02*
Y910784D01*
X1475140Y894804D02*
X1477140D01*
X1476140Y893804D02*
Y895804D01*
X1412153Y909787D02*
X1414153D01*
X1413153Y908787D02*
Y910787D01*
X1412110Y857764D02*
X1414110D01*
X1413110Y856764D02*
Y858764D01*
X1475158Y878777D02*
X1477158D01*
X1476158Y877777D02*
Y879777D01*
X1443130Y909794D02*
X1445130D01*
X1444130Y908794D02*
Y910794D01*
X1459150Y909774D02*
X1461150D01*
X1460150Y908774D02*
Y910774D01*
X1427090Y894804D02*
X1429090D01*
X1428090Y893804D02*
Y895804D01*
X1427120Y878774D02*
X1429120D01*
X1428120Y877774D02*
Y879774D01*
X1445120Y878774D02*
X1447120D01*
X1446120Y877774D02*
Y879774D01*
X1457150Y878774D02*
X1459150D01*
X1458150Y877774D02*
Y879774D01*
X988200Y835614D02*
X990200D01*
X989200Y834614D02*
Y836614D01*
X982600Y839914D02*
X984600D01*
X983600Y838914D02*
Y840914D01*
X966400Y876814D02*
X968400D01*
X967400Y875814D02*
Y877814D01*
X1218000Y902814D02*
X1220000D01*
X1219000Y901814D02*
Y903814D01*
X1121113Y810322D02*
X1123113D01*
X1122113Y809323D02*
Y811322D01*
X1076400Y805714D02*
X1078400D01*
X1077400Y804714D02*
Y806714D01*
X916974Y865594D02*
X918974D01*
X917974Y864594D02*
Y866594D01*
X1031819Y878213D02*
X1033819D01*
X1032819Y877213D02*
Y879213D01*
X930700Y851414D02*
X932700D01*
X931700Y850414D02*
Y852414D01*
X1031100Y848014D02*
X1033100D01*
X1032100Y847014D02*
Y849014D01*
X992800Y876614D02*
X994800D01*
X993800Y875614D02*
Y877614D01*
X975700Y870214D02*
X977700D01*
X976700Y869214D02*
Y871214D01*
X1030900Y839914D02*
X1032900D01*
X1031900Y838914D02*
Y840914D01*
X1301900Y822614D02*
X1303900D01*
X1302900Y821614D02*
Y823614D01*
X1259531Y823824D02*
X1261532D01*
X1260531Y822824D02*
Y824824D01*
X1193000Y845014D02*
X1195000D01*
X1194000Y844014D02*
Y846014D01*
X1259300Y835314D02*
X1261300D01*
X1260300Y834314D02*
Y836314D01*
X1263100Y842514D02*
X1265100D01*
X1264100Y841514D02*
Y843514D01*
X1214200Y818714D02*
X1216200D01*
X1215200Y817714D02*
Y819714D01*
X1191800Y813214D02*
X1193800D01*
X1192800Y812214D02*
Y814214D01*
X1315200Y815814D02*
X1317200D01*
X1316200Y814814D02*
Y816814D01*
X1326300Y803414D02*
X1328300D01*
X1327300Y802414D02*
Y804414D01*
X1314100Y805714D02*
X1316100D01*
X1315100Y804714D02*
Y806714D01*
X1185300Y838514D02*
X1187300D01*
X1186300Y837514D02*
Y839514D01*
X1183500Y828414D02*
X1185500D01*
X1184500Y827414D02*
Y829414D01*
X1195600Y817614D02*
X1197600D01*
X1196600Y816614D02*
Y818614D01*
X1174600Y856214D02*
X1176600D01*
X1175600Y855214D02*
Y857214D01*
X1156705Y861130D02*
X1158705D01*
X1157705Y860130D02*
Y862130D01*
X1122275Y864114D02*
X1124275D01*
X1123275Y863114D02*
Y865114D01*
X1185500Y866614D02*
X1187500D01*
X1186500Y865614D02*
Y867614D01*
X1294900Y890414D02*
X1296900D01*
X1295900Y889414D02*
Y891414D01*
X1282500Y877214D02*
X1284500D01*
X1283500Y876214D02*
Y878214D01*
X1241100Y842514D02*
X1243100D01*
X1242100Y841514D02*
Y843514D01*
X1226300Y804814D02*
X1228300D01*
X1227300Y803814D02*
Y805814D01*
X1107500Y864814D02*
X1109500D01*
X1108500Y863814D02*
Y865814D01*
X1089818Y856690D02*
X1091818D01*
X1090818Y855689D02*
Y857690D01*
X1156000Y811014D02*
X1158000D01*
X1157000Y810014D02*
Y812014D01*
X1239100Y866214D02*
X1241100D01*
X1240100Y865214D02*
Y867214D01*
X1264700Y852314D02*
X1266700D01*
X1265700Y851314D02*
Y853314D01*
X1268300Y844314D02*
X1270300D01*
X1269300Y843314D02*
Y845314D01*
X954400Y893114D02*
X956400D01*
X955400Y892114D02*
Y894114D01*
X1173100Y893014D02*
X1175100D01*
X1174100Y892014D02*
Y894014D01*
X1185800Y893014D02*
X1187800D01*
X1186800Y892014D02*
Y894014D01*
X1135000Y893014D02*
X1137000D01*
X1136000Y892014D02*
Y894014D01*
X1147700Y893014D02*
X1149700D01*
X1148700Y892014D02*
Y894014D01*
X1160400Y893014D02*
X1162400D01*
X1161400Y892014D02*
Y894014D01*
X1227000Y861814D02*
X1229000D01*
X1228000Y860814D02*
Y862814D01*
X1198800Y852714D02*
X1200800D01*
X1199800Y851714D02*
Y853714D01*
X1335800Y839414D02*
X1337800D01*
X1336800Y838414D02*
Y840414D01*
X1092200Y867514D02*
X1094200D01*
X1093200Y866514D02*
Y868514D01*
X1076400Y867914D02*
X1078400D01*
X1077400Y866914D02*
Y868914D01*
X1145896Y860710D02*
X1147896D01*
X1146896Y859710D02*
Y861710D01*
X1119000Y833814D02*
X1121000D01*
X1120000Y832814D02*
Y834814D01*
X1104650Y844664D02*
X1106650D01*
X1105650Y843664D02*
Y845664D01*
X1051150Y844664D02*
X1053150D01*
X1052150Y843664D02*
Y845664D01*
X1310300Y809714D02*
X1312300D01*
X1311300Y808714D02*
Y810714D01*
X1268300Y816414D02*
X1270300D01*
X1269300Y815414D02*
Y817414D01*
X936500Y832314D02*
X938500D01*
X937500Y831314D02*
Y833314D01*
X929800Y818214D02*
X931800D01*
X930800Y817214D02*
Y819214D01*
X902300Y805414D02*
X904300D01*
X903300Y804414D02*
Y806414D01*
X951800Y852314D02*
X953800D01*
X952800Y851314D02*
Y853314D01*
X990100Y902614D02*
X992100D01*
X991100Y901614D02*
Y903614D01*
X1034300Y856614D02*
X1036300D01*
X1035300Y855614D02*
Y857614D01*
X1099700Y888114D02*
X1101700D01*
X1100700Y887114D02*
Y889114D01*
X1076900Y888414D02*
X1078900D01*
X1077900Y887414D02*
Y889414D01*
X1052600Y888514D02*
X1054600D01*
X1053600Y887514D02*
Y889514D01*
X1197400Y879014D02*
X1199400D01*
X1198400Y878014D02*
Y880014D01*
X1204600Y866214D02*
X1206600D01*
X1205600Y865214D02*
Y867214D01*
X1279200Y754014D02*
X1281200D01*
X1280200Y753014D02*
Y755014D01*
X1279000Y776014D02*
X1281000D01*
X1280000Y775014D02*
Y777014D01*
X1015400Y753214D02*
X1017400D01*
X1016400Y752214D02*
Y754214D01*
X1015100Y775314D02*
X1017100D01*
X1016100Y774314D02*
Y776314D01*
X1414100Y754214D02*
X1416100D01*
X1415100Y753214D02*
Y755214D01*
X1415000Y776614D02*
X1417000D01*
X1416000Y775614D02*
Y777614D01*
X1493300Y754614D02*
X1495300D01*
X1494300Y753614D02*
Y755614D01*
X1493600Y776714D02*
X1495600D01*
X1494600Y775714D02*
Y777714D01*
X803200Y752414D02*
X805200D01*
X804200Y751414D02*
Y753414D01*
X804000Y777114D02*
X806000D01*
X805000Y776114D02*
Y778114D01*
X882000Y754014D02*
X884000D01*
X883000Y753014D02*
Y755014D01*
X882300Y776814D02*
X884300D01*
X883300Y775814D02*
Y777814D01*
X1265600Y806314D02*
X1267600D01*
X1266600Y805314D02*
Y807314D01*
X1173700Y845314D02*
X1175700D01*
X1174700Y844314D02*
Y846314D01*
X1426200Y764814D02*
X1428200D01*
X1427200Y763814D02*
Y765814D01*
X1483600Y764914D02*
X1485600D01*
X1484600Y763914D02*
Y765914D01*
X1193700Y872614D02*
X1195700D01*
X1194700Y871614D02*
Y873614D01*
X1210750Y838714D02*
X1212750D01*
X1211750Y837714D02*
Y839714D01*
X1323710Y829025D02*
X1325710D01*
X1324710Y828025D02*
Y830024D01*
X1325100Y824114D02*
X1327100D01*
X1326100Y823114D02*
Y825114D01*
X1305800Y816214D02*
X1307800D01*
X1306800Y815214D02*
Y817214D01*
X1357400Y810014D02*
X1359400D01*
X1358400Y809014D02*
Y811014D01*
X1357800Y850414D02*
X1359800D01*
X1358800Y849414D02*
Y851414D01*
X1358000Y855314D02*
X1360000D01*
X1359000Y854314D02*
Y856314D01*
X1358000Y860334D02*
X1360000D01*
X1359000Y859334D02*
Y861334D01*
X1358000Y865354D02*
X1360000D01*
X1359000Y864354D02*
Y866354D01*
X1358000Y875394D02*
X1360000D01*
X1359000Y874394D02*
Y876394D01*
X1358000Y880414D02*
X1360000D01*
X1359000Y879414D02*
Y881414D01*
X1358000Y870374D02*
X1360000D01*
X1359000Y869374D02*
Y871374D01*
X1356375Y795339D02*
X1358375D01*
X1357375Y794339D02*
Y796339D01*
X1371400Y793214D02*
X1373400D01*
X1372400Y792214D02*
Y794214D01*
X1210600Y832514D02*
X1212600D01*
X1211600Y831514D02*
Y833514D01*
X1338600Y826114D02*
X1340600D01*
X1339600Y825114D02*
Y827114D01*
X1037400Y764914D02*
X1039400D01*
X1038400Y763914D02*
Y765914D01*
X1148900Y764914D02*
X1150900D01*
X1149900Y763914D02*
Y765914D01*
X1260400Y764914D02*
X1262400D01*
X1261400Y763914D02*
Y765914D01*
X1343800Y826214D02*
X1345800D01*
X1344800Y825214D02*
Y827214D01*
X1343700Y809714D02*
X1345700D01*
X1344700Y808714D02*
Y810714D01*
X1338600Y809714D02*
X1340600D01*
X1339600Y808714D02*
Y810714D01*
X1122300Y893014D02*
X1124300D01*
X1123300Y892014D02*
Y894014D01*
X814300Y764914D02*
X816300D01*
X815300Y763914D02*
Y765914D01*
X872700Y764914D02*
X874700D01*
X873700Y763914D02*
Y765914D01*
X892500Y817414D02*
X894500D01*
X893500Y816414D02*
Y818414D01*
X1399000Y805014D02*
X1401000D01*
X1400000Y804014D02*
Y806014D01*
X1409100Y805014D02*
X1411100D01*
X1410100Y804014D02*
Y806014D01*
X1358000Y910514D02*
X1360000D01*
X1359000Y909514D02*
Y911514D01*
X1358000Y885414D02*
X1360000D01*
X1359000Y884414D02*
Y886414D01*
X1358000Y890434D02*
X1360000D01*
X1359000Y889434D02*
Y891434D01*
X1358000Y895454D02*
X1360000D01*
X1359000Y894454D02*
Y896454D01*
X1358000Y900474D02*
X1360000D01*
X1359000Y899474D02*
Y901474D01*
X1358000Y905494D02*
X1360000D01*
X1359000Y904494D02*
Y906494D01*
X1391040Y844814D02*
X1393040D01*
X1392040Y843814D02*
Y845814D01*
X1365100Y844814D02*
X1367100D01*
X1366100Y843814D02*
Y845814D01*
X1370288Y844814D02*
X1372288D01*
X1371288Y843814D02*
Y845814D01*
X1375476Y844814D02*
X1377476D01*
X1376476Y843814D02*
Y845814D01*
X1380664Y844814D02*
X1382664D01*
X1381664Y843814D02*
Y845814D01*
X1385852Y844814D02*
X1387852D01*
X1386852Y843814D02*
Y845814D01*
X1396228Y844814D02*
X1398228D01*
X1397228Y843814D02*
Y845814D01*
X1401416Y844814D02*
X1403416D01*
X1402416Y843814D02*
Y845814D01*
X1406604Y844814D02*
X1408604D01*
X1407604Y843814D02*
Y845814D01*
X1411792Y844814D02*
X1413792D01*
X1412792Y843814D02*
Y845814D01*
X1416980Y844814D02*
X1418980D01*
X1417980Y843814D02*
Y845814D01*
X1467491Y844114D02*
X1469491D01*
X1468491Y843114D02*
Y845114D01*
X1441900Y844114D02*
X1443900D01*
X1442900Y843114D02*
Y845114D01*
X1447018Y844114D02*
X1449018D01*
X1448018Y843114D02*
Y845114D01*
X1452136Y844114D02*
X1454136D01*
X1453136Y843114D02*
Y845114D01*
X1457254Y844114D02*
X1459254D01*
X1458255Y843114D02*
Y845114D01*
X1462373Y844114D02*
X1464373D01*
X1463373Y843114D02*
Y845114D01*
X1498200Y844114D02*
X1500200D01*
X1499200Y843114D02*
Y845114D01*
X1472609Y844114D02*
X1474609D01*
X1473609Y843114D02*
Y845114D01*
X1477727Y844114D02*
X1479727D01*
X1478727Y843114D02*
Y845114D01*
X1482845Y844114D02*
X1484845D01*
X1483845Y843114D02*
Y845114D01*
X1487963Y844114D02*
X1489963D01*
X1488963Y843114D02*
Y845114D01*
X1493082Y844114D02*
X1495081D01*
X1494082Y843114D02*
Y845114D01*
X1436500Y843714D02*
X1438500D01*
X1437500Y842714D02*
Y844714D01*
X1419800Y815214D02*
X1421800D01*
X1420800Y814214D02*
Y816214D01*
X1441000Y830914D02*
X1443000D01*
X1442000Y829914D02*
Y831914D01*
X1441000Y838414D02*
X1443000D01*
X1442000Y837414D02*
Y839414D01*
X1406500Y795214D02*
X1408500D01*
X1407500Y794214D02*
Y796214D01*
X1440200Y811014D02*
X1442200D01*
X1441200Y810014D02*
Y812014D01*
X1382000Y792114D02*
X1384000D01*
X1383000Y791114D02*
Y793114D01*
X1421600Y840214D02*
X1423600D01*
X1422600Y839214D02*
Y841214D01*
X1419800Y833214D02*
X1421800D01*
X1420800Y832214D02*
Y834214D01*
X1419800Y824214D02*
X1421800D01*
X1420800Y823214D02*
Y825214D01*
X1434700Y825714D02*
X1436700D01*
X1435700Y824714D02*
Y826714D01*
X1361300Y819114D02*
X1363300D01*
X1362300Y818114D02*
Y820114D01*
X1423100Y796014D02*
X1425100D01*
X1424100Y795014D02*
Y797014D01*
X1431000Y804014D02*
X1433000D01*
X1432000Y803014D02*
Y805014D01*
X1419000Y805914D02*
X1421000D01*
X1420000Y804914D02*
Y806914D01*
X1435107Y818012D02*
X1437107D01*
X1436107Y817012D02*
Y819012D01*
X2225560Y909784D02*
X2227560D01*
X2226560Y908784D02*
Y910784D01*
X2210540Y894804D02*
X2212540D01*
X2211540Y893804D02*
Y895804D01*
X2147553Y909787D02*
X2149553D01*
X2148553Y908787D02*
Y910787D01*
X2147510Y857764D02*
X2149510D01*
X2148510Y856764D02*
Y858764D01*
X2210558Y878777D02*
X2212558D01*
X2211558Y877777D02*
Y879777D01*
X2178530Y909794D02*
X2180530D01*
X2179530Y908794D02*
Y910794D01*
X2194550Y909774D02*
X2196550D01*
X2195550Y908774D02*
Y910774D01*
X2162490Y894804D02*
X2164490D01*
X2163490Y893804D02*
Y895804D01*
X2162520Y878774D02*
X2164520D01*
X2163520Y877774D02*
Y879774D01*
X2180520Y878774D02*
X2182520D01*
X2181520Y877774D02*
Y879774D01*
X2192550Y878774D02*
X2194550D01*
X2193550Y877774D02*
Y879774D01*
X1723600Y835614D02*
X1725600D01*
X1724600Y834614D02*
Y836614D01*
X1718000Y839914D02*
X1720000D01*
X1719000Y838914D02*
Y840914D01*
X1701800Y876814D02*
X1703800D01*
X1702800Y875814D02*
Y877814D01*
X1953400Y902814D02*
X1955400D01*
X1954400Y901814D02*
Y903814D01*
X1856513Y810322D02*
X1858513D01*
X1857513Y809323D02*
Y811322D01*
X1811800Y805714D02*
X1813800D01*
X1812800Y804714D02*
Y806714D01*
X1652374Y865594D02*
X1654374D01*
X1653374Y864594D02*
Y866594D01*
X1767219Y878213D02*
X1769219D01*
X1768219Y877213D02*
Y879213D01*
X1666100Y851414D02*
X1668100D01*
X1667100Y850414D02*
Y852414D01*
X1766500Y848014D02*
X1768500D01*
X1767500Y847014D02*
Y849014D01*
X1728200Y876614D02*
X1730200D01*
X1729200Y875614D02*
Y877614D01*
X1711100Y870214D02*
X1713100D01*
X1712100Y869214D02*
Y871214D01*
X1766300Y839914D02*
X1768300D01*
X1767300Y838914D02*
Y840914D01*
X2037300Y822614D02*
X2039300D01*
X2038300Y821614D02*
Y823614D01*
X1994931Y823824D02*
X1996931D01*
X1995932Y822824D02*
Y824824D01*
X1928400Y845014D02*
X1930400D01*
X1929400Y844014D02*
Y846014D01*
X1994700Y835314D02*
X1996700D01*
X1995700Y834314D02*
Y836314D01*
X1998500Y842514D02*
X2000500D01*
X1999500Y841514D02*
Y843514D01*
X1949600Y818714D02*
X1951600D01*
X1950600Y817714D02*
Y819714D01*
X1927200Y813214D02*
X1929200D01*
X1928200Y812214D02*
Y814214D01*
X2050600Y815814D02*
X2052600D01*
X2051600Y814814D02*
Y816814D01*
X2061700Y803414D02*
X2063700D01*
X2062700Y802414D02*
Y804414D01*
X2049500Y805714D02*
X2051500D01*
X2050500Y804714D02*
Y806714D01*
X1920700Y838514D02*
X1922700D01*
X1921700Y837514D02*
Y839514D01*
X1918900Y828414D02*
X1920900D01*
X1919900Y827414D02*
Y829414D01*
X1931000Y817614D02*
X1933000D01*
X1932000Y816614D02*
Y818614D01*
X1910000Y856214D02*
X1912000D01*
X1911000Y855214D02*
Y857214D01*
X1892105Y861130D02*
X1894105D01*
X1893105Y860130D02*
Y862130D01*
X1857675Y864114D02*
X1859675D01*
X1858675Y863114D02*
Y865114D01*
X1920900Y866614D02*
X1922900D01*
X1921900Y865614D02*
Y867614D01*
X2030300Y890414D02*
X2032300D01*
X2031300Y889414D02*
Y891414D01*
X2017900Y877214D02*
X2019900D01*
X2018900Y876214D02*
Y878214D01*
X1976500Y842514D02*
X1978500D01*
X1977500Y841514D02*
Y843514D01*
X1961700Y804814D02*
X1963700D01*
X1962700Y803814D02*
Y805814D01*
X1842900Y864814D02*
X1844900D01*
X1843900Y863814D02*
Y865814D01*
X1825218Y856690D02*
X1827218D01*
X1826218Y855689D02*
Y857690D01*
X1891400Y811014D02*
X1893400D01*
X1892400Y810014D02*
Y812014D01*
X1974500Y866214D02*
X1976500D01*
X1975500Y865214D02*
Y867214D01*
X2000100Y852314D02*
X2002100D01*
X2001100Y851314D02*
Y853314D01*
X2003700Y844314D02*
X2005700D01*
X2004700Y843314D02*
Y845314D01*
X1689800Y893114D02*
X1691800D01*
X1690800Y892114D02*
Y894114D01*
X1908500Y893014D02*
X1910500D01*
X1909500Y892014D02*
Y894014D01*
X1921200Y893014D02*
X1923200D01*
X1922200Y892014D02*
Y894014D01*
X1870400Y893014D02*
X1872400D01*
X1871400Y892014D02*
Y894014D01*
X1883100Y893014D02*
X1885100D01*
X1884100Y892014D02*
Y894014D01*
X1895800Y893014D02*
X1897800D01*
X1896800Y892014D02*
Y894014D01*
X1962400Y861814D02*
X1964400D01*
X1963400Y860814D02*
Y862814D01*
X1934200Y852714D02*
X1936200D01*
X1935200Y851714D02*
Y853714D01*
X2071200Y839414D02*
X2073200D01*
X2072200Y838414D02*
Y840414D01*
X1827600Y867514D02*
X1829600D01*
X1828600Y866514D02*
Y868514D01*
X1811800Y867914D02*
X1813800D01*
X1812800Y866914D02*
Y868914D01*
X1881296Y860710D02*
X1883296D01*
X1882296Y859710D02*
Y861710D01*
X1854400Y833814D02*
X1856400D01*
X1855400Y832814D02*
Y834814D01*
X1840050Y844664D02*
X1842050D01*
X1841050Y843664D02*
Y845664D01*
X1786550Y844664D02*
X1788550D01*
X1787550Y843664D02*
Y845664D01*
X2045700Y809714D02*
X2047700D01*
X2046700Y808714D02*
Y810714D01*
X2003700Y816414D02*
X2005700D01*
X2004700Y815414D02*
Y817414D01*
X1671900Y832314D02*
X1673900D01*
X1672900Y831314D02*
Y833314D01*
X1665200Y818214D02*
X1667200D01*
X1666200Y817214D02*
Y819214D01*
X1637700Y805414D02*
X1639700D01*
X1638700Y804414D02*
Y806414D01*
X1687200Y852314D02*
X1689200D01*
X1688200Y851314D02*
Y853314D01*
X1725500Y902614D02*
X1727500D01*
X1726500Y901614D02*
Y903614D01*
X1769700Y856614D02*
X1771700D01*
X1770700Y855614D02*
Y857614D01*
X1835100Y888114D02*
X1837100D01*
X1836100Y887114D02*
Y889114D01*
X1812300Y888414D02*
X1814300D01*
X1813300Y887414D02*
Y889414D01*
X1788000Y888514D02*
X1790000D01*
X1789000Y887514D02*
Y889514D01*
X1932800Y879014D02*
X1934800D01*
X1933800Y878014D02*
Y880014D01*
X1940000Y866214D02*
X1942000D01*
X1941000Y865214D02*
Y867214D01*
X2014600Y754014D02*
X2016600D01*
X2015600Y753014D02*
Y755014D01*
X2014400Y776014D02*
X2016400D01*
X2015400Y775014D02*
Y777014D01*
X1750800Y753214D02*
X1752800D01*
X1751800Y752214D02*
Y754214D01*
X1750500Y775314D02*
X1752500D01*
X1751500Y774314D02*
Y776314D01*
X2149500Y754214D02*
X2151500D01*
X2150500Y753214D02*
Y755214D01*
X2150400Y776614D02*
X2152400D01*
X2151400Y775614D02*
Y777614D01*
X2228700Y754614D02*
X2230700D01*
X2229700Y753614D02*
Y755614D01*
X2229000Y776714D02*
X2231000D01*
X2230000Y775714D02*
Y777714D01*
X1538600Y752414D02*
X1540600D01*
X1539600Y751414D02*
Y753414D01*
X1539400Y777114D02*
X1541400D01*
X1540400Y776114D02*
Y778114D01*
X1617400Y754014D02*
X1619400D01*
X1618400Y753014D02*
Y755014D01*
X1617700Y776814D02*
X1619700D01*
X1618700Y775814D02*
Y777814D01*
X2001000Y806314D02*
X2003000D01*
X2002000Y805314D02*
Y807314D01*
X1909100Y845314D02*
X1911100D01*
X1910100Y844314D02*
Y846314D01*
X2161600Y764814D02*
X2163600D01*
X2162600Y763814D02*
Y765814D01*
X2219000Y764914D02*
X2221000D01*
X2220000Y763914D02*
Y765914D01*
X1929100Y872614D02*
X1931100D01*
X1930100Y871614D02*
Y873614D01*
X1946150Y838714D02*
X1948150D01*
X1947150Y837714D02*
Y839714D01*
X2059110Y829025D02*
X2061110D01*
X2060110Y828025D02*
Y830024D01*
X2060500Y824114D02*
X2062500D01*
X2061500Y823114D02*
Y825114D01*
X2041200Y816214D02*
X2043200D01*
X2042200Y815214D02*
Y817214D01*
X2092800Y810014D02*
X2094800D01*
X2093800Y809014D02*
Y811014D01*
X2093200Y850414D02*
X2095200D01*
X2094200Y849414D02*
Y851414D01*
X2093400Y855314D02*
X2095400D01*
X2094400Y854314D02*
Y856314D01*
X2093400Y860334D02*
X2095400D01*
X2094400Y859334D02*
Y861334D01*
X2093400Y865354D02*
X2095400D01*
X2094400Y864354D02*
Y866354D01*
X2093400Y875394D02*
X2095400D01*
X2094400Y874394D02*
Y876394D01*
X2093400Y880414D02*
X2095400D01*
X2094400Y879414D02*
Y881414D01*
X2093400Y870374D02*
X2095400D01*
X2094400Y869374D02*
Y871374D01*
X2091775Y795339D02*
X2093775D01*
X2092775Y794339D02*
Y796339D01*
X2106800Y793214D02*
X2108800D01*
X2107800Y792214D02*
Y794214D01*
X1946000Y832514D02*
X1948000D01*
X1947000Y831514D02*
Y833514D01*
X2074000Y826114D02*
X2076000D01*
X2075000Y825114D02*
Y827114D01*
X1772800Y764914D02*
X1774800D01*
X1773800Y763914D02*
Y765914D01*
X1884300Y764914D02*
X1886300D01*
X1885300Y763914D02*
Y765914D01*
X1995800Y764914D02*
X1997800D01*
X1996800Y763914D02*
Y765914D01*
X2079200Y826214D02*
X2081200D01*
X2080200Y825214D02*
Y827214D01*
X2079100Y809714D02*
X2081100D01*
X2080100Y808714D02*
Y810714D01*
X2074000Y809714D02*
X2076000D01*
X2075000Y808714D02*
Y810714D01*
X1857700Y893014D02*
X1859700D01*
X1858700Y892014D02*
Y894014D01*
X1549700Y764914D02*
X1551700D01*
X1550700Y763914D02*
Y765914D01*
X1608100Y764914D02*
X1610100D01*
X1609100Y763914D02*
Y765914D01*
X1627900Y817414D02*
X1629900D01*
X1628900Y816414D02*
Y818414D01*
X2134400Y805014D02*
X2136400D01*
X2135400Y804014D02*
Y806014D01*
X2144500Y805014D02*
X2146500D01*
X2145500Y804014D02*
Y806014D01*
X2093400Y910514D02*
X2095400D01*
X2094400Y909514D02*
Y911514D01*
X2093400Y885414D02*
X2095400D01*
X2094400Y884414D02*
Y886414D01*
X2093400Y890434D02*
X2095400D01*
X2094400Y889434D02*
Y891434D01*
X2093400Y895454D02*
X2095400D01*
X2094400Y894454D02*
Y896454D01*
X2093400Y900474D02*
X2095400D01*
X2094400Y899474D02*
Y901474D01*
X2093400Y905494D02*
X2095400D01*
X2094400Y904494D02*
Y906494D01*
X2126440Y844814D02*
X2128440D01*
X2127440Y843814D02*
Y845814D01*
X2100500Y844814D02*
X2102500D01*
X2101500Y843814D02*
Y845814D01*
X2105688Y844814D02*
X2107688D01*
X2106688Y843814D02*
Y845814D01*
X2110876Y844814D02*
X2112876D01*
X2111876Y843814D02*
Y845814D01*
X2116064Y844814D02*
X2118064D01*
X2117064Y843814D02*
Y845814D01*
X2121252Y844814D02*
X2123252D01*
X2122252Y843814D02*
Y845814D01*
X2131628Y844814D02*
X2133628D01*
X2132628Y843814D02*
Y845814D01*
X2136816Y844814D02*
X2138816D01*
X2137816Y843814D02*
Y845814D01*
X2142004Y844814D02*
X2144004D01*
X2143004Y843814D02*
Y845814D01*
X2147192Y844814D02*
X2149192D01*
X2148192Y843814D02*
Y845814D01*
X2152380Y844814D02*
X2154380D01*
X2153380Y843814D02*
Y845814D01*
X2202891Y844114D02*
X2204891D01*
X2203891Y843114D02*
Y845114D01*
X2177300Y844114D02*
X2179300D01*
X2178300Y843114D02*
Y845114D01*
X2182418Y844114D02*
X2184418D01*
X2183418Y843114D02*
Y845114D01*
X2187536Y844114D02*
X2189536D01*
X2188536Y843114D02*
Y845114D01*
X2192655Y844114D02*
X2194655D01*
X2193654Y843114D02*
Y845114D01*
X2197773Y844114D02*
X2199773D01*
X2198773Y843114D02*
Y845114D01*
X2233600Y844114D02*
X2235600D01*
X2234600Y843114D02*
Y845114D01*
X2208009Y844114D02*
X2210009D01*
X2209009Y843114D02*
Y845114D01*
X2213127Y844114D02*
X2215127D01*
X2214127Y843114D02*
Y845114D01*
X2218245Y844114D02*
X2220245D01*
X2219245Y843114D02*
Y845114D01*
X2223363Y844114D02*
X2225363D01*
X2224363Y843114D02*
Y845114D01*
X2228481Y844114D02*
X2230482D01*
X2229482Y843114D02*
Y845114D01*
X2171900Y843714D02*
X2173900D01*
X2172900Y842714D02*
Y844714D01*
X2155200Y815214D02*
X2157200D01*
X2156200Y814214D02*
Y816214D01*
X2176400Y830914D02*
X2178400D01*
X2177400Y829914D02*
Y831914D01*
X2176400Y838414D02*
X2178400D01*
X2177400Y837414D02*
Y839414D01*
X2141900Y795214D02*
X2143900D01*
X2142900Y794214D02*
Y796214D01*
X2175600Y811014D02*
X2177600D01*
X2176600Y810014D02*
Y812014D01*
X2117400Y792114D02*
X2119400D01*
X2118400Y791114D02*
Y793114D01*
X2157000Y840214D02*
X2159000D01*
X2158000Y839214D02*
Y841214D01*
X2155200Y833214D02*
X2157200D01*
X2156200Y832214D02*
Y834214D01*
X2155200Y824214D02*
X2157200D01*
X2156200Y823214D02*
Y825214D01*
X2170100Y825714D02*
X2172100D01*
X2171100Y824714D02*
Y826714D01*
X2096700Y819114D02*
X2098700D01*
X2097700Y818114D02*
Y820114D01*
X2158500Y796014D02*
X2160500D01*
X2159500Y795014D02*
Y797014D01*
X2166400Y804014D02*
X2168400D01*
X2167400Y803014D02*
Y805014D01*
X2154400Y805914D02*
X2156400D01*
X2155400Y804914D02*
Y806914D01*
X2170507Y818012D02*
X2172507D01*
X2171507Y817012D02*
Y819012D01*
X754760Y1115155D02*
X756760D01*
X755760Y1114155D02*
Y1116155D01*
X739740Y1100175D02*
X741740D01*
X740740Y1099175D02*
Y1101175D01*
X676753Y1115159D02*
X678753D01*
X677753Y1114159D02*
Y1116159D01*
X676710Y1063135D02*
X678710D01*
X677710Y1062135D02*
Y1064135D01*
X739758Y1084149D02*
X741758D01*
X740758Y1083149D02*
Y1085149D01*
X707730Y1115165D02*
X709730D01*
X708730Y1114165D02*
Y1116165D01*
X723750Y1115145D02*
X725750D01*
X724750Y1114145D02*
Y1116145D01*
X691690Y1100175D02*
X693690D01*
X692690Y1099175D02*
Y1101175D01*
X691720Y1084145D02*
X693720D01*
X692720Y1083145D02*
Y1085145D01*
X709720Y1084145D02*
X711720D01*
X710720Y1083145D02*
Y1085145D01*
X721750Y1084145D02*
X723750D01*
X722750Y1083145D02*
Y1085145D01*
X252800Y1040985D02*
X254800D01*
X253800Y1039986D02*
Y1041985D01*
X247200Y1045285D02*
X249200D01*
X248200Y1044286D02*
Y1046285D01*
X231000Y1082186D02*
X233000D01*
X232000Y1081186D02*
Y1083186D01*
X482600Y1108186D02*
X484600D01*
X483600Y1107186D02*
Y1109185D01*
X385713Y1015694D02*
X387713D01*
X386713Y1014694D02*
Y1016694D01*
X341000Y1011086D02*
X343000D01*
X342000Y1010086D02*
Y1012085D01*
X181574Y1070965D02*
X183574D01*
X182574Y1069965D02*
Y1071965D01*
X296419Y1083585D02*
X298419D01*
X297419Y1082585D02*
Y1084585D01*
X195300Y1056786D02*
X197300D01*
X196300Y1055786D02*
Y1057785D01*
X295700Y1053385D02*
X297700D01*
X296700Y1052385D02*
Y1054386D01*
X257400Y1081985D02*
X259400D01*
X258400Y1080985D02*
Y1082986D01*
X240300Y1075585D02*
X242300D01*
X241300Y1074585D02*
Y1076585D01*
X295500Y1045285D02*
X297500D01*
X296500Y1044286D02*
Y1046285D01*
X566500Y1027986D02*
X568500D01*
X567500Y1026985D02*
Y1028986D01*
X524132Y1029196D02*
X526132D01*
X525131Y1028196D02*
Y1030196D01*
X457600Y1050386D02*
X459600D01*
X458600Y1049386D02*
Y1051385D01*
X523900Y1040686D02*
X525900D01*
X524900Y1039686D02*
Y1041685D01*
X527700Y1047886D02*
X529700D01*
X528700Y1046886D02*
Y1048885D01*
X478800Y1024085D02*
X480800D01*
X479800Y1023085D02*
Y1025086D01*
X456400Y1018586D02*
X458400D01*
X457400Y1017586D02*
Y1019585D01*
X579800Y1021186D02*
X581800D01*
X580800Y1020185D02*
Y1022186D01*
X590900Y1008785D02*
X592900D01*
X591900Y1007785D02*
Y1009786D01*
X578700Y1011086D02*
X580700D01*
X579700Y1010086D02*
Y1012085D01*
X449900Y1043885D02*
X451900D01*
X450900Y1042886D02*
Y1044885D01*
X448100Y1033785D02*
X450100D01*
X449100Y1032785D02*
Y1034786D01*
X460200Y1022986D02*
X462200D01*
X461200Y1021985D02*
Y1023986D01*
X439200Y1061585D02*
X441200D01*
X440200Y1060585D02*
Y1062586D01*
X421305Y1066501D02*
X423305D01*
X422305Y1065501D02*
Y1067501D01*
X386875Y1069485D02*
X388875D01*
X387875Y1068485D02*
Y1070486D01*
X450100Y1071985D02*
X452100D01*
X451100Y1070985D02*
Y1072986D01*
X559500Y1095786D02*
X561500D01*
X560500Y1094786D02*
Y1096786D01*
X547100Y1082586D02*
X549100D01*
X548100Y1081585D02*
Y1083586D01*
X505700Y1047886D02*
X507700D01*
X506700Y1046886D02*
Y1048885D01*
X490900Y1010185D02*
X492900D01*
X491900Y1009185D02*
Y1011186D01*
X372100Y1070185D02*
X374100D01*
X373100Y1069185D02*
Y1071186D01*
X354418Y1062061D02*
X356418D01*
X355418Y1061061D02*
Y1063061D01*
X420600Y1016385D02*
X422600D01*
X421600Y1015386D02*
Y1017385D01*
X503700Y1071585D02*
X505700D01*
X504700Y1070585D02*
Y1072586D01*
X529300Y1057685D02*
X531300D01*
X530300Y1056685D02*
Y1058686D01*
X532900Y1049686D02*
X534900D01*
X533900Y1048686D02*
Y1050686D01*
X219000Y1098485D02*
X221000D01*
X220000Y1097486D02*
Y1099485D01*
X437700Y1098385D02*
X439700D01*
X438700Y1097385D02*
Y1099386D01*
X450400Y1098385D02*
X452400D01*
X451400Y1097385D02*
Y1099386D01*
X399600Y1098385D02*
X401600D01*
X400600Y1097385D02*
Y1099386D01*
X412300Y1098385D02*
X414300D01*
X413300Y1097385D02*
Y1099386D01*
X425000Y1098385D02*
X427000D01*
X426000Y1097385D02*
Y1099386D01*
X491600Y1067186D02*
X493600D01*
X492600Y1066186D02*
Y1068186D01*
X463400Y1058085D02*
X465400D01*
X464400Y1057085D02*
Y1059085D01*
X600400Y1044786D02*
X602400D01*
X601400Y1043785D02*
Y1045786D01*
X356800Y1072886D02*
X358800D01*
X357800Y1071886D02*
Y1073885D01*
X341000Y1073286D02*
X343000D01*
X342000Y1072286D02*
Y1074286D01*
X410496Y1066081D02*
X412496D01*
X411496Y1065081D02*
Y1067081D01*
X383600Y1039185D02*
X385600D01*
X384600Y1038186D02*
Y1040185D01*
X369250Y1050035D02*
X371250D01*
X370250Y1049035D02*
Y1051036D01*
X315750Y1050035D02*
X317750D01*
X316750Y1049035D02*
Y1051036D01*
X574900Y1015086D02*
X576900D01*
X575900Y1014085D02*
Y1016086D01*
X532900Y1021786D02*
X534900D01*
X533900Y1020786D02*
Y1022785D01*
X201100Y1037685D02*
X203100D01*
X202100Y1036685D02*
Y1038686D01*
X194400Y1023586D02*
X196400D01*
X195400Y1022586D02*
Y1024585D01*
X166900Y1010786D02*
X168900D01*
X167900Y1009786D02*
Y1011786D01*
X216400Y1057685D02*
X218400D01*
X217400Y1056685D02*
Y1058686D01*
X254700Y1107986D02*
X256700D01*
X255700Y1106985D02*
Y1108986D01*
X298900Y1061985D02*
X300900D01*
X299900Y1060985D02*
Y1062986D01*
X364300Y1093485D02*
X366300D01*
X365300Y1092486D02*
Y1094485D01*
X341500Y1093785D02*
X343500D01*
X342500Y1092785D02*
Y1094786D01*
X317200Y1093885D02*
X319200D01*
X318200Y1092886D02*
Y1094885D01*
X462000Y1084386D02*
X464000D01*
X463000Y1083385D02*
Y1085386D01*
X469200Y1071585D02*
X471200D01*
X470200Y1070585D02*
Y1072586D01*
X543800Y959386D02*
X545800D01*
X544800Y958385D02*
Y960386D01*
X543600Y981385D02*
X545600D01*
X544600Y980386D02*
Y982385D01*
X280000Y958586D02*
X282000D01*
X281000Y957586D02*
Y959585D01*
X279700Y980686D02*
X281700D01*
X280700Y979686D02*
Y981685D01*
X678700Y959585D02*
X680700D01*
X679700Y958586D02*
Y960585D01*
X679600Y981985D02*
X681600D01*
X680600Y980985D02*
Y982986D01*
X757900Y959986D02*
X759900D01*
X758900Y958986D02*
Y960985D01*
X758200Y982085D02*
X760200D01*
X759200Y981086D02*
Y983085D01*
X67800Y957785D02*
X69800D01*
X68800Y956786D02*
Y958785D01*
X68600Y982486D02*
X70600D01*
X69600Y981486D02*
Y983485D01*
X146600Y959386D02*
X148600D01*
X147600Y958385D02*
Y960386D01*
X146900Y982186D02*
X148900D01*
X147900Y981186D02*
Y983186D01*
X530200Y1011685D02*
X532200D01*
X531200Y1010686D02*
Y1012685D01*
X438300Y1050686D02*
X440300D01*
X439300Y1049686D02*
Y1051685D01*
X690800Y970185D02*
X692800D01*
X691800Y969185D02*
Y971186D01*
X748200Y970285D02*
X750200D01*
X749200Y969286D02*
Y971285D01*
X458300Y1077986D02*
X460300D01*
X459300Y1076985D02*
Y1078986D01*
X475350Y1044085D02*
X477350D01*
X476350Y1043085D02*
Y1045086D01*
X588310Y1034396D02*
X590310D01*
X589310Y1033396D02*
Y1035396D01*
X589700Y1029485D02*
X591700D01*
X590700Y1028485D02*
Y1030486D01*
X570400Y1021585D02*
X572400D01*
X571400Y1020585D02*
Y1022586D01*
X622000Y1015386D02*
X624000D01*
X623000Y1014386D02*
Y1016385D01*
X622400Y1055786D02*
X624400D01*
X623400Y1054786D02*
Y1056786D01*
X622600Y1060686D02*
X624600D01*
X623600Y1059686D02*
Y1061685D01*
X622600Y1065705D02*
X624600D01*
X623600Y1064706D02*
Y1066705D01*
X622600Y1070725D02*
X624600D01*
X623600Y1069725D02*
Y1071725D01*
X622600Y1080765D02*
X624600D01*
X623600Y1079765D02*
Y1081765D01*
X622600Y1085785D02*
X624600D01*
X623600Y1084785D02*
Y1086785D01*
X622600Y1075745D02*
X624600D01*
X623600Y1074745D02*
Y1076745D01*
X620975Y1000711D02*
X622975D01*
X621975Y999711D02*
Y1001711D01*
X636000Y998586D02*
X638000D01*
X637000Y997586D02*
Y999585D01*
X475200Y1037886D02*
X477200D01*
X476200Y1036886D02*
Y1038885D01*
X603200Y1031486D02*
X605200D01*
X604200Y1030486D02*
Y1032486D01*
X302000Y970285D02*
X304000D01*
X303000Y969286D02*
Y971285D01*
X413500Y970285D02*
X415500D01*
X414500Y969286D02*
Y971285D01*
X525000Y970285D02*
X527000D01*
X526000Y969286D02*
Y971285D01*
X608400Y1031585D02*
X610400D01*
X609400Y1030585D02*
Y1032586D01*
X608300Y1015086D02*
X610300D01*
X609300Y1014085D02*
Y1016086D01*
X603200Y1015086D02*
X605200D01*
X604200Y1014085D02*
Y1016086D01*
X386900Y1098385D02*
X388900D01*
X387900Y1097385D02*
Y1099386D01*
X78900Y970285D02*
X80900D01*
X79900Y969286D02*
Y971285D01*
X137300Y970285D02*
X139300D01*
X138300Y969286D02*
Y971285D01*
X157100Y1022785D02*
X159100D01*
X158100Y1021786D02*
Y1023785D01*
X663600Y1010386D02*
X665600D01*
X664600Y1009386D02*
Y1011385D01*
X673700Y1010386D02*
X675700D01*
X674700Y1009386D02*
Y1011385D01*
X622600Y1115885D02*
X624600D01*
X623600Y1114885D02*
Y1116885D01*
X622600Y1090786D02*
X624600D01*
X623600Y1089786D02*
Y1091786D01*
X622600Y1095806D02*
X624600D01*
X623600Y1094806D02*
Y1096805D01*
X622600Y1100825D02*
X624600D01*
X623600Y1099825D02*
Y1101825D01*
X622600Y1105845D02*
X624600D01*
X623600Y1104845D02*
Y1106845D01*
X622600Y1110865D02*
X624600D01*
X623600Y1109865D02*
Y1111865D01*
X655640Y1050185D02*
X657640D01*
X656640Y1049185D02*
Y1051186D01*
X629700Y1050185D02*
X631700D01*
X630700Y1049185D02*
Y1051186D01*
X634888Y1050185D02*
X636888D01*
X635888Y1049185D02*
Y1051186D01*
X640076Y1050185D02*
X642076D01*
X641076Y1049185D02*
Y1051186D01*
X645264Y1050185D02*
X647264D01*
X646264Y1049185D02*
Y1051186D01*
X650452Y1050185D02*
X652452D01*
X651452Y1049185D02*
Y1051186D01*
X660828Y1050185D02*
X662828D01*
X661828Y1049185D02*
Y1051186D01*
X666016Y1050185D02*
X668016D01*
X667016Y1049185D02*
Y1051186D01*
X671204Y1050185D02*
X673204D01*
X672204Y1049185D02*
Y1051186D01*
X676392Y1050185D02*
X678392D01*
X677392Y1049185D02*
Y1051186D01*
X681580Y1050185D02*
X683580D01*
X682580Y1049185D02*
Y1051186D01*
X732091Y1049485D02*
X734091D01*
X733091Y1048485D02*
Y1050486D01*
X706500Y1049485D02*
X708500D01*
X707500Y1048485D02*
Y1050486D01*
X711618Y1049485D02*
X713618D01*
X712618Y1048485D02*
Y1050486D01*
X716736Y1049485D02*
X718736D01*
X717736Y1048485D02*
Y1050486D01*
X721854Y1049485D02*
X723855D01*
X722855Y1048485D02*
Y1050486D01*
X726973Y1049485D02*
X728973D01*
X727973Y1048485D02*
Y1050486D01*
X762800Y1049485D02*
X764800D01*
X763800Y1048485D02*
Y1050486D01*
X737209Y1049485D02*
X739209D01*
X738209Y1048485D02*
Y1050486D01*
X742327Y1049485D02*
X744327D01*
X743327Y1048485D02*
Y1050486D01*
X747445Y1049485D02*
X749445D01*
X748445Y1048485D02*
Y1050486D01*
X752563Y1049485D02*
X754563D01*
X753563Y1048485D02*
Y1050486D01*
X757682Y1049485D02*
X759681D01*
X758681Y1048485D02*
Y1050486D01*
X701100Y1049085D02*
X703100D01*
X702100Y1048085D02*
Y1050086D01*
X684400Y1020585D02*
X686400D01*
X685400Y1019585D02*
Y1021585D01*
X705600Y1036285D02*
X707600D01*
X706600Y1035285D02*
Y1037286D01*
X705600Y1043785D02*
X707600D01*
X706600Y1042785D02*
Y1044786D01*
X671100Y1000585D02*
X673100D01*
X672100Y999585D02*
Y1001585D01*
X704800Y1016385D02*
X706800D01*
X705800Y1015386D02*
Y1017385D01*
X646600Y997486D02*
X648600D01*
X647600Y996486D02*
Y998485D01*
X686200Y1045585D02*
X688200D01*
X687200Y1044585D02*
Y1046585D01*
X684400Y1038586D02*
X686400D01*
X685400Y1037586D02*
Y1039585D01*
X684400Y1029585D02*
X686400D01*
X685400Y1028586D02*
Y1030585D01*
X699300Y1031086D02*
X701300D01*
X700300Y1030086D02*
Y1032085D01*
X625900Y1024485D02*
X627900D01*
X626900Y1023485D02*
Y1025486D01*
X687700Y1001385D02*
X689700D01*
X688700Y1000386D02*
Y1002385D01*
X695600Y1009386D02*
X697600D01*
X696600Y1008385D02*
Y1010386D01*
X683600Y1011285D02*
X685600D01*
X684600Y1010285D02*
Y1012286D01*
X699707Y1023383D02*
X701707D01*
X700707Y1022383D02*
Y1024383D01*
X1490160Y1115155D02*
X1492160D01*
X1491160Y1114155D02*
Y1116155D01*
X1475140Y1100175D02*
X1477140D01*
X1476140Y1099175D02*
Y1101175D01*
X1412153Y1115159D02*
X1414153D01*
X1413153Y1114159D02*
Y1116159D01*
X1412110Y1063135D02*
X1414110D01*
X1413110Y1062135D02*
Y1064135D01*
X1475158Y1084149D02*
X1477158D01*
X1476158Y1083149D02*
Y1085149D01*
X1443130Y1115165D02*
X1445130D01*
X1444130Y1114165D02*
Y1116165D01*
X1459150Y1115145D02*
X1461150D01*
X1460150Y1114145D02*
Y1116145D01*
X1427090Y1100175D02*
X1429090D01*
X1428090Y1099175D02*
Y1101175D01*
X1427120Y1084145D02*
X1429120D01*
X1428120Y1083145D02*
Y1085145D01*
X1445120Y1084145D02*
X1447120D01*
X1446120Y1083145D02*
Y1085145D01*
X1457150Y1084145D02*
X1459150D01*
X1458150Y1083145D02*
Y1085145D01*
X988200Y1040985D02*
X990200D01*
X989200Y1039986D02*
Y1041985D01*
X982600Y1045285D02*
X984600D01*
X983600Y1044286D02*
Y1046285D01*
X966400Y1082186D02*
X968400D01*
X967400Y1081186D02*
Y1083186D01*
X1218000Y1108186D02*
X1220000D01*
X1219000Y1107186D02*
Y1109185D01*
X1121113Y1015694D02*
X1123113D01*
X1122113Y1014694D02*
Y1016694D01*
X1076400Y1011086D02*
X1078400D01*
X1077400Y1010086D02*
Y1012085D01*
X916974Y1070965D02*
X918974D01*
X917974Y1069965D02*
Y1071965D01*
X1031819Y1083585D02*
X1033819D01*
X1032819Y1082585D02*
Y1084585D01*
X930700Y1056786D02*
X932700D01*
X931700Y1055786D02*
Y1057785D01*
X1031100Y1053385D02*
X1033100D01*
X1032100Y1052385D02*
Y1054386D01*
X992800Y1081985D02*
X994800D01*
X993800Y1080985D02*
Y1082986D01*
X975700Y1075585D02*
X977700D01*
X976700Y1074585D02*
Y1076585D01*
X1030900Y1045285D02*
X1032900D01*
X1031900Y1044286D02*
Y1046285D01*
X1301900Y1027986D02*
X1303900D01*
X1302900Y1026985D02*
Y1028986D01*
X1259531Y1029196D02*
X1261532D01*
X1260531Y1028196D02*
Y1030196D01*
X1193000Y1050386D02*
X1195000D01*
X1194000Y1049386D02*
Y1051385D01*
X1259300Y1040686D02*
X1261300D01*
X1260300Y1039686D02*
Y1041685D01*
X1263100Y1047886D02*
X1265100D01*
X1264100Y1046886D02*
Y1048885D01*
X1214200Y1024085D02*
X1216200D01*
X1215200Y1023085D02*
Y1025086D01*
X1191800Y1018586D02*
X1193800D01*
X1192800Y1017586D02*
Y1019585D01*
X1315200Y1021186D02*
X1317200D01*
X1316200Y1020185D02*
Y1022186D01*
X1326300Y1008785D02*
X1328300D01*
X1327300Y1007785D02*
Y1009786D01*
X1314100Y1011086D02*
X1316100D01*
X1315100Y1010086D02*
Y1012085D01*
X1185300Y1043885D02*
X1187300D01*
X1186300Y1042886D02*
Y1044885D01*
X1183500Y1033785D02*
X1185500D01*
X1184500Y1032785D02*
Y1034786D01*
X1195600Y1022986D02*
X1197600D01*
X1196600Y1021985D02*
Y1023986D01*
X1174600Y1061585D02*
X1176600D01*
X1175600Y1060585D02*
Y1062586D01*
X1156705Y1066501D02*
X1158705D01*
X1157705Y1065501D02*
Y1067501D01*
X1122275Y1069485D02*
X1124275D01*
X1123275Y1068485D02*
Y1070486D01*
X1185500Y1071985D02*
X1187500D01*
X1186500Y1070985D02*
Y1072986D01*
X1294900Y1095786D02*
X1296900D01*
X1295900Y1094786D02*
Y1096786D01*
X1282500Y1082586D02*
X1284500D01*
X1283500Y1081585D02*
Y1083586D01*
X1241100Y1047886D02*
X1243100D01*
X1242100Y1046886D02*
Y1048885D01*
X1226300Y1010185D02*
X1228300D01*
X1227300Y1009185D02*
Y1011186D01*
X1107500Y1070185D02*
X1109500D01*
X1108500Y1069185D02*
Y1071186D01*
X1089818Y1062061D02*
X1091818D01*
X1090818Y1061061D02*
Y1063061D01*
X1156000Y1016385D02*
X1158000D01*
X1157000Y1015386D02*
Y1017385D01*
X1239100Y1071585D02*
X1241100D01*
X1240100Y1070585D02*
Y1072586D01*
X1264700Y1057685D02*
X1266700D01*
X1265700Y1056685D02*
Y1058686D01*
X1268300Y1049686D02*
X1270300D01*
X1269300Y1048686D02*
Y1050686D01*
X954400Y1098485D02*
X956400D01*
X955400Y1097486D02*
Y1099485D01*
X1173100Y1098385D02*
X1175100D01*
X1174100Y1097385D02*
Y1099386D01*
X1185800Y1098385D02*
X1187800D01*
X1186800Y1097385D02*
Y1099386D01*
X1135000Y1098385D02*
X1137000D01*
X1136000Y1097385D02*
Y1099386D01*
X1147700Y1098385D02*
X1149700D01*
X1148700Y1097385D02*
Y1099386D01*
X1160400Y1098385D02*
X1162400D01*
X1161400Y1097385D02*
Y1099386D01*
X1227000Y1067186D02*
X1229000D01*
X1228000Y1066186D02*
Y1068186D01*
X1198800Y1058085D02*
X1200800D01*
X1199800Y1057085D02*
Y1059085D01*
X1335800Y1044786D02*
X1337800D01*
X1336800Y1043785D02*
Y1045786D01*
X1092200Y1072886D02*
X1094200D01*
X1093200Y1071886D02*
Y1073885D01*
X1076400Y1073286D02*
X1078400D01*
X1077400Y1072286D02*
Y1074286D01*
X1145896Y1066081D02*
X1147896D01*
X1146896Y1065081D02*
Y1067081D01*
X1119000Y1039185D02*
X1121000D01*
X1120000Y1038186D02*
Y1040185D01*
X1104650Y1050035D02*
X1106650D01*
X1105650Y1049035D02*
Y1051036D01*
X1051150Y1050035D02*
X1053150D01*
X1052150Y1049035D02*
Y1051036D01*
X1310300Y1015086D02*
X1312300D01*
X1311300Y1014085D02*
Y1016086D01*
X1268300Y1021786D02*
X1270300D01*
X1269300Y1020786D02*
Y1022785D01*
X936500Y1037685D02*
X938500D01*
X937500Y1036685D02*
Y1038686D01*
X929800Y1023586D02*
X931800D01*
X930800Y1022586D02*
Y1024585D01*
X902300Y1010786D02*
X904300D01*
X903300Y1009786D02*
Y1011786D01*
X951800Y1057685D02*
X953800D01*
X952800Y1056685D02*
Y1058686D01*
X990100Y1107986D02*
X992100D01*
X991100Y1106985D02*
Y1108986D01*
X1034300Y1061985D02*
X1036300D01*
X1035300Y1060985D02*
Y1062986D01*
X1099700Y1093485D02*
X1101700D01*
X1100700Y1092486D02*
Y1094485D01*
X1076900Y1093785D02*
X1078900D01*
X1077900Y1092785D02*
Y1094786D01*
X1052600Y1093885D02*
X1054600D01*
X1053600Y1092886D02*
Y1094885D01*
X1197400Y1084386D02*
X1199400D01*
X1198400Y1083385D02*
Y1085386D01*
X1204600Y1071585D02*
X1206600D01*
X1205600Y1070585D02*
Y1072586D01*
X1279200Y959386D02*
X1281200D01*
X1280200Y958385D02*
Y960386D01*
X1279000Y981385D02*
X1281000D01*
X1280000Y980386D02*
Y982385D01*
X1015400Y958586D02*
X1017400D01*
X1016400Y957586D02*
Y959585D01*
X1015100Y980686D02*
X1017100D01*
X1016100Y979686D02*
Y981685D01*
X1414100Y959585D02*
X1416100D01*
X1415100Y958586D02*
Y960585D01*
X1415000Y981985D02*
X1417000D01*
X1416000Y980985D02*
Y982986D01*
X1493300Y959986D02*
X1495300D01*
X1494300Y958986D02*
Y960985D01*
X1493600Y982085D02*
X1495600D01*
X1494600Y981086D02*
Y983085D01*
X803200Y957785D02*
X805200D01*
X804200Y956786D02*
Y958785D01*
X804000Y982486D02*
X806000D01*
X805000Y981486D02*
Y983485D01*
X882000Y959386D02*
X884000D01*
X883000Y958385D02*
Y960386D01*
X882300Y982186D02*
X884300D01*
X883300Y981186D02*
Y983186D01*
X1265600Y1011685D02*
X1267600D01*
X1266600Y1010686D02*
Y1012685D01*
X1173700Y1050686D02*
X1175700D01*
X1174700Y1049686D02*
Y1051685D01*
X1426200Y970185D02*
X1428200D01*
X1427200Y969185D02*
Y971186D01*
X1483600Y970285D02*
X1485600D01*
X1484600Y969286D02*
Y971285D01*
X1193700Y1077986D02*
X1195700D01*
X1194700Y1076985D02*
Y1078986D01*
X1210750Y1044085D02*
X1212750D01*
X1211750Y1043085D02*
Y1045086D01*
X1323710Y1034396D02*
X1325710D01*
X1324710Y1033396D02*
Y1035396D01*
X1325100Y1029485D02*
X1327100D01*
X1326100Y1028485D02*
Y1030486D01*
X1305800Y1021585D02*
X1307800D01*
X1306800Y1020585D02*
Y1022586D01*
X1357400Y1015386D02*
X1359400D01*
X1358400Y1014386D02*
Y1016385D01*
X1357800Y1055786D02*
X1359800D01*
X1358800Y1054786D02*
Y1056786D01*
X1358000Y1060686D02*
X1360000D01*
X1359000Y1059686D02*
Y1061685D01*
X1358000Y1065705D02*
X1360000D01*
X1359000Y1064706D02*
Y1066705D01*
X1358000Y1070725D02*
X1360000D01*
X1359000Y1069725D02*
Y1071725D01*
X1358000Y1080765D02*
X1360000D01*
X1359000Y1079765D02*
Y1081765D01*
X1358000Y1085785D02*
X1360000D01*
X1359000Y1084785D02*
Y1086785D01*
X1358000Y1075745D02*
X1360000D01*
X1359000Y1074745D02*
Y1076745D01*
X1356375Y1000711D02*
X1358375D01*
X1357375Y999711D02*
Y1001711D01*
X1371400Y998586D02*
X1373400D01*
X1372400Y997586D02*
Y999585D01*
X1210600Y1037886D02*
X1212600D01*
X1211600Y1036886D02*
Y1038885D01*
X1338600Y1031486D02*
X1340600D01*
X1339600Y1030486D02*
Y1032486D01*
X1037400Y970285D02*
X1039400D01*
X1038400Y969286D02*
Y971285D01*
X1148900Y970285D02*
X1150900D01*
X1149900Y969286D02*
Y971285D01*
X1260400Y970285D02*
X1262400D01*
X1261400Y969286D02*
Y971285D01*
X1343800Y1031585D02*
X1345800D01*
X1344800Y1030585D02*
Y1032586D01*
X1343700Y1015086D02*
X1345700D01*
X1344700Y1014085D02*
Y1016086D01*
X1338600Y1015086D02*
X1340600D01*
X1339600Y1014085D02*
Y1016086D01*
X1122300Y1098385D02*
X1124300D01*
X1123300Y1097385D02*
Y1099386D01*
X814300Y970285D02*
X816300D01*
X815300Y969286D02*
Y971285D01*
X872700Y970285D02*
X874700D01*
X873700Y969286D02*
Y971285D01*
X892500Y1022785D02*
X894500D01*
X893500Y1021786D02*
Y1023785D01*
X1399000Y1010386D02*
X1401000D01*
X1400000Y1009386D02*
Y1011385D01*
X1409100Y1010386D02*
X1411100D01*
X1410100Y1009386D02*
Y1011385D01*
X1358000Y1115885D02*
X1360000D01*
X1359000Y1114885D02*
Y1116885D01*
X1358000Y1090786D02*
X1360000D01*
X1359000Y1089786D02*
Y1091786D01*
X1358000Y1095806D02*
X1360000D01*
X1359000Y1094806D02*
Y1096805D01*
X1358000Y1100825D02*
X1360000D01*
X1359000Y1099825D02*
Y1101825D01*
X1358000Y1105845D02*
X1360000D01*
X1359000Y1104845D02*
Y1106845D01*
X1358000Y1110865D02*
X1360000D01*
X1359000Y1109865D02*
Y1111865D01*
X1391040Y1050185D02*
X1393040D01*
X1392040Y1049185D02*
Y1051186D01*
X1365100Y1050185D02*
X1367100D01*
X1366100Y1049185D02*
Y1051186D01*
X1370288Y1050185D02*
X1372288D01*
X1371288Y1049185D02*
Y1051186D01*
X1375476Y1050185D02*
X1377476D01*
X1376476Y1049185D02*
Y1051186D01*
X1380664Y1050185D02*
X1382664D01*
X1381664Y1049185D02*
Y1051186D01*
X1385852Y1050185D02*
X1387852D01*
X1386852Y1049185D02*
Y1051186D01*
X1396228Y1050185D02*
X1398228D01*
X1397228Y1049185D02*
Y1051186D01*
X1401416Y1050185D02*
X1403416D01*
X1402416Y1049185D02*
Y1051186D01*
X1406604Y1050185D02*
X1408604D01*
X1407604Y1049185D02*
Y1051186D01*
X1411792Y1050185D02*
X1413792D01*
X1412792Y1049185D02*
Y1051186D01*
X1416980Y1050185D02*
X1418980D01*
X1417980Y1049185D02*
Y1051186D01*
X1467491Y1049485D02*
X1469491D01*
X1468491Y1048485D02*
Y1050486D01*
X1441900Y1049485D02*
X1443900D01*
X1442900Y1048485D02*
Y1050486D01*
X1447018Y1049485D02*
X1449018D01*
X1448018Y1048485D02*
Y1050486D01*
X1452136Y1049485D02*
X1454136D01*
X1453136Y1048485D02*
Y1050486D01*
X1457254Y1049485D02*
X1459254D01*
X1458255Y1048485D02*
Y1050486D01*
X1462373Y1049485D02*
X1464373D01*
X1463373Y1048485D02*
Y1050486D01*
X1498200Y1049485D02*
X1500200D01*
X1499200Y1048485D02*
Y1050486D01*
X1472609Y1049485D02*
X1474609D01*
X1473609Y1048485D02*
Y1050486D01*
X1477727Y1049485D02*
X1479727D01*
X1478727Y1048485D02*
Y1050486D01*
X1482845Y1049485D02*
X1484845D01*
X1483845Y1048485D02*
Y1050486D01*
X1487963Y1049485D02*
X1489963D01*
X1488963Y1048485D02*
Y1050486D01*
X1493082Y1049485D02*
X1495081D01*
X1494082Y1048485D02*
Y1050486D01*
X1436500Y1049085D02*
X1438500D01*
X1437500Y1048085D02*
Y1050086D01*
X1419800Y1020585D02*
X1421800D01*
X1420800Y1019585D02*
Y1021585D01*
X1441000Y1036285D02*
X1443000D01*
X1442000Y1035285D02*
Y1037286D01*
X1441000Y1043785D02*
X1443000D01*
X1442000Y1042785D02*
Y1044786D01*
X1406500Y1000585D02*
X1408500D01*
X1407500Y999585D02*
Y1001585D01*
X1440200Y1016385D02*
X1442200D01*
X1441200Y1015386D02*
Y1017385D01*
X1382000Y997486D02*
X1384000D01*
X1383000Y996486D02*
Y998485D01*
X1421600Y1045585D02*
X1423600D01*
X1422600Y1044585D02*
Y1046585D01*
X1419800Y1038586D02*
X1421800D01*
X1420800Y1037586D02*
Y1039585D01*
X1419800Y1029585D02*
X1421800D01*
X1420800Y1028586D02*
Y1030585D01*
X1434700Y1031086D02*
X1436700D01*
X1435700Y1030086D02*
Y1032085D01*
X1361300Y1024485D02*
X1363300D01*
X1362300Y1023485D02*
Y1025486D01*
X1423100Y1001385D02*
X1425100D01*
X1424100Y1000386D02*
Y1002385D01*
X1431000Y1009386D02*
X1433000D01*
X1432000Y1008385D02*
Y1010386D01*
X1419000Y1011285D02*
X1421000D01*
X1420000Y1010285D02*
Y1012286D01*
X1435107Y1023383D02*
X1437107D01*
X1436107Y1022383D02*
Y1024383D01*
X2225560Y1115155D02*
X2227560D01*
X2226560Y1114155D02*
Y1116155D01*
X2210540Y1100175D02*
X2212540D01*
X2211540Y1099175D02*
Y1101175D01*
X2147553Y1115159D02*
X2149553D01*
X2148553Y1114159D02*
Y1116159D01*
X2147510Y1063135D02*
X2149510D01*
X2148510Y1062135D02*
Y1064135D01*
X2210558Y1084149D02*
X2212558D01*
X2211558Y1083149D02*
Y1085149D01*
X2178530Y1115165D02*
X2180530D01*
X2179530Y1114165D02*
Y1116165D01*
X2194550Y1115145D02*
X2196550D01*
X2195550Y1114145D02*
Y1116145D01*
X2162490Y1100175D02*
X2164490D01*
X2163490Y1099175D02*
Y1101175D01*
X2162520Y1084145D02*
X2164520D01*
X2163520Y1083145D02*
Y1085145D01*
X2180520Y1084145D02*
X2182520D01*
X2181520Y1083145D02*
Y1085145D01*
X2192550Y1084145D02*
X2194550D01*
X2193550Y1083145D02*
Y1085145D01*
X1723600Y1040985D02*
X1725600D01*
X1724600Y1039986D02*
Y1041985D01*
X1718000Y1045285D02*
X1720000D01*
X1719000Y1044286D02*
Y1046285D01*
X1701800Y1082186D02*
X1703800D01*
X1702800Y1081186D02*
Y1083186D01*
X1953400Y1108186D02*
X1955400D01*
X1954400Y1107186D02*
Y1109185D01*
X1856513Y1015694D02*
X1858513D01*
X1857513Y1014694D02*
Y1016694D01*
X1811800Y1011086D02*
X1813800D01*
X1812800Y1010086D02*
Y1012085D01*
X1652374Y1070965D02*
X1654374D01*
X1653374Y1069965D02*
Y1071965D01*
X1767219Y1083585D02*
X1769219D01*
X1768219Y1082585D02*
Y1084585D01*
X1666100Y1056786D02*
X1668100D01*
X1667100Y1055786D02*
Y1057785D01*
X1766500Y1053385D02*
X1768500D01*
X1767500Y1052385D02*
Y1054386D01*
X1728200Y1081985D02*
X1730200D01*
X1729200Y1080985D02*
Y1082986D01*
X1711100Y1075585D02*
X1713100D01*
X1712100Y1074585D02*
Y1076585D01*
X1766300Y1045285D02*
X1768300D01*
X1767300Y1044286D02*
Y1046285D01*
X2037300Y1027986D02*
X2039300D01*
X2038300Y1026985D02*
Y1028986D01*
X1994931Y1029196D02*
X1996931D01*
X1995932Y1028196D02*
Y1030196D01*
X1928400Y1050386D02*
X1930400D01*
X1929400Y1049386D02*
Y1051385D01*
X1994700Y1040686D02*
X1996700D01*
X1995700Y1039686D02*
Y1041685D01*
X1998500Y1047886D02*
X2000500D01*
X1999500Y1046886D02*
Y1048885D01*
X1949600Y1024085D02*
X1951600D01*
X1950600Y1023085D02*
Y1025086D01*
X1927200Y1018586D02*
X1929200D01*
X1928200Y1017586D02*
Y1019585D01*
X2050600Y1021186D02*
X2052600D01*
X2051600Y1020185D02*
Y1022186D01*
X2061700Y1008785D02*
X2063700D01*
X2062700Y1007785D02*
Y1009786D01*
X2049500Y1011086D02*
X2051500D01*
X2050500Y1010086D02*
Y1012085D01*
X1920700Y1043885D02*
X1922700D01*
X1921700Y1042886D02*
Y1044885D01*
X1918900Y1033785D02*
X1920900D01*
X1919900Y1032785D02*
Y1034786D01*
X1931000Y1022986D02*
X1933000D01*
X1932000Y1021985D02*
Y1023986D01*
X1910000Y1061585D02*
X1912000D01*
X1911000Y1060585D02*
Y1062586D01*
X1892105Y1066501D02*
X1894105D01*
X1893105Y1065501D02*
Y1067501D01*
X1857675Y1069485D02*
X1859675D01*
X1858675Y1068485D02*
Y1070486D01*
X1920900Y1071985D02*
X1922900D01*
X1921900Y1070985D02*
Y1072986D01*
X2030300Y1095786D02*
X2032300D01*
X2031300Y1094786D02*
Y1096786D01*
X2017900Y1082586D02*
X2019900D01*
X2018900Y1081585D02*
Y1083586D01*
X1976500Y1047886D02*
X1978500D01*
X1977500Y1046886D02*
Y1048885D01*
X1961700Y1010185D02*
X1963700D01*
X1962700Y1009185D02*
Y1011186D01*
X1842900Y1070185D02*
X1844900D01*
X1843900Y1069185D02*
Y1071186D01*
X1825218Y1062061D02*
X1827218D01*
X1826218Y1061061D02*
Y1063061D01*
X1891400Y1016385D02*
X1893400D01*
X1892400Y1015386D02*
Y1017385D01*
X1974500Y1071585D02*
X1976500D01*
X1975500Y1070585D02*
Y1072586D01*
X2000100Y1057685D02*
X2002100D01*
X2001100Y1056685D02*
Y1058686D01*
X2003700Y1049686D02*
X2005700D01*
X2004700Y1048686D02*
Y1050686D01*
X1689800Y1098485D02*
X1691800D01*
X1690800Y1097486D02*
Y1099485D01*
X1908500Y1098385D02*
X1910500D01*
X1909500Y1097385D02*
Y1099386D01*
X1921200Y1098385D02*
X1923200D01*
X1922200Y1097385D02*
Y1099386D01*
X1870400Y1098385D02*
X1872400D01*
X1871400Y1097385D02*
Y1099386D01*
X1883100Y1098385D02*
X1885100D01*
X1884100Y1097385D02*
Y1099386D01*
X1895800Y1098385D02*
X1897800D01*
X1896800Y1097385D02*
Y1099386D01*
X1962400Y1067186D02*
X1964400D01*
X1963400Y1066186D02*
Y1068186D01*
X1934200Y1058085D02*
X1936200D01*
X1935200Y1057085D02*
Y1059085D01*
X2071200Y1044786D02*
X2073200D01*
X2072200Y1043785D02*
Y1045786D01*
X1827600Y1072886D02*
X1829600D01*
X1828600Y1071886D02*
Y1073885D01*
X1811800Y1073286D02*
X1813800D01*
X1812800Y1072286D02*
Y1074286D01*
X1881296Y1066081D02*
X1883296D01*
X1882296Y1065081D02*
Y1067081D01*
X1854400Y1039185D02*
X1856400D01*
X1855400Y1038186D02*
Y1040185D01*
X1840050Y1050035D02*
X1842050D01*
X1841050Y1049035D02*
Y1051036D01*
X1786550Y1050035D02*
X1788550D01*
X1787550Y1049035D02*
Y1051036D01*
X2045700Y1015086D02*
X2047700D01*
X2046700Y1014085D02*
Y1016086D01*
X2003700Y1021786D02*
X2005700D01*
X2004700Y1020786D02*
Y1022785D01*
X1671900Y1037685D02*
X1673900D01*
X1672900Y1036685D02*
Y1038686D01*
X1665200Y1023586D02*
X1667200D01*
X1666200Y1022586D02*
Y1024585D01*
X1637700Y1010786D02*
X1639700D01*
X1638700Y1009786D02*
Y1011786D01*
X1687200Y1057685D02*
X1689200D01*
X1688200Y1056685D02*
Y1058686D01*
X1725500Y1107986D02*
X1727500D01*
X1726500Y1106985D02*
Y1108986D01*
X1769700Y1061985D02*
X1771700D01*
X1770700Y1060985D02*
Y1062986D01*
X1835100Y1093485D02*
X1837100D01*
X1836100Y1092486D02*
Y1094485D01*
X1812300Y1093785D02*
X1814300D01*
X1813300Y1092785D02*
Y1094786D01*
X1788000Y1093885D02*
X1790000D01*
X1789000Y1092886D02*
Y1094885D01*
X1932800Y1084386D02*
X1934800D01*
X1933800Y1083385D02*
Y1085386D01*
X1940000Y1071585D02*
X1942000D01*
X1941000Y1070585D02*
Y1072586D01*
X2014600Y959386D02*
X2016600D01*
X2015600Y958385D02*
Y960386D01*
X2014400Y981385D02*
X2016400D01*
X2015400Y980386D02*
Y982385D01*
X1750800Y958586D02*
X1752800D01*
X1751800Y957586D02*
Y959585D01*
X1750500Y980686D02*
X1752500D01*
X1751500Y979686D02*
Y981685D01*
X2149500Y959585D02*
X2151500D01*
X2150500Y958586D02*
Y960585D01*
X2150400Y981985D02*
X2152400D01*
X2151400Y980985D02*
Y982986D01*
X2228700Y959986D02*
X2230700D01*
X2229700Y958986D02*
Y960985D01*
X2229000Y982085D02*
X2231000D01*
X2230000Y981086D02*
Y983085D01*
X1538600Y957785D02*
X1540600D01*
X1539600Y956786D02*
Y958785D01*
X1539400Y982486D02*
X1541400D01*
X1540400Y981486D02*
Y983485D01*
X1617400Y959386D02*
X1619400D01*
X1618400Y958385D02*
Y960386D01*
X1617700Y982186D02*
X1619700D01*
X1618700Y981186D02*
Y983186D01*
X2001000Y1011685D02*
X2003000D01*
X2002000Y1010686D02*
Y1012685D01*
X1909100Y1050686D02*
X1911100D01*
X1910100Y1049686D02*
Y1051685D01*
X2161600Y970185D02*
X2163600D01*
X2162600Y969185D02*
Y971186D01*
X2219000Y970285D02*
X2221000D01*
X2220000Y969286D02*
Y971285D01*
X1929100Y1077986D02*
X1931100D01*
X1930100Y1076985D02*
Y1078986D01*
X1946150Y1044085D02*
X1948150D01*
X1947150Y1043085D02*
Y1045086D01*
X2059110Y1034396D02*
X2061110D01*
X2060110Y1033396D02*
Y1035396D01*
X2060500Y1029485D02*
X2062500D01*
X2061500Y1028485D02*
Y1030486D01*
X2041200Y1021585D02*
X2043200D01*
X2042200Y1020585D02*
Y1022586D01*
X2092800Y1015386D02*
X2094800D01*
X2093800Y1014386D02*
Y1016385D01*
X2093200Y1055786D02*
X2095200D01*
X2094200Y1054786D02*
Y1056786D01*
X2093400Y1060686D02*
X2095400D01*
X2094400Y1059686D02*
Y1061685D01*
X2093400Y1065705D02*
X2095400D01*
X2094400Y1064706D02*
Y1066705D01*
X2093400Y1070725D02*
X2095400D01*
X2094400Y1069725D02*
Y1071725D01*
X2093400Y1080765D02*
X2095400D01*
X2094400Y1079765D02*
Y1081765D01*
X2093400Y1085785D02*
X2095400D01*
X2094400Y1084785D02*
Y1086785D01*
X2093400Y1075745D02*
X2095400D01*
X2094400Y1074745D02*
Y1076745D01*
X2091775Y1000711D02*
X2093775D01*
X2092775Y999711D02*
Y1001711D01*
X2106800Y998586D02*
X2108800D01*
X2107800Y997586D02*
Y999585D01*
X1946000Y1037886D02*
X1948000D01*
X1947000Y1036886D02*
Y1038885D01*
X2074000Y1031486D02*
X2076000D01*
X2075000Y1030486D02*
Y1032486D01*
X1772800Y970285D02*
X1774800D01*
X1773800Y969286D02*
Y971285D01*
X1884300Y970285D02*
X1886300D01*
X1885300Y969286D02*
Y971285D01*
X1995800Y970285D02*
X1997800D01*
X1996800Y969286D02*
Y971285D01*
X2079200Y1031585D02*
X2081200D01*
X2080200Y1030585D02*
Y1032586D01*
X2079100Y1015086D02*
X2081100D01*
X2080100Y1014085D02*
Y1016086D01*
X2074000Y1015086D02*
X2076000D01*
X2075000Y1014085D02*
Y1016086D01*
X1857700Y1098385D02*
X1859700D01*
X1858700Y1097385D02*
Y1099386D01*
X1549700Y970285D02*
X1551700D01*
X1550700Y969286D02*
Y971285D01*
X1608100Y970285D02*
X1610100D01*
X1609100Y969286D02*
Y971285D01*
X1627900Y1022785D02*
X1629900D01*
X1628900Y1021786D02*
Y1023785D01*
X2134400Y1010386D02*
X2136400D01*
X2135400Y1009386D02*
Y1011385D01*
X2144500Y1010386D02*
X2146500D01*
X2145500Y1009386D02*
Y1011385D01*
X2093400Y1115885D02*
X2095400D01*
X2094400Y1114885D02*
Y1116885D01*
X2093400Y1090786D02*
X2095400D01*
X2094400Y1089786D02*
Y1091786D01*
X2093400Y1095806D02*
X2095400D01*
X2094400Y1094806D02*
Y1096805D01*
X2093400Y1100825D02*
X2095400D01*
X2094400Y1099825D02*
Y1101825D01*
X2093400Y1105845D02*
X2095400D01*
X2094400Y1104845D02*
Y1106845D01*
X2093400Y1110865D02*
X2095400D01*
X2094400Y1109865D02*
Y1111865D01*
X2126440Y1050185D02*
X2128440D01*
X2127440Y1049185D02*
Y1051186D01*
X2100500Y1050185D02*
X2102500D01*
X2101500Y1049185D02*
Y1051186D01*
X2105688Y1050185D02*
X2107688D01*
X2106688Y1049185D02*
Y1051186D01*
X2110876Y1050185D02*
X2112876D01*
X2111876Y1049185D02*
Y1051186D01*
X2116064Y1050185D02*
X2118064D01*
X2117064Y1049185D02*
Y1051186D01*
X2121252Y1050185D02*
X2123252D01*
X2122252Y1049185D02*
Y1051186D01*
X2131628Y1050185D02*
X2133628D01*
X2132628Y1049185D02*
Y1051186D01*
X2136816Y1050185D02*
X2138816D01*
X2137816Y1049185D02*
Y1051186D01*
X2142004Y1050185D02*
X2144004D01*
X2143004Y1049185D02*
Y1051186D01*
X2147192Y1050185D02*
X2149192D01*
X2148192Y1049185D02*
Y1051186D01*
X2152380Y1050185D02*
X2154380D01*
X2153380Y1049185D02*
Y1051186D01*
X2202891Y1049485D02*
X2204891D01*
X2203891Y1048485D02*
Y1050486D01*
X2177300Y1049485D02*
X2179300D01*
X2178300Y1048485D02*
Y1050486D01*
X2182418Y1049485D02*
X2184418D01*
X2183418Y1048485D02*
Y1050486D01*
X2187536Y1049485D02*
X2189536D01*
X2188536Y1048485D02*
Y1050486D01*
X2192655Y1049485D02*
X2194655D01*
X2193654Y1048485D02*
Y1050486D01*
X2197773Y1049485D02*
X2199773D01*
X2198773Y1048485D02*
Y1050486D01*
X2233600Y1049485D02*
X2235600D01*
X2234600Y1048485D02*
Y1050486D01*
X2208009Y1049485D02*
X2210009D01*
X2209009Y1048485D02*
Y1050486D01*
X2213127Y1049485D02*
X2215127D01*
X2214127Y1048485D02*
Y1050486D01*
X2218245Y1049485D02*
X2220245D01*
X2219245Y1048485D02*
Y1050486D01*
X2223363Y1049485D02*
X2225363D01*
X2224363Y1048485D02*
Y1050486D01*
X2228481Y1049485D02*
X2230482D01*
X2229482Y1048485D02*
Y1050486D01*
X2171900Y1049085D02*
X2173900D01*
X2172900Y1048085D02*
Y1050086D01*
X2155200Y1020585D02*
X2157200D01*
X2156200Y1019585D02*
Y1021585D01*
X2176400Y1036285D02*
X2178400D01*
X2177400Y1035285D02*
Y1037286D01*
X2176400Y1043785D02*
X2178400D01*
X2177400Y1042785D02*
Y1044786D01*
X2141900Y1000585D02*
X2143900D01*
X2142900Y999585D02*
Y1001585D01*
X2175600Y1016385D02*
X2177600D01*
X2176600Y1015386D02*
Y1017385D01*
X2117400Y997486D02*
X2119400D01*
X2118400Y996486D02*
Y998485D01*
X2157000Y1045585D02*
X2159000D01*
X2158000Y1044585D02*
Y1046585D01*
X2155200Y1038586D02*
X2157200D01*
X2156200Y1037586D02*
Y1039585D01*
X2155200Y1029585D02*
X2157200D01*
X2156200Y1028586D02*
Y1030585D01*
X2170100Y1031086D02*
X2172100D01*
X2171100Y1030086D02*
Y1032085D01*
X2096700Y1024485D02*
X2098700D01*
X2097700Y1023485D02*
Y1025486D01*
X2158500Y1001385D02*
X2160500D01*
X2159500Y1000386D02*
Y1002385D01*
X2166400Y1009386D02*
X2168400D01*
X2167400Y1008385D02*
Y1010386D01*
X2154400Y1011285D02*
X2156400D01*
X2155400Y1010285D02*
Y1012286D01*
X2170507Y1023383D02*
X2172507D01*
X2171507Y1022383D02*
Y1024383D01*
M02*
