G04*
G04 #@! TF.GenerationSoftware,Altium Limited,Altium Designer,21.4.1 (30)*
G04*
G04 Layer_Color=16711935*
%FSLAX44Y44*%
%MOMM*%
G71*
G04*
G04 #@! TF.SameCoordinates,2D73B175-FFCD-4784-8361-F00341A9FACE*
G04*
G04*
G04 #@! TF.FilePolarity,Negative*
G04*
G01*
G75*
%ADD41C,0.1000*%
%ADD44C,2.0000*%
G04:AMPARAMS|DCode=68|XSize=2.6032mm|YSize=0.9632mm|CornerRadius=0mm|HoleSize=0mm|Usage=FLASHONLY|Rotation=270.000|XOffset=0mm|YOffset=0mm|HoleType=Round|Shape=Octagon|*
%AMOCTAGOND68*
4,1,8,-0.2408,-1.3016,0.2408,-1.3016,0.4816,-1.0608,0.4816,1.0608,0.2408,1.3016,-0.2408,1.3016,-0.4816,1.0608,-0.4816,-1.0608,-0.2408,-1.3016,0.0*
%
%ADD68OCTAGOND68*%

%ADD69O,0.9632X2.6032*%
%ADD75R,9.7032X4.0032*%
%ADD79R,29.2032X4.0032*%
%ADD82C,1.2032*%
D41*
X2300000Y0D02*
Y1252400D01*
X-0Y0D02*
X0Y1252400D01*
X-0D02*
X2300000D01*
X0Y0D02*
X2300000D01*
D44*
X30000Y1222400D02*
D03*
Y50000D02*
D03*
X2270000Y30000D02*
D03*
Y1222400D02*
D03*
D68*
X451400Y276900D02*
D03*
X1186800D02*
D03*
X1922200D02*
D03*
X451400Y482271D02*
D03*
X1186800D02*
D03*
X1922200D02*
D03*
X451400Y687643D02*
D03*
X1186800D02*
D03*
X1922200D02*
D03*
X451400Y893014D02*
D03*
X1186800D02*
D03*
X1922200D02*
D03*
X451400Y1098385D02*
D03*
X1186800D02*
D03*
X1922200D02*
D03*
D69*
X387900Y276900D02*
D03*
X426000D02*
D03*
X400600D02*
D03*
X438700D02*
D03*
X413300D02*
D03*
X1123300D02*
D03*
X1161400D02*
D03*
X1136000D02*
D03*
X1174100D02*
D03*
X1148700D02*
D03*
X1858700D02*
D03*
X1896800D02*
D03*
X1871400D02*
D03*
X1909500D02*
D03*
X1884100D02*
D03*
X387900Y482271D02*
D03*
X426000D02*
D03*
X400600D02*
D03*
X438700D02*
D03*
X413300D02*
D03*
X1123300D02*
D03*
X1161400D02*
D03*
X1136000D02*
D03*
X1174100D02*
D03*
X1148700D02*
D03*
X1858700D02*
D03*
X1896800D02*
D03*
X1871400D02*
D03*
X1909500D02*
D03*
X1884100D02*
D03*
X387900Y687643D02*
D03*
X426000D02*
D03*
X400600D02*
D03*
X438700D02*
D03*
X413300D02*
D03*
X1123300D02*
D03*
X1161400D02*
D03*
X1136000D02*
D03*
X1174100D02*
D03*
X1148700D02*
D03*
X1858700D02*
D03*
X1896800D02*
D03*
X1871400D02*
D03*
X1909500D02*
D03*
X1884100D02*
D03*
X387900Y893014D02*
D03*
X426000D02*
D03*
X400600D02*
D03*
X438700D02*
D03*
X413300D02*
D03*
X1123300D02*
D03*
X1161400D02*
D03*
X1136000D02*
D03*
X1174100D02*
D03*
X1148700D02*
D03*
X1858700D02*
D03*
X1896800D02*
D03*
X1871400D02*
D03*
X1909500D02*
D03*
X1884100D02*
D03*
X387900Y1098385D02*
D03*
X426000D02*
D03*
X400600D02*
D03*
X438700D02*
D03*
X413300D02*
D03*
X1123300D02*
D03*
X1161400D02*
D03*
X1136000D02*
D03*
X1174100D02*
D03*
X1148700D02*
D03*
X1858700D02*
D03*
X1896800D02*
D03*
X1871400D02*
D03*
X1909500D02*
D03*
X1884100D02*
D03*
D75*
X109900Y148700D02*
D03*
X719400D02*
D03*
X845300D02*
D03*
X1454800D02*
D03*
X1580700D02*
D03*
X2190200D02*
D03*
X109900Y354071D02*
D03*
X719400D02*
D03*
X845300D02*
D03*
X1454800D02*
D03*
X1580700D02*
D03*
X2190200D02*
D03*
X109900Y559443D02*
D03*
X719400D02*
D03*
X845300D02*
D03*
X1454800D02*
D03*
X1580700D02*
D03*
X2190200D02*
D03*
X109900Y764814D02*
D03*
X719400D02*
D03*
X845300D02*
D03*
X1454800D02*
D03*
X1580700D02*
D03*
X2190200D02*
D03*
X109900Y970185D02*
D03*
X719400D02*
D03*
X845300D02*
D03*
X1454800D02*
D03*
X1580700D02*
D03*
X2190200D02*
D03*
D79*
X414500Y148800D02*
D03*
X1149900D02*
D03*
X1885300D02*
D03*
X414500Y354171D02*
D03*
X1149900D02*
D03*
X1885300D02*
D03*
X414500Y559543D02*
D03*
X1149900D02*
D03*
X1885300D02*
D03*
X414500Y764914D02*
D03*
X1149900D02*
D03*
X1885300D02*
D03*
X414500Y970285D02*
D03*
X1149900D02*
D03*
X1885300D02*
D03*
D82*
X109900Y271600D02*
D03*
Y214300D02*
D03*
X845300Y271600D02*
D03*
Y214300D02*
D03*
X1580700Y271600D02*
D03*
Y214300D02*
D03*
X109900Y476971D02*
D03*
Y419671D02*
D03*
X845300Y476971D02*
D03*
Y419671D02*
D03*
X1580700Y476971D02*
D03*
Y419671D02*
D03*
X109900Y682343D02*
D03*
Y625043D02*
D03*
X845300Y682343D02*
D03*
Y625043D02*
D03*
X1580700Y682343D02*
D03*
Y625043D02*
D03*
X109900Y887714D02*
D03*
Y830414D02*
D03*
X845300Y887714D02*
D03*
Y830414D02*
D03*
X1580700Y887714D02*
D03*
Y830414D02*
D03*
X109900Y1093085D02*
D03*
Y1035786D02*
D03*
X845300Y1093085D02*
D03*
Y1035786D02*
D03*
X1580700Y1093085D02*
D03*
Y1035786D02*
D03*
M02*
