G04*
G04 #@! TF.GenerationSoftware,Altium Limited,Altium Designer,21.4.1 (30)*
G04*
G04 Layer_Color=32768*
%FSLAX44Y44*%
%MOMM*%
G71*
G04*
G04 #@! TF.SameCoordinates,2D73B175-FFCD-4784-8361-F00341A9FACE*
G04*
G04*
G04 #@! TF.FilePolarity,Positive*
G04*
G01*
G75*
%ADD41C,0.1000*%
%ADD49C,0.0500*%
D41*
X395200Y249800D02*
X435200D01*
X395200Y202300D02*
Y249800D01*
Y202300D02*
X435200D01*
Y249800D01*
X69600Y196000D02*
Y296000D01*
X141600D01*
Y196000D02*
Y296000D01*
X69600Y196000D02*
X141600D01*
X289400Y178500D02*
X329400D01*
X289400D02*
Y228500D01*
X329400D01*
Y178500D02*
Y228500D01*
X258000Y221600D02*
X297000D01*
X258000D02*
Y256600D01*
X297000D01*
Y221600D02*
Y256600D01*
X639600Y200000D02*
X649600D01*
X644600Y195000D02*
Y205000D01*
X450300Y229350D02*
X476300D01*
Y200350D02*
Y229350D01*
X450300Y200350D02*
X476300D01*
X450300D02*
Y229350D01*
X603900Y238800D02*
Y248800D01*
X598900Y243800D02*
X608900D01*
X692400Y205750D02*
Y209050D01*
X690750Y207400D02*
X694050D01*
X552900Y192600D02*
Y202600D01*
X547900Y197600D02*
X557900D01*
X380230Y261760D02*
X457700D01*
X380230D02*
Y290970D01*
X457700D01*
Y261760D02*
Y290970D01*
X601300Y201800D02*
X611300D01*
X606300Y196800D02*
Y206800D01*
X259000Y244000D02*
Y250000D01*
X256000Y247000D02*
X262000D01*
X693750Y194700D02*
X697050D01*
X695400Y193050D02*
Y196350D01*
X241300Y217600D02*
X272200D01*
Y190200D02*
Y217600D01*
X241300Y190200D02*
Y217600D01*
Y190200D02*
X272200D01*
X582500Y226500D02*
Y232500D01*
X579500Y229500D02*
X585500D01*
X629400Y217500D02*
Y223500D01*
X626400Y220500D02*
X632400D01*
X516200Y192400D02*
Y198400D01*
X513200Y195400D02*
X519200D01*
X629300Y179850D02*
Y183150D01*
X627650Y181500D02*
X630950D01*
X654600Y179650D02*
Y182950D01*
X652950Y181300D02*
X656250D01*
X457750Y262930D02*
Y292140D01*
X380280Y262930D02*
X457750D01*
X380280D02*
Y292140D01*
X457750D01*
X641150Y184200D02*
X644450D01*
X642800Y182550D02*
Y185850D01*
X693785Y219035D02*
X697085D01*
X695435Y217385D02*
Y220685D01*
X487400Y210400D02*
X493400D01*
X490400Y207400D02*
Y213400D01*
X391000Y226600D02*
X397000D01*
X394000Y223600D02*
Y229600D01*
X324400Y204600D02*
X330400D01*
X327400Y201600D02*
Y207600D01*
X345700Y211500D02*
X351700D01*
X348700Y208500D02*
Y214500D01*
X233100Y236200D02*
X239100D01*
X236100Y233200D02*
Y239200D01*
X1130600Y249800D02*
X1170600D01*
X1130600Y202300D02*
Y249800D01*
Y202300D02*
X1170600D01*
Y249800D01*
X805000Y196000D02*
Y296000D01*
X877000D01*
Y196000D02*
Y296000D01*
X805000Y196000D02*
X877000D01*
X1024800Y178500D02*
X1064800D01*
X1024800D02*
Y228500D01*
X1064800D01*
Y178500D02*
Y228500D01*
X993400Y221600D02*
X1032400D01*
X993400D02*
Y256600D01*
X1032400D01*
Y221600D02*
Y256600D01*
X1375000Y200000D02*
X1385000D01*
X1380000Y195000D02*
Y205000D01*
X1185700Y229350D02*
X1211700D01*
Y200350D02*
Y229350D01*
X1185700Y200350D02*
X1211700D01*
X1185700D02*
Y229350D01*
X1339300Y238800D02*
Y248800D01*
X1334300Y243800D02*
X1344300D01*
X1427800Y205750D02*
Y209050D01*
X1426150Y207400D02*
X1429450D01*
X1288300Y192600D02*
Y202600D01*
X1283300Y197600D02*
X1293300D01*
X1115630Y261760D02*
X1193100D01*
X1115630D02*
Y290970D01*
X1193100D01*
Y261760D02*
Y290970D01*
X1336700Y201800D02*
X1346700D01*
X1341700Y196800D02*
Y206800D01*
X994400Y244000D02*
Y250000D01*
X991400Y247000D02*
X997400D01*
X1429150Y194700D02*
X1432450D01*
X1430800Y193050D02*
Y196350D01*
X976700Y217600D02*
X1007600D01*
Y190200D02*
Y217600D01*
X976700Y190200D02*
Y217600D01*
Y190200D02*
X1007600D01*
X1317900Y226500D02*
Y232500D01*
X1314900Y229500D02*
X1320900D01*
X1364800Y217500D02*
Y223500D01*
X1361800Y220500D02*
X1367800D01*
X1251600Y192400D02*
Y198400D01*
X1248600Y195400D02*
X1254600D01*
X1364700Y179850D02*
Y183150D01*
X1363050Y181500D02*
X1366350D01*
X1390000Y179650D02*
Y182950D01*
X1388350Y181300D02*
X1391650D01*
X1193150Y262930D02*
Y292140D01*
X1115680Y262930D02*
X1193150D01*
X1115680D02*
Y292140D01*
X1193150D01*
X1376550Y184200D02*
X1379850D01*
X1378200Y182550D02*
Y185850D01*
X1429185Y219035D02*
X1432485D01*
X1430835Y217385D02*
Y220685D01*
X1222800Y210400D02*
X1228800D01*
X1225800Y207400D02*
Y213400D01*
X1126400Y226600D02*
X1132400D01*
X1129400Y223600D02*
Y229600D01*
X1059800Y204600D02*
X1065800D01*
X1062800Y201600D02*
Y207600D01*
X1081100Y211500D02*
X1087100D01*
X1084100Y208500D02*
Y214500D01*
X968500Y236200D02*
X974500D01*
X971500Y233200D02*
Y239200D01*
X1866000Y249800D02*
X1906000D01*
X1866000Y202300D02*
Y249800D01*
Y202300D02*
X1906000D01*
Y249800D01*
X1540400Y196000D02*
Y296000D01*
X1612400D01*
Y196000D02*
Y296000D01*
X1540400Y196000D02*
X1612400D01*
X1760200Y178500D02*
X1800200D01*
X1760200D02*
Y228500D01*
X1800200D01*
Y178500D02*
Y228500D01*
X1728800Y221600D02*
X1767800D01*
X1728800D02*
Y256600D01*
X1767800D01*
Y221600D02*
Y256600D01*
X2110400Y200000D02*
X2120400D01*
X2115400Y195000D02*
Y205000D01*
X1921100Y229350D02*
X1947100D01*
Y200350D02*
Y229350D01*
X1921100Y200350D02*
X1947100D01*
X1921100D02*
Y229350D01*
X2074700Y238800D02*
Y248800D01*
X2069700Y243800D02*
X2079700D01*
X2163200Y205750D02*
Y209050D01*
X2161550Y207400D02*
X2164850D01*
X2023700Y192600D02*
Y202600D01*
X2018700Y197600D02*
X2028700D01*
X1851030Y261760D02*
X1928500D01*
X1851030D02*
Y290970D01*
X1928500D01*
Y261760D02*
Y290970D01*
X2072100Y201800D02*
X2082100D01*
X2077100Y196800D02*
Y206800D01*
X1729800Y244000D02*
Y250000D01*
X1726800Y247000D02*
X1732800D01*
X2164550Y194700D02*
X2167850D01*
X2166200Y193050D02*
Y196350D01*
X1712100Y217600D02*
X1743000D01*
Y190200D02*
Y217600D01*
X1712100Y190200D02*
Y217600D01*
Y190200D02*
X1743000D01*
X2053300Y226500D02*
Y232500D01*
X2050300Y229500D02*
X2056300D01*
X2100200Y217500D02*
Y223500D01*
X2097200Y220500D02*
X2103200D01*
X1987000Y192400D02*
Y198400D01*
X1984000Y195400D02*
X1990000D01*
X2100100Y179850D02*
Y183150D01*
X2098450Y181500D02*
X2101750D01*
X2125400Y179650D02*
Y182950D01*
X2123750Y181300D02*
X2127050D01*
X1928550Y262930D02*
Y292140D01*
X1851080Y262930D02*
X1928550D01*
X1851080D02*
Y292140D01*
X1928550D01*
X2111950Y184200D02*
X2115250D01*
X2113600Y182550D02*
Y185850D01*
X2164585Y219035D02*
X2167885D01*
X2166235Y217385D02*
Y220685D01*
X1958200Y210400D02*
X1964200D01*
X1961200Y207400D02*
Y213400D01*
X1861800Y226600D02*
X1867800D01*
X1864800Y223600D02*
Y229600D01*
X1795200Y204600D02*
X1801200D01*
X1798200Y201600D02*
Y207600D01*
X1816500Y211500D02*
X1822500D01*
X1819500Y208500D02*
Y214500D01*
X1703900Y236200D02*
X1709900D01*
X1706900Y233200D02*
Y239200D01*
X395200Y455171D02*
X435200D01*
X395200Y407671D02*
Y455171D01*
Y407671D02*
X435200D01*
Y455171D01*
X69600Y401371D02*
Y501371D01*
X141600D01*
Y401371D02*
Y501371D01*
X69600Y401371D02*
X141600D01*
X289400Y383871D02*
X329400D01*
X289400D02*
Y433871D01*
X329400D01*
Y383871D02*
Y433871D01*
X258000Y426971D02*
X297000D01*
X258000D02*
Y461971D01*
X297000D01*
Y426971D02*
Y461971D01*
X639600Y405371D02*
X649600D01*
X644600Y400371D02*
Y410371D01*
X450300Y434721D02*
X476300D01*
Y405721D02*
Y434721D01*
X450300Y405721D02*
X476300D01*
X450300D02*
Y434721D01*
X603900Y444171D02*
Y454171D01*
X598900Y449171D02*
X608900D01*
X692400Y411121D02*
Y414421D01*
X690750Y412771D02*
X694050D01*
X552900Y397971D02*
Y407971D01*
X547900Y402971D02*
X557900D01*
X380230Y467131D02*
X457700D01*
X380230D02*
Y496341D01*
X457700D01*
Y467131D02*
Y496341D01*
X601300Y407171D02*
X611300D01*
X606300Y402171D02*
Y412171D01*
X259000Y449372D02*
Y455372D01*
X256000Y452371D02*
X262000D01*
X693750Y400071D02*
X697050D01*
X695400Y398421D02*
Y401721D01*
X241300Y422971D02*
X272200D01*
Y395571D02*
Y422971D01*
X241300Y395571D02*
Y422971D01*
Y395571D02*
X272200D01*
X582500Y431871D02*
Y437871D01*
X579500Y434871D02*
X585500D01*
X629400Y422872D02*
Y428872D01*
X626400Y425871D02*
X632400D01*
X516200Y397772D02*
Y403772D01*
X513200Y400771D02*
X519200D01*
X629300Y385221D02*
Y388521D01*
X627650Y386871D02*
X630950D01*
X654600Y385021D02*
Y388321D01*
X652950Y386671D02*
X656250D01*
X457750Y468301D02*
Y497511D01*
X380280Y468301D02*
X457750D01*
X380280D02*
Y497511D01*
X457750D01*
X641150Y389571D02*
X644450D01*
X642800Y387921D02*
Y391221D01*
X693785Y424406D02*
X697085D01*
X695435Y422756D02*
Y426056D01*
X487400Y415771D02*
X493400D01*
X490400Y412772D02*
Y418772D01*
X391000Y431971D02*
X397000D01*
X394000Y428972D02*
Y434972D01*
X324400Y409971D02*
X330400D01*
X327400Y406972D02*
Y412972D01*
X345700Y416871D02*
X351700D01*
X348700Y413872D02*
Y419872D01*
X233100Y441571D02*
X239100D01*
X236100Y438571D02*
Y444571D01*
X1130600Y455171D02*
X1170600D01*
X1130600Y407671D02*
Y455171D01*
Y407671D02*
X1170600D01*
Y455171D01*
X805000Y401371D02*
Y501371D01*
X877000D01*
Y401371D02*
Y501371D01*
X805000Y401371D02*
X877000D01*
X1024800Y383871D02*
X1064800D01*
X1024800D02*
Y433871D01*
X1064800D01*
Y383871D02*
Y433871D01*
X993400Y426971D02*
X1032400D01*
X993400D02*
Y461971D01*
X1032400D01*
Y426971D02*
Y461971D01*
X1375000Y405371D02*
X1385000D01*
X1380000Y400371D02*
Y410371D01*
X1185700Y434721D02*
X1211700D01*
Y405721D02*
Y434721D01*
X1185700Y405721D02*
X1211700D01*
X1185700D02*
Y434721D01*
X1339300Y444171D02*
Y454171D01*
X1334300Y449171D02*
X1344300D01*
X1427800Y411121D02*
Y414421D01*
X1426150Y412771D02*
X1429450D01*
X1288300Y397971D02*
Y407971D01*
X1283300Y402971D02*
X1293300D01*
X1115630Y467131D02*
X1193100D01*
X1115630D02*
Y496341D01*
X1193100D01*
Y467131D02*
Y496341D01*
X1336700Y407171D02*
X1346700D01*
X1341700Y402171D02*
Y412171D01*
X994400Y449372D02*
Y455372D01*
X991400Y452371D02*
X997400D01*
X1429150Y400071D02*
X1432450D01*
X1430800Y398421D02*
Y401721D01*
X976700Y422971D02*
X1007600D01*
Y395571D02*
Y422971D01*
X976700Y395571D02*
Y422971D01*
Y395571D02*
X1007600D01*
X1317900Y431871D02*
Y437871D01*
X1314900Y434871D02*
X1320900D01*
X1364800Y422872D02*
Y428872D01*
X1361800Y425871D02*
X1367800D01*
X1251600Y397772D02*
Y403772D01*
X1248600Y400771D02*
X1254600D01*
X1364700Y385221D02*
Y388521D01*
X1363050Y386871D02*
X1366350D01*
X1390000Y385021D02*
Y388321D01*
X1388350Y386671D02*
X1391650D01*
X1193150Y468301D02*
Y497511D01*
X1115680Y468301D02*
X1193150D01*
X1115680D02*
Y497511D01*
X1193150D01*
X1376550Y389571D02*
X1379850D01*
X1378200Y387921D02*
Y391221D01*
X1429185Y424406D02*
X1432485D01*
X1430835Y422756D02*
Y426056D01*
X1222800Y415771D02*
X1228800D01*
X1225800Y412772D02*
Y418772D01*
X1126400Y431971D02*
X1132400D01*
X1129400Y428972D02*
Y434972D01*
X1059800Y409971D02*
X1065800D01*
X1062800Y406972D02*
Y412972D01*
X1081100Y416871D02*
X1087100D01*
X1084100Y413872D02*
Y419872D01*
X968500Y441571D02*
X974500D01*
X971500Y438571D02*
Y444571D01*
X1866000Y455171D02*
X1906000D01*
X1866000Y407671D02*
Y455171D01*
Y407671D02*
X1906000D01*
Y455171D01*
X1540400Y401371D02*
Y501371D01*
X1612400D01*
Y401371D02*
Y501371D01*
X1540400Y401371D02*
X1612400D01*
X1760200Y383871D02*
X1800200D01*
X1760200D02*
Y433871D01*
X1800200D01*
Y383871D02*
Y433871D01*
X1728800Y426971D02*
X1767800D01*
X1728800D02*
Y461971D01*
X1767800D01*
Y426971D02*
Y461971D01*
X2110400Y405371D02*
X2120400D01*
X2115400Y400371D02*
Y410371D01*
X1921100Y434721D02*
X1947100D01*
Y405721D02*
Y434721D01*
X1921100Y405721D02*
X1947100D01*
X1921100D02*
Y434721D01*
X2074700Y444171D02*
Y454171D01*
X2069700Y449171D02*
X2079700D01*
X2163200Y411121D02*
Y414421D01*
X2161550Y412771D02*
X2164850D01*
X2023700Y397971D02*
Y407971D01*
X2018700Y402971D02*
X2028700D01*
X1851030Y467131D02*
X1928500D01*
X1851030D02*
Y496341D01*
X1928500D01*
Y467131D02*
Y496341D01*
X2072100Y407171D02*
X2082100D01*
X2077100Y402171D02*
Y412171D01*
X1729800Y449372D02*
Y455372D01*
X1726800Y452371D02*
X1732800D01*
X2164550Y400071D02*
X2167850D01*
X2166200Y398421D02*
Y401721D01*
X1712100Y422971D02*
X1743000D01*
Y395571D02*
Y422971D01*
X1712100Y395571D02*
Y422971D01*
Y395571D02*
X1743000D01*
X2053300Y431871D02*
Y437871D01*
X2050300Y434871D02*
X2056300D01*
X2100200Y422872D02*
Y428872D01*
X2097200Y425871D02*
X2103200D01*
X1987000Y397772D02*
Y403772D01*
X1984000Y400771D02*
X1990000D01*
X2100100Y385221D02*
Y388521D01*
X2098450Y386871D02*
X2101750D01*
X2125400Y385021D02*
Y388321D01*
X2123750Y386671D02*
X2127050D01*
X1928550Y468301D02*
Y497511D01*
X1851080Y468301D02*
X1928550D01*
X1851080D02*
Y497511D01*
X1928550D01*
X2111950Y389571D02*
X2115250D01*
X2113600Y387921D02*
Y391221D01*
X2164585Y424406D02*
X2167885D01*
X2166235Y422756D02*
Y426056D01*
X1958200Y415771D02*
X1964200D01*
X1961200Y412772D02*
Y418772D01*
X1861800Y431971D02*
X1867800D01*
X1864800Y428972D02*
Y434972D01*
X1795200Y409971D02*
X1801200D01*
X1798200Y406972D02*
Y412972D01*
X1816500Y416871D02*
X1822500D01*
X1819500Y413872D02*
Y419872D01*
X1703900Y441571D02*
X1709900D01*
X1706900Y438571D02*
Y444571D01*
X395200Y660543D02*
X435200D01*
X395200Y613043D02*
Y660543D01*
Y613043D02*
X435200D01*
Y660543D01*
X69600Y606743D02*
Y706743D01*
X141600D01*
Y606743D02*
Y706743D01*
X69600Y606743D02*
X141600D01*
X289400Y589243D02*
X329400D01*
X289400D02*
Y639243D01*
X329400D01*
Y589243D02*
Y639243D01*
X258000Y632343D02*
X297000D01*
X258000D02*
Y667343D01*
X297000D01*
Y632343D02*
Y667343D01*
X639600Y610743D02*
X649600D01*
X644600Y605742D02*
Y615742D01*
X450300Y640093D02*
X476300D01*
Y611093D02*
Y640093D01*
X450300Y611093D02*
X476300D01*
X450300D02*
Y640093D01*
X603900Y649543D02*
Y659543D01*
X598900Y654543D02*
X608900D01*
X692400Y616493D02*
Y619793D01*
X690750Y618143D02*
X694050D01*
X552900Y603343D02*
Y613343D01*
X547900Y608343D02*
X557900D01*
X380230Y672503D02*
X457700D01*
X380230D02*
Y701713D01*
X457700D01*
Y672503D02*
Y701713D01*
X601300Y612543D02*
X611300D01*
X606300Y607543D02*
Y617543D01*
X259000Y654743D02*
Y660743D01*
X256000Y657743D02*
X262000D01*
X693750Y605443D02*
X697050D01*
X695400Y603793D02*
Y607093D01*
X241300Y628343D02*
X272200D01*
Y600943D02*
Y628343D01*
X241300Y600943D02*
Y628343D01*
Y600943D02*
X272200D01*
X582500Y637243D02*
Y643242D01*
X579500Y640243D02*
X585500D01*
X629400Y628243D02*
Y634243D01*
X626400Y631243D02*
X632400D01*
X516200Y603143D02*
Y609143D01*
X513200Y606143D02*
X519200D01*
X629300Y590593D02*
Y593893D01*
X627650Y592243D02*
X630950D01*
X654600Y590393D02*
Y593693D01*
X652950Y592043D02*
X656250D01*
X457750Y673673D02*
Y702883D01*
X380280Y673673D02*
X457750D01*
X380280D02*
Y702883D01*
X457750D01*
X641150Y594943D02*
X644450D01*
X642800Y593293D02*
Y596593D01*
X693785Y629778D02*
X697085D01*
X695435Y628128D02*
Y631428D01*
X487400Y621143D02*
X493400D01*
X490400Y618143D02*
Y624143D01*
X391000Y637343D02*
X397000D01*
X394000Y634343D02*
Y640343D01*
X324400Y615343D02*
X330400D01*
X327400Y612343D02*
Y618343D01*
X345700Y622243D02*
X351700D01*
X348700Y619243D02*
Y625243D01*
X233100Y646943D02*
X239100D01*
X236100Y643942D02*
Y649942D01*
X1130600Y660543D02*
X1170600D01*
X1130600Y613043D02*
Y660543D01*
Y613043D02*
X1170600D01*
Y660543D01*
X805000Y606743D02*
Y706743D01*
X877000D01*
Y606743D02*
Y706743D01*
X805000Y606743D02*
X877000D01*
X1024800Y589243D02*
X1064800D01*
X1024800D02*
Y639243D01*
X1064800D01*
Y589243D02*
Y639243D01*
X993400Y632343D02*
X1032400D01*
X993400D02*
Y667343D01*
X1032400D01*
Y632343D02*
Y667343D01*
X1375000Y610743D02*
X1385000D01*
X1380000Y605742D02*
Y615742D01*
X1185700Y640093D02*
X1211700D01*
Y611093D02*
Y640093D01*
X1185700Y611093D02*
X1211700D01*
X1185700D02*
Y640093D01*
X1339300Y649543D02*
Y659543D01*
X1334300Y654543D02*
X1344300D01*
X1427800Y616493D02*
Y619793D01*
X1426150Y618143D02*
X1429450D01*
X1288300Y603343D02*
Y613343D01*
X1283300Y608343D02*
X1293300D01*
X1115630Y672503D02*
X1193100D01*
X1115630D02*
Y701713D01*
X1193100D01*
Y672503D02*
Y701713D01*
X1336700Y612543D02*
X1346700D01*
X1341700Y607543D02*
Y617543D01*
X994400Y654743D02*
Y660743D01*
X991400Y657743D02*
X997400D01*
X1429150Y605443D02*
X1432450D01*
X1430800Y603793D02*
Y607093D01*
X976700Y628343D02*
X1007600D01*
Y600943D02*
Y628343D01*
X976700Y600943D02*
Y628343D01*
Y600943D02*
X1007600D01*
X1317900Y637243D02*
Y643242D01*
X1314900Y640243D02*
X1320900D01*
X1364800Y628243D02*
Y634243D01*
X1361800Y631243D02*
X1367800D01*
X1251600Y603143D02*
Y609143D01*
X1248600Y606143D02*
X1254600D01*
X1364700Y590593D02*
Y593893D01*
X1363050Y592243D02*
X1366350D01*
X1390000Y590393D02*
Y593693D01*
X1388350Y592043D02*
X1391650D01*
X1193150Y673673D02*
Y702883D01*
X1115680Y673673D02*
X1193150D01*
X1115680D02*
Y702883D01*
X1193150D01*
X1376550Y594943D02*
X1379850D01*
X1378200Y593293D02*
Y596593D01*
X1429185Y629778D02*
X1432485D01*
X1430835Y628128D02*
Y631428D01*
X1222800Y621143D02*
X1228800D01*
X1225800Y618143D02*
Y624143D01*
X1126400Y637343D02*
X1132400D01*
X1129400Y634343D02*
Y640343D01*
X1059800Y615343D02*
X1065800D01*
X1062800Y612343D02*
Y618343D01*
X1081100Y622243D02*
X1087100D01*
X1084100Y619243D02*
Y625243D01*
X968500Y646943D02*
X974500D01*
X971500Y643942D02*
Y649942D01*
X1866000Y660543D02*
X1906000D01*
X1866000Y613043D02*
Y660543D01*
Y613043D02*
X1906000D01*
Y660543D01*
X1540400Y606743D02*
Y706743D01*
X1612400D01*
Y606743D02*
Y706743D01*
X1540400Y606743D02*
X1612400D01*
X1760200Y589243D02*
X1800200D01*
X1760200D02*
Y639243D01*
X1800200D01*
Y589243D02*
Y639243D01*
X1728800Y632343D02*
X1767800D01*
X1728800D02*
Y667343D01*
X1767800D01*
Y632343D02*
Y667343D01*
X2110400Y610743D02*
X2120400D01*
X2115400Y605742D02*
Y615742D01*
X1921100Y640093D02*
X1947100D01*
Y611093D02*
Y640093D01*
X1921100Y611093D02*
X1947100D01*
X1921100D02*
Y640093D01*
X2074700Y649543D02*
Y659543D01*
X2069700Y654543D02*
X2079700D01*
X2163200Y616493D02*
Y619793D01*
X2161550Y618143D02*
X2164850D01*
X2023700Y603343D02*
Y613343D01*
X2018700Y608343D02*
X2028700D01*
X1851030Y672503D02*
X1928500D01*
X1851030D02*
Y701713D01*
X1928500D01*
Y672503D02*
Y701713D01*
X2072100Y612543D02*
X2082100D01*
X2077100Y607543D02*
Y617543D01*
X1729800Y654743D02*
Y660743D01*
X1726800Y657743D02*
X1732800D01*
X2164550Y605443D02*
X2167850D01*
X2166200Y603793D02*
Y607093D01*
X1712100Y628343D02*
X1743000D01*
Y600943D02*
Y628343D01*
X1712100Y600943D02*
Y628343D01*
Y600943D02*
X1743000D01*
X2053300Y637243D02*
Y643242D01*
X2050300Y640243D02*
X2056300D01*
X2100200Y628243D02*
Y634243D01*
X2097200Y631243D02*
X2103200D01*
X1987000Y603143D02*
Y609143D01*
X1984000Y606143D02*
X1990000D01*
X2100100Y590593D02*
Y593893D01*
X2098450Y592243D02*
X2101750D01*
X2125400Y590393D02*
Y593693D01*
X2123750Y592043D02*
X2127050D01*
X1928550Y673673D02*
Y702883D01*
X1851080Y673673D02*
X1928550D01*
X1851080D02*
Y702883D01*
X1928550D01*
X2111950Y594943D02*
X2115250D01*
X2113600Y593293D02*
Y596593D01*
X2164585Y629778D02*
X2167885D01*
X2166235Y628128D02*
Y631428D01*
X1958200Y621143D02*
X1964200D01*
X1961200Y618143D02*
Y624143D01*
X1861800Y637343D02*
X1867800D01*
X1864800Y634343D02*
Y640343D01*
X1795200Y615343D02*
X1801200D01*
X1798200Y612343D02*
Y618343D01*
X1816500Y622243D02*
X1822500D01*
X1819500Y619243D02*
Y625243D01*
X1703900Y646943D02*
X1709900D01*
X1706900Y643942D02*
Y649942D01*
X395200Y865914D02*
X435200D01*
X395200Y818414D02*
Y865914D01*
Y818414D02*
X435200D01*
Y865914D01*
X69600Y812114D02*
Y912114D01*
X141600D01*
Y812114D02*
Y912114D01*
X69600Y812114D02*
X141600D01*
X289400Y794614D02*
X329400D01*
X289400D02*
Y844614D01*
X329400D01*
Y794614D02*
Y844614D01*
X258000Y837714D02*
X297000D01*
X258000D02*
Y872714D01*
X297000D01*
Y837714D02*
Y872714D01*
X639600Y816114D02*
X649600D01*
X644600Y811114D02*
Y821114D01*
X450300Y845464D02*
X476300D01*
Y816464D02*
Y845464D01*
X450300Y816464D02*
X476300D01*
X450300D02*
Y845464D01*
X603900Y854914D02*
Y864914D01*
X598900Y859914D02*
X608900D01*
X692400Y821864D02*
Y825164D01*
X690750Y823514D02*
X694050D01*
X552900Y808714D02*
Y818714D01*
X547900Y813714D02*
X557900D01*
X380230Y877874D02*
X457700D01*
X380230D02*
Y907084D01*
X457700D01*
Y877874D02*
Y907084D01*
X601300Y817914D02*
X611300D01*
X606300Y812914D02*
Y822914D01*
X259000Y860114D02*
Y866114D01*
X256000Y863114D02*
X262000D01*
X693750Y810814D02*
X697050D01*
X695400Y809164D02*
Y812464D01*
X241300Y833714D02*
X272200D01*
Y806314D02*
Y833714D01*
X241300Y806314D02*
Y833714D01*
Y806314D02*
X272200D01*
X582500Y842614D02*
Y848614D01*
X579500Y845614D02*
X585500D01*
X629400Y833614D02*
Y839614D01*
X626400Y836614D02*
X632400D01*
X516200Y808514D02*
Y814514D01*
X513200Y811514D02*
X519200D01*
X629300Y795964D02*
Y799264D01*
X627650Y797614D02*
X630950D01*
X654600Y795764D02*
Y799064D01*
X652950Y797414D02*
X656250D01*
X457750Y879044D02*
Y908254D01*
X380280Y879044D02*
X457750D01*
X380280D02*
Y908254D01*
X457750D01*
X641150Y800314D02*
X644450D01*
X642800Y798664D02*
Y801964D01*
X693785Y835149D02*
X697085D01*
X695435Y833499D02*
Y836799D01*
X487400Y826514D02*
X493400D01*
X490400Y823514D02*
Y829514D01*
X391000Y842714D02*
X397000D01*
X394000Y839714D02*
Y845714D01*
X324400Y820714D02*
X330400D01*
X327400Y817714D02*
Y823714D01*
X345700Y827614D02*
X351700D01*
X348700Y824614D02*
Y830614D01*
X233100Y852314D02*
X239100D01*
X236100Y849314D02*
Y855314D01*
X1130600Y865914D02*
X1170600D01*
X1130600Y818414D02*
Y865914D01*
Y818414D02*
X1170600D01*
Y865914D01*
X805000Y812114D02*
Y912114D01*
X877000D01*
Y812114D02*
Y912114D01*
X805000Y812114D02*
X877000D01*
X1024800Y794614D02*
X1064800D01*
X1024800D02*
Y844614D01*
X1064800D01*
Y794614D02*
Y844614D01*
X993400Y837714D02*
X1032400D01*
X993400D02*
Y872714D01*
X1032400D01*
Y837714D02*
Y872714D01*
X1375000Y816114D02*
X1385000D01*
X1380000Y811114D02*
Y821114D01*
X1185700Y845464D02*
X1211700D01*
Y816464D02*
Y845464D01*
X1185700Y816464D02*
X1211700D01*
X1185700D02*
Y845464D01*
X1339300Y854914D02*
Y864914D01*
X1334300Y859914D02*
X1344300D01*
X1427800Y821864D02*
Y825164D01*
X1426150Y823514D02*
X1429450D01*
X1288300Y808714D02*
Y818714D01*
X1283300Y813714D02*
X1293300D01*
X1115630Y877874D02*
X1193100D01*
X1115630D02*
Y907084D01*
X1193100D01*
Y877874D02*
Y907084D01*
X1336700Y817914D02*
X1346700D01*
X1341700Y812914D02*
Y822914D01*
X994400Y860114D02*
Y866114D01*
X991400Y863114D02*
X997400D01*
X1429150Y810814D02*
X1432450D01*
X1430800Y809164D02*
Y812464D01*
X976700Y833714D02*
X1007600D01*
Y806314D02*
Y833714D01*
X976700Y806314D02*
Y833714D01*
Y806314D02*
X1007600D01*
X1317900Y842614D02*
Y848614D01*
X1314900Y845614D02*
X1320900D01*
X1364800Y833614D02*
Y839614D01*
X1361800Y836614D02*
X1367800D01*
X1251600Y808514D02*
Y814514D01*
X1248600Y811514D02*
X1254600D01*
X1364700Y795964D02*
Y799264D01*
X1363050Y797614D02*
X1366350D01*
X1390000Y795764D02*
Y799064D01*
X1388350Y797414D02*
X1391650D01*
X1193150Y879044D02*
Y908254D01*
X1115680Y879044D02*
X1193150D01*
X1115680D02*
Y908254D01*
X1193150D01*
X1376550Y800314D02*
X1379850D01*
X1378200Y798664D02*
Y801964D01*
X1429185Y835149D02*
X1432485D01*
X1430835Y833499D02*
Y836799D01*
X1222800Y826514D02*
X1228800D01*
X1225800Y823514D02*
Y829514D01*
X1126400Y842714D02*
X1132400D01*
X1129400Y839714D02*
Y845714D01*
X1059800Y820714D02*
X1065800D01*
X1062800Y817714D02*
Y823714D01*
X1081100Y827614D02*
X1087100D01*
X1084100Y824614D02*
Y830614D01*
X968500Y852314D02*
X974500D01*
X971500Y849314D02*
Y855314D01*
X1866000Y865914D02*
X1906000D01*
X1866000Y818414D02*
Y865914D01*
Y818414D02*
X1906000D01*
Y865914D01*
X1540400Y812114D02*
Y912114D01*
X1612400D01*
Y812114D02*
Y912114D01*
X1540400Y812114D02*
X1612400D01*
X1760200Y794614D02*
X1800200D01*
X1760200D02*
Y844614D01*
X1800200D01*
Y794614D02*
Y844614D01*
X1728800Y837714D02*
X1767800D01*
X1728800D02*
Y872714D01*
X1767800D01*
Y837714D02*
Y872714D01*
X2110400Y816114D02*
X2120400D01*
X2115400Y811114D02*
Y821114D01*
X1921100Y845464D02*
X1947100D01*
Y816464D02*
Y845464D01*
X1921100Y816464D02*
X1947100D01*
X1921100D02*
Y845464D01*
X2074700Y854914D02*
Y864914D01*
X2069700Y859914D02*
X2079700D01*
X2163200Y821864D02*
Y825164D01*
X2161550Y823514D02*
X2164850D01*
X2023700Y808714D02*
Y818714D01*
X2018700Y813714D02*
X2028700D01*
X1851030Y877874D02*
X1928500D01*
X1851030D02*
Y907084D01*
X1928500D01*
Y877874D02*
Y907084D01*
X2072100Y817914D02*
X2082100D01*
X2077100Y812914D02*
Y822914D01*
X1729800Y860114D02*
Y866114D01*
X1726800Y863114D02*
X1732800D01*
X2164550Y810814D02*
X2167850D01*
X2166200Y809164D02*
Y812464D01*
X1712100Y833714D02*
X1743000D01*
Y806314D02*
Y833714D01*
X1712100Y806314D02*
Y833714D01*
Y806314D02*
X1743000D01*
X2053300Y842614D02*
Y848614D01*
X2050300Y845614D02*
X2056300D01*
X2100200Y833614D02*
Y839614D01*
X2097200Y836614D02*
X2103200D01*
X1987000Y808514D02*
Y814514D01*
X1984000Y811514D02*
X1990000D01*
X2100100Y795964D02*
Y799264D01*
X2098450Y797614D02*
X2101750D01*
X2125400Y795764D02*
Y799064D01*
X2123750Y797414D02*
X2127050D01*
X1928550Y879044D02*
Y908254D01*
X1851080Y879044D02*
X1928550D01*
X1851080D02*
Y908254D01*
X1928550D01*
X2111950Y800314D02*
X2115250D01*
X2113600Y798664D02*
Y801964D01*
X2164585Y835149D02*
X2167885D01*
X2166235Y833499D02*
Y836799D01*
X1958200Y826514D02*
X1964200D01*
X1961200Y823514D02*
Y829514D01*
X1861800Y842714D02*
X1867800D01*
X1864800Y839714D02*
Y845714D01*
X1795200Y820714D02*
X1801200D01*
X1798200Y817714D02*
Y823714D01*
X1816500Y827614D02*
X1822500D01*
X1819500Y824614D02*
Y830614D01*
X1703900Y852314D02*
X1709900D01*
X1706900Y849314D02*
Y855314D01*
X395200Y1071285D02*
X435200D01*
X395200Y1023785D02*
Y1071285D01*
Y1023785D02*
X435200D01*
Y1071285D01*
X69600Y1017486D02*
Y1117486D01*
X141600D01*
Y1017486D02*
Y1117486D01*
X69600Y1017486D02*
X141600D01*
X289400Y999986D02*
X329400D01*
X289400D02*
Y1049986D01*
X329400D01*
Y999986D02*
Y1049986D01*
X258000Y1043085D02*
X297000D01*
X258000D02*
Y1078085D01*
X297000D01*
Y1043085D02*
Y1078085D01*
X639600Y1021486D02*
X649600D01*
X644600Y1016485D02*
Y1026485D01*
X450300Y1050835D02*
X476300D01*
Y1021835D02*
Y1050835D01*
X450300Y1021835D02*
X476300D01*
X450300D02*
Y1050835D01*
X603900Y1060285D02*
Y1070285D01*
X598900Y1065285D02*
X608900D01*
X692400Y1027235D02*
Y1030536D01*
X690750Y1028885D02*
X694050D01*
X552900Y1014085D02*
Y1024085D01*
X547900Y1019085D02*
X557900D01*
X380230Y1083245D02*
X457700D01*
X380230D02*
Y1112456D01*
X457700D01*
Y1083245D02*
Y1112456D01*
X601300Y1023286D02*
X611300D01*
X606300Y1018286D02*
Y1028286D01*
X259000Y1065486D02*
Y1071486D01*
X256000Y1068485D02*
X262000D01*
X693750Y1016186D02*
X697050D01*
X695400Y1014536D02*
Y1017835D01*
X241300Y1039085D02*
X272200D01*
Y1011685D02*
Y1039085D01*
X241300Y1011685D02*
Y1039085D01*
Y1011685D02*
X272200D01*
X582500Y1047985D02*
Y1053985D01*
X579500Y1050985D02*
X585500D01*
X629400Y1038986D02*
Y1044986D01*
X626400Y1041985D02*
X632400D01*
X516200Y1013886D02*
Y1019886D01*
X513200Y1016886D02*
X519200D01*
X629300Y1001336D02*
Y1004635D01*
X627650Y1002986D02*
X630950D01*
X654600Y1001135D02*
Y1004436D01*
X652950Y1002785D02*
X656250D01*
X457750Y1084416D02*
Y1113625D01*
X380280Y1084416D02*
X457750D01*
X380280D02*
Y1113625D01*
X457750D01*
X641150Y1005686D02*
X644450D01*
X642800Y1004035D02*
Y1007336D01*
X693785Y1040520D02*
X697085D01*
X695435Y1038870D02*
Y1042170D01*
X487400Y1031886D02*
X493400D01*
X490400Y1028886D02*
Y1034886D01*
X391000Y1048085D02*
X397000D01*
X394000Y1045086D02*
Y1051086D01*
X324400Y1026086D02*
X330400D01*
X327400Y1023086D02*
Y1029086D01*
X345700Y1032986D02*
X351700D01*
X348700Y1029986D02*
Y1035986D01*
X233100Y1057685D02*
X239100D01*
X236100Y1054685D02*
Y1060685D01*
X1130600Y1071285D02*
X1170600D01*
X1130600Y1023785D02*
Y1071285D01*
Y1023785D02*
X1170600D01*
Y1071285D01*
X805000Y1017486D02*
Y1117486D01*
X877000D01*
Y1017486D02*
Y1117486D01*
X805000Y1017486D02*
X877000D01*
X1024800Y999986D02*
X1064800D01*
X1024800D02*
Y1049986D01*
X1064800D01*
Y999986D02*
Y1049986D01*
X993400Y1043085D02*
X1032400D01*
X993400D02*
Y1078085D01*
X1032400D01*
Y1043085D02*
Y1078085D01*
X1375000Y1021486D02*
X1385000D01*
X1380000Y1016485D02*
Y1026485D01*
X1185700Y1050835D02*
X1211700D01*
Y1021835D02*
Y1050835D01*
X1185700Y1021835D02*
X1211700D01*
X1185700D02*
Y1050835D01*
X1339300Y1060285D02*
Y1070285D01*
X1334300Y1065285D02*
X1344300D01*
X1427800Y1027235D02*
Y1030536D01*
X1426150Y1028885D02*
X1429450D01*
X1288300Y1014085D02*
Y1024085D01*
X1283300Y1019085D02*
X1293300D01*
X1115630Y1083245D02*
X1193100D01*
X1115630D02*
Y1112456D01*
X1193100D01*
Y1083245D02*
Y1112456D01*
X1336700Y1023286D02*
X1346700D01*
X1341700Y1018286D02*
Y1028286D01*
X994400Y1065486D02*
Y1071486D01*
X991400Y1068485D02*
X997400D01*
X1429150Y1016186D02*
X1432450D01*
X1430800Y1014536D02*
Y1017835D01*
X976700Y1039085D02*
X1007600D01*
Y1011685D02*
Y1039085D01*
X976700Y1011685D02*
Y1039085D01*
Y1011685D02*
X1007600D01*
X1317900Y1047985D02*
Y1053985D01*
X1314900Y1050985D02*
X1320900D01*
X1364800Y1038986D02*
Y1044986D01*
X1361800Y1041985D02*
X1367800D01*
X1251600Y1013886D02*
Y1019886D01*
X1248600Y1016886D02*
X1254600D01*
X1364700Y1001336D02*
Y1004635D01*
X1363050Y1002986D02*
X1366350D01*
X1390000Y1001135D02*
Y1004436D01*
X1388350Y1002785D02*
X1391650D01*
X1193150Y1084416D02*
Y1113625D01*
X1115680Y1084416D02*
X1193150D01*
X1115680D02*
Y1113625D01*
X1193150D01*
X1376550Y1005686D02*
X1379850D01*
X1378200Y1004035D02*
Y1007336D01*
X1429185Y1040520D02*
X1432485D01*
X1430835Y1038870D02*
Y1042170D01*
X1222800Y1031886D02*
X1228800D01*
X1225800Y1028886D02*
Y1034886D01*
X1126400Y1048085D02*
X1132400D01*
X1129400Y1045086D02*
Y1051086D01*
X1059800Y1026086D02*
X1065800D01*
X1062800Y1023086D02*
Y1029086D01*
X1081100Y1032986D02*
X1087100D01*
X1084100Y1029986D02*
Y1035986D01*
X968500Y1057685D02*
X974500D01*
X971500Y1054685D02*
Y1060685D01*
X1866000Y1071285D02*
X1906000D01*
X1866000Y1023785D02*
Y1071285D01*
Y1023785D02*
X1906000D01*
Y1071285D01*
X1540400Y1017486D02*
Y1117486D01*
X1612400D01*
Y1017486D02*
Y1117486D01*
X1540400Y1017486D02*
X1612400D01*
X1760200Y999986D02*
X1800200D01*
X1760200D02*
Y1049986D01*
X1800200D01*
Y999986D02*
Y1049986D01*
X1728800Y1043085D02*
X1767800D01*
X1728800D02*
Y1078085D01*
X1767800D01*
Y1043085D02*
Y1078085D01*
X2110400Y1021486D02*
X2120400D01*
X2115400Y1016485D02*
Y1026485D01*
X1921100Y1050835D02*
X1947100D01*
Y1021835D02*
Y1050835D01*
X1921100Y1021835D02*
X1947100D01*
X1921100D02*
Y1050835D01*
X2074700Y1060285D02*
Y1070285D01*
X2069700Y1065285D02*
X2079700D01*
X2163200Y1027235D02*
Y1030536D01*
X2161550Y1028885D02*
X2164850D01*
X2023700Y1014085D02*
Y1024085D01*
X2018700Y1019085D02*
X2028700D01*
X1851030Y1083245D02*
X1928500D01*
X1851030D02*
Y1112456D01*
X1928500D01*
Y1083245D02*
Y1112456D01*
X2072100Y1023286D02*
X2082100D01*
X2077100Y1018286D02*
Y1028286D01*
X1729800Y1065486D02*
Y1071486D01*
X1726800Y1068485D02*
X1732800D01*
X2164550Y1016186D02*
X2167850D01*
X2166200Y1014536D02*
Y1017835D01*
X1712100Y1039085D02*
X1743000D01*
Y1011685D02*
Y1039085D01*
X1712100Y1011685D02*
Y1039085D01*
Y1011685D02*
X1743000D01*
X2053300Y1047985D02*
Y1053985D01*
X2050300Y1050985D02*
X2056300D01*
X2100200Y1038986D02*
Y1044986D01*
X2097200Y1041985D02*
X2103200D01*
X1987000Y1013886D02*
Y1019886D01*
X1984000Y1016886D02*
X1990000D01*
X2100100Y1001336D02*
Y1004635D01*
X2098450Y1002986D02*
X2101750D01*
X2125400Y1001135D02*
Y1004436D01*
X2123750Y1002785D02*
X2127050D01*
X1928550Y1084416D02*
Y1113625D01*
X1851080Y1084416D02*
X1928550D01*
X1851080D02*
Y1113625D01*
X1928550D01*
X2111950Y1005686D02*
X2115250D01*
X2113600Y1004035D02*
Y1007336D01*
X2164585Y1040520D02*
X2167885D01*
X2166235Y1038870D02*
Y1042170D01*
X1958200Y1031886D02*
X1964200D01*
X1961200Y1028886D02*
Y1034886D01*
X1861800Y1048085D02*
X1867800D01*
X1864800Y1045086D02*
Y1051086D01*
X1795200Y1026086D02*
X1801200D01*
X1798200Y1023086D02*
Y1029086D01*
X1816500Y1032986D02*
X1822500D01*
X1819500Y1029986D02*
Y1035986D01*
X1703900Y1057685D02*
X1709900D01*
X1706900Y1054685D02*
Y1060685D01*
X2300000Y0D02*
Y1252400D01*
X-0Y0D02*
X0Y1252400D01*
X-0D02*
X2300000D01*
X0Y0D02*
X2300000D01*
D49*
X214900Y214400D02*
X237900D01*
Y203400D02*
Y214400D01*
X214900Y203400D02*
X237900D01*
X214900D02*
Y214400D01*
X657850Y188750D02*
Y211250D01*
X631350Y188750D02*
Y211250D01*
Y188750D02*
X657850D01*
X631350Y211250D02*
X657850D01*
X193000Y282400D02*
X216000D01*
Y271400D02*
Y282400D01*
X193000Y271400D02*
X216000D01*
X193000D02*
Y282400D01*
X588900Y235800D02*
Y251800D01*
X618900Y235800D02*
Y251800D01*
X588900D02*
X618900D01*
X588900Y235800D02*
X618900D01*
X688400Y199900D02*
X696400D01*
X688400Y214900D02*
X696400D01*
X688400Y199900D02*
Y214900D01*
X696400Y199900D02*
Y214900D01*
X531850Y210600D02*
X573950D01*
X531850Y184600D02*
X573950D01*
X531850D02*
Y210600D01*
X573950Y184600D02*
Y210600D01*
X623050Y181050D02*
Y222550D01*
X589550Y181050D02*
Y222550D01*
Y181050D02*
X623050D01*
X589550Y222550D02*
X623050D01*
X254000Y237500D02*
X264000D01*
X254000Y256500D02*
X264000D01*
X254000Y237500D02*
Y256500D01*
X264000Y237500D02*
Y256500D01*
X701300Y191900D02*
Y197500D01*
X691650D02*
X699150D01*
X689500Y191900D02*
X701300D01*
X689500Y197500D02*
X691650D01*
X699150D02*
X701300D01*
X689500Y193300D02*
Y196100D01*
Y197500D01*
Y191900D02*
Y193300D01*
X355600Y184450D02*
Y226950D01*
X380600D01*
Y184450D02*
Y226950D01*
X355600Y184450D02*
X380600D01*
X573000Y224500D02*
X592000D01*
X573000Y234500D02*
X592000D01*
Y224500D02*
Y234500D01*
X573000Y224500D02*
Y234500D01*
X619900Y225500D02*
X638900D01*
X619900Y215500D02*
X638900D01*
X619900D02*
Y225500D01*
X638900Y215500D02*
Y225500D01*
X506700Y200400D02*
X525700D01*
X506700Y190400D02*
X525700D01*
X506700D02*
Y200400D01*
X525700Y190400D02*
Y200400D01*
X626500Y187400D02*
X632100D01*
X626500Y177750D02*
Y185250D01*
X632100Y175600D02*
Y187400D01*
X626500Y175600D02*
Y177750D01*
Y185250D02*
Y187400D01*
X627900Y175600D02*
X630700D01*
X626500D02*
X627900D01*
X630700D02*
X632100D01*
X651800Y187200D02*
X657400D01*
X651800Y177550D02*
Y185050D01*
X657400Y175400D02*
Y187200D01*
X651800Y175400D02*
Y177550D01*
Y185050D02*
Y187200D01*
X653200Y175400D02*
X656000D01*
X651800D02*
X653200D01*
X656000D02*
X657400D01*
X635300Y180200D02*
Y188200D01*
X650300Y180200D02*
Y188200D01*
X635300D02*
X650300D01*
X635300Y180200D02*
X650300D01*
X168100Y282400D02*
X191100D01*
Y271400D02*
Y282400D01*
X168100Y271400D02*
X191100D01*
X168100D02*
Y282400D01*
X701335Y216235D02*
Y221835D01*
X691685D02*
X699185D01*
X689535Y216235D02*
X701335D01*
X689535Y221835D02*
X691685D01*
X699185D02*
X701335D01*
X689535Y217635D02*
Y220435D01*
Y221835D01*
Y216235D02*
Y217635D01*
X152700Y204600D02*
Y227600D01*
X163700D01*
Y204600D02*
Y227600D01*
X152700Y204600D02*
X163700D01*
X495400Y200900D02*
Y219900D01*
X485400Y200900D02*
Y219900D01*
X495400D01*
X485400Y200900D02*
X495400D01*
X318800Y235200D02*
Y258200D01*
X307800Y235200D02*
X318800D01*
X307800D02*
Y258200D01*
X318800D01*
X334400Y235200D02*
Y258200D01*
X323400Y235200D02*
X334400D01*
X323400D02*
Y258200D01*
X334400D01*
X399000Y217100D02*
Y236100D01*
X389000Y217100D02*
Y236100D01*
X399000D01*
X389000Y217100D02*
X399000D01*
X332400Y195100D02*
Y214100D01*
X322400Y195100D02*
Y214100D01*
X332400D01*
X322400Y195100D02*
X332400D01*
X353700Y202000D02*
Y221000D01*
X343700Y202000D02*
Y221000D01*
X353700D01*
X343700Y202000D02*
X353700D01*
X226600Y231200D02*
Y241200D01*
X245600Y231200D02*
Y241200D01*
X226600D02*
X245600D01*
X226600Y231200D02*
X245600D01*
X288400Y184400D02*
Y207400D01*
X277400Y184400D02*
X288400D01*
X277400D02*
Y207400D01*
X288400D01*
X214900Y189200D02*
X237900D01*
X214900D02*
Y200200D01*
X237900D01*
Y189200D02*
Y200200D01*
X950300Y214400D02*
X973300D01*
Y203400D02*
Y214400D01*
X950300Y203400D02*
X973300D01*
X950300D02*
Y214400D01*
X1393250Y188750D02*
Y211250D01*
X1366750Y188750D02*
Y211250D01*
Y188750D02*
X1393250D01*
X1366750Y211250D02*
X1393250D01*
X928400Y282400D02*
X951400D01*
Y271400D02*
Y282400D01*
X928400Y271400D02*
X951400D01*
X928400D02*
Y282400D01*
X1324300Y235800D02*
Y251800D01*
X1354300Y235800D02*
Y251800D01*
X1324300D02*
X1354300D01*
X1324300Y235800D02*
X1354300D01*
X1423800Y199900D02*
X1431800D01*
X1423800Y214900D02*
X1431800D01*
X1423800Y199900D02*
Y214900D01*
X1431800Y199900D02*
Y214900D01*
X1267250Y210600D02*
X1309350D01*
X1267250Y184600D02*
X1309350D01*
X1267250D02*
Y210600D01*
X1309350Y184600D02*
Y210600D01*
X1358450Y181050D02*
Y222550D01*
X1324950Y181050D02*
Y222550D01*
Y181050D02*
X1358450D01*
X1324950Y222550D02*
X1358450D01*
X989400Y237500D02*
X999400D01*
X989400Y256500D02*
X999400D01*
X989400Y237500D02*
Y256500D01*
X999400Y237500D02*
Y256500D01*
X1436700Y191900D02*
Y197500D01*
X1427050D02*
X1434550D01*
X1424900Y191900D02*
X1436700D01*
X1424900Y197500D02*
X1427050D01*
X1434550D02*
X1436700D01*
X1424900Y193300D02*
Y196100D01*
Y197500D01*
Y191900D02*
Y193300D01*
X1091000Y184450D02*
Y226950D01*
X1116000D01*
Y184450D02*
Y226950D01*
X1091000Y184450D02*
X1116000D01*
X1308400Y224500D02*
X1327400D01*
X1308400Y234500D02*
X1327400D01*
Y224500D02*
Y234500D01*
X1308400Y224500D02*
Y234500D01*
X1355300Y225500D02*
X1374300D01*
X1355300Y215500D02*
X1374300D01*
X1355300D02*
Y225500D01*
X1374300Y215500D02*
Y225500D01*
X1242100Y200400D02*
X1261100D01*
X1242100Y190400D02*
X1261100D01*
X1242100D02*
Y200400D01*
X1261100Y190400D02*
Y200400D01*
X1361900Y187400D02*
X1367500D01*
X1361900Y177750D02*
Y185250D01*
X1367500Y175600D02*
Y187400D01*
X1361900Y175600D02*
Y177750D01*
Y185250D02*
Y187400D01*
X1363300Y175600D02*
X1366100D01*
X1361900D02*
X1363300D01*
X1366100D02*
X1367500D01*
X1387200Y187200D02*
X1392800D01*
X1387200Y177550D02*
Y185050D01*
X1392800Y175400D02*
Y187200D01*
X1387200Y175400D02*
Y177550D01*
Y185050D02*
Y187200D01*
X1388600Y175400D02*
X1391400D01*
X1387200D02*
X1388600D01*
X1391400D02*
X1392800D01*
X1370700Y180200D02*
Y188200D01*
X1385700Y180200D02*
Y188200D01*
X1370700D02*
X1385700D01*
X1370700Y180200D02*
X1385700D01*
X903500Y282400D02*
X926500D01*
Y271400D02*
Y282400D01*
X903500Y271400D02*
X926500D01*
X903500D02*
Y282400D01*
X1436735Y216235D02*
Y221835D01*
X1427085D02*
X1434585D01*
X1424935Y216235D02*
X1436735D01*
X1424935Y221835D02*
X1427085D01*
X1434585D02*
X1436735D01*
X1424935Y217635D02*
Y220435D01*
Y221835D01*
Y216235D02*
Y217635D01*
X888100Y204600D02*
Y227600D01*
X899100D01*
Y204600D02*
Y227600D01*
X888100Y204600D02*
X899100D01*
X1230800Y200900D02*
Y219900D01*
X1220800Y200900D02*
Y219900D01*
X1230800D01*
X1220800Y200900D02*
X1230800D01*
X1054200Y235200D02*
Y258200D01*
X1043200Y235200D02*
X1054200D01*
X1043200D02*
Y258200D01*
X1054200D01*
X1069800Y235200D02*
Y258200D01*
X1058800Y235200D02*
X1069800D01*
X1058800D02*
Y258200D01*
X1069800D01*
X1134400Y217100D02*
Y236100D01*
X1124400Y217100D02*
Y236100D01*
X1134400D01*
X1124400Y217100D02*
X1134400D01*
X1067800Y195100D02*
Y214100D01*
X1057800Y195100D02*
Y214100D01*
X1067800D01*
X1057800Y195100D02*
X1067800D01*
X1089100Y202000D02*
Y221000D01*
X1079100Y202000D02*
Y221000D01*
X1089100D01*
X1079100Y202000D02*
X1089100D01*
X962000Y231200D02*
Y241200D01*
X981000Y231200D02*
Y241200D01*
X962000D02*
X981000D01*
X962000Y231200D02*
X981000D01*
X1023800Y184400D02*
Y207400D01*
X1012800Y184400D02*
X1023800D01*
X1012800D02*
Y207400D01*
X1023800D01*
X950300Y189200D02*
X973300D01*
X950300D02*
Y200200D01*
X973300D01*
Y189200D02*
Y200200D01*
X1685700Y214400D02*
X1708700D01*
Y203400D02*
Y214400D01*
X1685700Y203400D02*
X1708700D01*
X1685700D02*
Y214400D01*
X2128650Y188750D02*
Y211250D01*
X2102150Y188750D02*
Y211250D01*
Y188750D02*
X2128650D01*
X2102150Y211250D02*
X2128650D01*
X1663800Y282400D02*
X1686800D01*
Y271400D02*
Y282400D01*
X1663800Y271400D02*
X1686800D01*
X1663800D02*
Y282400D01*
X2059700Y235800D02*
Y251800D01*
X2089700Y235800D02*
Y251800D01*
X2059700D02*
X2089700D01*
X2059700Y235800D02*
X2089700D01*
X2159200Y199900D02*
X2167200D01*
X2159200Y214900D02*
X2167200D01*
X2159200Y199900D02*
Y214900D01*
X2167200Y199900D02*
Y214900D01*
X2002650Y210600D02*
X2044750D01*
X2002650Y184600D02*
X2044750D01*
X2002650D02*
Y210600D01*
X2044750Y184600D02*
Y210600D01*
X2093850Y181050D02*
Y222550D01*
X2060350Y181050D02*
Y222550D01*
Y181050D02*
X2093850D01*
X2060350Y222550D02*
X2093850D01*
X1724800Y237500D02*
X1734800D01*
X1724800Y256500D02*
X1734800D01*
X1724800Y237500D02*
Y256500D01*
X1734800Y237500D02*
Y256500D01*
X2172100Y191900D02*
Y197500D01*
X2162450D02*
X2169950D01*
X2160300Y191900D02*
X2172100D01*
X2160300Y197500D02*
X2162450D01*
X2169950D02*
X2172100D01*
X2160300Y193300D02*
Y196100D01*
Y197500D01*
Y191900D02*
Y193300D01*
X1826400Y184450D02*
Y226950D01*
X1851400D01*
Y184450D02*
Y226950D01*
X1826400Y184450D02*
X1851400D01*
X2043800Y224500D02*
X2062800D01*
X2043800Y234500D02*
X2062800D01*
Y224500D02*
Y234500D01*
X2043800Y224500D02*
Y234500D01*
X2090700Y225500D02*
X2109700D01*
X2090700Y215500D02*
X2109700D01*
X2090700D02*
Y225500D01*
X2109700Y215500D02*
Y225500D01*
X1977500Y200400D02*
X1996500D01*
X1977500Y190400D02*
X1996500D01*
X1977500D02*
Y200400D01*
X1996500Y190400D02*
Y200400D01*
X2097300Y187400D02*
X2102900D01*
X2097300Y177750D02*
Y185250D01*
X2102900Y175600D02*
Y187400D01*
X2097300Y175600D02*
Y177750D01*
Y185250D02*
Y187400D01*
X2098700Y175600D02*
X2101500D01*
X2097300D02*
X2098700D01*
X2101500D02*
X2102900D01*
X2122600Y187200D02*
X2128200D01*
X2122600Y177550D02*
Y185050D01*
X2128200Y175400D02*
Y187200D01*
X2122600Y175400D02*
Y177550D01*
Y185050D02*
Y187200D01*
X2124000Y175400D02*
X2126800D01*
X2122600D02*
X2124000D01*
X2126800D02*
X2128200D01*
X2106100Y180200D02*
Y188200D01*
X2121100Y180200D02*
Y188200D01*
X2106100D02*
X2121100D01*
X2106100Y180200D02*
X2121100D01*
X1638900Y282400D02*
X1661900D01*
Y271400D02*
Y282400D01*
X1638900Y271400D02*
X1661900D01*
X1638900D02*
Y282400D01*
X2172135Y216235D02*
Y221835D01*
X2162485D02*
X2169985D01*
X2160335Y216235D02*
X2172135D01*
X2160335Y221835D02*
X2162485D01*
X2169985D02*
X2172135D01*
X2160335Y217635D02*
Y220435D01*
Y221835D01*
Y216235D02*
Y217635D01*
X1623500Y204600D02*
Y227600D01*
X1634500D01*
Y204600D02*
Y227600D01*
X1623500Y204600D02*
X1634500D01*
X1966200Y200900D02*
Y219900D01*
X1956200Y200900D02*
Y219900D01*
X1966200D01*
X1956200Y200900D02*
X1966200D01*
X1789600Y235200D02*
Y258200D01*
X1778600Y235200D02*
X1789600D01*
X1778600D02*
Y258200D01*
X1789600D01*
X1805200Y235200D02*
Y258200D01*
X1794200Y235200D02*
X1805200D01*
X1794200D02*
Y258200D01*
X1805200D01*
X1869800Y217100D02*
Y236100D01*
X1859800Y217100D02*
Y236100D01*
X1869800D01*
X1859800Y217100D02*
X1869800D01*
X1803200Y195100D02*
Y214100D01*
X1793200Y195100D02*
Y214100D01*
X1803200D01*
X1793200Y195100D02*
X1803200D01*
X1824500Y202000D02*
Y221000D01*
X1814500Y202000D02*
Y221000D01*
X1824500D01*
X1814500Y202000D02*
X1824500D01*
X1697400Y231200D02*
Y241200D01*
X1716400Y231200D02*
Y241200D01*
X1697400D02*
X1716400D01*
X1697400Y231200D02*
X1716400D01*
X1759200Y184400D02*
Y207400D01*
X1748200Y184400D02*
X1759200D01*
X1748200D02*
Y207400D01*
X1759200D01*
X1685700Y189200D02*
X1708700D01*
X1685700D02*
Y200200D01*
X1708700D01*
Y189200D02*
Y200200D01*
X214900Y419771D02*
X237900D01*
Y408771D02*
Y419771D01*
X214900Y408771D02*
X237900D01*
X214900D02*
Y419771D01*
X657850Y394121D02*
Y416622D01*
X631350Y394121D02*
Y416622D01*
Y394121D02*
X657850D01*
X631350Y416622D02*
X657850D01*
X193000Y487771D02*
X216000D01*
Y476771D02*
Y487771D01*
X193000Y476771D02*
X216000D01*
X193000D02*
Y487771D01*
X588900Y441171D02*
Y457171D01*
X618900Y441171D02*
Y457171D01*
X588900D02*
X618900D01*
X588900Y441171D02*
X618900D01*
X688400Y405271D02*
X696400D01*
X688400Y420271D02*
X696400D01*
X688400Y405271D02*
Y420271D01*
X696400Y405271D02*
Y420271D01*
X531850Y415971D02*
X573950D01*
X531850Y389971D02*
X573950D01*
X531850D02*
Y415971D01*
X573950Y389971D02*
Y415971D01*
X623050Y386421D02*
Y427921D01*
X589550Y386421D02*
Y427921D01*
Y386421D02*
X623050D01*
X589550Y427921D02*
X623050D01*
X254000Y442871D02*
X264000D01*
X254000Y461871D02*
X264000D01*
X254000Y442871D02*
Y461871D01*
X264000Y442871D02*
Y461871D01*
X701300Y397271D02*
Y402871D01*
X691650D02*
X699150D01*
X689500Y397271D02*
X701300D01*
X689500Y402871D02*
X691650D01*
X699150D02*
X701300D01*
X689500Y398671D02*
Y401471D01*
Y402871D01*
Y397271D02*
Y398671D01*
X355600Y389821D02*
Y432321D01*
X380600D01*
Y389821D02*
Y432321D01*
X355600Y389821D02*
X380600D01*
X573000Y429871D02*
X592000D01*
X573000Y439871D02*
X592000D01*
Y429871D02*
Y439871D01*
X573000Y429871D02*
Y439871D01*
X619900Y430872D02*
X638900D01*
X619900Y420872D02*
X638900D01*
X619900D02*
Y430872D01*
X638900Y420872D02*
Y430872D01*
X506700Y405772D02*
X525700D01*
X506700Y395772D02*
X525700D01*
X506700D02*
Y405772D01*
X525700Y395772D02*
Y405772D01*
X626500Y392771D02*
X632100D01*
X626500Y383121D02*
Y390621D01*
X632100Y380971D02*
Y392771D01*
X626500Y380971D02*
Y383121D01*
Y390621D02*
Y392771D01*
X627900Y380971D02*
X630700D01*
X626500D02*
X627900D01*
X630700D02*
X632100D01*
X651800Y392571D02*
X657400D01*
X651800Y382921D02*
Y390421D01*
X657400Y380771D02*
Y392571D01*
X651800Y380771D02*
Y382921D01*
Y390421D02*
Y392571D01*
X653200Y380771D02*
X656000D01*
X651800D02*
X653200D01*
X656000D02*
X657400D01*
X635300Y385571D02*
Y393571D01*
X650300Y385571D02*
Y393571D01*
X635300D02*
X650300D01*
X635300Y385571D02*
X650300D01*
X168100Y487771D02*
X191100D01*
Y476771D02*
Y487771D01*
X168100Y476771D02*
X191100D01*
X168100D02*
Y487771D01*
X701335Y421606D02*
Y427206D01*
X691685D02*
X699185D01*
X689535Y421606D02*
X701335D01*
X689535Y427206D02*
X691685D01*
X699185D02*
X701335D01*
X689535Y423006D02*
Y425806D01*
Y427206D01*
Y421606D02*
Y423006D01*
X152700Y409971D02*
Y432971D01*
X163700D01*
Y409971D02*
Y432971D01*
X152700Y409971D02*
X163700D01*
X495400Y406271D02*
Y425271D01*
X485400Y406271D02*
Y425271D01*
X495400D01*
X485400Y406271D02*
X495400D01*
X318800Y440571D02*
Y463571D01*
X307800Y440571D02*
X318800D01*
X307800D02*
Y463571D01*
X318800D01*
X334400Y440571D02*
Y463571D01*
X323400Y440571D02*
X334400D01*
X323400D02*
Y463571D01*
X334400D01*
X399000Y422471D02*
Y441471D01*
X389000Y422471D02*
Y441471D01*
X399000D01*
X389000Y422471D02*
X399000D01*
X332400Y400471D02*
Y419472D01*
X322400Y400471D02*
Y419472D01*
X332400D01*
X322400Y400471D02*
X332400D01*
X353700Y407371D02*
Y426371D01*
X343700Y407371D02*
Y426371D01*
X353700D01*
X343700Y407371D02*
X353700D01*
X226600Y436571D02*
Y446571D01*
X245600Y436571D02*
Y446571D01*
X226600D02*
X245600D01*
X226600Y436571D02*
X245600D01*
X288400Y389771D02*
Y412771D01*
X277400Y389771D02*
X288400D01*
X277400D02*
Y412771D01*
X288400D01*
X214900Y394571D02*
X237900D01*
X214900D02*
Y405571D01*
X237900D01*
Y394571D02*
Y405571D01*
X950300Y419771D02*
X973300D01*
Y408771D02*
Y419771D01*
X950300Y408771D02*
X973300D01*
X950300D02*
Y419771D01*
X1393250Y394121D02*
Y416622D01*
X1366750Y394121D02*
Y416622D01*
Y394121D02*
X1393250D01*
X1366750Y416622D02*
X1393250D01*
X928400Y487771D02*
X951400D01*
Y476771D02*
Y487771D01*
X928400Y476771D02*
X951400D01*
X928400D02*
Y487771D01*
X1324300Y441171D02*
Y457171D01*
X1354300Y441171D02*
Y457171D01*
X1324300D02*
X1354300D01*
X1324300Y441171D02*
X1354300D01*
X1423800Y405271D02*
X1431800D01*
X1423800Y420271D02*
X1431800D01*
X1423800Y405271D02*
Y420271D01*
X1431800Y405271D02*
Y420271D01*
X1267250Y415971D02*
X1309350D01*
X1267250Y389971D02*
X1309350D01*
X1267250D02*
Y415971D01*
X1309350Y389971D02*
Y415971D01*
X1358450Y386421D02*
Y427921D01*
X1324950Y386421D02*
Y427921D01*
Y386421D02*
X1358450D01*
X1324950Y427921D02*
X1358450D01*
X989400Y442871D02*
X999400D01*
X989400Y461871D02*
X999400D01*
X989400Y442871D02*
Y461871D01*
X999400Y442871D02*
Y461871D01*
X1436700Y397271D02*
Y402871D01*
X1427050D02*
X1434550D01*
X1424900Y397271D02*
X1436700D01*
X1424900Y402871D02*
X1427050D01*
X1434550D02*
X1436700D01*
X1424900Y398671D02*
Y401471D01*
Y402871D01*
Y397271D02*
Y398671D01*
X1091000Y389821D02*
Y432321D01*
X1116000D01*
Y389821D02*
Y432321D01*
X1091000Y389821D02*
X1116000D01*
X1308400Y429871D02*
X1327400D01*
X1308400Y439871D02*
X1327400D01*
Y429871D02*
Y439871D01*
X1308400Y429871D02*
Y439871D01*
X1355300Y430872D02*
X1374300D01*
X1355300Y420872D02*
X1374300D01*
X1355300D02*
Y430872D01*
X1374300Y420872D02*
Y430872D01*
X1242100Y405772D02*
X1261100D01*
X1242100Y395772D02*
X1261100D01*
X1242100D02*
Y405772D01*
X1261100Y395772D02*
Y405772D01*
X1361900Y392771D02*
X1367500D01*
X1361900Y383121D02*
Y390621D01*
X1367500Y380971D02*
Y392771D01*
X1361900Y380971D02*
Y383121D01*
Y390621D02*
Y392771D01*
X1363300Y380971D02*
X1366100D01*
X1361900D02*
X1363300D01*
X1366100D02*
X1367500D01*
X1387200Y392571D02*
X1392800D01*
X1387200Y382921D02*
Y390421D01*
X1392800Y380771D02*
Y392571D01*
X1387200Y380771D02*
Y382921D01*
Y390421D02*
Y392571D01*
X1388600Y380771D02*
X1391400D01*
X1387200D02*
X1388600D01*
X1391400D02*
X1392800D01*
X1370700Y385571D02*
Y393571D01*
X1385700Y385571D02*
Y393571D01*
X1370700D02*
X1385700D01*
X1370700Y385571D02*
X1385700D01*
X903500Y487771D02*
X926500D01*
Y476771D02*
Y487771D01*
X903500Y476771D02*
X926500D01*
X903500D02*
Y487771D01*
X1436735Y421606D02*
Y427206D01*
X1427085D02*
X1434585D01*
X1424935Y421606D02*
X1436735D01*
X1424935Y427206D02*
X1427085D01*
X1434585D02*
X1436735D01*
X1424935Y423006D02*
Y425806D01*
Y427206D01*
Y421606D02*
Y423006D01*
X888100Y409971D02*
Y432971D01*
X899100D01*
Y409971D02*
Y432971D01*
X888100Y409971D02*
X899100D01*
X1230800Y406271D02*
Y425271D01*
X1220800Y406271D02*
Y425271D01*
X1230800D01*
X1220800Y406271D02*
X1230800D01*
X1054200Y440571D02*
Y463571D01*
X1043200Y440571D02*
X1054200D01*
X1043200D02*
Y463571D01*
X1054200D01*
X1069800Y440571D02*
Y463571D01*
X1058800Y440571D02*
X1069800D01*
X1058800D02*
Y463571D01*
X1069800D01*
X1134400Y422471D02*
Y441471D01*
X1124400Y422471D02*
Y441471D01*
X1134400D01*
X1124400Y422471D02*
X1134400D01*
X1067800Y400471D02*
Y419472D01*
X1057800Y400471D02*
Y419472D01*
X1067800D01*
X1057800Y400471D02*
X1067800D01*
X1089100Y407371D02*
Y426371D01*
X1079100Y407371D02*
Y426371D01*
X1089100D01*
X1079100Y407371D02*
X1089100D01*
X962000Y436571D02*
Y446571D01*
X981000Y436571D02*
Y446571D01*
X962000D02*
X981000D01*
X962000Y436571D02*
X981000D01*
X1023800Y389771D02*
Y412771D01*
X1012800Y389771D02*
X1023800D01*
X1012800D02*
Y412771D01*
X1023800D01*
X950300Y394571D02*
X973300D01*
X950300D02*
Y405571D01*
X973300D01*
Y394571D02*
Y405571D01*
X1685700Y419771D02*
X1708700D01*
Y408771D02*
Y419771D01*
X1685700Y408771D02*
X1708700D01*
X1685700D02*
Y419771D01*
X2128650Y394121D02*
Y416622D01*
X2102150Y394121D02*
Y416622D01*
Y394121D02*
X2128650D01*
X2102150Y416622D02*
X2128650D01*
X1663800Y487771D02*
X1686800D01*
Y476771D02*
Y487771D01*
X1663800Y476771D02*
X1686800D01*
X1663800D02*
Y487771D01*
X2059700Y441171D02*
Y457171D01*
X2089700Y441171D02*
Y457171D01*
X2059700D02*
X2089700D01*
X2059700Y441171D02*
X2089700D01*
X2159200Y405271D02*
X2167200D01*
X2159200Y420271D02*
X2167200D01*
X2159200Y405271D02*
Y420271D01*
X2167200Y405271D02*
Y420271D01*
X2002650Y415971D02*
X2044750D01*
X2002650Y389971D02*
X2044750D01*
X2002650D02*
Y415971D01*
X2044750Y389971D02*
Y415971D01*
X2093850Y386421D02*
Y427921D01*
X2060350Y386421D02*
Y427921D01*
Y386421D02*
X2093850D01*
X2060350Y427921D02*
X2093850D01*
X1724800Y442871D02*
X1734800D01*
X1724800Y461871D02*
X1734800D01*
X1724800Y442871D02*
Y461871D01*
X1734800Y442871D02*
Y461871D01*
X2172100Y397271D02*
Y402871D01*
X2162450D02*
X2169950D01*
X2160300Y397271D02*
X2172100D01*
X2160300Y402871D02*
X2162450D01*
X2169950D02*
X2172100D01*
X2160300Y398671D02*
Y401471D01*
Y402871D01*
Y397271D02*
Y398671D01*
X1826400Y389821D02*
Y432321D01*
X1851400D01*
Y389821D02*
Y432321D01*
X1826400Y389821D02*
X1851400D01*
X2043800Y429871D02*
X2062800D01*
X2043800Y439871D02*
X2062800D01*
Y429871D02*
Y439871D01*
X2043800Y429871D02*
Y439871D01*
X2090700Y430872D02*
X2109700D01*
X2090700Y420872D02*
X2109700D01*
X2090700D02*
Y430872D01*
X2109700Y420872D02*
Y430872D01*
X1977500Y405772D02*
X1996500D01*
X1977500Y395772D02*
X1996500D01*
X1977500D02*
Y405772D01*
X1996500Y395772D02*
Y405772D01*
X2097300Y392771D02*
X2102900D01*
X2097300Y383121D02*
Y390621D01*
X2102900Y380971D02*
Y392771D01*
X2097300Y380971D02*
Y383121D01*
Y390621D02*
Y392771D01*
X2098700Y380971D02*
X2101500D01*
X2097300D02*
X2098700D01*
X2101500D02*
X2102900D01*
X2122600Y392571D02*
X2128200D01*
X2122600Y382921D02*
Y390421D01*
X2128200Y380771D02*
Y392571D01*
X2122600Y380771D02*
Y382921D01*
Y390421D02*
Y392571D01*
X2124000Y380771D02*
X2126800D01*
X2122600D02*
X2124000D01*
X2126800D02*
X2128200D01*
X2106100Y385571D02*
Y393571D01*
X2121100Y385571D02*
Y393571D01*
X2106100D02*
X2121100D01*
X2106100Y385571D02*
X2121100D01*
X1638900Y487771D02*
X1661900D01*
Y476771D02*
Y487771D01*
X1638900Y476771D02*
X1661900D01*
X1638900D02*
Y487771D01*
X2172135Y421606D02*
Y427206D01*
X2162485D02*
X2169985D01*
X2160335Y421606D02*
X2172135D01*
X2160335Y427206D02*
X2162485D01*
X2169985D02*
X2172135D01*
X2160335Y423006D02*
Y425806D01*
Y427206D01*
Y421606D02*
Y423006D01*
X1623500Y409971D02*
Y432971D01*
X1634500D01*
Y409971D02*
Y432971D01*
X1623500Y409971D02*
X1634500D01*
X1966200Y406271D02*
Y425271D01*
X1956200Y406271D02*
Y425271D01*
X1966200D01*
X1956200Y406271D02*
X1966200D01*
X1789600Y440571D02*
Y463571D01*
X1778600Y440571D02*
X1789600D01*
X1778600D02*
Y463571D01*
X1789600D01*
X1805200Y440571D02*
Y463571D01*
X1794200Y440571D02*
X1805200D01*
X1794200D02*
Y463571D01*
X1805200D01*
X1869800Y422471D02*
Y441471D01*
X1859800Y422471D02*
Y441471D01*
X1869800D01*
X1859800Y422471D02*
X1869800D01*
X1803200Y400471D02*
Y419472D01*
X1793200Y400471D02*
Y419472D01*
X1803200D01*
X1793200Y400471D02*
X1803200D01*
X1824500Y407371D02*
Y426371D01*
X1814500Y407371D02*
Y426371D01*
X1824500D01*
X1814500Y407371D02*
X1824500D01*
X1697400Y436571D02*
Y446571D01*
X1716400Y436571D02*
Y446571D01*
X1697400D02*
X1716400D01*
X1697400Y436571D02*
X1716400D01*
X1759200Y389771D02*
Y412771D01*
X1748200Y389771D02*
X1759200D01*
X1748200D02*
Y412771D01*
X1759200D01*
X1685700Y394571D02*
X1708700D01*
X1685700D02*
Y405571D01*
X1708700D01*
Y394571D02*
Y405571D01*
X214900Y625143D02*
X237900D01*
Y614143D02*
Y625143D01*
X214900Y614143D02*
X237900D01*
X214900D02*
Y625143D01*
X657850Y599493D02*
Y621993D01*
X631350Y599493D02*
Y621993D01*
Y599493D02*
X657850D01*
X631350Y621993D02*
X657850D01*
X193000Y693143D02*
X216000D01*
Y682143D02*
Y693143D01*
X193000Y682143D02*
X216000D01*
X193000D02*
Y693143D01*
X588900Y646543D02*
Y662543D01*
X618900Y646543D02*
Y662543D01*
X588900D02*
X618900D01*
X588900Y646543D02*
X618900D01*
X688400Y610643D02*
X696400D01*
X688400Y625643D02*
X696400D01*
X688400Y610643D02*
Y625643D01*
X696400Y610643D02*
Y625643D01*
X531850Y621343D02*
X573950D01*
X531850Y595343D02*
X573950D01*
X531850D02*
Y621343D01*
X573950Y595343D02*
Y621343D01*
X623050Y591793D02*
Y633293D01*
X589550Y591793D02*
Y633293D01*
Y591793D02*
X623050D01*
X589550Y633293D02*
X623050D01*
X254000Y648243D02*
X264000D01*
X254000Y667243D02*
X264000D01*
X254000Y648243D02*
Y667243D01*
X264000Y648243D02*
Y667243D01*
X701300Y602643D02*
Y608243D01*
X691650D02*
X699150D01*
X689500Y602643D02*
X701300D01*
X689500Y608243D02*
X691650D01*
X699150D02*
X701300D01*
X689500Y604043D02*
Y606843D01*
Y608243D01*
Y602643D02*
Y604043D01*
X355600Y595193D02*
Y637693D01*
X380600D01*
Y595193D02*
Y637693D01*
X355600Y595193D02*
X380600D01*
X573000Y635243D02*
X592000D01*
X573000Y645242D02*
X592000D01*
Y635243D02*
Y645242D01*
X573000Y635243D02*
Y645242D01*
X619900Y636243D02*
X638900D01*
X619900Y626243D02*
X638900D01*
X619900D02*
Y636243D01*
X638900Y626243D02*
Y636243D01*
X506700Y611143D02*
X525700D01*
X506700Y601143D02*
X525700D01*
X506700D02*
Y611143D01*
X525700Y601143D02*
Y611143D01*
X626500Y598143D02*
X632100D01*
X626500Y588493D02*
Y595993D01*
X632100Y586343D02*
Y598143D01*
X626500Y586343D02*
Y588493D01*
Y595993D02*
Y598143D01*
X627900Y586343D02*
X630700D01*
X626500D02*
X627900D01*
X630700D02*
X632100D01*
X651800Y597943D02*
X657400D01*
X651800Y588293D02*
Y595793D01*
X657400Y586143D02*
Y597943D01*
X651800Y586143D02*
Y588293D01*
Y595793D02*
Y597943D01*
X653200Y586143D02*
X656000D01*
X651800D02*
X653200D01*
X656000D02*
X657400D01*
X635300Y590943D02*
Y598943D01*
X650300Y590943D02*
Y598943D01*
X635300D02*
X650300D01*
X635300Y590943D02*
X650300D01*
X168100Y693143D02*
X191100D01*
Y682143D02*
Y693143D01*
X168100Y682143D02*
X191100D01*
X168100D02*
Y693143D01*
X701335Y626978D02*
Y632578D01*
X691685D02*
X699185D01*
X689535Y626978D02*
X701335D01*
X689535Y632578D02*
X691685D01*
X699185D02*
X701335D01*
X689535Y628378D02*
Y631178D01*
Y632578D01*
Y626978D02*
Y628378D01*
X152700Y615343D02*
Y638343D01*
X163700D01*
Y615343D02*
Y638343D01*
X152700Y615343D02*
X163700D01*
X495400Y611643D02*
Y630643D01*
X485400Y611643D02*
Y630643D01*
X495400D01*
X485400Y611643D02*
X495400D01*
X318800Y645943D02*
Y668943D01*
X307800Y645943D02*
X318800D01*
X307800D02*
Y668943D01*
X318800D01*
X334400Y645943D02*
Y668943D01*
X323400Y645943D02*
X334400D01*
X323400D02*
Y668943D01*
X334400D01*
X399000Y627843D02*
Y646843D01*
X389000Y627843D02*
Y646843D01*
X399000D01*
X389000Y627843D02*
X399000D01*
X332400Y605843D02*
Y624843D01*
X322400Y605843D02*
Y624843D01*
X332400D01*
X322400Y605843D02*
X332400D01*
X353700Y612743D02*
Y631743D01*
X343700Y612743D02*
Y631743D01*
X353700D01*
X343700Y612743D02*
X353700D01*
X226600Y641943D02*
Y651943D01*
X245600Y641943D02*
Y651943D01*
X226600D02*
X245600D01*
X226600Y641943D02*
X245600D01*
X288400Y595143D02*
Y618143D01*
X277400Y595143D02*
X288400D01*
X277400D02*
Y618143D01*
X288400D01*
X214900Y599943D02*
X237900D01*
X214900D02*
Y610943D01*
X237900D01*
Y599943D02*
Y610943D01*
X950300Y625143D02*
X973300D01*
Y614143D02*
Y625143D01*
X950300Y614143D02*
X973300D01*
X950300D02*
Y625143D01*
X1393250Y599493D02*
Y621993D01*
X1366750Y599493D02*
Y621993D01*
Y599493D02*
X1393250D01*
X1366750Y621993D02*
X1393250D01*
X928400Y693143D02*
X951400D01*
Y682143D02*
Y693143D01*
X928400Y682143D02*
X951400D01*
X928400D02*
Y693143D01*
X1324300Y646543D02*
Y662543D01*
X1354300Y646543D02*
Y662543D01*
X1324300D02*
X1354300D01*
X1324300Y646543D02*
X1354300D01*
X1423800Y610643D02*
X1431800D01*
X1423800Y625643D02*
X1431800D01*
X1423800Y610643D02*
Y625643D01*
X1431800Y610643D02*
Y625643D01*
X1267250Y621343D02*
X1309350D01*
X1267250Y595343D02*
X1309350D01*
X1267250D02*
Y621343D01*
X1309350Y595343D02*
Y621343D01*
X1358450Y591793D02*
Y633293D01*
X1324950Y591793D02*
Y633293D01*
Y591793D02*
X1358450D01*
X1324950Y633293D02*
X1358450D01*
X989400Y648243D02*
X999400D01*
X989400Y667243D02*
X999400D01*
X989400Y648243D02*
Y667243D01*
X999400Y648243D02*
Y667243D01*
X1436700Y602643D02*
Y608243D01*
X1427050D02*
X1434550D01*
X1424900Y602643D02*
X1436700D01*
X1424900Y608243D02*
X1427050D01*
X1434550D02*
X1436700D01*
X1424900Y604043D02*
Y606843D01*
Y608243D01*
Y602643D02*
Y604043D01*
X1091000Y595193D02*
Y637693D01*
X1116000D01*
Y595193D02*
Y637693D01*
X1091000Y595193D02*
X1116000D01*
X1308400Y635243D02*
X1327400D01*
X1308400Y645242D02*
X1327400D01*
Y635243D02*
Y645242D01*
X1308400Y635243D02*
Y645242D01*
X1355300Y636243D02*
X1374300D01*
X1355300Y626243D02*
X1374300D01*
X1355300D02*
Y636243D01*
X1374300Y626243D02*
Y636243D01*
X1242100Y611143D02*
X1261100D01*
X1242100Y601143D02*
X1261100D01*
X1242100D02*
Y611143D01*
X1261100Y601143D02*
Y611143D01*
X1361900Y598143D02*
X1367500D01*
X1361900Y588493D02*
Y595993D01*
X1367500Y586343D02*
Y598143D01*
X1361900Y586343D02*
Y588493D01*
Y595993D02*
Y598143D01*
X1363300Y586343D02*
X1366100D01*
X1361900D02*
X1363300D01*
X1366100D02*
X1367500D01*
X1387200Y597943D02*
X1392800D01*
X1387200Y588293D02*
Y595793D01*
X1392800Y586143D02*
Y597943D01*
X1387200Y586143D02*
Y588293D01*
Y595793D02*
Y597943D01*
X1388600Y586143D02*
X1391400D01*
X1387200D02*
X1388600D01*
X1391400D02*
X1392800D01*
X1370700Y590943D02*
Y598943D01*
X1385700Y590943D02*
Y598943D01*
X1370700D02*
X1385700D01*
X1370700Y590943D02*
X1385700D01*
X903500Y693143D02*
X926500D01*
Y682143D02*
Y693143D01*
X903500Y682143D02*
X926500D01*
X903500D02*
Y693143D01*
X1436735Y626978D02*
Y632578D01*
X1427085D02*
X1434585D01*
X1424935Y626978D02*
X1436735D01*
X1424935Y632578D02*
X1427085D01*
X1434585D02*
X1436735D01*
X1424935Y628378D02*
Y631178D01*
Y632578D01*
Y626978D02*
Y628378D01*
X888100Y615343D02*
Y638343D01*
X899100D01*
Y615343D02*
Y638343D01*
X888100Y615343D02*
X899100D01*
X1230800Y611643D02*
Y630643D01*
X1220800Y611643D02*
Y630643D01*
X1230800D01*
X1220800Y611643D02*
X1230800D01*
X1054200Y645943D02*
Y668943D01*
X1043200Y645943D02*
X1054200D01*
X1043200D02*
Y668943D01*
X1054200D01*
X1069800Y645943D02*
Y668943D01*
X1058800Y645943D02*
X1069800D01*
X1058800D02*
Y668943D01*
X1069800D01*
X1134400Y627843D02*
Y646843D01*
X1124400Y627843D02*
Y646843D01*
X1134400D01*
X1124400Y627843D02*
X1134400D01*
X1067800Y605843D02*
Y624843D01*
X1057800Y605843D02*
Y624843D01*
X1067800D01*
X1057800Y605843D02*
X1067800D01*
X1089100Y612743D02*
Y631743D01*
X1079100Y612743D02*
Y631743D01*
X1089100D01*
X1079100Y612743D02*
X1089100D01*
X962000Y641943D02*
Y651943D01*
X981000Y641943D02*
Y651943D01*
X962000D02*
X981000D01*
X962000Y641943D02*
X981000D01*
X1023800Y595143D02*
Y618143D01*
X1012800Y595143D02*
X1023800D01*
X1012800D02*
Y618143D01*
X1023800D01*
X950300Y599943D02*
X973300D01*
X950300D02*
Y610943D01*
X973300D01*
Y599943D02*
Y610943D01*
X1685700Y625143D02*
X1708700D01*
Y614143D02*
Y625143D01*
X1685700Y614143D02*
X1708700D01*
X1685700D02*
Y625143D01*
X2128650Y599493D02*
Y621993D01*
X2102150Y599493D02*
Y621993D01*
Y599493D02*
X2128650D01*
X2102150Y621993D02*
X2128650D01*
X1663800Y693143D02*
X1686800D01*
Y682143D02*
Y693143D01*
X1663800Y682143D02*
X1686800D01*
X1663800D02*
Y693143D01*
X2059700Y646543D02*
Y662543D01*
X2089700Y646543D02*
Y662543D01*
X2059700D02*
X2089700D01*
X2059700Y646543D02*
X2089700D01*
X2159200Y610643D02*
X2167200D01*
X2159200Y625643D02*
X2167200D01*
X2159200Y610643D02*
Y625643D01*
X2167200Y610643D02*
Y625643D01*
X2002650Y621343D02*
X2044750D01*
X2002650Y595343D02*
X2044750D01*
X2002650D02*
Y621343D01*
X2044750Y595343D02*
Y621343D01*
X2093850Y591793D02*
Y633293D01*
X2060350Y591793D02*
Y633293D01*
Y591793D02*
X2093850D01*
X2060350Y633293D02*
X2093850D01*
X1724800Y648243D02*
X1734800D01*
X1724800Y667243D02*
X1734800D01*
X1724800Y648243D02*
Y667243D01*
X1734800Y648243D02*
Y667243D01*
X2172100Y602643D02*
Y608243D01*
X2162450D02*
X2169950D01*
X2160300Y602643D02*
X2172100D01*
X2160300Y608243D02*
X2162450D01*
X2169950D02*
X2172100D01*
X2160300Y604043D02*
Y606843D01*
Y608243D01*
Y602643D02*
Y604043D01*
X1826400Y595193D02*
Y637693D01*
X1851400D01*
Y595193D02*
Y637693D01*
X1826400Y595193D02*
X1851400D01*
X2043800Y635243D02*
X2062800D01*
X2043800Y645242D02*
X2062800D01*
Y635243D02*
Y645242D01*
X2043800Y635243D02*
Y645242D01*
X2090700Y636243D02*
X2109700D01*
X2090700Y626243D02*
X2109700D01*
X2090700D02*
Y636243D01*
X2109700Y626243D02*
Y636243D01*
X1977500Y611143D02*
X1996500D01*
X1977500Y601143D02*
X1996500D01*
X1977500D02*
Y611143D01*
X1996500Y601143D02*
Y611143D01*
X2097300Y598143D02*
X2102900D01*
X2097300Y588493D02*
Y595993D01*
X2102900Y586343D02*
Y598143D01*
X2097300Y586343D02*
Y588493D01*
Y595993D02*
Y598143D01*
X2098700Y586343D02*
X2101500D01*
X2097300D02*
X2098700D01*
X2101500D02*
X2102900D01*
X2122600Y597943D02*
X2128200D01*
X2122600Y588293D02*
Y595793D01*
X2128200Y586143D02*
Y597943D01*
X2122600Y586143D02*
Y588293D01*
Y595793D02*
Y597943D01*
X2124000Y586143D02*
X2126800D01*
X2122600D02*
X2124000D01*
X2126800D02*
X2128200D01*
X2106100Y590943D02*
Y598943D01*
X2121100Y590943D02*
Y598943D01*
X2106100D02*
X2121100D01*
X2106100Y590943D02*
X2121100D01*
X1638900Y693143D02*
X1661900D01*
Y682143D02*
Y693143D01*
X1638900Y682143D02*
X1661900D01*
X1638900D02*
Y693143D01*
X2172135Y626978D02*
Y632578D01*
X2162485D02*
X2169985D01*
X2160335Y626978D02*
X2172135D01*
X2160335Y632578D02*
X2162485D01*
X2169985D02*
X2172135D01*
X2160335Y628378D02*
Y631178D01*
Y632578D01*
Y626978D02*
Y628378D01*
X1623500Y615343D02*
Y638343D01*
X1634500D01*
Y615343D02*
Y638343D01*
X1623500Y615343D02*
X1634500D01*
X1966200Y611643D02*
Y630643D01*
X1956200Y611643D02*
Y630643D01*
X1966200D01*
X1956200Y611643D02*
X1966200D01*
X1789600Y645943D02*
Y668943D01*
X1778600Y645943D02*
X1789600D01*
X1778600D02*
Y668943D01*
X1789600D01*
X1805200Y645943D02*
Y668943D01*
X1794200Y645943D02*
X1805200D01*
X1794200D02*
Y668943D01*
X1805200D01*
X1869800Y627843D02*
Y646843D01*
X1859800Y627843D02*
Y646843D01*
X1869800D01*
X1859800Y627843D02*
X1869800D01*
X1803200Y605843D02*
Y624843D01*
X1793200Y605843D02*
Y624843D01*
X1803200D01*
X1793200Y605843D02*
X1803200D01*
X1824500Y612743D02*
Y631743D01*
X1814500Y612743D02*
Y631743D01*
X1824500D01*
X1814500Y612743D02*
X1824500D01*
X1697400Y641943D02*
Y651943D01*
X1716400Y641943D02*
Y651943D01*
X1697400D02*
X1716400D01*
X1697400Y641943D02*
X1716400D01*
X1759200Y595143D02*
Y618143D01*
X1748200Y595143D02*
X1759200D01*
X1748200D02*
Y618143D01*
X1759200D01*
X1685700Y599943D02*
X1708700D01*
X1685700D02*
Y610943D01*
X1708700D01*
Y599943D02*
Y610943D01*
X214900Y830514D02*
X237900D01*
Y819514D02*
Y830514D01*
X214900Y819514D02*
X237900D01*
X214900D02*
Y830514D01*
X657850Y804864D02*
Y827364D01*
X631350Y804864D02*
Y827364D01*
Y804864D02*
X657850D01*
X631350Y827364D02*
X657850D01*
X193000Y898514D02*
X216000D01*
Y887514D02*
Y898514D01*
X193000Y887514D02*
X216000D01*
X193000D02*
Y898514D01*
X588900Y851914D02*
Y867914D01*
X618900Y851914D02*
Y867914D01*
X588900D02*
X618900D01*
X588900Y851914D02*
X618900D01*
X688400Y816014D02*
X696400D01*
X688400Y831014D02*
X696400D01*
X688400Y816014D02*
Y831014D01*
X696400Y816014D02*
Y831014D01*
X531850Y826714D02*
X573950D01*
X531850Y800714D02*
X573950D01*
X531850D02*
Y826714D01*
X573950Y800714D02*
Y826714D01*
X623050Y797164D02*
Y838664D01*
X589550Y797164D02*
Y838664D01*
Y797164D02*
X623050D01*
X589550Y838664D02*
X623050D01*
X254000Y853614D02*
X264000D01*
X254000Y872614D02*
X264000D01*
X254000Y853614D02*
Y872614D01*
X264000Y853614D02*
Y872614D01*
X701300Y808014D02*
Y813614D01*
X691650D02*
X699150D01*
X689500Y808014D02*
X701300D01*
X689500Y813614D02*
X691650D01*
X699150D02*
X701300D01*
X689500Y809414D02*
Y812214D01*
Y813614D01*
Y808014D02*
Y809414D01*
X355600Y800564D02*
Y843064D01*
X380600D01*
Y800564D02*
Y843064D01*
X355600Y800564D02*
X380600D01*
X573000Y840614D02*
X592000D01*
X573000Y850614D02*
X592000D01*
Y840614D02*
Y850614D01*
X573000Y840614D02*
Y850614D01*
X619900Y841614D02*
X638900D01*
X619900Y831614D02*
X638900D01*
X619900D02*
Y841614D01*
X638900Y831614D02*
Y841614D01*
X506700Y816514D02*
X525700D01*
X506700Y806514D02*
X525700D01*
X506700D02*
Y816514D01*
X525700Y806514D02*
Y816514D01*
X626500Y803514D02*
X632100D01*
X626500Y793864D02*
Y801364D01*
X632100Y791714D02*
Y803514D01*
X626500Y791714D02*
Y793864D01*
Y801364D02*
Y803514D01*
X627900Y791714D02*
X630700D01*
X626500D02*
X627900D01*
X630700D02*
X632100D01*
X651800Y803314D02*
X657400D01*
X651800Y793664D02*
Y801164D01*
X657400Y791514D02*
Y803314D01*
X651800Y791514D02*
Y793664D01*
Y801164D02*
Y803314D01*
X653200Y791514D02*
X656000D01*
X651800D02*
X653200D01*
X656000D02*
X657400D01*
X635300Y796314D02*
Y804314D01*
X650300Y796314D02*
Y804314D01*
X635300D02*
X650300D01*
X635300Y796314D02*
X650300D01*
X168100Y898514D02*
X191100D01*
Y887514D02*
Y898514D01*
X168100Y887514D02*
X191100D01*
X168100D02*
Y898514D01*
X701335Y832349D02*
Y837949D01*
X691685D02*
X699185D01*
X689535Y832349D02*
X701335D01*
X689535Y837949D02*
X691685D01*
X699185D02*
X701335D01*
X689535Y833749D02*
Y836549D01*
Y837949D01*
Y832349D02*
Y833749D01*
X152700Y820714D02*
Y843714D01*
X163700D01*
Y820714D02*
Y843714D01*
X152700Y820714D02*
X163700D01*
X495400Y817014D02*
Y836014D01*
X485400Y817014D02*
Y836014D01*
X495400D01*
X485400Y817014D02*
X495400D01*
X318800Y851314D02*
Y874314D01*
X307800Y851314D02*
X318800D01*
X307800D02*
Y874314D01*
X318800D01*
X334400Y851314D02*
Y874314D01*
X323400Y851314D02*
X334400D01*
X323400D02*
Y874314D01*
X334400D01*
X399000Y833214D02*
Y852214D01*
X389000Y833214D02*
Y852214D01*
X399000D01*
X389000Y833214D02*
X399000D01*
X332400Y811214D02*
Y830214D01*
X322400Y811214D02*
Y830214D01*
X332400D01*
X322400Y811214D02*
X332400D01*
X353700Y818114D02*
Y837114D01*
X343700Y818114D02*
Y837114D01*
X353700D01*
X343700Y818114D02*
X353700D01*
X226600Y847314D02*
Y857314D01*
X245600Y847314D02*
Y857314D01*
X226600D02*
X245600D01*
X226600Y847314D02*
X245600D01*
X288400Y800514D02*
Y823514D01*
X277400Y800514D02*
X288400D01*
X277400D02*
Y823514D01*
X288400D01*
X214900Y805314D02*
X237900D01*
X214900D02*
Y816314D01*
X237900D01*
Y805314D02*
Y816314D01*
X950300Y830514D02*
X973300D01*
Y819514D02*
Y830514D01*
X950300Y819514D02*
X973300D01*
X950300D02*
Y830514D01*
X1393250Y804864D02*
Y827364D01*
X1366750Y804864D02*
Y827364D01*
Y804864D02*
X1393250D01*
X1366750Y827364D02*
X1393250D01*
X928400Y898514D02*
X951400D01*
Y887514D02*
Y898514D01*
X928400Y887514D02*
X951400D01*
X928400D02*
Y898514D01*
X1324300Y851914D02*
Y867914D01*
X1354300Y851914D02*
Y867914D01*
X1324300D02*
X1354300D01*
X1324300Y851914D02*
X1354300D01*
X1423800Y816014D02*
X1431800D01*
X1423800Y831014D02*
X1431800D01*
X1423800Y816014D02*
Y831014D01*
X1431800Y816014D02*
Y831014D01*
X1267250Y826714D02*
X1309350D01*
X1267250Y800714D02*
X1309350D01*
X1267250D02*
Y826714D01*
X1309350Y800714D02*
Y826714D01*
X1358450Y797164D02*
Y838664D01*
X1324950Y797164D02*
Y838664D01*
Y797164D02*
X1358450D01*
X1324950Y838664D02*
X1358450D01*
X989400Y853614D02*
X999400D01*
X989400Y872614D02*
X999400D01*
X989400Y853614D02*
Y872614D01*
X999400Y853614D02*
Y872614D01*
X1436700Y808014D02*
Y813614D01*
X1427050D02*
X1434550D01*
X1424900Y808014D02*
X1436700D01*
X1424900Y813614D02*
X1427050D01*
X1434550D02*
X1436700D01*
X1424900Y809414D02*
Y812214D01*
Y813614D01*
Y808014D02*
Y809414D01*
X1091000Y800564D02*
Y843064D01*
X1116000D01*
Y800564D02*
Y843064D01*
X1091000Y800564D02*
X1116000D01*
X1308400Y840614D02*
X1327400D01*
X1308400Y850614D02*
X1327400D01*
Y840614D02*
Y850614D01*
X1308400Y840614D02*
Y850614D01*
X1355300Y841614D02*
X1374300D01*
X1355300Y831614D02*
X1374300D01*
X1355300D02*
Y841614D01*
X1374300Y831614D02*
Y841614D01*
X1242100Y816514D02*
X1261100D01*
X1242100Y806514D02*
X1261100D01*
X1242100D02*
Y816514D01*
X1261100Y806514D02*
Y816514D01*
X1361900Y803514D02*
X1367500D01*
X1361900Y793864D02*
Y801364D01*
X1367500Y791714D02*
Y803514D01*
X1361900Y791714D02*
Y793864D01*
Y801364D02*
Y803514D01*
X1363300Y791714D02*
X1366100D01*
X1361900D02*
X1363300D01*
X1366100D02*
X1367500D01*
X1387200Y803314D02*
X1392800D01*
X1387200Y793664D02*
Y801164D01*
X1392800Y791514D02*
Y803314D01*
X1387200Y791514D02*
Y793664D01*
Y801164D02*
Y803314D01*
X1388600Y791514D02*
X1391400D01*
X1387200D02*
X1388600D01*
X1391400D02*
X1392800D01*
X1370700Y796314D02*
Y804314D01*
X1385700Y796314D02*
Y804314D01*
X1370700D02*
X1385700D01*
X1370700Y796314D02*
X1385700D01*
X903500Y898514D02*
X926500D01*
Y887514D02*
Y898514D01*
X903500Y887514D02*
X926500D01*
X903500D02*
Y898514D01*
X1436735Y832349D02*
Y837949D01*
X1427085D02*
X1434585D01*
X1424935Y832349D02*
X1436735D01*
X1424935Y837949D02*
X1427085D01*
X1434585D02*
X1436735D01*
X1424935Y833749D02*
Y836549D01*
Y837949D01*
Y832349D02*
Y833749D01*
X888100Y820714D02*
Y843714D01*
X899100D01*
Y820714D02*
Y843714D01*
X888100Y820714D02*
X899100D01*
X1230800Y817014D02*
Y836014D01*
X1220800Y817014D02*
Y836014D01*
X1230800D01*
X1220800Y817014D02*
X1230800D01*
X1054200Y851314D02*
Y874314D01*
X1043200Y851314D02*
X1054200D01*
X1043200D02*
Y874314D01*
X1054200D01*
X1069800Y851314D02*
Y874314D01*
X1058800Y851314D02*
X1069800D01*
X1058800D02*
Y874314D01*
X1069800D01*
X1134400Y833214D02*
Y852214D01*
X1124400Y833214D02*
Y852214D01*
X1134400D01*
X1124400Y833214D02*
X1134400D01*
X1067800Y811214D02*
Y830214D01*
X1057800Y811214D02*
Y830214D01*
X1067800D01*
X1057800Y811214D02*
X1067800D01*
X1089100Y818114D02*
Y837114D01*
X1079100Y818114D02*
Y837114D01*
X1089100D01*
X1079100Y818114D02*
X1089100D01*
X962000Y847314D02*
Y857314D01*
X981000Y847314D02*
Y857314D01*
X962000D02*
X981000D01*
X962000Y847314D02*
X981000D01*
X1023800Y800514D02*
Y823514D01*
X1012800Y800514D02*
X1023800D01*
X1012800D02*
Y823514D01*
X1023800D01*
X950300Y805314D02*
X973300D01*
X950300D02*
Y816314D01*
X973300D01*
Y805314D02*
Y816314D01*
X1685700Y830514D02*
X1708700D01*
Y819514D02*
Y830514D01*
X1685700Y819514D02*
X1708700D01*
X1685700D02*
Y830514D01*
X2128650Y804864D02*
Y827364D01*
X2102150Y804864D02*
Y827364D01*
Y804864D02*
X2128650D01*
X2102150Y827364D02*
X2128650D01*
X1663800Y898514D02*
X1686800D01*
Y887514D02*
Y898514D01*
X1663800Y887514D02*
X1686800D01*
X1663800D02*
Y898514D01*
X2059700Y851914D02*
Y867914D01*
X2089700Y851914D02*
Y867914D01*
X2059700D02*
X2089700D01*
X2059700Y851914D02*
X2089700D01*
X2159200Y816014D02*
X2167200D01*
X2159200Y831014D02*
X2167200D01*
X2159200Y816014D02*
Y831014D01*
X2167200Y816014D02*
Y831014D01*
X2002650Y826714D02*
X2044750D01*
X2002650Y800714D02*
X2044750D01*
X2002650D02*
Y826714D01*
X2044750Y800714D02*
Y826714D01*
X2093850Y797164D02*
Y838664D01*
X2060350Y797164D02*
Y838664D01*
Y797164D02*
X2093850D01*
X2060350Y838664D02*
X2093850D01*
X1724800Y853614D02*
X1734800D01*
X1724800Y872614D02*
X1734800D01*
X1724800Y853614D02*
Y872614D01*
X1734800Y853614D02*
Y872614D01*
X2172100Y808014D02*
Y813614D01*
X2162450D02*
X2169950D01*
X2160300Y808014D02*
X2172100D01*
X2160300Y813614D02*
X2162450D01*
X2169950D02*
X2172100D01*
X2160300Y809414D02*
Y812214D01*
Y813614D01*
Y808014D02*
Y809414D01*
X1826400Y800564D02*
Y843064D01*
X1851400D01*
Y800564D02*
Y843064D01*
X1826400Y800564D02*
X1851400D01*
X2043800Y840614D02*
X2062800D01*
X2043800Y850614D02*
X2062800D01*
Y840614D02*
Y850614D01*
X2043800Y840614D02*
Y850614D01*
X2090700Y841614D02*
X2109700D01*
X2090700Y831614D02*
X2109700D01*
X2090700D02*
Y841614D01*
X2109700Y831614D02*
Y841614D01*
X1977500Y816514D02*
X1996500D01*
X1977500Y806514D02*
X1996500D01*
X1977500D02*
Y816514D01*
X1996500Y806514D02*
Y816514D01*
X2097300Y803514D02*
X2102900D01*
X2097300Y793864D02*
Y801364D01*
X2102900Y791714D02*
Y803514D01*
X2097300Y791714D02*
Y793864D01*
Y801364D02*
Y803514D01*
X2098700Y791714D02*
X2101500D01*
X2097300D02*
X2098700D01*
X2101500D02*
X2102900D01*
X2122600Y803314D02*
X2128200D01*
X2122600Y793664D02*
Y801164D01*
X2128200Y791514D02*
Y803314D01*
X2122600Y791514D02*
Y793664D01*
Y801164D02*
Y803314D01*
X2124000Y791514D02*
X2126800D01*
X2122600D02*
X2124000D01*
X2126800D02*
X2128200D01*
X2106100Y796314D02*
Y804314D01*
X2121100Y796314D02*
Y804314D01*
X2106100D02*
X2121100D01*
X2106100Y796314D02*
X2121100D01*
X1638900Y898514D02*
X1661900D01*
Y887514D02*
Y898514D01*
X1638900Y887514D02*
X1661900D01*
X1638900D02*
Y898514D01*
X2172135Y832349D02*
Y837949D01*
X2162485D02*
X2169985D01*
X2160335Y832349D02*
X2172135D01*
X2160335Y837949D02*
X2162485D01*
X2169985D02*
X2172135D01*
X2160335Y833749D02*
Y836549D01*
Y837949D01*
Y832349D02*
Y833749D01*
X1623500Y820714D02*
Y843714D01*
X1634500D01*
Y820714D02*
Y843714D01*
X1623500Y820714D02*
X1634500D01*
X1966200Y817014D02*
Y836014D01*
X1956200Y817014D02*
Y836014D01*
X1966200D01*
X1956200Y817014D02*
X1966200D01*
X1789600Y851314D02*
Y874314D01*
X1778600Y851314D02*
X1789600D01*
X1778600D02*
Y874314D01*
X1789600D01*
X1805200Y851314D02*
Y874314D01*
X1794200Y851314D02*
X1805200D01*
X1794200D02*
Y874314D01*
X1805200D01*
X1869800Y833214D02*
Y852214D01*
X1859800Y833214D02*
Y852214D01*
X1869800D01*
X1859800Y833214D02*
X1869800D01*
X1803200Y811214D02*
Y830214D01*
X1793200Y811214D02*
Y830214D01*
X1803200D01*
X1793200Y811214D02*
X1803200D01*
X1824500Y818114D02*
Y837114D01*
X1814500Y818114D02*
Y837114D01*
X1824500D01*
X1814500Y818114D02*
X1824500D01*
X1697400Y847314D02*
Y857314D01*
X1716400Y847314D02*
Y857314D01*
X1697400D02*
X1716400D01*
X1697400Y847314D02*
X1716400D01*
X1759200Y800514D02*
Y823514D01*
X1748200Y800514D02*
X1759200D01*
X1748200D02*
Y823514D01*
X1759200D01*
X1685700Y805314D02*
X1708700D01*
X1685700D02*
Y816314D01*
X1708700D01*
Y805314D02*
Y816314D01*
X214900Y1035885D02*
X237900D01*
Y1024885D02*
Y1035885D01*
X214900Y1024885D02*
X237900D01*
X214900D02*
Y1035885D01*
X657850Y1010235D02*
Y1032736D01*
X631350Y1010235D02*
Y1032736D01*
Y1010235D02*
X657850D01*
X631350Y1032736D02*
X657850D01*
X193000Y1103885D02*
X216000D01*
Y1092886D02*
Y1103885D01*
X193000Y1092886D02*
X216000D01*
X193000D02*
Y1103885D01*
X588900Y1057286D02*
Y1073286D01*
X618900Y1057286D02*
Y1073286D01*
X588900D02*
X618900D01*
X588900Y1057286D02*
X618900D01*
X688400Y1021385D02*
X696400D01*
X688400Y1036385D02*
X696400D01*
X688400Y1021385D02*
Y1036385D01*
X696400Y1021385D02*
Y1036385D01*
X531850Y1032085D02*
X573950D01*
X531850Y1006086D02*
X573950D01*
X531850D02*
Y1032085D01*
X573950Y1006086D02*
Y1032085D01*
X623050Y1002535D02*
Y1044035D01*
X589550Y1002535D02*
Y1044035D01*
Y1002535D02*
X623050D01*
X589550Y1044035D02*
X623050D01*
X254000Y1058985D02*
X264000D01*
X254000Y1077986D02*
X264000D01*
X254000Y1058985D02*
Y1077986D01*
X264000Y1058985D02*
Y1077986D01*
X701300Y1013385D02*
Y1018986D01*
X691650D02*
X699150D01*
X689500Y1013385D02*
X701300D01*
X689500Y1018986D02*
X691650D01*
X699150D02*
X701300D01*
X689500Y1014786D02*
Y1017586D01*
Y1018986D01*
Y1013385D02*
Y1014786D01*
X355600Y1005936D02*
Y1048436D01*
X380600D01*
Y1005936D02*
Y1048436D01*
X355600Y1005936D02*
X380600D01*
X573000Y1045985D02*
X592000D01*
X573000Y1055985D02*
X592000D01*
Y1045985D02*
Y1055985D01*
X573000Y1045985D02*
Y1055985D01*
X619900Y1046986D02*
X638900D01*
X619900Y1036986D02*
X638900D01*
X619900D02*
Y1046986D01*
X638900Y1036986D02*
Y1046986D01*
X506700Y1021886D02*
X525700D01*
X506700Y1011886D02*
X525700D01*
X506700D02*
Y1021886D01*
X525700Y1011886D02*
Y1021886D01*
X626500Y1008885D02*
X632100D01*
X626500Y999236D02*
Y1006736D01*
X632100Y997085D02*
Y1008885D01*
X626500Y997085D02*
Y999236D01*
Y1006736D02*
Y1008885D01*
X627900Y997085D02*
X630700D01*
X626500D02*
X627900D01*
X630700D02*
X632100D01*
X651800Y1008686D02*
X657400D01*
X651800Y999035D02*
Y1006535D01*
X657400Y996886D02*
Y1008686D01*
X651800Y996886D02*
Y999035D01*
Y1006535D02*
Y1008686D01*
X653200Y996886D02*
X656000D01*
X651800D02*
X653200D01*
X656000D02*
X657400D01*
X635300Y1001685D02*
Y1009686D01*
X650300Y1001685D02*
Y1009686D01*
X635300D02*
X650300D01*
X635300Y1001685D02*
X650300D01*
X168100Y1103885D02*
X191100D01*
Y1092886D02*
Y1103885D01*
X168100Y1092886D02*
X191100D01*
X168100D02*
Y1103885D01*
X701335Y1037720D02*
Y1043320D01*
X691685D02*
X699185D01*
X689535Y1037720D02*
X701335D01*
X689535Y1043320D02*
X691685D01*
X699185D02*
X701335D01*
X689535Y1039120D02*
Y1041920D01*
Y1043320D01*
Y1037720D02*
Y1039120D01*
X152700Y1026086D02*
Y1049085D01*
X163700D01*
Y1026086D02*
Y1049085D01*
X152700Y1026086D02*
X163700D01*
X495400Y1022385D02*
Y1041386D01*
X485400Y1022385D02*
Y1041386D01*
X495400D01*
X485400Y1022385D02*
X495400D01*
X318800Y1056685D02*
Y1079686D01*
X307800Y1056685D02*
X318800D01*
X307800D02*
Y1079686D01*
X318800D01*
X334400Y1056685D02*
Y1079686D01*
X323400Y1056685D02*
X334400D01*
X323400D02*
Y1079686D01*
X334400D01*
X399000Y1038585D02*
Y1057586D01*
X389000Y1038585D02*
Y1057586D01*
X399000D01*
X389000Y1038585D02*
X399000D01*
X332400Y1016585D02*
Y1035586D01*
X322400Y1016585D02*
Y1035586D01*
X332400D01*
X322400Y1016585D02*
X332400D01*
X353700Y1023485D02*
Y1042486D01*
X343700Y1023485D02*
Y1042486D01*
X353700D01*
X343700Y1023485D02*
X353700D01*
X226600Y1052685D02*
Y1062685D01*
X245600Y1052685D02*
Y1062685D01*
X226600D02*
X245600D01*
X226600Y1052685D02*
X245600D01*
X288400Y1005885D02*
Y1028885D01*
X277400Y1005885D02*
X288400D01*
X277400D02*
Y1028885D01*
X288400D01*
X214900Y1010686D02*
X237900D01*
X214900D02*
Y1021685D01*
X237900D01*
Y1010686D02*
Y1021685D01*
X950300Y1035885D02*
X973300D01*
Y1024885D02*
Y1035885D01*
X950300Y1024885D02*
X973300D01*
X950300D02*
Y1035885D01*
X1393250Y1010235D02*
Y1032736D01*
X1366750Y1010235D02*
Y1032736D01*
Y1010235D02*
X1393250D01*
X1366750Y1032736D02*
X1393250D01*
X928400Y1103885D02*
X951400D01*
Y1092886D02*
Y1103885D01*
X928400Y1092886D02*
X951400D01*
X928400D02*
Y1103885D01*
X1324300Y1057286D02*
Y1073286D01*
X1354300Y1057286D02*
Y1073286D01*
X1324300D02*
X1354300D01*
X1324300Y1057286D02*
X1354300D01*
X1423800Y1021385D02*
X1431800D01*
X1423800Y1036385D02*
X1431800D01*
X1423800Y1021385D02*
Y1036385D01*
X1431800Y1021385D02*
Y1036385D01*
X1267250Y1032085D02*
X1309350D01*
X1267250Y1006086D02*
X1309350D01*
X1267250D02*
Y1032085D01*
X1309350Y1006086D02*
Y1032085D01*
X1358450Y1002535D02*
Y1044035D01*
X1324950Y1002535D02*
Y1044035D01*
Y1002535D02*
X1358450D01*
X1324950Y1044035D02*
X1358450D01*
X989400Y1058985D02*
X999400D01*
X989400Y1077986D02*
X999400D01*
X989400Y1058985D02*
Y1077986D01*
X999400Y1058985D02*
Y1077986D01*
X1436700Y1013385D02*
Y1018986D01*
X1427050D02*
X1434550D01*
X1424900Y1013385D02*
X1436700D01*
X1424900Y1018986D02*
X1427050D01*
X1434550D02*
X1436700D01*
X1424900Y1014786D02*
Y1017586D01*
Y1018986D01*
Y1013385D02*
Y1014786D01*
X1091000Y1005936D02*
Y1048436D01*
X1116000D01*
Y1005936D02*
Y1048436D01*
X1091000Y1005936D02*
X1116000D01*
X1308400Y1045985D02*
X1327400D01*
X1308400Y1055985D02*
X1327400D01*
Y1045985D02*
Y1055985D01*
X1308400Y1045985D02*
Y1055985D01*
X1355300Y1046986D02*
X1374300D01*
X1355300Y1036986D02*
X1374300D01*
X1355300D02*
Y1046986D01*
X1374300Y1036986D02*
Y1046986D01*
X1242100Y1021886D02*
X1261100D01*
X1242100Y1011886D02*
X1261100D01*
X1242100D02*
Y1021886D01*
X1261100Y1011886D02*
Y1021886D01*
X1361900Y1008885D02*
X1367500D01*
X1361900Y999236D02*
Y1006736D01*
X1367500Y997085D02*
Y1008885D01*
X1361900Y997085D02*
Y999236D01*
Y1006736D02*
Y1008885D01*
X1363300Y997085D02*
X1366100D01*
X1361900D02*
X1363300D01*
X1366100D02*
X1367500D01*
X1387200Y1008686D02*
X1392800D01*
X1387200Y999035D02*
Y1006535D01*
X1392800Y996886D02*
Y1008686D01*
X1387200Y996886D02*
Y999035D01*
Y1006535D02*
Y1008686D01*
X1388600Y996886D02*
X1391400D01*
X1387200D02*
X1388600D01*
X1391400D02*
X1392800D01*
X1370700Y1001685D02*
Y1009686D01*
X1385700Y1001685D02*
Y1009686D01*
X1370700D02*
X1385700D01*
X1370700Y1001685D02*
X1385700D01*
X903500Y1103885D02*
X926500D01*
Y1092886D02*
Y1103885D01*
X903500Y1092886D02*
X926500D01*
X903500D02*
Y1103885D01*
X1436735Y1037720D02*
Y1043320D01*
X1427085D02*
X1434585D01*
X1424935Y1037720D02*
X1436735D01*
X1424935Y1043320D02*
X1427085D01*
X1434585D02*
X1436735D01*
X1424935Y1039120D02*
Y1041920D01*
Y1043320D01*
Y1037720D02*
Y1039120D01*
X888100Y1026086D02*
Y1049085D01*
X899100D01*
Y1026086D02*
Y1049085D01*
X888100Y1026086D02*
X899100D01*
X1230800Y1022385D02*
Y1041386D01*
X1220800Y1022385D02*
Y1041386D01*
X1230800D01*
X1220800Y1022385D02*
X1230800D01*
X1054200Y1056685D02*
Y1079686D01*
X1043200Y1056685D02*
X1054200D01*
X1043200D02*
Y1079686D01*
X1054200D01*
X1069800Y1056685D02*
Y1079686D01*
X1058800Y1056685D02*
X1069800D01*
X1058800D02*
Y1079686D01*
X1069800D01*
X1134400Y1038585D02*
Y1057586D01*
X1124400Y1038585D02*
Y1057586D01*
X1134400D01*
X1124400Y1038585D02*
X1134400D01*
X1067800Y1016585D02*
Y1035586D01*
X1057800Y1016585D02*
Y1035586D01*
X1067800D01*
X1057800Y1016585D02*
X1067800D01*
X1089100Y1023485D02*
Y1042486D01*
X1079100Y1023485D02*
Y1042486D01*
X1089100D01*
X1079100Y1023485D02*
X1089100D01*
X962000Y1052685D02*
Y1062685D01*
X981000Y1052685D02*
Y1062685D01*
X962000D02*
X981000D01*
X962000Y1052685D02*
X981000D01*
X1023800Y1005885D02*
Y1028885D01*
X1012800Y1005885D02*
X1023800D01*
X1012800D02*
Y1028885D01*
X1023800D01*
X950300Y1010686D02*
X973300D01*
X950300D02*
Y1021685D01*
X973300D01*
Y1010686D02*
Y1021685D01*
X1685700Y1035885D02*
X1708700D01*
Y1024885D02*
Y1035885D01*
X1685700Y1024885D02*
X1708700D01*
X1685700D02*
Y1035885D01*
X2128650Y1010235D02*
Y1032736D01*
X2102150Y1010235D02*
Y1032736D01*
Y1010235D02*
X2128650D01*
X2102150Y1032736D02*
X2128650D01*
X1663800Y1103885D02*
X1686800D01*
Y1092886D02*
Y1103885D01*
X1663800Y1092886D02*
X1686800D01*
X1663800D02*
Y1103885D01*
X2059700Y1057286D02*
Y1073286D01*
X2089700Y1057286D02*
Y1073286D01*
X2059700D02*
X2089700D01*
X2059700Y1057286D02*
X2089700D01*
X2159200Y1021385D02*
X2167200D01*
X2159200Y1036385D02*
X2167200D01*
X2159200Y1021385D02*
Y1036385D01*
X2167200Y1021385D02*
Y1036385D01*
X2002650Y1032085D02*
X2044750D01*
X2002650Y1006086D02*
X2044750D01*
X2002650D02*
Y1032085D01*
X2044750Y1006086D02*
Y1032085D01*
X2093850Y1002535D02*
Y1044035D01*
X2060350Y1002535D02*
Y1044035D01*
Y1002535D02*
X2093850D01*
X2060350Y1044035D02*
X2093850D01*
X1724800Y1058985D02*
X1734800D01*
X1724800Y1077986D02*
X1734800D01*
X1724800Y1058985D02*
Y1077986D01*
X1734800Y1058985D02*
Y1077986D01*
X2172100Y1013385D02*
Y1018986D01*
X2162450D02*
X2169950D01*
X2160300Y1013385D02*
X2172100D01*
X2160300Y1018986D02*
X2162450D01*
X2169950D02*
X2172100D01*
X2160300Y1014786D02*
Y1017586D01*
Y1018986D01*
Y1013385D02*
Y1014786D01*
X1826400Y1005936D02*
Y1048436D01*
X1851400D01*
Y1005936D02*
Y1048436D01*
X1826400Y1005936D02*
X1851400D01*
X2043800Y1045985D02*
X2062800D01*
X2043800Y1055985D02*
X2062800D01*
Y1045985D02*
Y1055985D01*
X2043800Y1045985D02*
Y1055985D01*
X2090700Y1046986D02*
X2109700D01*
X2090700Y1036986D02*
X2109700D01*
X2090700D02*
Y1046986D01*
X2109700Y1036986D02*
Y1046986D01*
X1977500Y1021886D02*
X1996500D01*
X1977500Y1011886D02*
X1996500D01*
X1977500D02*
Y1021886D01*
X1996500Y1011886D02*
Y1021886D01*
X2097300Y1008885D02*
X2102900D01*
X2097300Y999236D02*
Y1006736D01*
X2102900Y997085D02*
Y1008885D01*
X2097300Y997085D02*
Y999236D01*
Y1006736D02*
Y1008885D01*
X2098700Y997085D02*
X2101500D01*
X2097300D02*
X2098700D01*
X2101500D02*
X2102900D01*
X2122600Y1008686D02*
X2128200D01*
X2122600Y999035D02*
Y1006535D01*
X2128200Y996886D02*
Y1008686D01*
X2122600Y996886D02*
Y999035D01*
Y1006535D02*
Y1008686D01*
X2124000Y996886D02*
X2126800D01*
X2122600D02*
X2124000D01*
X2126800D02*
X2128200D01*
X2106100Y1001685D02*
Y1009686D01*
X2121100Y1001685D02*
Y1009686D01*
X2106100D02*
X2121100D01*
X2106100Y1001685D02*
X2121100D01*
X1638900Y1103885D02*
X1661900D01*
Y1092886D02*
Y1103885D01*
X1638900Y1092886D02*
X1661900D01*
X1638900D02*
Y1103885D01*
X2172135Y1037720D02*
Y1043320D01*
X2162485D02*
X2169985D01*
X2160335Y1037720D02*
X2172135D01*
X2160335Y1043320D02*
X2162485D01*
X2169985D02*
X2172135D01*
X2160335Y1039120D02*
Y1041920D01*
Y1043320D01*
Y1037720D02*
Y1039120D01*
X1623500Y1026086D02*
Y1049085D01*
X1634500D01*
Y1026086D02*
Y1049085D01*
X1623500Y1026086D02*
X1634500D01*
X1966200Y1022385D02*
Y1041386D01*
X1956200Y1022385D02*
Y1041386D01*
X1966200D01*
X1956200Y1022385D02*
X1966200D01*
X1789600Y1056685D02*
Y1079686D01*
X1778600Y1056685D02*
X1789600D01*
X1778600D02*
Y1079686D01*
X1789600D01*
X1805200Y1056685D02*
Y1079686D01*
X1794200Y1056685D02*
X1805200D01*
X1794200D02*
Y1079686D01*
X1805200D01*
X1869800Y1038585D02*
Y1057586D01*
X1859800Y1038585D02*
Y1057586D01*
X1869800D01*
X1859800Y1038585D02*
X1869800D01*
X1803200Y1016585D02*
Y1035586D01*
X1793200Y1016585D02*
Y1035586D01*
X1803200D01*
X1793200Y1016585D02*
X1803200D01*
X1824500Y1023485D02*
Y1042486D01*
X1814500Y1023485D02*
Y1042486D01*
X1824500D01*
X1814500Y1023485D02*
X1824500D01*
X1697400Y1052685D02*
Y1062685D01*
X1716400Y1052685D02*
Y1062685D01*
X1697400D02*
X1716400D01*
X1697400Y1052685D02*
X1716400D01*
X1759200Y1005885D02*
Y1028885D01*
X1748200Y1005885D02*
X1759200D01*
X1748200D02*
Y1028885D01*
X1759200D01*
X1685700Y1010686D02*
X1708700D01*
X1685700D02*
Y1021685D01*
X1708700D01*
Y1010686D02*
Y1021685D01*
M02*
