M48
;Layer_Color=9474304
;FILE_FORMAT=4:4
METRIC,LZ
;TYPE=PLATED
T1F00S00C0.2000
;TYPE=NON_PLATED
T2F00S00C2.0000
%
T01
X000688Y001363
X000799Y001488
X000696Y00161
X001479Y001607
X001383Y001488
X001476Y001379
X001679Y001893
X001581Y002013
X001954Y002021
X002807Y001592
X00281Y001371
X00303Y001488
X00342Y001896
X00386713Y00194208
X004216Y001949
X004574Y001971
X004612Y002015
X004798Y002026
X004919Y001887
X005312Y001902
X005339Y002003
X00525131Y0020771
X00526Y001488
X005448Y001379
X005446Y001599
X004145Y001488
X005797Y001896
X005759Y001936
X005808Y001997
X005714Y002001
X005675Y002065
X005907Y00208
X006042Y0021
X006094Y002101
X006093Y001936
X006042
X005919Y001873
X00623Y001939
X006269Y00203
X00621975Y00179225
X00637Y001771
X006476Y00176
X006721Y001791
X006747Y001889
X006646
X006846Y001898
X006854Y001991
Y002081
X007003Y002096
X00700707Y00201898
X007058Y001949
X006966Y001879
X006887Y001799
X006806Y001605
X006918Y001487
X006797Y001381
X007589Y001385
X007492Y001488
X007592Y001606
X00805Y00161
X008153Y001488
X008042Y001363
X00883Y001379
X008737Y001488
X008833Y001607
X009033Y001893
X008935Y002013
X009308Y002021
X010161Y001592
X010164Y001371
X010384Y001488
X010774Y001896
X01122113Y00194208
X01157Y001949
X011928Y001971
X011966Y002015
X012152Y002026
X012273Y001887
X012666Y001902
X012693Y002003
X01260531Y0020771
X013029Y002065
X013068Y002001
X013162Y001997
X013113Y001936
X013151Y001896
X013273Y001873
X013396Y001936
Y0021
X013261Y00208
X0128Y001599
X012802Y001379
X012614Y001488
X011499
X01357375Y00179225
X013584Y001939
X013623Y00203
X013448Y002101
X013447Y001936
X013724Y001771
X01383Y00176
X014075Y001791
X014101Y001889
X014
X0142Y001898
X014208Y001991
Y002081
X014357Y002096
X01436107Y00201898
X014412Y001949
X01432Y001879
X014241Y001799
X01416Y001605
X014272Y001487
X014151Y001381
X014943Y001385
X014846Y001488
X014946Y001606
X015404Y00161
X015507Y001488
X015396Y001363
X016184Y001379
X016091Y001488
X016187Y001607
X016387Y001893
X016289Y002013
X016662Y002021
X017515Y001592
X017518Y001371
X017738Y001488
X018128Y001896
X01857513Y00194208
X018924Y001949
X019282Y001971
X01932Y002015
X019506Y002026
X019627Y001887
X02002Y001902
X020047Y002003
X01995932Y0020771
X020383Y002065
X020422Y002001
X020516Y001997
X020467Y001936
X020505Y001896
X020627Y001873
X02075Y001936
X020801
X020938Y001939
X020977Y00203
X020802Y002101
X02075Y0021
X020615Y00208
X02092775Y00179225
X021078Y001771
X021184Y00176
X021354Y001889
X020154Y001599
X020156Y001379
X019968Y001488
X018853
X021505Y001381
X021626Y001487
X021514Y001605
X021429Y001791
X021455Y001889
X021554Y001898
X021562Y001991
Y002081
X021711Y002096
X02171507Y00201898
X021766Y001949
X021674Y001879
X021595Y001799
X0223Y001606
X0222Y001488
X022297Y001385
X02229482Y00228
X022346
X02224363
X02219245
X02214127
X02209009
X02203891
X02198773
X02193654
X02188536
X02183418
X021783
X021729Y002276
X021774Y002223
Y002148
X021562Y002171
X02158Y002241
X0215338Y002287
X02148192
X02143004
X02137816
X0214851Y0024165
X0216352Y0026266
X0216349Y0027869
X02148553Y00293673
X0217953Y0029368
X0219555Y0029366
X0221154Y0027869
X02211558Y00262663
X0219355Y0026266
X0218152
X0222656Y0029367
X022297Y00343871
X0222Y00354171
X0223Y00365971
X02229482Y00433371
X022346
X02224363
X02219245
X02214127
X02209009
X02203891
X02198773
X02193654
X02188536
X02183418
X021783
X021729Y00432971
X021774Y00427671
Y00420171
X021711Y00414971
X02171507Y00407269
X021766Y00400271
X021674Y00393271
X021554Y00395171
X021562Y00404471
Y00413471
Y00422471
X02158Y00429471
X0215338Y00434071
X02148192
X02143004
X02137816
X0214851Y00447021
X0216352Y00468031
X0216349Y00484061
X02148553Y00499045
X0217953Y00499051
X0219555Y00499031
X0221154Y00484061
X02211558Y00468035
X0219355Y00468031
X0218152
X0222656Y00499041
X022297Y00549243
X0222Y00559543
X0223Y00571343
X021514Y00571243
X021626Y00559443
X021505Y00548843
X021429Y00589843
X021455Y00599643
X021554Y00600543
X021674Y00598643
X021595Y00590643
X021766Y00605643
X021595Y00385271
X021429Y00384471
X021455Y00394271
X021514Y00365871
X021626Y00354071
X021505Y00343471
X021354Y00394271
X021184Y00381371
X021078Y00382471
X02092775Y00384596
X020938Y00399271
X020977Y00408371
X020802Y00415471
X02075Y00415371
X020615Y00413371
X0206011Y00418282
X020516Y00405071
X020422Y00405471
X020383Y00411871
X020467Y00398971
X020505Y00394971
X020627Y00392671
X02075Y00398971
X020801
X020722Y00428671
X020942Y00439671
X020944Y00444571
Y00449591
Y00454611
Y00459631
Y00464651
Y00469671
Y00474671
Y00479691
Y00484711
Y00489731
Y00494751
Y00499771
X021015Y00434071
X02106688
X02111876
X02117064
X02122252
X0212744
X02132628
X020047Y00433571
X019995Y00431771
X019957Y00424571
X01995932Y00413082
X020047Y00405671
X02002Y00395571
X019627Y00394071
X019506Y00407971
X01947Y00421771
X0194715Y00427971
X019294Y00434271
X019352Y00441971
X01941Y00455471
X019301Y00461871
X019338Y00468271
X019219Y00455871
X01911Y00445471
X019101Y00434571
X019217Y00427771
X019199Y00417671
X01932Y00406871
X019282Y00402471
X018924Y00400271
X01857513Y0039958
X018554Y00423071
X0184105Y00433921
X018439Y00454071
X01858675Y00453371
X01882296Y00449967
X01893105Y00450387
X018968Y00482271
X019095
X019222
X018841
X018714
X018587
X018361Y00477371
X018133Y00477671
X018128Y00457171
X018286Y00456771
X01826218Y00445947
X0178755Y00433921
X017675Y00437271
X017673Y00429171
X017707Y00445871
X01768219Y00467471
X01789Y00477771
X017738Y00559543
X017515Y00569943
X017518Y00547843
X018128Y00600343
X01857513Y00604951
X018924Y00605643
X019282Y00607843
X019627Y00599443
X02002Y00600943
X020154Y00570643
X020156Y00548643
X019968Y00559543
X020505Y00600343
X020467Y00604343
X020627Y00598043
X02075Y00604343
X020801
X020938Y00604643
X02092775Y00589968
X021078Y00587843
X021184Y00586743
X021354Y00599643
X020313Y00479671
X020189Y00466471
X020011Y00441571
X019775Y00431771
X019755Y00455471
X019634Y00451071
X019544Y00492071
X018853Y00559543
Y00354171
X018841Y002769
X018714
X018587
X018361Y00272
X018133Y002723
X018128Y002518
X018286Y002514
X01826218Y00240575
X018439Y002487
X01858675Y00248
X01882296Y00244596
X01893105Y00245016
X01911Y002401
X019101Y002292
X019217Y002224
X019199Y002123
X019294Y002289
X019352Y002366
X01941Y002501
X019301Y002565
X019338Y002629
X019219Y002505
X019222Y002769
X019095
X018968
X019544Y002867
X019634Y002457
X019755Y002501
X019775Y002264
X019995
X020047Y002282
X020011Y002362
X019957Y002192
X01947Y002164
X0194715Y002226
X018554Y002177
X0184105Y0022855
X0178755
X017675Y002319
X017673Y002238
X017707Y002405
X01768219Y00262099
X01789Y002724
X017738Y00354171
X017515Y00364571
X017518Y00342471
X018128Y00394971
X019968Y00354171
X020156Y00343271
X020154Y00365271
X020313Y002743
X020189Y002611
X020944Y0025928
Y002643
Y002693
Y0027432
Y0027934
Y0028436
Y0028938
Y002944
Y0025426
Y0024924
Y0024422
Y002392
X020942Y002343
X021015Y002287
X02106688
X02111876
X02117064
X02122252
X0212744
X02132628
X020722Y002233
X0206011Y0021291
X017246Y002195
X01719Y002238
X017121Y002541
X017028Y002607
X017292Y002605
X017265Y002865
X016908Y00277
X016882Y002362
X016671Y002353
X016729Y002162
X01653374Y0024948
X016184Y00343271
X016091Y00354171
X016187Y00366071
X016387Y00394671
X016289Y00406671
X016662Y00407471
X016729Y00421571
X016671Y00440671
X016882Y00441571
X017028Y00466071
X017121Y00459471
X017292Y00465871
X017265Y00491871
X016908Y00482371
X01653374Y00454851
X01719Y00429171
X017246Y00424871
X016184Y00548643
X016091Y00559543
X016187Y00571443
X016387Y00600043
X015404Y00571743
X015507Y00559543
X015396Y00547043
X014943Y00549243
X014846Y00559543
X014946Y00571343
X0149116Y00499041
X0147614Y00484061
X01476158Y00468035
X0145815Y00468031
X0144612
X0142812
X0142809Y00484061
X01413153Y00499045
X0144413Y00499051
X0146015Y00499031
X01458255Y00433371
X01453136
X01448018
X014429
X014375Y00432971
X01442Y00427671
Y00420171
X014357Y00414971
X01436107Y00407269
X014412Y00400271
X01432Y00393271
X0142Y00395171
X014208Y00404471
Y00413471
Y00422471
X014226Y00429471
X0141798Y00434071
X01412792
X01407604
X01402416
X01397228
X0139204
X01386852
X01381664
X01376476
X01371288
X013661
X013588Y00439671
X01359Y00444571
Y00449591
Y00454611
Y00459631
Y00464651
Y00469671
Y00474671
Y00479691
Y00484711
Y00489731
Y00494751
Y00499771
X01357375Y00589968
X013584Y00604643
X013447Y00604343
X013724Y00587843
X01383Y00586743
X014075Y00589843
X014101Y00599643
X014
X0142Y00600543
X01432Y00598643
X014241Y00590643
X01416Y00571243
X014272Y00559443
X014151Y00548843
X014412Y00605643
X0141311Y00447021
X014101Y00394271
X014
X014075Y00384471
X014241Y00385271
X01416Y00365871
X014272Y00354071
X014151Y00343471
X01413153Y00293673
X0142809Y0027869
X0142812Y0026266
X0144612
X0145815
X01476158Y00262663
X0147614Y0027869
X0149116Y0029367
X0146015Y0029366
X0144413Y0029368
X014429Y00228
X01448018
X01453136
X01458255
X01463373
X01468491
X01473609
X01478727
X01483845
X01488963
X01494082
X014992
X014375Y002276
X01442Y002223
Y002148
X014208Y002171
X014226Y002241
X0141798Y002287
X01412792
X01407604
X01402416
X01397228
X0139204
X01386852
X01381664
X01376476
X01371288
X013661
X013588Y002343
X01359Y002392
Y0024422
Y0024924
Y0025426
Y0025928
Y002643
Y002693
Y0027432
Y0027934
Y0028436
Y0028938
Y002944
X01357375Y00384596
X013584Y00399271
X013623Y00408371
X013448Y00415471
X013447Y00398971
X013724Y00382471
X01383Y00381371
X014946Y00365971
X014846Y00354171
X014943Y00343871
X015396Y00341671
X015507Y00354171
X015404Y00366371
X014992Y00433371
X01494082
X01488963
X01483845
X01478727
X01473609
X01468491
X01463373
X0141311Y0024165
X013368Y002233
X0132471Y0021291
X012603Y002192
X012641Y002264
X012693Y002282
X012657Y002362
X012421Y002264
X012401Y002501
X01228Y002457
X012056Y002501
X011947Y002565
X011984Y002629
X011865Y002505
X011756Y002401
X011747Y002292
X011863Y002224
X011845Y002123
X01194Y002289
X011998Y002366
X0121175Y002226
X012116Y002164
X01219Y002867
X011868Y002769
X011741
X011614
X011487
X01136
X011233
X011007Y00272
X010779Y002723
X010774Y002518
X010932Y002514
X01090818Y00240575
X011085Y002487
X01123275Y00248
X01146896Y00244596
X01157705Y00245016
X0112Y002177
X0110565Y0022855
X0105215
X010321Y002319
X010319Y002238
X010353Y002405
X01032819Y00262099
X010536Y002724
X009938Y002605
X009767Y002541
X009674Y002607
X009554Y00277
X009528Y002362
X009836Y002238
X009892Y002195
X009911Y002865
X010164Y00342471
X010161Y00364571
X010384Y00354171
X010774Y00394971
X01122113Y0039958
X0112Y00423071
X0110565Y00433921
X011085Y00454071
X01123275Y00453371
X01146896Y00449967
X01157705Y00450387
X011756Y00445471
X011747Y00434571
X011863Y00427771
X011845Y00417671
X011966Y00406871
X011928Y00402471
X012152Y00407971
X012116Y00421771
X0121175Y00427971
X01194Y00434271
X011998Y00441971
X012056Y00455471
X011947Y00461871
X011984Y00468271
X011865Y00455871
X011868Y00482271
X011741
X011614
X011487
X01136
X011233
X011007Y00477371
X010779Y00477671
X010774Y00457171
X010932Y00456771
X01090818Y00445947
X0105215Y00433921
X010321Y00437271
X010319Y00429171
X010353Y00445871
X01032819Y00467471
X010536Y00477771
X009938Y00465871
X009767Y00459471
X009674Y00466071
X009554Y00482371
X009528Y00441571
X009836Y00429171
X009892Y00424871
X009911Y00491871
X010164Y00547843
X010161Y00569943
X010384Y00559543
X010774Y00600343
X01122113Y00604951
X01157Y00605643
X011928Y00607843
X012273Y00599443
X012666Y00600943
X0128Y00570643
X012802Y00548643
X012614Y00559543
X013151Y00600343
X013113Y00604343
X013273Y00598043
X013396Y00604343
X012959Y00479671
X012835Y00466471
X012657Y00441571
X012641Y00431771
X012693Y00433571
X012603Y00424571
X01260531Y00413082
X012693Y00405671
X012666Y00395571
X012273Y00394071
X012421Y00431771
X012401Y00455471
X01228Y00451071
X01219Y00492071
X011499Y00559543
X01157Y00400271
X011499Y00354171
X012614
X012802Y00343271
X0128Y00365271
X013151Y00394971
X013113Y00398971
X013162Y00405071
X013068Y00405471
X013029Y00411871
X013261Y00413371
X0132471Y00418282
X013396Y00415371
X013368Y00428671
X013396Y00398971
X013273Y00392671
X012959Y002743
X012835Y002611
X00917974Y0024948
X009317Y002353
X009375Y002162
X00883Y00343271
X008737Y00354171
X008833Y00366071
X009033Y00394671
X008935Y00406671
X009308Y00407471
X009375Y00421571
X009317Y00440671
X00917974Y00454851
X00883Y00548643
X008737Y00559543
X008833Y00571443
X009033Y00600043
X00805Y00571743
X008153Y00559543
X008042Y00547043
X007589Y00549243
X007492Y00559543
X007592Y00571343
X0075576Y00499041
X0074074Y00484061
X00740758Y00468035
X0072275Y00468031
X0071072
X0069272
X0069269Y00484061
X00677753Y00499045
X0070873Y00499051
X0072475Y00499031
X00722855Y00433371
X00717736
X00712618
X007075
X007021Y00432971
X007066Y00427671
Y00420171
X007003Y00414971
X00700707Y00407269
X007058Y00400271
X006966Y00393271
X006846Y00395171
X006854Y00404471
Y00413471
Y00422471
X006872Y00429471
X0068258Y00434071
X00677392
X00672204
X00667016
X00661828
X0065664
X00651452
X00646264
X00641076
X00635888
X006307
X006234Y00439671
X006236Y00444571
Y00449591
Y00454611
Y00459631
Y00464651
Y00469671
Y00474671
Y00479691
Y00484711
Y00489731
Y00494751
Y00499771
X005605Y00479671
X005675Y00411871
X005714Y00405471
X005808Y00405071
X005759Y00398971
X005797Y00394971
X005919Y00392671
X006042Y00398971
X006093
X00623Y00399271
X006269Y00408371
X006094Y00415471
X006042Y00415371
X005907Y00413371
X0058931Y00418282
X006014Y00428671
X00621975Y00384596
X00637Y00382471
X006476Y00381371
X006721Y00384471
X006747Y00394271
X006646
X006887Y00385271
X006806Y00365871
X006918Y00354071
X006797Y00343471
X00677753Y00293673
X0069269Y0027869
X0069272Y0026266
X0071072
X0072275
X00740758Y00262663
X0074074Y0027869
X0075576Y0029367
X0072475Y0029366
X0070873Y0029368
X007075Y00228
X00712618
X00717736
X00722855
X00727973
X00733091
X00738209
X00743327
X00748445
X00753563
X00758681
X007638
X007021Y002276
X007066Y002223
Y002148
X006854Y002171
X006872Y002241
X0068258Y002287
X00677392
X00672204
X00667016
X00661828
X0065664
X00651452
X00646264
X00641076
X00635888
X006307
X006234Y002343
X006236Y002392
Y0024422
Y0024924
Y0025426
Y0025928
Y002643
Y002693
Y0027432
Y0027934
Y0028436
Y0028938
Y002944
X005605Y002743
X0058931Y0021291
X006014Y002233
X0067771Y0024165
X007589Y00343871
X007492Y00354171
X007592Y00365971
X00805Y00366371
X008153Y00354171
X008042Y00341671
X007638Y00433371
X00758681
X00753563
X00748445
X00743327
X00738209
X00733091
X00727973
X0067771Y00447021
X006797Y00548843
X006918Y00559443
X006806Y00571243
X006721Y00589843
X006747Y00599643
X006646
X006846Y00600543
X006966Y00598643
X006887Y00590643
X007058Y00605643
X006476Y00586743
X00637Y00587843
X00621975Y00589968
X00623Y00604643
X006093Y00604343
X006042
X005919Y00598043
X005797Y00600343
X005759Y00604343
X005312Y00600943
X004919Y00599443
X004574Y00607843
X004216Y00605643
X00386713Y00604951
X00342Y00600343
X00303Y00559543
X002807Y00569943
X00281Y00547843
X002557Y00491871
X002584Y00465871
X002413Y00459471
X00232Y00466071
X0022Y00482371
X002174Y00441571
X001963Y00440671
X002021Y00421571
X001954Y00407471
X001581Y00406671
X001679Y00394671
X00182574Y00454851
X002482Y00429171
X002538Y00424871
X002965Y00429171
X002967Y00437271
X002999Y00445871
X00297419Y00467471
X003182Y00477771
X003425Y00477671
X00342Y00457171
X003578Y00456771
X00355418Y00445947
X003731Y00454071
X00387875Y00453371
X00411496Y00449967
X00422305Y00450387
X004402Y00445471
X004393Y00434571
X004509Y00427771
X004491Y00417671
X004612Y00406871
X004574Y00402471
X004798Y00407971
X004762Y00421771
X0047635Y00427971
X004586Y00434271
X004644Y00441971
X004702Y00455471
X004593Y00461871
X00463Y00468271
X004511Y00455871
X004514Y00482271
X004387
X00426
X004133
X004006
X003879
X003653Y00477371
X0037025Y00433921
X003846Y00423071
X00386713Y0039958
X004216Y00400271
X004145Y00354171
X004133Y002769
X004006
X003879
X003653Y00272
X003425Y002723
X00342Y002518
X003578Y002514
X00355418Y00240575
X003731Y002487
X00387875Y00248
X00411496Y00244596
X00422305Y00245016
X004402Y002401
X004393Y002292
X004509Y002224
X004491Y002123
X004586Y002289
X004644Y002366
X004702Y002501
X004593Y002565
X00463Y002629
X004511Y002505
X004514Y002769
X004387
X00426
X004836Y002867
X004926Y002457
X005047Y002501
X005067Y002264
X005287
X005339Y002282
X005303Y002362
X005249Y002192
X004762Y002164
X0047635Y002226
X003846Y002177
X0037025Y0022855
X0031675
X002967Y002319
X002965Y002238
X002999Y002405
X00297419Y00262099
X003182Y002724
X002584Y002605
X002413Y002541
X00232Y002607
X0022Y00277
X002174Y002362
X001963Y002353
X002021Y002162
X00182574Y0024948
X002482Y002238
X002538Y002195
X002557Y002865
X00281Y00342471
X002807Y00364571
X00303Y00354171
X00342Y00394971
X0031675Y00433921
X005067Y00431771
X005287
X005339Y00433571
X005303Y00441571
X005249Y00424571
X00525131Y00413082
X005339Y00405671
X005312Y00395571
X004919Y00394071
X004926Y00451071
X005047Y00455471
X005481Y00466471
X005448Y00548643
X005446Y00570643
X00526Y00559543
X004836Y00492071
X004145Y00559543
X001679Y00600043
X00526Y00354171
X005448Y00343271
X005446Y00365271
X005481Y002611
X001476Y00343271
X001383Y00354171
X001479Y00366071
X000696Y00366371
X000799Y00354171
X000688Y00341671
Y00547043
X000799Y00559543
X000696Y00571743
X001479Y00571443
X001383Y00559543
X001476Y00548643
Y00754014
X001383Y00764914
X001479Y00776814
X000696Y00777114
X000799Y00764914
X000688Y00752414
Y00957785
X000799Y00970285
X000696Y00982486
X001479Y00982186
X001383Y00970285
X001476Y00959386
X00182574Y00865594
X001963Y00851414
X002174Y00852314
X002021Y00832314
X001954Y00818214
X001581Y00817414
X001679Y00805414
X002482Y00839914
X002538Y00835614
X002584Y00876614
X002413Y00870214
X00232Y00876814
X0022Y00893114
X002557Y00902614
X00297419Y00878213
X002999Y00856614
X002967Y00848014
X002965Y00839914
X0031675Y00844664
X003182Y00888514
X003425Y00888414
X00342Y00867914
X003578Y00867514
X00355418Y0085669
X003731Y00864814
X00387875Y00864114
X00411496Y0086071
X00422305Y0086113
X004402Y00856214
X004393Y00845314
X004509Y00838514
X004491Y00828414
X004612Y00817614
X004574Y00813214
X004798Y00818714
X004762Y00832514
X0047635Y00838714
X004586Y00845014
X004644Y00852714
X004702Y00866214
X004593Y00872614
X00463Y00879014
X004511Y00866614
X004514Y00893014
X004387
X00426
X004133
X004006
X003879
X003653Y00888114
X0037025Y00844664
X003846Y00833814
X00386713Y00810322
X004216Y00811014
X004145Y00764914
X004133Y00687643
X004006
X003879
X003653Y00682743
X003425Y00683043
X00342Y00662543
X003578Y00662143
X00355418Y00651318
X003731Y00659443
X00387875Y00658743
X00411496Y00655339
X00422305Y00655759
X004402Y00650843
X004393Y00639943
X004509Y00633143
X004491Y00623043
X004612Y00612243
X004798Y00613343
X004762Y00627143
X0047635Y00633343
X004586Y00639643
X004644Y00647343
X004702Y00660843
X004593Y00667243
X00463Y00673643
X004511Y00661243
X004514Y00687643
X004387
X00426
X004836Y00697443
X004926Y00656443
X005047Y00660843
X005067Y00637143
X005287
X005339Y00638943
X005303Y00646943
X005249Y00629943
X00525131Y00618453
X005339Y00611043
X005481Y00671843
X005448Y00754014
X005446Y00776014
X00526Y00764914
X005312Y00806314
X005339Y00816414
X00525131Y00823824
X005249Y00835314
X005287Y00842514
X005339Y00844314
X005303Y00852314
X005067Y00842514
X005047Y00866214
X004926Y00861814
X004836Y00902814
X005481Y00877214
X005448Y00959386
X005446Y00981385
X00526Y00970285
X004145
X00303
X002807Y00980686
X00281Y00958586
X002807Y00775314
X00281Y00753214
X00303Y00764914
X00342Y00805714
X003182Y00683143
X00297419Y00672842
X002999Y00651243
X002967Y00642643
X002965Y00634543
X0031675Y00639293
X0037025
X003846Y00628443
X002538Y00630243
X002482Y00634543
X002413Y00664843
X00232Y00671443
X002584Y00671243
X002557Y00697243
X0022Y00687743
X002174Y00646943
X001963Y00646043
X002021Y00626943
X001954Y00612843
X001581Y00612043
X00182574Y00660223
X004919Y00804814
X005797Y00805714
X005759Y00809714
X005808Y00815814
X005714Y00816214
X005675Y00822614
X005907Y00824114
X0058931Y00829025
X006042Y00826114
X006094Y00826214
X006093Y00809714
X006042
X005919Y00803414
X00623Y00810014
X006269Y00819114
X00621975Y00795339
X00637Y00793214
X006476Y00792114
X006721Y00795214
X006747Y00805014
X006646
X006846Y00805914
X006854Y00815214
Y00824214
Y00833214
X006872Y00840214
X0068258Y00844814
X00677392
X00672204
X00667016
X00661828
X0065664
X00651452
X00646264
X00641076
X00635888
X006307
X006234Y00850414
X006236Y00855314
Y00860334
Y00865354
Y00870374
Y00875394
Y00880414
Y00885414
Y00890434
Y00895454
Y00900474
Y00905494
Y00910514
X00677753Y00909787
X0069269Y00894804
X0069272Y00878774
X0071072
X0072275
X00740758Y00878777
X0074074Y00894804
X0075576Y00909784
X0072475Y00909774
X0070873Y00909794
X007075Y00844114
X00712618
X00717736
X00722855
X00727973
X00733091
X00738209
X00743327
X00748445
X00753563
X00758681
X007638
X007021Y00843714
X007066Y00838414
Y00830914
X007003Y00825714
X00700707Y00818012
X007058Y00811014
X006966Y00804014
X006887Y00796014
X006806Y00776614
X006918Y00764814
X006797Y00754214
X00677753Y00704416
X0069269Y00689433
X0069272Y00673403
X0071072
X0072275
X00740758Y00673406
X0074074Y00689433
X0075576Y00704413
X0072475Y00704403
X0070873Y00704423
X007075Y00638743
X00712618
X00717736
X00722855
X00727973
X00733091
X00738209
X00743327
X00748445
X00753563
X00758681
X007638
X007021Y00638343
X007066Y00633043
Y00625543
X007003Y00620343
X00700707Y0061264
X006854Y00609843
Y00618843
Y00627843
X006872Y00634843
X0068258Y00639443
X00677392
X00672204
X00667016
X00661828
X0065664
X00651452
X00646264
X00641076
X00635888
X006307
X006234Y00645043
X006236Y00649943
Y00654963
Y00659983
Y00665003
Y00670023
Y00675043
Y00680043
Y00685063
Y00690083
Y00695103
Y00700123
Y00705143
X005605Y00685043
X005675Y00617243
X005714Y00610843
X005808Y00610443
X005907Y00618743
X0058931Y00623653
X006042Y00620743
X006094Y00620843
X006014Y00634043
X006269Y00613743
X0067771Y00652393
X007589Y00754614
X007492Y00764914
X007592Y00776714
X00805Y00777114
X008153Y00764914
X008042Y00752414
X00883Y00754014
X008737Y00764914
X008833Y00776814
X009033Y00805414
X008935Y00817414
X009308Y00818214
X009375Y00832314
X009317Y00851414
X00917974Y00865594
X00883Y00959386
X008737Y00970285
X008833Y00982186
X00805Y00982486
X008153Y00970285
X008042Y00957785
X007589Y00959986
X007492Y00970285
X007592Y00982085
X006806Y00981985
X006918Y00970185
X006797Y00959585
X006721Y01000585
X006887Y01001385
X006476Y00997486
X00637Y00998586
X00621975Y01000711
X005605Y00890414
X006014Y00839414
X0067771Y00857764
X00917974Y00660223
X009317Y00646043
X009375Y00626943
X009308Y00612843
X008935Y00612043
X009528Y00646943
X009674Y00671443
X009767Y00664843
X009938Y00671243
X009911Y00697243
X009554Y00687743
X009836Y00634543
X009892Y00630243
X010319Y00634543
X010321Y00642643
X010353Y00651243
X01032819Y00672842
X010536Y00683143
X010779Y00683043
X010774Y00662543
X010932Y00662143
X01090818Y00651318
X011085Y00659443
X01123275Y00658743
X01146896Y00655339
X01157705Y00655759
X011756Y00650843
X011747Y00639943
X011863Y00633143
X011845Y00623043
X011966Y00612243
X012152Y00613343
X012116Y00627143
X0121175Y00633343
X01194Y00639643
X011998Y00647343
X012056Y00660843
X011947Y00667243
X011984Y00673643
X011865Y00661243
X011868Y00687643
X011741
X011614
X011487
X01136
X011233
X011007Y00682743
X0110565Y00639293
X0112Y00628443
X0105215Y00639293
X010384Y00764914
X010161Y00775314
X010164Y00753214
X010319Y00839914
X010321Y00848014
X010353Y00856614
X01032819Y00878213
X010536Y00888514
X010779Y00888414
X010774Y00867914
X010932Y00867514
X01090818Y0085669
X011085Y00864814
X01123275Y00864114
X01146896Y0086071
X01157705Y0086113
X011756Y00856214
X011747Y00845314
X011863Y00838514
X011845Y00828414
X011966Y00817614
X011928Y00813214
X012152Y00818714
X012116Y00832514
X0121175Y00838714
X01194Y00845014
X011998Y00852714
X012056Y00866214
X011947Y00872614
X011984Y00879014
X011865Y00866614
X011868Y00893014
X011741
X011614
X011487
X01136
X011233
X011007Y00888114
X0110565Y00844664
X0112Y00833814
X01122113Y00810322
X01157Y00811014
X011499Y00764914
X012614
X012802Y00754014
X0128Y00776014
X012666Y00806314
X012693Y00816414
X01260531Y00823824
X012603Y00835314
X012641Y00842514
X012693Y00844314
X012657Y00852314
X012421Y00842514
X012401Y00866214
X01228Y00861814
X01219Y00902814
X012959Y00890414
X012835Y00877214
X013029Y00822614
X013068Y00816214
X013162Y00815814
X013113Y00809714
X013151Y00805714
X013273Y00803414
X013396Y00809714
Y00826114
X013261Y00824114
X0132471Y00829025
X013368Y00839414
X012273Y00804814
X01219Y00697443
X01228Y00656443
X012401Y00660843
X012421Y00637143
X012641
X012693Y00638943
X012657Y00646943
X012603Y00629943
X01260531Y00618453
X012693Y00611043
X013068Y00610843
X013162Y00610443
X013261Y00618743
X0132471Y00623653
X013396Y00620743
X013368Y00634043
X013029Y00617243
X012835Y00671843
X012959Y00685043
X012802Y00959386
X0128Y00981385
X012614Y00970285
X011499
X010384
X010161Y00980686
X010164Y00958586
X009911Y00902614
X009938Y00876614
X009767Y00870214
X009674Y00876814
X009554Y00893114
X009528Y00852314
X009836Y00839914
X009892Y00835614
X0105215Y00844664
X010774Y00805714
X013447Y00809714
X013584Y00810014
X013623Y00819114
X013448Y00826214
X013588Y00850414
X01359Y00855314
Y00860334
Y00865354
Y00870374
Y00875394
Y00880414
Y00885414
Y00890434
Y00895454
Y00900474
Y00905494
Y00910514
X01413153Y00909787
X0142809Y00894804
X0142812Y00878774
X0144612
X0145815
X01476158Y00878777
X0147614Y00894804
X0149116Y00909784
X0146015Y00909774
X0144413Y00909794
X014429Y00844114
X01448018
X01453136
X01458255
X01463373
X01468491
X01473609
X01478727
X01483845
X01488963
X01494082
X014992
X014375Y00843714
X01442Y00838414
Y00830914
X014357Y00825714
X01436107Y00818012
X014412Y00811014
X01432Y00804014
X0142Y00805914
X014208Y00815214
Y00824214
Y00833214
X014226Y00840214
X0141798Y00844814
X01412792
X01407604
X01402416
X01397228
X0139204
X01386852
X01381664
X01376476
X01371288
X013661
X013724Y00793214
X01383Y00792114
X014075Y00795214
X014101Y00805014
X014
X014241Y00796014
X01416Y00776614
X014272Y00764814
X014151Y00754214
X01413153Y00704416
X0142809Y00689433
X0142812Y00673403
X0144612
X0145815
X01476158Y00673406
X0147614Y00689433
X0149116Y00704413
X0146015Y00704403
X0144413Y00704423
X014429Y00638743
X01448018
X01453136
X01458255
X01463373
X01468491
X01473609
X01478727
X01483845
X01488963
X01494082
X014992
X014375Y00638343
X01442Y00633043
Y00625543
X014357Y00620343
X01436107Y0061264
X014208Y00609843
Y00618843
Y00627843
X014226Y00634843
X0141798Y00639443
X01412792
X01407604
X01402416
X01397228
X0139204
X01386852
X01381664
X01376476
X01371288
X013661
X013588Y00645043
X01359Y00649943
Y00654963
Y00659983
Y00665003
Y00670023
Y00675043
Y00680043
Y00685063
Y00690083
Y00695103
Y00700123
Y00705143
X01357375Y00795339
X0141311Y00857764
X014151Y00959585
X014272Y00970185
X01416Y00981985
X014075Y01000585
X014241Y01001385
X01383Y00997486
X013724Y00998586
X01357375Y01000711
X014946Y00982085
X014846Y00970285
X014943Y00959986
X015396Y00957785
X015507Y00970285
X015404Y00982486
X016187Y00982186
X016091Y00970285
X016184Y00959386
X01653374Y00865594
X016671Y00851414
X016882Y00852314
X016729Y00832314
X016662Y00818214
X016289Y00817414
X016387Y00805414
X016187Y00776814
X016091Y00764914
X016184Y00754014
X015507Y00764914
X015404Y00777114
X015396Y00752414
X014943Y00754614
X014846Y00764914
X014946Y00776714
X0141311Y00652393
X013623Y00613743
X013448Y00620843
X016289Y00612043
X016662Y00612843
X016729Y00626943
X016671Y00646043
X016882Y00646943
X017028Y00671443
X017121Y00664843
X017292Y00671243
X017265Y00697243
X016908Y00687743
X01653374Y00660223
X01719Y00634543
X017246Y00630243
Y00835614
X01719Y00839914
X017121Y00870214
X017028Y00876814
X017292Y00876614
X017265Y00902614
X016908Y00893114
X01768219Y00878213
X017707Y00856614
X017675Y00848014
X017673Y00839914
X0178755Y00844664
X01789Y00888514
X018133Y00888414
X018128Y00867914
X018286Y00867514
X01826218Y0085669
X018439Y00864814
X01858675Y00864114
X01882296Y0086071
X01893105Y0086113
X01911Y00856214
X019101Y00845314
X019217Y00838514
X019199Y00828414
X01932Y00817614
X019282Y00813214
X019506Y00818714
X01947Y00832514
X0194715Y00838714
X019294Y00845014
X019352Y00852714
X01941Y00866214
X019301Y00872614
X019338Y00879014
X019219Y00866614
X019222Y00893014
X019095
X018968
X018841
X018714
X018587
X018361Y00888114
X0184105Y00844664
X018554Y00833814
X01857513Y00810322
X018924Y00811014
X018853Y00764914
X018841Y00687643
X018714
X018587
X018361Y00682743
X018133Y00683043
X018128Y00662543
X018286Y00662143
X01826218Y00651318
X018439Y00659443
X01858675Y00658743
X01882296Y00655339
X01893105Y00655759
X01911Y00650843
X019101Y00639943
X019217Y00633143
X019199Y00623043
X01932Y00612243
X019506Y00613343
X01947Y00627143
X0194715Y00633343
X019294Y00639643
X019352Y00647343
X01941Y00660843
X019301Y00667243
X019338Y00673643
X019219Y00661243
X019222Y00687643
X019095
X018968
X019544Y00697443
X019634Y00656443
X019755Y00660843
X019775Y00637143
X019995
X020047Y00638943
X020011Y00646943
X019957Y00629943
X01995932Y00618453
X020047Y00611043
X020422Y00610843
X020516Y00610443
X020615Y00618743
X0206011Y00623653
X02075Y00620743
X020802Y00620843
X020722Y00634043
X020942Y00645043
X020944Y00649943
Y00654963
Y00659983
Y00665003
Y00670023
Y00675043
Y00680043
Y00685063
Y00690083
Y00695103
Y00700123
Y00705143
X021015Y00639443
X02106688
X02111876
X02117064
X02122252
X0212744
X02132628
X020977Y00613743
X020383Y00617243
X020189Y00671843
X020313Y00685043
X020156Y00754014
X020154Y00776014
X019968Y00764914
X02002Y00806314
X020047Y00816414
X01995932Y00823824
X019957Y00835314
X019995Y00842514
X020047Y00844314
X020011Y00852314
X019775Y00842514
X019755Y00866214
X019634Y00861814
X019544Y00902814
X020313Y00890414
X020189Y00877214
X020383Y00822614
X020422Y00816214
X020516Y00815814
X020467Y00809714
X020505Y00805714
X020627Y00803414
X02075Y00809714
X020801
X020938Y00810014
X020977Y00819114
X020802Y00826214
X02075Y00826114
X020615Y00824114
X0206011Y00829025
X020722Y00839414
X020942Y00850414
X020944Y00855314
Y00860334
Y00865354
Y00870374
Y00875394
Y00880414
Y00885414
Y00890434
Y00895454
Y00900474
Y00905494
Y00910514
X021015Y00844814
X02106688
X02111876
X02117064
X02122252
X0212744
X02132628
X021354Y00805014
X021184Y00792114
X021078Y00793214
X02092775Y00795339
X019627Y00804814
X018128Y00805714
X017738Y00764914
X017515Y00775314
X017518Y00753214
X01768219Y00672842
X017707Y00651243
X017675Y00642643
X017673Y00634543
X0178755Y00639293
X01789Y00683143
X0184105Y00639293
X018554Y00628443
X018853Y00970285
X017738
X017515Y00980686
X017518Y00958586
X019968Y00970285
X020156Y00959386
X020154Y00981385
X02092775Y01000711
X021078Y00998586
X021184Y00997486
X021429Y01000585
X021595Y01001385
X021514Y00981985
X021626Y00970185
X021505Y00959585
X02148553Y00909787
X0216349Y00894804
X0216352Y00878774
X0218152
X0219355
X02211558Y00878777
X0221154Y00894804
X0222656Y00909784
X0219555Y00909774
X0217953Y00909794
X021783Y00844114
X02183418
X02188536
X02193654
X02198773
X02203891
X02209009
X02214127
X02219245
X02224363
X02229482
X022346
X021729Y00843714
X021774Y00838414
Y00830914
X021711Y00825714
X02171507Y00818012
X021766Y00811014
X021674Y00804014
X021554Y00805914
X021562Y00815214
Y00824214
Y00833214
X02158Y00840214
X0215338Y00844814
X02148192
X02143004
X02137816
X0214851Y00857764
X021455Y00805014
X021429Y00795214
X021595Y00796014
X021514Y00776614
X021626Y00764814
X021505Y00754214
X02148553Y00704416
X0216349Y00689433
X0216352Y00673403
X0218152
X0219355
X02211558Y00673406
X0221154Y00689433
X0222656Y00704413
X0219555Y00704403
X0217953Y00704423
X021783Y00638743
X02183418
X02188536
X02193654
X02198773
X02203891
X02209009
X02214127
X02219245
X02224363
X02229482
X022346
X021729Y00638343
X021774Y00633043
Y00625543
X021711Y00620343
X02171507Y0061264
X021562Y00609843
Y00618843
Y00627843
X02158Y00634843
X0215338Y00639443
X02148192
X02143004
X02137816
X0214851Y00652393
X022297Y00754614
X0222Y00764914
X0223Y00776714
X022297Y00959986
X0222Y00970285
X0223Y00982085
X02229482Y01049485
X022346
X02224363
X02219245
X02214127
X02209009
X02203891
X02198773
X02193654
X02188536
X02183418
X021783
X021729Y01049085
X021774Y01043785
Y01036285
X021711Y01031086
X02171507Y01023383
X021766Y01016385
X021674Y01009386
X021554Y01011285
X021562Y01020585
Y01029585
Y01038586
X02158Y01045585
X0215338Y01050185
X02148192
X02143004
X02137816
X0214851Y01063135
X0216352Y01084145
X0216349Y01100175
X02148553Y01115159
X0217953Y01115165
X0219555Y01115145
X0221154Y01100175
X02211558Y01084149
X0219355Y01084145
X0218152
X0222656Y01115155
X021455Y01010386
X021354
X02132628Y01050185
X0212744
X02122252
X02117064
X02111876
X02106688
X021015
X020942Y01055786
X020944Y01060686
Y01065705
Y01070725
Y01075745
Y01080765
Y01085785
Y01090786
Y01095806
Y01100825
Y01105845
Y01110865
Y01115885
X020313Y01095786
X020189Y01082586
X020011Y01057685
X019995Y01047886
X020047Y01049686
X019957Y01040686
X01995932Y01029196
X020047Y01021786
X02002Y01011685
X019627Y01010185
X019506Y01024085
X01947Y01037886
X0194715Y01044085
X019294Y01050386
X019352Y01058085
X01941Y01071585
X019301Y01077986
X019338Y01084386
X019219Y01071985
X01911Y01061585
X019101Y01050686
X019217Y01043885
X019199Y01033785
X01932Y01022986
X019282Y01018586
X018924Y01016385
X01857513Y01015694
X018554Y01039185
X0184105Y01050035
X018439Y01070185
X01858675Y01069485
X01882296Y01066081
X01893105Y01066501
X018968Y01098385
X019095
X019222
X018841
X018714
X018587
X018361Y01093485
X018133Y01093785
X018128Y01073286
X018286Y01072886
X01826218Y01062061
X0178755Y01050035
X017675Y01053385
X017673Y01045285
X017707Y01061985
X01768219Y01083585
X01789Y01093885
X018128Y01011086
X019775Y01047886
X019755Y01071585
X019634Y01067186
X019544Y01108186
X020383Y01027986
X020422Y01021585
X020516Y01021186
X020467Y01015086
X020505Y01011086
X020627Y01008785
X02075Y01015086
X020801
X020938Y01015386
X020977Y01024485
X020802Y01031585
X02075Y01031486
X020615Y01029485
X0206011Y01034396
X020722Y01044786
X017246Y01040985
X01719Y01045285
X017121Y01075585
X017028Y01082186
X017292Y01081985
X017265Y01107986
X016908Y01098485
X016882Y01057685
X016671Y01056786
X016729Y01037685
X016662Y01023586
X016289Y01022785
X016387Y01010786
X01653374Y01070965
X014992Y01049485
X01494082
X01488963
X01483845
X01478727
X01473609
X01468491
X01463373
X01458255
X01453136
X01448018
X014429
X014375Y01049085
X01442Y01043785
Y01036285
X014357Y01031086
X01436107Y01023383
X014412Y01016385
X01432Y01009386
X0142Y01011285
X014208Y01020585
Y01029585
Y01038586
X014226Y01045585
X0141798Y01050185
X01412792
X01407604
X01402416
X01397228
X0139204
X01386852
X01381664
X01376476
X01371288
X013661
X013588Y01055786
X01359Y01060686
Y01065705
Y01070725
Y01075745
Y01080765
Y01085785
Y01090786
Y01095806
Y01100825
Y01105845
Y01110865
Y01115885
X01413153Y01115159
X0142809Y01100175
X0142812Y01084145
X0144612
X0145815
X01476158Y01084149
X0147614Y01100175
X0149116Y01115155
X0146015Y01115145
X0144413Y01115165
X0141311Y01063135
X014101Y01010386
X014
X013584Y01015386
X013623Y01024485
X013448Y01031585
X013447Y01015086
X013396
Y01031486
X013261Y01029485
X0132471Y01034396
X013162Y01021186
X013068Y01021585
X013029Y01027986
X013113Y01015086
X013151Y01011086
X013273Y01008785
X013368Y01044786
X012693Y01049686
X012641Y01047886
X012603Y01040686
X01260531Y01029196
X012693Y01021786
X012666Y01011685
X012273Y01010185
X012152Y01024085
X012116Y01037886
X0121175Y01044085
X01194Y01050386
X011998Y01058085
X012056Y01071585
X011947Y01077986
X011984Y01084386
X011865Y01071985
X011756Y01061585
X011747Y01050686
X011863Y01043885
X011845Y01033785
X011966Y01022986
X011928Y01018586
X01157Y01016385
X01122113Y01015694
X0112Y01039185
X0110565Y01050035
X011085Y01070185
X01123275Y01069485
X01146896Y01066081
X01157705Y01066501
X011614Y01098385
X011741
X011868
X011487
X01136
X011233
X011007Y01093485
X010779Y01093785
X010774Y01073286
X010932Y01072886
X01090818Y01062061
X0105215Y01050035
X010321Y01053385
X010319Y01045285
X010353Y01061985
X01032819Y01083585
X010536Y01093885
X009938Y01081985
X009767Y01075585
X009674Y01082186
X009554Y01098485
X009528Y01057685
X009836Y01045285
X009892Y01040985
X009911Y01107986
X010774Y01011086
X012421Y01047886
X012401Y01071585
X01228Y01067186
X012657Y01057685
X012835Y01082586
X012959Y01095786
X01219Y01108186
X00917974Y01070965
X009317Y01056786
X009375Y01037685
X009308Y01023586
X008935Y01022785
X009033Y01010786
X007638Y01049485
X00758681
X00753563
X00748445
X00743327
X00738209
X00733091
X00727973
X00722855
X00717736
X00712618
X007075
X007021Y01049085
X007066Y01043785
Y01036285
X007003Y01031086
X00700707Y01023383
X007058Y01016385
X006966Y01009386
X006846Y01011285
X006854Y01020585
Y01029585
Y01038586
X006872Y01045585
X0068258Y01050185
X00677392
X00672204
X00667016
X00661828
X0065664
X00651452
X00646264
X00641076
X00635888
X006307
X006234Y01055786
X006236Y01060686
Y01065705
Y01070725
Y01075745
Y01080765
Y01085785
Y01090786
Y01095806
Y01100825
Y01105845
Y01110865
Y01115885
X00677753Y01115159
X0069269Y01100175
X0069272Y01084145
X0071072
X0072275
X00740758Y01084149
X0074074Y01100175
X0075576Y01115155
X0072475Y01115145
X0070873Y01115165
X0067771Y01063135
X006747Y01010386
X006646
X00623Y01015386
X006269Y01024485
X006094Y01031585
X006042Y01031486
X005907Y01029485
X0058931Y01034396
X005808Y01021186
X005714Y01021585
X005675Y01027986
X005759Y01015086
X005797Y01011086
X005919Y01008785
X006042Y01015086
X006093
X006014Y01044786
X005605Y01095786
X005481Y01082586
X005303Y01057685
X005287Y01047886
X005339Y01049686
X005249Y01040686
X00525131Y01029196
X005339Y01021786
X005312Y01011685
X004919Y01010185
X004798Y01024085
X004762Y01037886
X0047635Y01044085
X004586Y01050386
X004644Y01058085
X004702Y01071585
X004593Y01077986
X00463Y01084386
X004511Y01071985
X004402Y01061585
X004393Y01050686
X004509Y01043885
X004491Y01033785
X004612Y01022986
X004574Y01018586
X004216Y01016385
X00386713Y01015694
X003846Y01039185
X0037025Y01050035
X003731Y01070185
X00387875Y01069485
X00411496Y01066081
X00422305Y01066501
X00426Y01098385
X004387
X004514
X004133
X004006
X003879
X003653Y01093485
X003425Y01093785
X00342Y01073286
X003578Y01072886
X00355418Y01062061
X0031675Y01050035
X002967Y01053385
X002965Y01045285
X002999Y01061985
X00297419Y01083585
X003182Y01093885
X002584Y01081985
X002413Y01075585
X00232Y01082186
X0022Y01098485
X002174Y01057685
X001963Y01056786
X002021Y01037685
X001954Y01023586
X001581Y01022785
X001679Y01010786
X00182574Y01070965
X002482Y01045285
X002538Y01040985
X002557Y01107986
X00342Y01011086
X005067Y01047886
X005047Y01071585
X004926Y01067186
X004836Y01108186
T02
X0003Y0005
X0227Y0003
Y012224
X0003
M30
